<svg width="1736" height="538" viewBox="0 0 1736 538" fill="none" xmlns="http://www.w3.org/2000/svg">
<path fill-rule="evenodd" clip-rule="evenodd" d="M308.2 535.224C478.415 535.224 616.401 415.41 616.401 267.612C616.401 119.814 478.415 0 308.2 0C137.986 0 0 119.814 0 267.612C0 415.41 137.986 535.224 308.2 535.224ZM28.5655 266.985C28.5655 185.682 96.6738 121.709 176.163 128.349L237.549 133.478C247.873 134.34 258.247 134.355 268.575 133.521L338.044 127.916C417.515 121.503 485.478 185.516 485.478 266.785C485.478 343.718 424.296 406.088 348.827 406.088H165.018C89.6574 406.088 28.5655 343.809 28.5655 266.985ZM128.783 211.493C120.016 206.843 109.184 210.274 104.592 219.179C99.9966 228.087 103.397 239.081 112.169 243.736L149.292 263.434L111.11 283.38C102.309 287.977 98.8407 298.949 103.381 307.887C107.917 316.82 118.727 320.324 127.523 315.729L196.426 279.734C202.374 276.626 206.125 270.414 206.147 263.618C206.168 256.821 202.454 250.585 196.527 247.439L128.783 211.493ZM295.209 241.442C282.957 241.239 273.36 251.492 273.164 263.689C272.968 275.886 282.228 286.454 294.48 286.658L372.671 287.958C384.924 288.161 394.52 277.908 394.717 265.711C394.913 253.512 385.653 242.946 373.401 242.742L295.209 241.442Z" fill="#0C1930"/>
<path d="M964.509 234.995C930.669 214.386 885.549 211.732 841.297 241.983V134.071V131.771H839.041H782.381H780.125V134.071V341.404C780.125 387.489 799.821 428.177 843.987 448.079C866.026 457.986 892.924 461.966 918.782 458.693C944.639 455.42 969.628 444.718 987.416 425.081C1008.93 401.376 1019.61 372.363 1019.61 338.309C1021.86 296.028 999.13 256.136 964.509 234.995ZM941.602 382.889C930.669 394.211 916.699 399.872 899.692 399.872C882.686 399.872 868.803 394.211 857.783 382.889C846.85 371.302 841.297 356.441 841.297 338.22C841.297 319.999 846.85 305.316 857.783 293.994C868.716 282.406 882.686 276.568 899.692 276.568C916.699 276.568 930.582 282.406 941.602 293.994C952.795 305.316 958.522 319.999 958.522 338.22C958.522 356.441 952.882 371.302 941.602 382.889Z" fill="#0C1930"/>
<path d="M1055.18 451.705V454.004H1057.44H1114.1H1116.36V451.705V120.448V118.148H1114.1H1057.44H1055.18V120.448V451.705Z" fill="#0C1930"/>
<path d="M1167.89 188.743C1175.35 196.173 1184.11 199.888 1194.09 199.888C1204.33 199.888 1213.09 196.173 1220.3 188.743C1227.76 181.048 1231.49 172.025 1231.49 161.765C1231.49 151.416 1227.76 142.394 1220.3 134.787C1213.18 127.003 1204.42 123.111 1194.09 123.111C1184.11 123.111 1175.35 127.003 1167.89 134.698C1160.77 142.394 1157.13 151.416 1157.13 161.676C1157.13 172.025 1160.77 181.048 1167.89 188.743Z" fill="#0C1930"/>
<path d="M1163.73 451.71V454.01H1165.99H1222.65H1224.9V451.71V224.828V222.528H1222.65H1165.99H1163.73V224.828V451.71Z" fill="#0C1930"/>
<path d="M1479.74 454.002H1481.99V451.702V312.389C1481.99 282.58 1473.92 258.963 1457.61 241.803C1441.64 224.644 1421.25 216.152 1396.7 216.152C1369.02 216.152 1347.85 225.086 1333.44 243.219V224.82V222.521H1331.19H1274.53H1272.27V224.82V451.702V454.002H1274.53H1331.19H1333.44V451.702V329.195C1333.44 310.797 1337.78 297.352 1346.02 288.595C1354.35 279.75 1365.37 275.239 1379.52 275.239C1392.19 275.239 1402.16 279.131 1409.54 286.826C1416.92 294.168 1420.73 304.959 1420.73 319.642V451.702V454.002H1422.99H1479.74Z" fill="#0C1930"/>
<path d="M1730.68 453.998H1735.36L1732.41 450.195L1642.61 336.886L1729.81 226.231L1732.76 222.516H1728.08H1660.4H1659.27L1658.57 223.401L1587.08 317.869V134.063V131.764H1584.82H1528.16H1525.9V134.063V451.698V453.998H1528.16H1584.82H1587.08V451.698V355.284L1663 453.113L1663.69 453.998H1664.73H1730.68Z" fill="#0C1930"/>
</svg>
