<svg width="1440" height="367" viewBox="0 0 1440 367" fill="none" xmlns="http://www.w3.org/2000/svg">
<g clip-path="url(#clip0_145_3500)">
<path d="M590.098 303.426C525.209 303.426 476.784 255.251 476.784 187.353C476.784 119.132 525.209 70.9569 589.453 70.9569C644.657 70.9569 678.88 103.613 692.111 143.058L659.185 156.314C648.853 123.982 625.935 103.613 588.808 103.613C544.253 103.613 511.649 137.561 511.649 187.353C511.649 237.145 544.253 270.77 589.453 270.77C626.256 270.77 648.853 250.725 659.185 218.069L692.111 231.325C678.553 271.741 644.979 303.426 590.098 303.426Z" fill="black"/>
<path d="M720.665 299.546V63.1975H754.887V299.546H720.665Z" fill="black"/>
<path d="M876.384 303.426C824.087 303.426 786.957 265.274 786.957 214.512C786.957 163.427 824.087 125.598 876.384 125.598C929.007 125.598 966.129 163.427 966.129 214.512C966.129 265.274 929.007 303.426 876.384 303.426ZM876.708 272.71C909.313 272.71 931.912 248.461 931.912 214.512C931.912 180.24 909.634 155.991 876.708 155.991C843.779 155.991 821.179 180.24 821.179 214.512C821.179 248.138 843.779 272.71 876.708 272.71Z" fill="black"/>
<path d="M1111.23 129.155H1146.74L1079.59 299.546H1040.52L973.376 129.155H1008.89L1060.22 266.89L1111.23 129.155Z" fill="black"/>
<path d="M1186.53 225.828C1191.7 254.927 1213.98 273.033 1242.71 273.033C1268.21 273.033 1282.41 263.657 1290.16 245.874L1318.25 263.657C1305.34 286.29 1282.41 303.426 1241.74 303.426C1188.15 303.426 1152.64 265.274 1152.64 214.512C1152.64 165.044 1191.05 125.275 1239.16 125.275C1291.78 125.275 1324.38 166.661 1324.38 210.632C1324.38 216.452 1324.06 222.595 1323.74 225.828H1186.53ZM1186.86 199.639H1290.81C1286.29 170.863 1266.6 153.081 1240.45 153.081C1213.98 153.081 1192.02 170.217 1186.86 199.639Z" fill="black"/>
<path d="M1387.58 150.818C1398.88 136.268 1417.6 125.275 1439.88 125.275V157.284C1409.53 157.607 1389.51 175.713 1389.51 199.639V299.546H1355.29V129.155H1387.58V150.818Z" fill="black"/>
<path d="M80.3424 360.298C40.6884 360.298 8.42664 327.881 8.42664 288.037C8.42664 269.222 15.7996 253.837 30.9551 241C44.1212 229.868 60.798 222.597 76.8513 216.423C87.4815 212.327 101.369 207.251 114.457 204.252C146.68 196.903 169.033 167.386 167.531 134.225C166.888 120.095 168.097 103.631 171.101 85.287C174.943 61.8859 184.384 41.5421 198.389 26.4707C213.992 9.67445 234.122 0.796158 256.651 0.796158C303.893 0.796158 342.338 39.4059 342.338 86.894C342.338 109.06 333.521 127.189 315.363 142.3C299.952 155.137 279.764 164.133 260.415 172.227C244.538 178.872 230.572 183.183 218.888 185.065C188.441 189.964 165.035 214.777 161.797 245.586C161.601 247.448 161.348 249.368 161.075 251.309C158.968 265.538 155.067 279.885 151.888 290.762C138.468 336.878 114.418 360.259 80.3618 360.259L80.3424 360.298Z" fill="url(#paint0_linear_145_3500)"/>
<path d="M273.19 366.335C228.933 366.335 202.133 329.352 193.063 285.822C188.869 265.675 181.984 231.749 193.979 217.677C208.667 200.431 250.291 203.958 273.19 205.31C317.37 207.937 353.318 241.353 353.318 285.822C353.318 330.293 317.448 366.335 273.19 366.335Z" fill="url(#paint1_linear_145_3500)"/>
<path d="M67.7027 173.717C30.9938 166.504 0 143.26 0 105.689C0 68.1181 30.3112 37.6615 67.7027 37.6615C105.094 37.6615 125.419 69.4706 135.406 105.689C140.204 123.113 149.84 159.9 138.253 172.11C125.926 185.104 89.4902 177.989 67.7027 173.717Z" fill="url(#paint2_linear_145_3500)"/>
</g>
<defs>
<linearGradient id="paint0_linear_145_3500" x1="1.34221" y1="58.248" x2="316.376" y2="378.744" gradientUnits="userSpaceOnUse">
<stop stop-color="#08EB99"/>
<stop offset="1" stop-color="#36BFBF"/>
</linearGradient>
<linearGradient id="paint1_linear_145_3500" x1="1.34222" y1="58.248" x2="316.376" y2="378.743" gradientUnits="userSpaceOnUse">
<stop stop-color="#08EB99"/>
<stop offset="1" stop-color="#36BFBF"/>
</linearGradient>
<linearGradient id="paint2_linear_145_3500" x1="1.34214" y1="58.248" x2="316.376" y2="378.744" gradientUnits="userSpaceOnUse">
<stop stop-color="#08EB99"/>
<stop offset="1" stop-color="#36BFBF"/>
</linearGradient>
<clipPath id="clip0_145_3500">
<rect width="1440" height="365.538" fill="white" transform="translate(0 0.796158)"/>
</clipPath>
</defs>
</svg>
