<?xml version="1.0" encoding="utf-8"?>
<!-- Generator: Adobe Illustrator 24.3.0, SVG Export Plug-In . SVG Version: 6.00 Build 0)  -->
<svg version="1.1" id="Layer_1" xmlns="http://www.w3.org/2000/svg" xmlns:xlink="http://www.w3.org/1999/xlink" x="0px" y="0px"
	 viewBox="0 0 1226.99 248.84" style="enable-background:new 0 0 1226.99 248.84;" xml:space="preserve">
<style type="text/css">
	.st0{fill:#C4C4C4;}
	.st1{fill:#FF2904;}
	.st2{fill:#7E8187;}
	.st3{fill:#101D30;}
	.st4{fill:#7C8289;}
</style>
<g>
	<g>
		<path d="M246.82,182.14l-0.07-131.28c0,0,40.16-1.12,58.91,1.25c56.61,4.6,74.75,84.96,29.69,116.9
			C310.18,188.16,275.99,180.86,246.82,182.14z M271.44,159.07c27.6,2.48,60.07-1.98,63.37-38.22c3.38-43.1-30.38-51.22-63.21-47.97
			L271.44,159.07z"/>
		<path d="M945.5,86.19c11.02-5.91,24.82-5.62,35.96-0.14c9.98,4.97,14.88,13.92,15.66,24.77c1.68,22.71-0.15,49.03,0.94,71.25
			h-23.73c-0.61-19.05-0.4-43.68-0.7-61.83c-0.3-11.55-5.98-17.13-15.81-16.85c-12.14,0.34-19.61,7.55-19.69,18.41
			c-0.14,18.24-0.05,60.26-0.05,60.26h-23.12c0,0-0.04-41.02-0.01-58.76c0.51-13.86-9.5-24.78-25.13-18.12
			c-7.54,2.73-11.6,8.17-11.69,16.46c-0.19,18.37-0.28,56.32-0.28,60.43h-23.52V83.88h23.15l0.06,16.89
			c7.88-22.91,43.33-26.16,55.28-2.86C937.28,91.39,939.6,89.33,945.5,86.19z"/>
		<path d="M578.43,83.36c0,0,15.62,0.13,23.75,0.13c0,4.28-0.11,9.91-0.11,15c17.91-27.95,64.53-19.66,74.25,12.04
			c20.81,50.48-38.3,101.36-73.43,56.25l-0.18,50.01h-23.86L578.43,83.36z M602.83,128.22c-5.85,29.61,33.76,46.6,49.27,20.98
			C673.02,106.44,611.73,79.91,602.83,128.22z"/>
		<path d="M1015.89,83.54c0,0,15.62,0.13,23.75,0.13c0,4.28-0.11,9.91-0.11,15c17.91-27.95,64.53-19.66,74.25,12.04
			c20.81,50.48-38.3,101.36-73.43,56.25l-0.18,50.01h-23.86L1015.89,83.54z M1040.29,128.39c-5.85,29.61,33.76,46.6,49.27,20.98
			C1110.48,106.62,1049.19,80.08,1040.29,128.39z"/>
		<path d="M1226.99,132.72c1.85,66.09-100.41,68.94-101.02,0.31C1124.92,66.39,1228.44,63.95,1226.99,132.72z M1203.14,133.58
			c-0.34-45.13-61.02-35.98-51.79,6.73C1158.05,174.1,1204.12,164.74,1203.14,133.58z"/>
		<path d="M840.04,118.89c-26.31-80.26-123.62-17.74-86.62,43.15c16.2,28.2,69,31.45,83.28-1.49c0.21-0.53,2.08-5.29,1.89-5.35
			c-0.02-0.01-20.7-6.26-20.7-6.26c-2.81,19.89-46.29,24.36-47.97-10.16l71.8,0.05C842.23,132.95,841.56,124.7,840.04,118.89z
			 M770.58,124.8c-1.15-25.7,45.3-34.43,47.17,0H770.58z"/>
		<path d="M564.71,118.88c-26.31-80.26-123.62-17.74-86.62,43.15c16.2,28.2,69,31.45,83.28-1.49c0.21-0.53,2.08-5.29,1.89-5.35
			c-0.02-0.01-20.7-6.26-20.7-6.26c-2.81,19.89-46.29,24.36-47.97-10.16l71.8,0.05C566.9,132.94,566.23,124.69,564.71,118.88z
			 M495.25,124.79c-1.15-25.7,45.3-34.43,47.17,0H495.25z"/>
		<path d="M462.14,118.79c-26.31-80.26-123.62-17.74-86.62,43.15c16.2,28.2,69,31.45,83.28-1.49c0.21-0.53,2.08-5.29,1.89-5.35
			c-0.02-0.01-20.7-6.26-20.7-6.26c-2.81,19.89-46.29,24.36-47.97-10.16l71.8,0.05C464.33,132.84,463.66,124.6,462.14,118.79z
			 M392.68,124.7c-1.15-25.7,45.3-34.43,47.17,0H392.68z"/>
		<path d="M675.38,72.82c12.64-0.05,32.2-0.02,32.2-0.02l0.09,108.77c8.88,0,16.92,0,25.37,0V72.79l41.9,0V51.06H664.97l0.01,21.75
			L675.38,72.82z"/>
	</g>
	<g>
		<g>
			<g>
				<path class="st0" d="M160.9,86.63L160.9,86.63c-0.03,0-42.01,0.77-42.06,0.77l0-0.01c18.64-0.54,56.92-0.9,75.38-0.29
					c0.48-27.49-0.71-57.01-0.53-86.82C131.38,0.19,62.27,0.1,0,0c0.08,14.6,0.16,30.03,0.57,44.88l0.04,0
					c0.43,15,1.16,30.02,2.47,43.9l35.87-0.72c0,0,0,0.01,0,0.01L3.1,88.78c0.12,1.75,1.45,19.43,6.03,39.62l-0.01,0
					c1.38,6.12,3.07,12.49,5.1,18.71c3.85,1.77,8.69,3.93,12.79,5.78c-4.12-1.85-8.97-4.01-12.84-5.8
					c6.08,29.04,47.05,82,84.88,101.65c17.37-8.54,32.99-20.03,45.84-33.82l0.01,0c14.42-15.81,26.77-34.23,36.08-53.93
					c-7.41,3.8-20.87,7.29-20.87,7.29c0,0,0-0.01,0-0.01c0.03-0.01,13.47-3.48,20.87-7.28c4.49-10.08,7.52-20.49,9.54-31.56h0.1
					c2.37-13.02,3.35-26.95,3.66-42.32C194.26,87.1,160.95,86.63,160.9,86.63z M79.08,87.6c0,0-0.06,0-0.06,0c0,0,0.04,0,0.05,0
					l-0.96-41.54L79.08,87.6z M47.52,161.7c-3.52-1.43-7.22-3-10.75-4.53c4.38,1.9,8.91,3.81,13.3,5.55l-5.36-33.79l0.02,0
					l5.36,33.8C49.28,162.4,48.42,162.07,47.52,161.7z M38.93,87.68L38.93,87.68L79,87.47v0L38.93,87.68z M94.12,209.12
					c-18.39-3.3-32.13-8.45-32.13-8.45l0,0C62.41,200.83,76.02,205.86,94.12,209.12L94.12,209.12z M87.23,169.59h0.01
					c0,0.01,0.02,0.1,0.03,0.18h-0.01C87.24,169.66,87.23,169.59,87.23,169.59z M82.67,128.68l-3.6-40.46h-0.5v-0.27h-0.54
					c0-0.01-0.02-0.32-0.02-0.34h0c0,0.03,0.02,0.31,0.02,0.33h0.54v0.27h0.5l3.6,40.46l40.8,0.25l0,0.01L82.67,128.68z
					 M116.93,208.55l-16.74,18.51c0-0.01-0.01-0.01-0.01-0.02l16.73-18.5l9.98,2.27L116.93,208.55z"/>
				<path class="st0" d="M96.48,247.14c-0.22-0.14-0.44-0.26-0.65-0.41c1.08,0.71,2.18,1.41,3.29,2.11
					C98.23,248.26,97.37,247.72,96.48,247.14z"/>
			</g>
		</g>
		<g>
			<path d="M155.75,4.92l0.22,42.1l-38.68,0.74l-0.93-42.78l-38-0.05l0.22,42.79c0,0-40.46-0.02-40.46-0.02
				c0.04,0.48,3,41.28,3.04,41.74L6.64,90.13C4.08,62.81,3.81,32.49,3.67,4.7C51.55,4.77,107.78,4.86,155.75,4.92z"/>
			<path d="M157.52,168.74l-7.48,34.87c-2.27,2.78-4.24,4.98-6.93,7.89l-26.94-6.13l-16.11,17.81c-2.36-4.25-5.7-16.83-5.82-17.26
				c-17.7-3.18-30.94-8.13-30.94-8.13l-7.71-28.99c0.46,0,32.08,0.09,32.52,0.09c-0.06-0.37-0.11-0.62-0.12-0.73h-0.13
				c0-0.06-0.02-0.21-0.03-0.28c0.18-0.02,35.19-0.66,35.39-0.67c0.01,0.5,0.01,1.08,0.02,1.59L157.52,168.74z"/>
			<path d="M51.86,161.28c-11.53-4.59-23.38-9.98-34.51-15.03c-1.96-5.98-3.59-12.11-4.91-18c0.53,0,31.85,0.32,32.36,0.31
				l0.02,0.18l1.88,0.01L51.86,161.28z"/>
			<path d="M122.48,128.75l-39.26-0.24l-3.46-38.93h-0.48v-0.26h-0.52c0-0.01-0.02-0.31-0.02-0.33h1.02l-0.93-39.97l38.28-0.64
				c0.03,0.25,0.87,40.44,0.95,40.65C118.85,95.86,122.07,122.38,122.48,128.75z"/>
			<path d="M160.1,128.89L160.1,128.89c-0.02-0.43-0.03-0.87-0.06-1.31C160.06,128.02,160.08,128.46,160.1,128.89z"/>
			<path d="M187.01,129.23c-1.94,10.65-4.86,20.67-9.18,30.37c-7.13,3.67-20.08,7.01-20.08,7.01c2.15-14.48,3.09-37.08,3.09-37.08
				L187.01,129.23z"/>
			<path d="M190.56,88.39v0.12c-0.07,0-32.07-0.46-32.13-0.46l-1.89-41.03l33.83-1.47C190.6,61.16,190.83,75.32,190.56,88.39z"/>
			<g>
				<g>
					<path class="st1" d="M88.16,168.89h-0.04c-0.06-0.37-0.11-0.62-0.12-0.73h-0.13c0-0.06-0.02-0.21-0.03-0.28l0.22-0.01
						C88.08,168.06,88.14,168.68,88.16,168.89z"/>
				</g>
				<path class="st1" d="M38.13,47.7L4.22,47.89C3.82,33.6,3.75,18.74,3.67,4.7c8.49,0.01,24.98,0.04,33.41,0.05L38.13,47.7z"/>
				<path class="st1" d="M158.54,91.45c0-0.02,0-0.04-0.01-0.05c0-0.1-0.01-0.19-0.01-0.28C158.53,91.23,158.53,91.34,158.54,91.45z
					"/>
				<path class="st1" d="M190.56,88.51c-0.32,14.79-1.27,28.17-3.55,40.72l-26.17,0.31c0,0-0.94,22.6-3.09,37.08
					c0,0,12.95-3.35,20.08-7.01c-7.15,15.56-17.45,31.01-27.81,44l7.48-34.87l-34.27,0.06c-0.01-0.51-0.01-1.08-0.02-1.59
					c0,0-0.76-37.71-0.76-37.71c0.07,0,37.4-0.42,37.5-0.42l-0.01-0.18h0.15c-0.38-9.31-1.57-40.68-1.6-40.84L190.56,88.51z"/>
				<path class="st1" d="M44.81,128.57c-0.49,0.01-31.85-0.31-32.36-0.31c-4.4-19.43-5.68-36.45-5.8-38.13l34.52-0.68
					C41.52,98.14,43.8,119.69,44.81,128.57z"/>
				<path class="st1" d="M190.37,45.55l-33.83,1.47l1.89,41.03l-40.4,0.74l-0.92-40.41l-38.28,0.64l0.92,39.97H79.7
					c0-0.02-0.01-0.1-0.01-0.12l-38.57,0.2c0,0-3-41.37-3-41.37c0,0,40.46,0.02,40.46,0.02L78.36,4.93l38,0.05l0.93,42.78
					l38.68-0.74l-0.22-42.1c0.65,0,33.66,0.05,34.3,0.05C190,19.56,190.18,32.99,190.37,45.55z"/>
				<path class="st1" d="M79.77,89.31c-0.27,0-0.74,0.02-1.01,0.01c0-0.01-0.02-0.31-0.02-0.33h1.02L79.77,89.31z"/>
				<path class="st1" d="M158.54,91.45v0.11c0-0.14-0.02-0.3-0.02-0.44C158.53,91.23,158.53,91.34,158.54,91.45z"/>
				<path class="st1" d="M160.1,128.89L160.1,128.89c-0.02-0.43-0.03-0.87-0.06-1.31C160.06,128.02,160.08,128.46,160.1,128.89z"/>
				<path class="st1" d="M190.63,88.51c-0.3,14.79-1.24,28.19-3.52,40.72h-0.1c2.28-12.55,3.23-25.93,3.55-40.72H190.63z"/>
				<path class="st1" d="M143.11,211.49c-12.37,13.27-27.4,24.33-44.12,32.55c-36.38-18.87-75.87-69.91-81.68-97.81
					c11.15,5.07,23.02,10.45,34.57,15.06l-5.16-32.52l36.25,0.29l4.38,39h0.31c-0.02-0.11-0.03-0.17-0.03-0.17h0.22
					c0.01,0.07,0.03,0.21,0.03,0.28h0.13c0.01,0.11,0.06,0.36,0.12,0.73c-0.41,0-32.12-0.09-32.52-0.09l7.71,28.99
					c0,0,13.23,4.95,30.94,8.13c0.11,0.43,3.46,13.01,5.82,17.26l16.11-17.81L143.11,211.49z"/>
				<g>
					<path class="st1" d="M88.16,168.89h-0.04c-0.06-0.37-0.11-0.62-0.12-0.73h-0.13c0-0.06-0.02-0.21-0.03-0.28l0.22-0.01
						C88.08,168.06,88.14,168.68,88.16,168.89z"/>
				</g>
				<g>
					<path class="st1" d="M99.05,244.15c-1.07-0.67-2.13-1.35-3.17-2.03C96.95,242.79,97.98,243.46,99.05,244.15z"/>
				</g>
				<path class="st1" d="M38.13,47.7L4.22,47.89C3.82,33.6,3.75,18.74,3.67,4.7c8.49,0.01,24.98,0.04,33.41,0.05L38.13,47.7z"/>
			</g>
			<g>
				<path class="st2" d="M79.28,89.28v0.04h-0.52c0-0.01-0.02-0.31-0.02-0.33h0.53L79.28,89.28z"/>
				<path class="st2" d="M122.48,128.75l-39.26-0.24l-3.46-38.93l38.3-0.55C118.86,95.94,122.07,122.33,122.48,128.75z"/>
				<path class="st3" d="M79.28,89.58v-0.26h-0.52c0-0.01-0.02-0.31-0.02-0.33h0.97c0.02,0.17,0.04,0.42,0.05,0.59H79.28z"/>
				<path class="st3" d="M122.6,129.5l37.36-0.42l-0.01-0.18h0.14c-0.35-9.31-1.57-40.68-1.59-40.84c-0.03,0-40.42,0.74-40.47,0.74
					c0.82,7.05,4.02,33.37,4.45,39.96l-39.26-0.24l-3.46-38.93h-0.48v-0.26h-0.52c0-0.01-0.02-0.31-0.02-0.33l0.97-0.01
					c0-0.02-0.01-0.1-0.01-0.12l-38.57,0.2c0.39,9.02,2.64,30.49,3.69,39.69l1.88,0.01l36.25,0.29l4.38,39h0.31
					c-0.02-0.11-0.03-0.17-0.03-0.17c0.58-0.02,35.05-0.66,35.61-0.67l-0.76-37.71L122.6,129.5z M158.54,91.45v0.11
					c0-0.14-0.02-0.3-0.02-0.44C158.53,91.23,158.53,91.34,158.54,91.45z"/>
				<path class="st3" d="M158.54,91.45v0.11c0-0.14-0.02-0.3-0.02-0.44C158.53,91.23,158.53,91.34,158.54,91.45z"/>
				<path class="st3" d="M160.1,129.08c-0.13,0-37.41,0.49-37.55,0.49l-0.01-0.08c0.03,0,37.38-0.42,37.42-0.42l-0.01-0.18h0.14
					C160.1,128.95,160.1,129.02,160.1,129.08z"/>
				<path class="st3" d="M118.06,89.03c-0.48,0-38.34,0.56-38.78,0.55c0-0.15,0-0.44-0.01-0.59h0.49l-0.93-39.97l38.28-0.64
					C117.14,48.62,117.98,88.82,118.06,89.03z"/>
				<path class="st3" d="M123.24,167.56c-0.57,0-35.04,0.49-35.59,0.48c-0.02-0.11-0.03-0.17-0.03-0.17
					c0.58-0.02,35.05-0.66,35.61-0.67l-0.76-37.71h0.14C122.61,129.53,123.24,167.5,123.24,167.56z"/>
				<path class="st4" d="M123.24,168.19c0.08,15.01-7.07,37.17-7.07,37.17l-21.92,0.56c-1.01-7.18-5.54-32-6.63-38.05
					c0.58-0.02,35.05-0.66,35.61-0.67C123.23,167.53,123.24,167.86,123.24,168.19z"/>
			</g>
			<path class="st3" d="M118.87,89.02"/>
			<path class="st3" d="M118.87,89.02"/>
		</g>
	</g>
</g>
</svg>
