<svg width="540" height="100" viewBox="0 0 540 100" fill="none" xmlns="http://www.w3.org/2000/svg">
<path d="M152 98.7013C150.895 98.7013 150 97.8059 150 96.7013V4.5974C150 3.49284 150.895 2.59741 152 2.59741H212.682C213.786 2.59741 214.682 3.49284 214.682 4.59741V13.8442C214.682 14.9487 213.786 15.8442 212.682 15.8442H167.196C166.092 15.8442 165.196 16.7396 165.196 17.8442V43.3247C165.196 44.4292 166.092 45.3247 167.196 45.3247H206.707C207.812 45.3247 208.707 46.2201 208.707 47.3247V56.4416C208.707 57.5461 207.812 58.4416 206.707 58.4416H167.196C166.092 58.4416 165.196 59.337 165.196 60.4416V96.7013C165.196 97.8059 164.301 98.7013 163.196 98.7013H152Z" fill="black"/>
<path d="M249.745 100C242.212 100 235.847 98.3117 230.652 94.9351C225.543 91.5584 221.647 87.1429 218.963 81.6883C216.365 76.2338 215.066 70.4329 215.066 64.2857C215.066 58.1385 216.365 52.3377 218.963 46.8831C221.647 41.4286 225.543 37.013 230.652 33.6364C235.847 30.2597 242.212 28.5714 249.745 28.5714C257.191 28.5714 263.469 30.2597 268.578 33.6364C273.773 37.013 277.67 41.4286 280.267 46.8831C282.951 52.3377 284.294 58.1385 284.294 64.2857C284.294 70.4329 282.951 76.2338 280.267 81.6883C277.67 87.1429 273.773 91.5584 268.578 94.9351C263.469 98.3117 257.191 100 249.745 100ZM249.745 87.4026C253.988 87.4026 257.538 86.3204 260.395 84.1558C263.339 81.9913 265.547 79.1342 267.019 75.5844C268.578 72.0346 269.357 68.2684 269.357 64.2857C269.357 60.2165 268.578 56.4502 267.019 52.987C265.547 49.4372 263.339 46.5801 260.395 44.4156C257.538 42.2511 253.988 41.1688 249.745 41.1688C245.502 41.1688 241.909 42.2511 238.965 44.4156C236.021 46.5801 233.813 49.4372 232.341 52.987C230.869 56.4502 230.133 60.2165 230.133 64.2857C230.133 68.2684 230.869 72.0346 232.341 75.5844C233.813 79.1342 236.021 81.9913 238.965 84.1558C241.909 86.3204 245.502 87.4026 249.745 87.4026Z" fill="black"/>
<path d="M293.887 98.7013C292.782 98.7013 291.887 97.8059 291.887 96.7013V31.8701C291.887 30.7656 292.782 29.8701 293.887 29.8701H304.693C305.798 29.8701 306.693 30.7656 306.693 31.8701V38.6417C306.693 38.8181 306.836 38.961 307.013 38.961C307.135 38.961 307.246 38.8909 307.301 38.7814C308.603 36.1707 310.608 33.8496 313.317 31.8182C316.175 29.6537 320.288 28.5714 325.656 28.5714C327.301 28.5714 328.687 28.658 329.812 28.8312C329.847 28.8361 329.88 28.8409 329.914 28.8456C330.899 28.9864 331.631 29.8302 331.631 30.8255V41.4111C331.631 42.4519 330.714 43.2544 329.682 43.1169C328.384 42.9437 326.912 42.8571 325.266 42.8571C319.205 42.8571 314.573 44.5887 311.369 48.0519C308.252 51.4286 306.693 56.9264 306.693 64.5455V96.7013C306.693 97.8059 305.798 98.7013 304.693 98.7013H293.887Z" fill="black"/>
<path d="M341.852 98.7013C340.747 98.7013 339.852 97.8059 339.852 96.7013V31.8701C339.852 30.7656 340.747 29.8701 341.852 29.8701H352.658C353.763 29.8701 354.658 30.7656 354.658 31.8701V39.2826C354.658 39.4636 354.805 39.6104 354.986 39.6104C355.105 39.6104 355.214 39.5466 355.273 39.444C356.048 38.1006 357.142 36.5977 358.555 34.9351C360.114 33.2035 362.148 31.7316 364.659 30.5195C367.171 29.2208 370.331 28.5714 374.141 28.5714C379.25 28.5714 383.492 29.7835 386.869 32.2078C390.211 34.6064 392.704 37.7678 394.35 41.692C394.382 41.7681 394.456 41.8182 394.539 41.8182C394.615 41.8182 394.684 41.7761 394.72 41.7092C396.536 38.2904 399.158 35.2532 402.585 32.5974C406.049 29.9134 410.638 28.5714 416.353 28.5714C421.202 28.5714 425.315 29.7403 428.692 32.0779C432.069 34.329 434.58 37.4026 436.225 41.2987C437.957 45.1082 438.822 49.4372 438.822 54.2857V96.7013C438.822 97.8059 437.927 98.7013 436.822 98.7013H426.016C424.911 98.7013 424.016 97.8059 424.016 96.7013V56.3636C424.016 51.8615 422.933 48.1818 420.769 45.3247C418.604 42.4675 415.4 41.039 411.157 41.039C407.694 41.039 404.88 41.9913 402.715 43.8961C400.637 45.8009 399.122 48.1818 398.169 51.039C397.217 53.8095 396.74 56.6234 396.74 59.4805V96.7013C396.74 97.8059 395.845 98.7013 394.74 98.7013H383.934C382.829 98.7013 381.934 97.8059 381.934 96.7013V56.3636C381.934 51.8615 380.852 48.1818 378.687 45.3247C376.522 42.4675 373.318 41.039 369.075 41.039C365.612 41.039 362.798 41.9913 360.633 43.8961C358.555 45.8009 357.04 48.1818 356.087 51.039C355.135 53.8095 354.658 56.6234 354.658 59.4805V96.7013C354.658 97.8059 353.763 98.7013 352.658 98.7013H341.852Z" fill="black"/>
<path d="M477.21 28.5714C481.539 28.5714 485.133 29.2641 487.99 30.6493C490.934 32.0346 493.272 33.6364 495.004 35.4545C496.63 37.1621 497.837 38.6406 498.623 39.89C498.716 40.0379 498.877 40.1299 499.052 40.1299C499.327 40.1299 499.55 39.9071 499.55 39.6323V31.8701C499.55 30.7656 500.445 29.8701 501.55 29.8701H512.356C513.461 29.8701 514.356 30.7656 514.356 31.8701V96.7013C514.356 97.8059 513.461 98.7013 512.356 98.7013H501.55C500.445 98.7013 499.55 97.8059 499.55 96.7013V88.9391C499.55 88.6643 499.327 88.4416 499.052 88.4416C498.877 88.4416 498.716 88.5336 498.623 88.6815C497.837 89.9309 496.63 91.4093 495.004 93.1169C493.272 94.9351 490.934 96.5368 487.99 97.9221C485.133 99.3074 481.539 100 477.21 100C472.015 100 467.469 99.0043 463.572 97.013C459.762 94.9351 456.559 92.2078 453.961 88.8312C451.363 85.368 449.415 81.5152 448.116 77.2727C446.904 73.0303 446.298 68.7013 446.298 64.2857C446.298 59.8701 446.904 55.5411 448.116 51.2987C449.415 47.0563 451.363 43.2467 453.961 39.8701C456.559 36.4069 459.762 33.6796 463.572 31.6883C467.469 29.6104 472.015 28.5714 477.21 28.5714ZM480.457 40.9091C476.214 40.9091 472.664 42.0779 469.807 44.4156C466.949 46.6667 464.784 49.5671 463.312 53.1169C461.927 56.6667 461.234 60.3896 461.234 64.2857C461.234 68.1818 461.927 71.9048 463.312 75.4546C464.784 79.0043 466.949 81.9481 469.807 84.2857C472.664 86.5368 476.214 87.6623 480.457 87.6623C484.7 87.6623 488.207 86.5368 490.977 84.2857C493.835 81.9481 495.956 79.0043 497.342 75.4546C498.814 71.9048 499.55 68.1818 499.55 64.2857C499.55 60.3896 498.814 56.6667 497.342 53.1169C495.956 49.5671 493.835 46.6667 490.977 44.4156C488.207 42.0779 484.7 40.9091 480.457 40.9091Z" fill="black"/>
<path d="M527.196 98.7013C526.09 98.7013 525.195 97.8043 525.196 96.6987L525.321 1.99737C525.322 0.893827 526.217 0 527.321 0H538C539.105 0 540 0.895431 540 2V96.7013C540 97.8059 539.105 98.7013 538 98.7013H527.196Z" fill="black"/>
<path d="M0 3.39804C0 1.52136 1.52135 0 3.39804 0H26.0137C27.8904 0 29.4118 1.52135 29.4118 3.39804V96.602C29.4118 98.4786 27.8904 100 26.0137 100H3.39804C1.52135 100 0 98.4786 0 96.602V50V3.39804Z" fill="#3D6EFF"/>
<path d="M35.2937 3.39804C35.2937 1.52135 36.8151 0 38.6917 0H61.3074C63.1841 0 64.7055 1.52135 64.7055 3.39804V61.3078C64.7055 63.1845 63.1841 64.7059 61.3074 64.7059H38.6917C36.8151 64.7059 35.2937 63.1845 35.2937 61.3078V3.39804Z" fill="#3D6EFF" fill-opacity="0.85"/>
<path d="M70.5893 3.39804C70.5893 1.52135 72.1106 0 73.9873 0H96.603C98.4797 0 100.001 1.52135 100.001 3.39804V26.0137C100.001 27.8904 98.4797 29.4118 96.603 29.4118H73.9873C72.1106 29.4118 70.5893 27.8904 70.5893 26.0137V3.39804Z" fill="#3D6EFF" fill-opacity="0.65"/>
</svg>
