<svg width="700" height="700" viewBox="0 0 700 700" fill="none" xmlns="http://www.w3.org/2000/svg">
<path fill-rule="evenodd" clip-rule="evenodd" d="M114 186.028L232.514 304.262C297.645 369.246 404.411 369.246 469.514 304.262L535.402 238.52L522.252 225.383L509.103 212.246L482.776 186L443.523 146.841L416.888 120.286C380.804 84.2716 321.196 84.2716 285.14 120.286L271.879 133.508L298.206 159.754L311.467 146.532C333.028 125.03 369.056 125.03 390.589 146.532L393.168 149.115L417.224 173.116L430.178 186.028L456.477 212.274L482.804 238.52L443.243 277.988C392.636 328.487 309.449 328.487 258.869 277.988L192.981 212.246L166.654 186L140.355 159.754L114.028 186L114 186.028ZM219.252 133.508L245.579 159.754L271.879 186L278.495 192.597L304.794 218.843L311.411 225.467C332.972 246.97 369 246.97 390.533 225.467L403.794 212.246L430.121 238.492L416.86 251.714C380.776 287.7 321.168 287.7 285.112 251.714L252.168 218.843L219.224 185.972L192.897 159.726L173.439 140.301L166.598 133.48L232.486 67.7379C297.617 2.75404 404.383 2.75404 469.486 67.7379L588 186L561.673 212.246L535.346 186L510.953 161.663L443.131 94.0121C392.523 43.5128 309.336 43.5128 258.757 94.0121L219.196 133.508H219.252ZM324.505 186.028L337.766 199.249C344.804 206.267 357.252 206.267 364.262 199.249L377.523 186.028L364.262 172.807C357.224 165.789 344.776 165.789 337.766 172.807L324.505 186.028Z" fill="#04E69B"/>
<path d="M131.309 535.972C118.926 535.972 109.324 532.975 102.557 526.952C95.8747 520.845 92.365 512.391 92 501.59H110.194C110.447 508.235 112.441 513.268 116.119 516.717C119.797 520.082 124.963 521.75 131.533 521.75C137.682 521.75 142.512 520.336 146.049 517.509C149.643 514.681 151.468 510.779 151.468 505.831C151.468 497.434 146.021 493.221 135.127 493.221H123.391C113.536 493.221 106.067 490.931 100.985 486.322C95.8747 481.713 93.3477 475.578 93.3477 467.859C93.3477 461.922 94.8078 456.804 97.6998 452.45C100.676 448.011 105 444.618 110.615 442.214C116.231 439.726 122.97 438.482 130.803 438.482C142.933 438.482 152.17 441.395 158.488 447.247C164.805 453.015 168.118 460.932 168.371 471.026H150.57C150.036 458.811 143.41 452.704 130.663 452.704C124.598 452.704 119.853 453.977 116.428 456.55C113.002 459.038 111.289 462.487 111.289 466.898C111.289 470.432 112.469 473.26 114.855 475.408C117.326 477.444 121.229 478.462 126.592 478.462H138.328C149.222 478.462 157.196 480.95 162.194 485.898C167.192 490.761 169.719 497.095 169.719 504.898C169.719 511.175 168.175 516.66 165.114 521.354C162.138 525.963 157.73 529.553 151.918 532.098C146.106 534.671 139.255 535.944 131.337 535.944L131.309 535.972ZM207.961 535.972C200.324 535.972 194.259 533.455 189.766 528.394C185.358 523.248 183.168 515.954 183.168 506.482V460.678H199.79V504.503C199.79 510.695 200.969 515.247 203.356 518.187C205.827 521.1 209.196 522.57 213.52 522.57C218.181 522.57 222.056 520.93 225.116 517.65C228.289 514.37 229.861 509.338 229.861 502.523V460.706H246.483V533.738H230.142V522.598H229.889C227.783 527.037 224.835 530.402 221.045 532.692C217.254 534.897 212.902 536 207.989 536L207.961 535.972ZM304.828 535.972C299.381 535.972 294.496 534.643 290.2 531.985C285.988 529.327 282.759 525.652 280.569 520.958H280.317C280.401 522.824 280.457 525.425 280.457 528.79V533.71H263.976V430H280.598V465.993C280.598 469.273 280.513 471.761 280.345 473.429H280.598C282.788 468.736 286.016 465.06 290.228 462.402C294.524 459.745 299.41 458.416 304.857 458.416C310.669 458.416 316.031 459.914 320.945 462.94C325.859 465.937 329.79 470.376 332.682 476.228C335.658 482.081 337.174 489.065 337.174 497.208C337.174 505.351 335.686 512.335 332.682 518.187C329.79 524.04 325.859 528.451 320.945 531.476C316.031 534.473 310.669 536 304.857 536L304.828 535.972ZM280.429 497.208C280.429 505.012 282.142 511.204 285.567 515.784C289.077 520.393 293.822 522.683 299.803 522.683C305.783 522.683 310.612 520.393 314.038 515.784C317.548 511.175 319.317 504.983 319.317 497.208C319.317 489.432 317.548 483.212 314.038 478.632C310.612 474.023 305.867 471.733 299.803 471.733C293.738 471.733 289.077 474.023 285.567 478.632C282.142 483.24 280.429 489.432 280.429 497.208ZM349.865 430H366.487V533.71H349.865V430ZM384.036 460.678H400.657V533.71H384.036V460.678ZM383.755 432.941H400.77V449.142H383.755V432.941ZM418.318 460.678H434.659V471.422H434.912C437.018 467.52 439.826 464.381 443.364 462.006C446.873 459.603 451.001 458.416 455.746 458.416C460.856 458.416 465.236 459.688 468.942 462.261C472.649 464.834 475.372 468.509 477.113 473.288H477.366C479.471 468.594 482.42 464.975 486.21 462.402C490.085 459.745 494.661 458.416 499.912 458.416C507.128 458.416 512.884 460.904 517.18 465.852C521.476 470.8 523.637 477.67 523.637 486.435V533.71H507.016V488.16C507.016 482.675 505.864 478.603 503.59 475.946C501.4 473.203 498.311 471.818 494.353 471.818C490.057 471.818 486.435 473.401 483.543 476.596C480.735 479.791 479.331 484.428 479.331 490.535V533.681H462.597V488.132C462.597 482.647 461.446 478.575 459.171 475.917C456.981 473.175 453.949 471.789 450.074 471.789C445.778 471.789 442.156 473.429 439.264 476.709C436.372 479.904 434.912 484.513 434.912 490.507V533.653H418.29V460.621L418.318 460.678ZM572.324 535.972C565.192 535.972 558.931 534.417 553.456 531.335C548.009 528.225 543.797 523.757 540.793 517.933C537.789 512.108 536.301 505.181 536.301 497.208C536.301 489.235 537.789 482.336 540.793 476.483C543.881 470.63 548.093 466.163 553.456 463.081C558.903 459.971 565.136 458.444 572.184 458.444C579.231 458.444 584.847 459.858 590.125 462.685C595.404 465.428 599.531 469.499 602.508 474.899C605.484 480.3 607 486.803 607 494.409V501.986H553.989C554.242 508.263 556.067 513.324 559.408 517.113C562.75 520.817 567.158 522.683 572.605 522.683C576.564 522.683 579.989 521.665 582.881 519.629C585.773 517.594 587.795 514.794 588.946 511.26H606.102C604.529 518.696 600.683 524.662 594.618 529.186C588.553 533.71 581.112 535.972 572.324 535.972ZM590.238 489.885C590.238 484.484 588.665 480.102 585.493 476.737C582.404 473.373 578.108 471.704 572.577 471.704C567.046 471.704 562.806 473.373 559.661 476.737C556.488 480.102 554.663 484.484 554.13 489.885H590.266H590.238Z" fill="#090C0B"/>
<path d="M153.954 658.287C143.032 658.287 134.582 655.515 128.602 649.942C122.622 644.284 119.421 636.555 119 626.753H130.567C130.988 633.614 133.206 638.907 137.221 642.576C141.236 646.245 146.907 648.093 154.206 648.093C161.029 648.093 166.335 646.525 170.209 643.416C174.055 640.223 175.993 635.967 175.993 630.646C175.993 621.964 170.209 617.623 158.642 617.623H147.44C138.568 617.623 131.802 615.523 127.142 611.35C122.537 607.177 120.263 601.688 120.263 594.91C120.263 589.757 121.583 585.22 124.194 581.271C126.889 577.267 130.764 574.158 135.761 571.946C140.758 569.733 146.598 568.641 153.224 568.641C163.724 568.641 171.753 571.329 177.34 576.734C182.927 582.14 185.903 589.365 186.324 598.467H174.757C174.027 585.36 166.756 578.835 152.971 578.835C146.401 578.835 141.236 580.263 137.473 583.12C133.711 585.892 131.802 589.757 131.802 594.658C131.802 602.612 137.165 606.561 147.917 606.561H159.119C169.367 606.561 176.666 608.801 181.018 613.31C185.37 617.819 187.532 623.504 187.532 630.366C187.532 636.023 186.184 640.952 183.461 645.209C180.765 649.381 176.863 652.602 171.781 654.899C166.7 657.111 160.748 658.203 153.926 658.203L153.954 658.287ZM229.111 658.287C222.541 658.287 216.73 656.803 211.648 653.862C206.651 650.922 202.748 646.777 199.969 641.456C197.274 636.051 195.898 629.805 195.898 622.664C195.898 615.522 197.302 609.277 200.081 603.872C202.861 598.467 206.735 594.35 211.648 591.465C216.646 588.525 222.401 587.041 228.886 587.041C234.951 587.041 240.425 588.357 245.254 590.961C250.167 593.51 254.042 597.179 256.821 601.996C259.601 606.813 261.004 612.526 261.004 619.051V626.305H207.605C208.026 632.858 210.16 638.207 214.006 642.38C217.853 646.553 222.906 648.653 229.139 648.653C233.828 648.653 237.842 647.505 241.211 645.209C244.665 642.828 247.079 639.635 248.483 635.631H260.415C259.516 640.056 257.579 643.976 254.631 647.421C251.768 650.782 248.118 653.442 243.682 655.403C239.246 657.279 234.417 658.231 229.167 658.231L229.111 658.287ZM249.409 616.923C249.409 610.874 247.612 606 243.991 602.304C240.369 598.551 235.456 596.647 229.223 596.647C222.99 596.647 218.077 598.523 214.456 602.304C210.834 606 208.644 610.846 207.802 616.923H249.409ZM302.499 658.287C295.846 658.287 289.978 656.803 284.896 653.862C279.815 650.922 275.884 646.777 273.077 641.456C270.297 636.051 268.893 629.805 268.893 622.664C268.893 615.522 270.213 609.193 272.824 603.872C275.519 598.467 279.422 594.35 284.503 591.465C289.585 588.525 295.565 587.041 302.471 587.041C308.62 587.041 313.954 588.273 318.474 590.737C323.079 593.118 326.644 596.394 329.171 600.567C331.726 604.74 333.242 609.445 333.719 614.682H322.152C321.731 609.529 319.766 605.216 316.256 601.8C312.803 598.355 308.227 596.647 302.471 596.647C295.733 596.647 290.371 599.055 286.356 603.9C282.426 608.717 280.46 614.99 280.46 622.692C280.46 627.929 281.415 632.522 283.296 636.443C285.261 640.364 287.9 643.388 291.185 645.517C294.554 647.645 298.316 648.709 302.499 648.709C306.261 648.709 309.546 647.897 312.354 646.245C315.217 644.536 317.492 642.408 319.12 639.86C320.748 637.311 321.787 634.706 322.208 631.99H333.775C333.129 636.751 331.473 641.12 328.862 645.125C326.223 649.129 322.657 652.322 318.165 654.703C313.729 657.083 308.536 658.259 302.527 658.259L302.499 658.287ZM366.764 658.287C359.38 658.287 353.624 655.795 349.525 650.81C345.426 645.825 343.377 638.683 343.377 629.441V588.945H354.438V628.349C354.438 635.379 355.786 640.504 358.509 643.696C361.205 646.889 364.939 648.485 369.711 648.485C375.13 648.485 379.65 646.609 383.244 642.828C386.865 638.991 388.662 633.222 388.662 625.521V588.945H399.724V656.467H388.887V643.836H388.634C386.669 648.597 383.805 652.182 380.015 654.646C376.253 657.111 371.817 658.315 366.735 658.315L366.764 658.287ZM416.934 588.945H427.771V600.735H428.024C429.82 596.731 431.954 593.79 434.425 591.886C436.98 589.925 440.742 588.945 445.739 588.945H452.252V598.775H444.251C438.664 598.775 434.565 600.399 431.954 603.676C429.315 606.953 428.024 611.854 428.024 618.407V656.467H416.962V588.945H416.934ZM460.029 588.945H471.091V656.467H460.029V588.945ZM459.917 565H471.231V576.286H459.917V565ZM510.34 656.439C498.352 656.439 492.372 650.502 492.372 638.627V598.719H478.84V588.889H492.372V570.489H503.433V588.889H524.855V598.719H503.433V638.627C503.433 641.4 504.079 643.444 505.399 644.761C506.803 645.993 508.852 646.609 511.547 646.609H525.444V656.439H510.312H510.34ZM527.943 671.17H545.911L553.8 652.77L527.971 588.945H540.044L559.359 639.888H559.612L578.928 588.945H591L555.934 675.847C554.615 679.292 552.088 681 548.298 681H527.999V671.17H527.943Z" fill="#090C0B"/>
</svg>
