<?xml version="1.0" encoding="UTF-8"?>
<svg id="Layer_1" data-name="Layer 1" xmlns="http://www.w3.org/2000/svg" viewBox="0 0 143.03 168.83">
  <defs>
    <style>
      .cls-1 {
        fill: #38d92d;
      }

      .cls-1, .cls-2 {
        stroke-width: 0px;
      }

      .cls-2 {
        fill: #272436;
      }
    </style>
  </defs>
  <g>
    <g>
      <path class="cls-2" d="m28.37,109.11c5.13,0,8.2,3.33,8.2,8.22v.02c0,4.87-3.07,8.2-8.2,8.2h-6.25v-16.45h6.25Zm-3.61,13.95h3.61c3.45,0,5.54-2.33,5.54-5.7v-.02c0-3.37-2.09-5.73-5.54-5.73h-3.61v11.46Z"/>
      <path class="cls-2" d="m53.11,125.56h-2.97l-3.66-5.56h-4.04v5.56h-2.64v-16.45h6.54c4.11,0,6.37,2.12,6.37,5.51v.02c0,2.5-1.28,4.28-3.71,4.99l4.11,5.92Zm-10.67-14.05v6.18h3.9c2.35,0,3.73-1.02,3.73-3.04v-.02c0-2.04-1.38-3.11-3.73-3.11h-3.9Z"/>
      <path class="cls-2" d="m62.11,117.17l5.06-8.06h2.92l-6.65,10.43v6.01h-2.66v-6.01l-6.65-10.43h2.9l5.09,8.06Z"/>
      <path class="cls-2" d="m85.92,125.56h-2.97l-3.66-5.56h-4.04v5.56h-2.64v-16.45h6.54c4.11,0,6.37,2.12,6.37,5.51v.02c0,2.5-1.28,4.28-3.71,4.99l4.11,5.92Zm-10.67-14.05v6.18h3.9c2.35,0,3.73-1.02,3.73-3.04v-.02c0-2.04-1.38-3.11-3.73-3.11h-3.9Z"/>
      <path class="cls-2" d="m100.28,109.11h2.66v9.1c0,5.39-3.16,7.63-7.15,7.63h-.02c-3.99,0-7.15-2.23-7.15-7.63v-9.1h2.66v9.1c0,3.8,2.19,5.06,4.49,5.06h.02c2.31,0,4.49-1.26,4.49-5.06v-9.1Z"/>
      <path class="cls-2" d="m118.34,109.11h2.57v16.45h-2.42l-9.17-12.03v12.03h-2.57v-16.45h2.42l9.17,12.03v-12.03Z"/>
    </g>
    <g>
      <path class="cls-2" d="m30.62,137.76c-.67-1.09-1.73-1.69-3.33-1.69h-.02c-1.71,0-2.7.62-2.7,1.59,0,.69.39,1.27,1.85,1.62l2.63.62c2.29.53,2.93,2.04,2.91,3.6,0,2.12-1.85,3.44-4.67,3.44h-.02c-2.54,0-4.34-.97-5.16-2.75l1.62-1.16c.72,1.55,1.94,2.17,3.58,2.17h.02c1.73,0,2.64-.7,2.64-1.75,0-.86-.49-1.48-1.75-1.82l-2.87-.72c-2.03-.49-2.77-1.75-2.77-3.17,0-2.2,1.85-3.42,4.76-3.42h.02c2.08,0,3.6.76,4.44,2.03l-1.18,1.43Z"/>
      <path class="cls-2" d="m44.26,134.52v1.83h-6.17v3.37h5.53v1.85h-5.53v3.31h6.17v1.83h-8.13v-12.2h8.13Z"/>
      <path class="cls-2" d="m57.21,137.18c-.85-.7-1.9-1.04-3.05-1.04h-.02c-2.59,0-4.27,1.89-4.27,4.46v.02c.02,2.61,1.69,4.48,4.27,4.48h.02c1.23,0,2.24-.37,3.05-1.04l1.08,1.48c-1.09.95-2.49,1.39-4.13,1.39h-.02c-3.83,0-6.22-2.57-6.22-6.31v-.02c0-3.72,2.4-6.29,6.22-6.29h.02c1.53,0,2.98.41,4.13,1.39l-1.08,1.48Z"/>
      <path class="cls-2" d="m70.63,134.52h1.97v6.75c0,4-2.34,5.66-5.31,5.66h-.02c-2.96,0-5.31-1.66-5.31-5.66v-6.75h1.97v6.75c0,2.82,1.62,3.76,3.33,3.76h.02c1.71,0,3.33-.93,3.33-3.76v-6.75Z"/>
      <path class="cls-2" d="m87.1,146.72h-2.2l-2.72-4.12h-3v4.12h-1.96v-12.2h4.85c3.05,0,4.72,1.57,4.72,4.09v.02c0,1.85-.95,3.17-2.75,3.7l3.05,4.39Zm-7.91-10.42v4.58h2.89c1.75,0,2.77-.76,2.77-2.26v-.02c0-1.52-1.02-2.31-2.77-2.31h-2.89Z"/>
      <path class="cls-2" d="m91.21,146.72v-12.2h1.96v12.2h-1.96Z"/>
      <path class="cls-2" d="m106.88,134.52v1.89h-3.88v10.31h-1.97v-10.31h-3.88v-1.89h9.73Z"/>
      <path class="cls-2" d="m115,140.5l3.76-5.98h2.17l-4.94,7.74v4.46h-1.97v-4.46l-4.94-7.74h2.15l3.77,5.98Z"/>
    </g>
  </g>
  <g>
    <path class="cls-2" d="m107.88,27.87h-4.27c-.36,0-.66.3-.66.66v3.78l-23.07,40.03h0l-6.5-12.46,7.55-14.99h3.04c.37,0,.66-.3.66-.66v-4.27c0-.37-.3-.66-.66-.66h-4.27c-.37,0-.66.3-.66.66v1.15h-13.8v-1.15c0-.37-.3-.66-.66-.66h-4.27c-.36,0-.66.3-.66.66v4.27c0,.37.3.66.66.66h3.02l7.83,15.01-15.64,31.09-18.25-34.85v-3.82c0-.37-.3-.66-.66-.66h-4.27c-.37,0-.66.3-.66.66v4.27c0,.37.3.66.66.66h3.29l17.71,33.8c-.35.02-.63.3-.63.66v4.27c0,.37.3.66.66.66h4.27c.36,0,.66-.3.66-.66v-4.27s0-.05,0-.07c-.03-.31-.28-.55-.59-.58l14.59-29,5.38,10.32c-.31.05-.55.31-.55.64v4.27c0,.37.3.66.66.66h4.27c.37,0,.66-.3.66-.66v-4.27c0-.33-.25-.59-.56-.64l22.42-38.91h3.32c.37,0,.66-.3.66-.66v-4.27c0-.37-.3-.66-.66-.66Zm-35.63,29.86l-7.02-13.46s0-.03,0-.05v-1.15h13.8v1.15s0,.01,0,.02l-6.79,13.49Z"/>
    <path class="cls-1" d="m37.84,48.18c-.11,0-.21-.02-.32-.05-.28-.1-.85-.29-.81-.57.05-.31.12-.45.2-.68,5.32-15.55,19.57-24.97,36.01-24.97,9.58,0,18.34,3.02,25.43,9.45q.2.18.5.57c.15.2-.25.62-.43.82-.37.4-.99.43-1.39.07-6.72-6.11-15.01-8.94-24.1-8.94-15.6,0-28.14,8.97-34.15,23.64-.16.4-.52.67-.93.67Z"/>
    <path class="cls-1" d="m49.16,90.41c-.21-.06-.46-.22-.64-.37-7.91-6.51-12.82-15.68-13.84-25.82-.02-.22-.13-.75.06-.86.26-.15.51-.19.83-.22.53-.08,1.02.34,1.08.88.96,9.62,5.63,18.32,13.13,24.5.42.35.47.87.12,1.29-.19.24-.53.53-.73.6Z"/>
    <path class="cls-1" d="m72.92,98.78c-3.48,0-6.94-.47-10.26-1.38-.24-.07-.48-.11-.72-.26s-.04-.66.04-.95c.14-.52.68-.83,1.21-.69,3.15.87,6.43,1.31,9.74,1.31,20.11,0,36.47-16.36,36.47-36.47,0-6.58-1.46-11.85-4.81-17.47-.28-.47-.22-1.25.31-1.59.26-.17.41-.28.65-.31.2-.03.51.42.63.62,3.53,5.92,5.19,11.82,5.19,18.76,0,21.2-17.24,38.44-38.44,38.44Z"/>
    <g>
      <path class="cls-1" d="m55.43,83.09l11.68-23.41-5.78-11.22h-3.99c-.59,0-1.07-.48-1.07-1.07v-10.67c0-.59.48-1.07,1.07-1.07h29.53c.59,0,1.07.48,1.07,1.07v10.68c0,.59-.48,1.07-1.07,1.07h-3.95l-5.56,11.14,2.69,5.22,16.54-28.7c-6.1-5.97-14.46-9.66-23.67-9.66-16.27,0-29.86,11.48-33.11,26.79l15.62,29.81Z"/>
      <path class="cls-1" d="m86.31,72.32v8.18c0,.59-.48,1.07-1.07,1.07h-10.66c-.59,0-1.07-.48-1.07-1.07v-8.39l-1.21-2.34-11.14,22.33c3.66,1.36,7.63,2.1,11.76,2.1,18.7,0,33.85-15.16,33.85-33.85,0-5.91-1.52-11.46-4.18-16.29l-16.29,28.27Z"/>
    </g>
  </g>
</svg>