<?xml version="1.0" encoding="UTF-8"?>
<svg id="Layer_1" data-name="Layer 1" xmlns="http://www.w3.org/2000/svg" viewBox="0 0 1664.76 346.98">
  <path d="M418.36,149.98c6.26-12.84,14.81-22.71,25.65-29.63,10.84-6.91,22.92-10.37,36.24-10.37,11.53,0,21.48,2.27,29.83,6.81,3.29,1.79,6.28,3.82,8.99,6.1,4.12,3.47,10.4.73,10.4-4.63h0c0-3.43,2.8-6.21,6.26-6.21h45.96c3.45,0,6.26,2.78,6.26,6.21v153.8c0,3.43-2.8,6.21-6.26,6.21h-45.96c-3.45,0-6.26-2.78-6.26-6.21v-.05c0-5.35-6.27-8.1-10.38-4.65-2.75,2.3-5.8,4.36-9.15,6.16-8.46,4.55-18.35,6.82-29.68,6.82-13.33,0-25.4-3.45-36.24-10.37-10.84-6.91-19.39-16.84-25.65-29.78-6.27-12.93-9.4-28-9.4-45.19s3.13-32.19,9.4-45.04ZM520.68,169.83c-5.87-6.12-13.08-9.18-21.63-9.18s-16.01,3.01-21.78,9.04c-5.77,6.03-8.65,14.47-8.65,25.33s2.88,19.11,8.65,25.33c5.76,6.22,13.02,9.33,21.78,9.33s15.76-3.06,21.63-9.18c5.86-6.12,8.8-14.61,8.8-25.48s-2.94-19.06-8.8-25.18Z"/>
  <path d="M688.24,118.87c6.52-3.86,13.39-6.37,20.59-7.54,4.99-.81,9.54,3.01,9.54,8.03v45.03c0,4.48-3.66,8.11-8.17,8.11h-8.24c-12.73,0-22.18,2.47-28.34,7.41-6.16,4.94-9.25,13.53-9.25,25.78v64.48c0,4.48-3.66,8.11-8.17,8.11h-30.7c-10.83,0-19.6-8.72-19.6-19.47V120.16c0-4.48,3.66-8.11,8.17-8.11h42.13c4.51,0,8.17,3.63,8.17,8.11h0c0,7.02,8.26,10.6,13.62,6.02,3.2-2.74,6.62-5.18,10.24-7.32Z"/>
  <path d="M1004.65,129.53c12.03,12.65,18.05,29.93,18.05,51.85v90.64c0,3.45-2.82,6.25-6.29,6.25h-45.88c-3.47,0-6.29-2.8-6.29-6.25v-82.94c0-8.89-2.49-15.8-7.46-20.74-4.97-4.94-11.74-7.41-20.29-7.41s-15.31,2.47-20.28,7.41c-4.97,4.94-7.46,11.85-7.46,20.74v82.94c0,3.45-2.82,6.25-6.29,6.25h-45.88c-3.47,0-6.29-2.8-6.29-6.25v-82.94c0-8.89-2.44-15.8-7.31-20.74-4.88-4.94-11.59-7.41-20.13-7.41s-15.61,2.47-20.58,7.41c-4.97,4.94-7.46,11.85-7.46,20.74v82.94c0,3.45-2.82,6.25-6.29,6.25h-45.88c-3.47,0-6.29-2.8-6.29-6.25V118.3c0-3.45,2.82-6.25,6.29-6.25h45.88c3.47,0,6.29,2.8,6.29,6.25v.13c0,5.33,6.17,8.07,10.37,4.76,2.97-2.35,6.23-4.43,9.76-6.25,8.25-4.25,17.75-6.37,28.49-6.37,12.33,0,23.31,2.67,32.96,8,7.19,3.97,13.25,9.16,18.17,15.55,2.39,3.1,7.11,3.28,9.63.3,5.15-6.09,11.34-11.22,18.58-15.4,9.74-5.63,20.48-8.45,32.22-8.45,21.08,0,37.63,6.32,49.67,18.96Z"/>
  <path d="M1083.17,269.98c-13.23-6.91-23.62-16.79-31.17-29.63-7.56-12.84-11.33-27.95-11.33-45.33s3.83-32.19,11.48-45.04c7.65-12.84,18.1-22.71,31.32-29.63,13.22-6.91,28.19-10.37,44.89-10.37s31.67,3.46,44.89,10.37c13.22,6.92,23.66,16.79,31.32,29.63,7.65,12.84,11.49,27.85,11.49,45.04s-3.83,32.25-11.49,45.19c-7.66,12.94-18.15,22.87-31.47,29.78-13.33,6.92-28.34,10.37-45.04,10.37s-31.67-3.45-44.89-10.37ZM1148.5,220.94c5.47-6.02,8.2-14.67,8.2-25.93s-2.74-19.85-8.2-25.78c-5.47-5.93-12.18-8.89-20.13-8.89s-14.62,2.96-19.99,8.89c-5.37,5.93-8.06,14.52-8.06,25.78s2.58,20.15,7.76,26.08c5.17,5.93,11.83,8.89,19.99,8.89s14.96-3.01,20.43-9.04Z"/>
  <path d="M1389.44,129.68c11.33,12.74,17,29.98,17,51.71v90.17c0,3.71-3.03,6.72-6.76,6.72h-44.94c-3.74,0-6.76-3.01-6.76-6.72v-82.47c0-9.48-2.49-16.93-7.46-22.37-4.97-5.43-11.63-8.15-19.99-8.15s-15.61,2.72-20.58,8.15c-4.97,5.44-7.46,12.89-7.46,22.37v82.47c0,3.71-3.03,6.72-6.76,6.72h-44.94c-3.74,0-6.76-3.01-6.76-6.72V118.77c0-3.71,3.03-6.72,6.76-6.72h44.94c3.74,0,6.76,3.01,6.76,6.72h0c0,5.68,6.59,8.72,11.06,5.17,2.98-2.37,6.25-4.51,9.82-6.4,8.75-4.64,18.79-6.96,30.13-6.96,19.29,0,34.6,6.37,45.94,19.11Z"/>
  <g>
    <path d="M1482.74,49.49c-4.91-9.9-15.37-16.61-27.35-16.11-15.75.66-27.83,14.27-27.83,29.93v23.19c0,2.55,2.08,4.63,4.66,4.63h24.43c11.45,0,21.35-6.58,26.1-16.14,1.91-3.85,2.99-8.17,2.99-12.75s-1.08-8.9-2.99-12.75Z"/>
    <path d="M1484.95,112.2v165.92c0,.08-.07.15-.15.15h-47.63c-5.9,0-10.68-4.75-10.68-10.61V112.2c0-.08.07-.15.15-.15h58.16c.08,0,.15.07.15.15Z"/>
  </g>
  <path d="M1513.04,149.98c7.16-12.84,17.15-22.71,29.98-29.63,12.83-6.91,27.49-10.37,44-10.37,21.28,0,39.18,5.78,53.7,17.33,10.38,8.27,18.12,18.88,23.21,31.84,3.14,8-3.06,16.6-11.7,16.6h-37.51c-4.45,0-8.53-2.4-10.77-6.22-3.95-6.72-9.99-10.08-18.12-10.08-7.36,0-13.18,3.01-17.45,9.04-4.28,6.03-6.41,14.87-6.41,26.52s2.14,20.55,6.41,26.67c4.27,6.12,10.09,9.18,17.45,9.18,8.24,0,14.29-3.32,18.16-9.97,2.25-3.87,6.34-6.33,10.83-6.33h37.34c8.91,0,14.81,8.97,11.49,17.18-5.1,12.56-12.74,22.94-22.93,31.12-14.52,11.66-32.42,17.48-53.7,17.48-16.51,0-31.17-3.45-44-10.37-12.83-6.91-22.82-16.79-29.98-29.63-7.16-12.84-10.74-27.95-10.74-45.33s3.58-32.19,10.74-45.04Z"/>
  <path d="M374.01,122.47c-11.33-13.42-27.08-20.14-47.24-20.14-12.47,0-23.23,2.59-32.28,7.75-5.78,3.3-11.25,6.35-15.58,9.94-2.42,2.01-6.1.27-6.1-2.86V15.25c0-9.32-8.34-16.46-17.62-15.08l-32.53,4.84c-10.97,1.63-19.08,10.99-19.08,22v214.44c-.71,1.72-2.34,2.96-4.33,2.96-2.18,0-4.07-1.46-4.63-3.56l-27.76-104.55v-.08c-2.79-16.17-16.87-28.5-33.85-28.5-18.97,0-34.36,15.37-34.36,34.33v79.6c0,2.85-2.15,5.4-5.01,5.59-2.82.19-4.37-1.22-5.82-4.07l-16.62-36.87c-1.7-5.58-4.8-10.51-8.83-14.55-.92-.95-1.89-1.86-2.91-2.71-9.46-7.87-23-11.04-37.04-5.85-8.9,3.3-16.11,10.2-19.59,18.99-10.25,25.89,8.68,50.46,33.39,50.46,11.75,0,22.16-5.58,28.78-14.19.17-.23.35-.46.52-.69.47-.62.89-1.27,1.32-1.92.3-.46.65-.89.93-1.36.17-.18.28-.35.48-.55,2.23-2.13,5.97-2.35,7.5.84,1.23,2.59,24.2,51.63,25.25,54.13,0,.03,0,0,.03,0,5.02,12.72,17.41,21.74,31.93,21.74,18.97,0,34.36-15.37,34.36-34.33v-41.7l.02-3.06c.02-2.79,1.92-5.43,4.7-5.83,2.84-.41,5.42,1.38,6.13,4.03,0,0,24.19,106.9,26.88,114.71,0,.05.02,0,.05.05,3.63,12.94,15.49,22.43,29.63,22.43h7.12c17,0,30.77-13.76,30.77-30.75v-35.43h.06v-9.39h.12v-92.62c0-8.26,1.37-8.44,5.74-13.29,4.37-4.85,11.2-6.79,18.89-6.79s13.46,2.43,17.93,7.28c4.47,4.85,6.7,11.41,6.7,19.67v84.33c0,4.58,3.74,8.29,8.34,8.29h56.84c2.06,0,3.74-1.66,3.74-3.71v-97.58c0-22.92-5.67-41.09-17-54.52Z"/>
</svg>