<svg width="2740" height="501" viewBox="0 0 2740 501" fill="none" xmlns="http://www.w3.org/2000/svg">
<g clip-path="url(#clip0_3095_40)">
<path d="M2035 99C2136.97 99 2238.94 99 2344 99C2344 120.78 2344 142.56 2344 165C2270.41 165 2196.82 165 2121 165C2121 181.17 2121 197.34 2121 214C2190.96 214 2260.92 214 2333 214C2333 235.78 2333 257.56 2333 280C2263.04 280 2193.08 280 2121 280C2121 299.14 2121 318.28 2121 338C2195.58 338 2270.16 338 2347 338C2347 359.78 2347 381.56 2347 404C2244.04 404 2141.08 404 2035 404C2035 303.35 2035 202.7 2035 99Z" fill="#000A63"/>
<path d="M1338 99C1439.97 99 1541.94 99 1647 99C1647 120.78 1647 142.56 1647 165C1573.08 165 1499.16 165 1423 165C1423 181.17 1423 197.34 1423 214C1492.96 214 1562.92 214 1635 214C1635 235.78 1635 257.56 1635 280C1565.04 280 1495.08 280 1423 280C1423 299.14 1423 318.28 1423 338C1497.91 338 1572.82 338 1650 338C1650 359.78 1650 381.56 1650 404C1547.04 404 1444.08 404 1338 404C1338 303.35 1338 202.7 1338 99Z" fill="#000A63"/>
<path d="M979 99C1080.97 99 1182.94 99 1288 99C1288 120.78 1288 142.56 1288 165C1214.08 165 1140.16 165 1064 165C1064 181.17 1064 197.34 1064 214C1133.96 214 1203.92 214 1276 214C1276 235.78 1276 257.56 1276 280C1206.04 280 1136.08 280 1064 280C1064 299.14 1064 318.28 1064 338C1138.91 338 1213.82 338 1291 338C1291 359.78 1291 381.56 1291 404C1188.04 404 1085.08 404 979 404C979 303.35 979 202.7 979 99Z" fill="#000A63"/>
<path d="M2380 97.3746C2416.09 97.3127 2452.19 97.2508 2489.38 97.1871C2500.73 97.1597 2512.08 97.1324 2523.78 97.1043C2537.75 97.0907 2537.75 97.0907 2544.32 97.0882C2548.85 97.0855 2553.39 97.0743 2557.93 97.0578C2647.7 96.7464 2647.7 96.7464 2680 123.375C2680.99 124.096 2681.98 124.818 2683 125.562C2699.39 139.543 2706.35 162.67 2708 183.375C2709.13 208.516 2705.7 233.14 2688.62 252.687C2687.1 254.269 2685.56 255.832 2684 257.375C2683.28 258.121 2682.55 258.867 2681.8 259.636C2672.77 268.411 2655.19 281.375 2642 281.375C2649.38 290.984 2657.08 300.312 2664.92 309.546C2668.49 313.76 2672.01 318.021 2675.5 322.304C2683.31 331.882 2691.16 341.422 2699.16 350.838C2704.25 356.836 2709.21 362.942 2714.17 369.046C2718.25 374.053 2722.38 379.016 2726.56 383.937C2729.97 387.953 2733.36 391.981 2736.69 396.062C2737.33 396.85 2737.97 397.637 2738.64 398.449C2740 400.375 2740 400.375 2740 402.375C2727.56 402.7 2715.12 402.948 2702.68 403.1C2696.9 403.173 2691.13 403.271 2685.35 403.431C2679.77 403.584 2674.19 403.667 2668.6 403.703C2666.48 403.729 2664.35 403.779 2662.23 403.855C2644.76 404.455 2644.76 404.455 2639.08 399.334C2636.41 396.455 2634.17 393.373 2632.08 390.053C2630.6 387.746 2628.88 385.666 2627.12 383.562C2626.51 382.781 2625.89 382 2625.25 381.195C2622.23 377.41 2619.15 373.674 2616.06 369.937C2615.45 369.193 2614.84 368.45 2614.2 367.684C2613.01 366.232 2611.81 364.78 2610.61 363.328C2608.57 360.849 2606.53 358.363 2604.5 355.875C2598.96 349.099 2593.4 342.349 2587.83 335.596C2586.05 333.431 2584.26 331.266 2582.48 329.101C2581.91 328.403 2581.33 327.704 2580.74 326.984C2579.58 325.58 2578.42 324.175 2577.27 322.771C2574.26 319.112 2571.24 315.457 2568.22 311.808C2567.28 310.679 2567.28 310.679 2566.33 309.527C2565.15 308.102 2563.97 306.679 2562.79 305.257C2562.25 304.604 2561.71 303.95 2561.16 303.277C2560.69 302.715 2560.22 302.153 2559.74 301.574C2558 299.375 2558 299.375 2556.83 297.445C2554.16 293.205 2554.16 293.205 2550.03 290.629C2547.71 290.351 2545.49 290.319 2543.15 290.375C2542.27 290.364 2541.38 290.353 2540.47 290.342C2537.63 290.316 2534.79 290.344 2531.95 290.375C2530.18 290.366 2528.42 290.355 2526.66 290.339C2520.15 290.308 2513.64 290.345 2507.12 290.375C2492.56 290.375 2478 290.375 2463 290.375C2463 327.335 2463 364.295 2463 402.375C2435.61 402.375 2408.22 402.375 2380 402.375C2380 301.725 2380 201.075 2380 97.3746ZM2463 162.375C2463 183.495 2463 204.615 2463 226.375C2485.34 226.435 2485.34 226.435 2507.68 226.475C2515.68 226.486 2523.67 226.5 2531.67 226.525C2538 226.546 2544.34 226.558 2550.67 226.563C2554.02 226.565 2557.37 226.572 2560.71 226.586C2591 228.06 2591 228.06 2617.57 216.082C2624.57 207.746 2624.61 197.791 2624 187.375C2622.98 180.915 2621.43 174.502 2616 170.375C2604.43 163.177 2593.19 162.066 2579.82 162.148C2577.91 162.147 2577.91 162.147 2575.97 162.147C2572.52 162.146 2569.08 162.158 2565.63 162.172C2562.02 162.184 2558.41 162.185 2554.79 162.188C2547.96 162.194 2541.14 162.21 2534.31 162.231C2525.07 162.257 2515.83 162.268 2506.59 162.28C2492.06 162.298 2477.53 162.338 2463 162.375Z" fill="#000A63"/>
<path d="M550 99C577.39 99 604.78 99 633 99C633 135.63 633 172.26 633 210C701.64 210 770.28 210 841 210C841 173.37 841 136.74 841 99C868.39 99 895.78 99 924 99C924 199.65 924 300.3 924 404C896.61 404 869.22 404 841 404C841 362.09 841 320.18 841 277C772.36 277 703.72 277 633 277C633 318.91 633 360.82 633 404C605.61 404 578.22 404 550 404C550 303.35 550 202.7 550 99Z" fill="#000A63"/>
<path d="M1697 99C1724.39 99 1751.78 99 1780 99C1780 177.54 1780 256.08 1780 337C1853.26 337 1926.52 337 2002 337C2002 359.11 2002 381.22 2002 404C1901.35 404 1800.7 404 1697 404C1697 303.35 1697 202.7 1697 99Z" fill="#000A63"/>
<path d="M223.812 0.0678711C224.523 0.0454736 225.234 0.0230762 225.966 0C237.331 0.0483902 247.724 4.93693 257.562 10.1929C258.629 10.7554 259.696 11.3179 260.795 11.8975C271.936 17.8612 282.683 24.4617 293.435 31.0917C319.807 47.3293 346.682 62.7617 373.812 77.6929C374.418 78.026 375.023 78.3591 375.646 78.7023C376.854 79.3672 378.062 80.0321 379.27 80.6969C438.751 113.436 438.751 113.436 445.375 134.255C447.299 141.049 448.193 147.711 448.572 154.752C448.615 155.54 448.657 156.327 448.701 157.139C449.077 164.816 449.039 172.466 448.89 180.149C448.842 182.671 448.802 185.193 448.764 187.715C448.709 191.371 448.651 195.026 448.591 198.681C448.007 234.771 448.011 270.821 448.637 306.91C448.695 310.301 448.749 313.691 448.803 317.081C448.842 319.356 448.888 321.631 448.935 323.906C449.07 331.296 448.993 338.648 448.623 346.031C448.59 346.752 448.557 347.472 448.523 348.215C447.597 364.263 442.607 377.251 431 388.505C413.877 403.741 391.352 413.586 371.336 424.573C350.063 436.254 329.108 448.414 308.313 460.925C305.813 462.427 303.311 463.925 300.808 465.421C299.032 466.486 297.262 467.558 295.491 468.63C294.421 469.269 293.352 469.909 292.25 470.568C291.306 471.136 290.363 471.705 289.391 472.291C287 473.505 287 473.505 284 473.505C264.547 415.558 264.547 415.558 264.687 390.63C264.692 389.584 264.697 388.537 264.702 387.459C264.987 368.611 270.799 350.464 283.562 336.255C294.522 325.893 308.383 323.52 322.812 322.568C339.398 321.285 351.886 318.867 363.312 305.818C377.463 287.788 379.992 266.654 381 244.505C380.424 244.343 379.848 244.181 379.254 244.014C326.609 228.756 326.609 228.756 315.996 210.662C314.931 208.357 314.347 206.158 313.75 203.693C311.189 194.156 302.283 185.15 294.062 180.005C292.374 178.555 292.374 178.555 291 176.505C291.064 173.753 291.064 173.753 291.676 170.556C291.886 169.396 292.096 168.236 292.313 167.041C292.653 165.291 292.653 165.291 293 163.505C293.362 161.468 293.718 159.431 294.07 157.392C294.245 156.384 294.419 155.376 294.599 154.337C297.805 135.165 298.696 116.486 294 97.5054C293.803 96.7062 293.606 95.9069 293.402 95.0835C293.27 94.5627 293.137 94.0419 293 93.5054C285.069 95.892 279.169 98.9817 273 104.505C272.384 105.04 271.768 105.575 271.133 106.126C262.39 114.228 257.356 125.441 251.779 135.788C248.112 142.561 244.284 149.218 240.312 155.818C239.795 156.678 239.278 157.537 238.745 158.423C235.148 164.357 235.148 164.357 234 165.505C207.439 170.083 207.439 170.083 200.312 165.88C198 163.505 198 163.505 196.691 160.673C194.778 157.091 192.688 155.09 189.625 152.443C180.407 144.405 173.806 136.12 167.625 125.63C162.319 116.791 156.638 108.524 149 101.505C147.824 100.361 147.824 100.361 146.625 99.1929C143.126 96.9437 141.082 96.8375 137 97.5054C132.752 100.835 132.277 105.004 131.413 110.047C130.657 116.375 130.666 122.725 130.593 129.092C130.428 142.597 129.744 155.757 127.954 169.154C126.856 177.676 126.237 186.216 129 194.505C129.46 200.625 128.744 205.621 127 211.505C126.661 214.949 126.363 218.27 127.988 221.423C130.334 226.251 129.79 232.196 128.09 237.166C126.142 241.218 123.871 244.672 121.082 248.185C117.716 252.635 115.751 257.238 113.812 262.443C113.436 263.435 113.059 264.428 112.671 265.45C93.9818 315.414 80.6779 367.513 69 419.505C47.5177 411.249 15.9436 394.894 5.24998 373.443C-0.205145 360.027 -0.437757 346.566 -0.388201 332.314C-0.392275 330.326 -0.397622 328.339 -0.404131 326.351C-0.417708 320.995 -0.412539 315.64 -0.402987 310.285C-0.39534 304.655 -0.402457 299.024 -0.407152 293.394C-0.412595 283.942 -0.405457 274.491 -0.39113 265.04C-0.374807 254.145 -0.380095 243.251 -0.396608 232.356C-0.410265 222.967 -0.412129 213.578 -0.404299 204.189C-0.399645 198.597 -0.398932 193.005 -0.408907 187.413C-0.417635 182.153 -0.411452 176.893 -0.394228 171.633C-0.390294 169.714 -0.391339 167.795 -0.398012 165.876C-0.459083 146.513 1.21728 128.61 15.3672 113.923C27.0153 103.226 41.2362 96.0694 55 88.5054C57.3505 87.2076 59.7007 85.9094 62.0508 84.6108C66.3435 82.2401 70.6376 79.8719 74.9329 77.5059C93.7908 67.1167 112.527 56.5665 131 45.5054C132.011 44.9005 133.022 44.2956 134.063 43.6724C143.207 38.1988 152.344 32.7157 161.465 27.2046C191.204 9.25208 191.204 9.25208 205 3.50537C206.185 2.9949 206.185 2.9949 207.395 2.47412C212.793 0.487513 218.115 0.176311 223.812 0.0678711Z" fill="#000A63"/>
<path d="M151.312 138.005C155.065 138.704 156.605 140.736 159 143.505C159.99 144.58 159.99 144.58 161 145.677C164.969 150.005 168.769 154.421 172.438 159.005C178.963 167.005 185.891 173.949 194.25 180.005C194.828 180.427 195.407 180.849 196.003 181.283C201.785 185.334 206.286 186.905 213.312 186.193C214.458 186.085 215.604 185.976 216.785 185.865C219.279 185.586 221.763 185.273 224.25 184.943C238.235 183.375 254.161 183.002 265.949 191.708C269.684 194.981 272.844 198.683 276 202.505C284.274 212.446 293.771 220.55 304.152 228.181C307.966 231.294 310.584 233.873 311.812 238.693C309.745 248.393 299.559 254.995 291.648 260.244C281.873 266.433 273.198 268.81 261.9 270.038C249.482 271.623 237.713 276.304 225.988 280.521C218.185 283.091 209.304 283.94 201.438 281.318C196.141 277.379 194.301 273.123 192.938 266.818C191.926 261.314 191.926 261.314 188 257.505C183.781 257.505 181.005 259.547 177.953 262.333C166.165 275.442 159.62 292.776 155 309.505C154.752 310.339 154.505 311.173 154.25 312.033C149.916 329.157 152.972 345.277 161.812 360.255C167.341 368.797 173.771 376.395 180.629 383.888C181.919 385.312 183.202 386.742 184.449 388.204C189.651 394.287 195.305 399.89 201 405.505C206.681 411.107 212.314 416.698 217.502 422.767C219.667 425.28 221.967 427.662 224.25 430.068C240.113 447.203 253.19 467.48 258 490.505C255.338 491.806 252.671 493.096 250 494.38C249.256 494.745 248.512 495.11 247.746 495.486C235.135 501.517 221.176 502.793 207.688 498.693C189.811 491.887 173.459 481.362 157.194 471.449C151.954 468.26 146.697 465.1 141.438 461.943C140.408 461.325 139.379 460.707 138.319 460.07C127.271 453.448 116.144 446.964 105 440.505C104.046 439.952 103.092 439.399 102.108 438.829C96.7412 435.717 91.3713 432.61 86 429.505C89.2048 412.728 92.8772 396.127 97.0625 379.568C97.3425 378.455 97.6224 377.341 97.9109 376.194C104.985 348.109 112.765 320.251 121.55 292.651C122.047 291.091 122.54 289.529 123.031 287.966C127.165 274.849 132.235 262.994 140.426 251.822C145.384 244.526 147.194 237.476 147.188 228.755C147.19 228.039 147.192 227.322 147.194 226.584C147.162 222.83 146.947 219.42 145.875 215.818C144.85 211.936 145.361 211.042 147 207.505C148.26 201.828 147.977 196.968 146.57 191.353C144.978 183.403 144.806 175.34 144.812 167.255C144.813 166.254 144.814 165.253 144.815 164.221C145.019 139.366 145.019 139.366 151.312 138.005ZM221 229.505C225.002 234.341 229.766 236.136 235.836 236.83C243.041 237.098 248.563 235.695 255 232.505C250.667 226.897 247.108 223.058 239.75 222.068C232.946 222.862 226.686 225.715 221 229.505Z" fill="#000A63"/>
<path d="M277 123.505C279.438 123.88 279.438 123.88 282 124.505C285.546 131.598 283.76 140.748 282.688 148.255C282.547 149.301 282.407 150.348 282.262 151.425C281.853 154.454 281.429 157.48 281 160.505C280.784 162.063 280.567 163.62 280.352 165.177C279.913 168.289 279.465 171.398 279 174.505C277.728 173.981 277.728 173.981 276.43 173.447C267.761 170.084 260.375 168.662 251 168.505C252.334 164.992 253.881 161.753 255.723 158.478C256.257 157.527 256.792 156.576 257.343 155.596C257.91 154.597 258.478 153.597 259.062 152.568C259.642 151.544 260.222 150.52 260.82 149.465C265.289 141.63 269.978 133.998 275 126.505C275.66 125.515 276.32 124.525 277 123.505Z" fill="#000A63"/>
</g>
<defs>
<clipPath id="clip0_3095_40">
<rect width="2740" height="501" fill="white"/>
</clipPath>
</defs>
</svg>
