<svg width="647" height="150" viewBox="0 0 647 150" fill="none" xmlns="http://www.w3.org/2000/svg">
<path d="M47.596 77.8851C47.596 70.716 53.4077 64.9043 60.5768 64.9043V64.9043C67.7459 64.9043 73.5575 70.716 73.5575 77.8851V115.385H47.596V77.8851Z" fill="#3B6BF5"/>
<path d="M92.3076 51.9231C92.3076 44.7541 98.1193 38.9424 105.288 38.9424V38.9424C112.457 38.9424 118.269 44.7541 118.269 51.9232V115.385H92.3076V51.9231Z" fill="#3B6BF5"/>
<path d="M28.846 63.4616C28.846 70.6307 23.0343 76.4424 15.8652 76.4424V76.4424C8.69616 76.4424 2.88447 70.6307 2.88447 63.4616L2.88447 7.62939e-05H28.846L28.846 63.4616Z" fill="#3B6BF5"/>
<path d="M2.88446 103.846C2.88446 96.6769 8.69615 90.8652 15.8652 90.8652V90.8652C23.0343 90.8652 28.846 96.6769 28.846 103.846V115.384H2.88446V103.846Z" fill="#3B6BF5"/>
<path d="M73.5576 37.5007C73.5576 44.6697 67.7459 50.4814 60.5768 50.4814V50.4814C53.4077 50.4814 47.596 44.6698 47.596 37.5007V0.000675201H73.5576V37.5007Z" fill="#3B6BF5"/>
<path d="M118.269 11.5388C118.269 18.7078 112.457 24.5195 105.288 24.5195V24.5195C98.1192 24.5195 92.3075 18.7078 92.3075 11.5388V0.000301361H118.269V11.5388Z" fill="#3B6BF5"/>
<g clip-path="url(#clip0_124_82)">
<path d="M164.737 22.3128C170.91 22.3128 175.913 17.3179 175.913 11.1564C175.913 4.99489 170.91 0 164.737 0C158.564 0 153.561 4.99489 153.561 11.1564C153.561 17.3179 158.564 22.3128 164.737 22.3128Z" fill="#222222"/>
<path d="M606.3 115.774V12.9424H625.471V115.774H606.3ZM590.092 51.5238V33.7887H643.392V51.5238H590.092Z" fill="#222222"/>
<path d="M531.893 115.774V33.7883H550.751L551.064 59.9241L548.413 54.0125C549.555 49.8638 551.53 46.1303 554.337 42.8114C557.141 39.4925 560.363 36.8996 563.999 35.033C567.738 33.0623 571.636 32.0771 575.687 32.0771C577.454 32.0771 579.116 32.2325 580.673 32.5439C582.338 32.855 583.687 33.218 584.727 33.6329L579.582 54.6347C578.44 54.0125 577.036 53.4939 575.374 53.079C573.713 52.6644 572.051 52.4567 570.389 52.4567C567.792 52.4567 565.297 52.9754 562.908 54.0125C560.621 54.9458 558.595 56.2941 556.828 58.0575C555.064 59.8206 553.661 61.8948 552.621 64.2801C551.686 66.5619 551.22 69.1547 551.22 72.0587V115.774H531.893Z" fill="#222222"/>
<path d="M466.033 117.329C459.277 117.329 453.149 115.463 447.64 111.729C442.134 107.995 437.72 102.913 434.396 96.4832C431.069 90.0527 429.407 82.7411 429.407 74.5478C429.407 66.3542 431.069 59.0426 434.396 52.6124C437.72 46.1822 442.24 41.1521 447.953 37.5221C453.669 33.8921 460.11 32.0771 467.277 32.0771C471.434 32.0771 475.227 32.6993 478.656 33.944C482.085 35.0846 485.096 36.7442 487.696 38.9222C490.292 41.1002 492.423 43.5893 494.085 46.3895C495.849 49.1897 497.046 52.1975 497.668 55.4126L493.46 54.3237V33.7883H512.788V115.774H493.304V96.1719L497.824 95.3942C497.097 98.1944 495.747 100.943 493.773 103.639C491.903 106.232 489.514 108.566 486.605 110.64C483.798 112.611 480.63 114.218 477.096 115.463C473.67 116.707 469.979 117.329 466.033 117.329ZM471.332 100.372C475.798 100.372 479.747 99.2834 483.176 97.1054C486.605 94.9274 489.253 91.9196 491.122 88.0823C493.096 84.1412 494.085 79.6295 494.085 74.5478C494.085 69.5693 493.096 65.1617 491.122 61.3242C489.253 57.4869 486.605 54.479 483.176 52.3013C479.747 50.1233 475.798 49.0344 471.332 49.0344C466.863 49.0344 462.914 50.1233 459.487 52.3013C456.161 54.479 453.564 57.4869 451.695 61.3242C449.822 65.1617 448.888 69.5693 448.888 74.5478C448.888 79.6295 449.822 84.1412 451.695 88.0823C453.564 91.9196 456.161 94.9274 459.487 97.1054C462.914 99.2834 466.863 100.372 471.332 100.372Z" fill="#222222"/>
<path d="M338.293 150V33.7897H357.152L357.464 52.4582L354.191 51.058C354.814 47.8429 356.581 44.8352 359.49 42.035C362.399 39.1309 365.93 36.7972 370.087 35.0341C374.348 33.271 378.763 32.3896 383.335 32.3896C390.608 32.3896 397.048 34.2046 402.659 37.8344C408.375 41.4644 412.841 46.4425 416.063 52.7692C419.387 59.0956 421.049 66.4075 421.049 74.7047C421.049 82.898 419.387 90.2099 416.063 96.6401C412.841 102.966 408.375 107.997 402.659 111.73C397.048 115.36 390.713 117.175 383.647 117.175C378.869 117.175 374.243 116.242 369.777 114.375C365.414 112.508 361.672 110.071 358.555 107.063C355.541 104.055 353.672 100.892 352.944 97.5734L357.621 95.3954V150H338.293ZM379.749 100.218C384.113 100.218 388.011 99.1291 391.44 96.9511C394.866 94.7731 397.517 91.7654 399.386 87.9281C401.361 84.0908 402.349 79.6829 402.349 74.7047C402.349 69.7265 401.412 65.3705 399.542 61.6367C397.673 57.7994 395.022 54.7916 391.593 52.6136C388.167 50.4356 384.218 49.3465 379.749 49.3465C375.178 49.3465 371.178 50.4356 367.749 52.6136C364.425 54.6878 361.777 57.6437 359.802 61.4813C357.828 65.3186 356.839 69.7265 356.839 74.7047C356.839 79.6829 357.828 84.0908 359.802 87.9281C361.777 91.7654 364.425 94.7731 367.749 96.9511C371.178 99.1291 375.178 100.218 379.749 100.218Z" fill="#222222"/>
<path d="M195.297 115.775V33.7897H214.154L214.466 50.2801L211.349 51.5245C212.284 48.8281 213.687 46.339 215.557 44.0572C217.427 41.6719 219.661 39.6493 222.258 37.99C224.856 36.2269 227.609 34.8787 230.518 33.9451C233.427 32.908 236.389 32.3896 239.401 32.3896C243.869 32.3896 247.817 33.1156 251.246 34.5673C254.779 35.9158 257.688 38.0938 259.974 41.1013C262.363 44.1091 264.13 47.9465 265.273 52.6136L262.311 51.9913L263.558 49.5023C264.701 47.0132 266.312 44.7832 268.389 42.8128C270.467 40.7383 272.805 38.9233 275.402 37.3678C278 35.7082 280.702 34.4638 283.507 33.634C286.416 32.8042 289.273 32.3896 292.078 32.3896C298.312 32.3896 303.506 33.634 307.662 36.1231C311.819 38.6122 314.935 42.3979 317.015 47.4799C319.092 52.5616 320.132 58.8365 320.132 66.3038V115.775H300.807V67.5485C300.807 63.3998 300.234 59.9773 299.092 57.2806C298.052 54.5842 296.39 52.6135 294.104 51.3691C291.922 50.0206 289.169 49.3465 285.844 49.3465C283.247 49.3465 280.754 49.8133 278.364 50.7466C276.078 51.5764 274.104 52.8211 272.442 54.4804C270.779 56.0362 269.48 57.8512 268.545 59.9254C267.61 61.9996 267.143 64.2814 267.143 66.7705V115.775H247.817V67.3927C247.817 63.4516 247.246 60.1846 246.103 57.5917C244.96 54.8953 243.298 52.873 241.116 51.5245C238.934 50.0725 236.285 49.3465 233.168 49.3465C230.57 49.3465 228.129 49.8133 225.843 50.7466C223.557 51.5764 221.583 52.7693 219.921 54.3248C218.258 55.8806 216.96 57.6955 216.024 59.7697C215.089 61.8442 214.622 64.1257 214.622 66.6148V115.775H195.297Z" fill="#222222"/>
<path d="M155.248 115.774V33.7881H174.418V74.781V115.774H155.248Z" fill="#222222"/>
</g>
<defs>
<clipPath id="clip0_124_82">
<rect width="646.154" height="150" fill="white"/>
</clipPath>
</defs>
</svg>
