<svg width="509" height="110" viewBox="0 0 509 110" fill="none" xmlns="http://www.w3.org/2000/svg">
<rect width="508.755" height="109.265" fill="white"/>
<path d="M144.476 38.5429V45.0985C146.911 40.6033 151.219 37.6064 157.4 37.6064C167.608 37.6064 174.164 45.0985 174.164 55.4002V84.6194H163.862V58.0224C163.862 51.8414 160.21 47.6271 154.122 47.6271C148.316 47.6271 144.664 51.5605 144.476 57.4605V84.6194H134.175V38.5429H144.476Z" fill="black"/>
<path d="M223.317 65.0462H189.321C190.352 71.6955 195.877 76.2844 203.369 76.2844C209.456 76.2844 215.45 74.0368 219.477 71.2272V81.4352C215.544 83.6828 209.55 85.6495 202.62 85.6495C189.04 85.6495 178.926 75.7225 178.926 61.5812C178.926 48.0017 188.759 37.6064 202.058 37.6064C215.263 37.6064 223.972 47.6271 223.972 59.8018C223.972 61.5812 223.691 63.7351 223.317 65.0462ZM201.964 46.2223C195.034 46.2223 189.883 51.0922 189.228 57.0859H214.045C213.858 50.624 208.707 46.2223 201.964 46.2223Z" fill="black"/>
<path d="M238.958 77.1273V84.6194H228.656V20H238.958V46.035C242.142 40.8842 247.761 37.6064 254.691 37.6064C267.803 37.6064 277.074 48.0017 277.074 61.5812C277.074 75.0669 267.803 85.6495 254.785 85.6495C247.761 85.6495 242.142 82.2781 238.958 77.1273ZM238.958 61.5812C238.958 69.1669 244.764 75.5352 252.725 75.5352C260.591 75.5352 266.398 69.1669 266.398 61.5812C266.398 53.9017 260.591 47.7208 252.725 47.7208C244.764 47.7208 238.958 53.9017 238.958 61.5812Z" fill="black"/>
<path d="M311.751 84.6194V78.1574C309.316 82.559 305.102 85.6495 298.734 85.6495C288.619 85.6495 282.064 78.0638 282.064 67.8558V38.5429H292.366V65.0462C292.366 71.3209 296.018 75.5352 302.012 75.5352C307.818 75.5352 311.47 71.6018 311.751 65.7018V38.5429H321.959V84.6194H311.751Z" fill="black"/>
<path d="M340.575 20V84.6194H330.274V20H340.575Z" fill="black"/>
<path d="M345.848 61.5812C345.848 48.0017 356.244 37.6064 369.823 37.6064C383.309 37.6064 393.798 48.0017 393.798 61.5812C393.798 75.0669 383.309 85.6495 369.823 85.6495C356.244 85.6495 345.848 75.0669 345.848 61.5812ZM356.244 61.5812C356.244 69.2606 362.144 75.5352 369.823 75.5352C377.596 75.5352 383.309 69.2606 383.309 61.5812C383.309 53.9017 377.596 47.6271 369.823 47.6271C362.144 47.6271 356.244 53.9017 356.244 61.5812Z" fill="black"/>
<path d="M431.46 71.9764V82.9336C428.65 84.6194 424.061 85.6495 420.409 85.6495C406.08 85.6495 396.153 75.0669 396.153 61.5812C396.153 48.0017 406.08 37.6064 420.409 37.6064C424.061 37.6064 428.65 38.5429 431.46 40.135V51.1859C428.837 49.2192 424.998 47.6271 420.409 47.6271C412.542 47.6271 406.642 53.9017 406.642 61.5812C406.642 69.2606 412.542 75.5352 420.409 75.5352C424.904 75.5352 428.837 74.0368 431.46 71.9764Z" fill="black"/>
<path d="M439.954 84.6194V20.9365H450.63V84.6194H439.954Z" fill="black"/>
<path d="M464.991 62.0312L488.755 85.7939H475.319L451.557 62.0312L475.319 38.2686H488.754L464.991 62.0312Z" fill="black"/>
<path d="M83.75 89.0762L105.591 27.0615H115.664L93.7568 89.2646H73.7432L51.9082 27.2656L30.0732 89.2646H20L41.9072 27.0615H61.9092L83.75 89.0762Z" fill="#FF5E19"/>
</svg>
