<svg width="457" height="104" viewBox="0 0 457 104" fill="none" xmlns="http://www.w3.org/2000/svg">
<path d="M19.3894 74.7455V56.6238C19.3894 48.8552 23.7978 44.5761 30.1591 44.5761C35.7163 44.5761 40.2396 48.8696 40.2396 56.6238V73.8552C45.7967 72.3475 51.598 70.9259 57.6146 69.5617V55.4606C57.6146 36.5778 45.6818 27.5312 30.5037 27.5312C15.3257 27.5312 2 36.5634 2 55.4606V86.9368C7.3274 84.5962 13.1287 82.3561 19.3751 80.2022V74.7455H19.3894Z" fill="#A04B32"/>
<path d="M416.245 72.0603V63.5594C424.674 66.5031 429.111 69.1597 432.026 76.5261C432.069 76.6266 432.098 76.7415 432.141 76.842C432.213 77.0287 432.285 77.2298 432.357 77.4308C432.414 77.5887 432.471 77.7324 432.515 77.8903C432.586 78.0913 432.658 78.2924 432.716 78.5078C432.759 78.6514 432.802 78.7806 432.845 78.9242C440.699 81.4946 447.894 84.2229 454.37 87.0804H454.456C454.413 86.8076 454.37 86.5491 454.327 86.2763C452.101 72.7783 447.951 59.9839 435.343 54.6422L453.882 29.1539H433.606L416.231 54.5273V5.97754H398.856V69.6623C404.887 71.0264 410.688 72.4767 416.231 73.9845V72.0747L416.245 72.0603Z" fill="#A04B32"/>
<path d="M91.8046 42.9391C97.0171 42.9391 100.262 44.9063 101.196 47.9218L79.1825 52.0862C80.8052 46.1844 85.2135 42.9391 91.8189 42.9391M81.8103 64.6795C82.3273 64.579 82.9878 64.4641 83.7345 64.3492C86.6638 63.8323 89.6219 63.3441 92.6374 62.8558C92.7092 62.8558 92.781 62.8271 92.8528 62.8271C101.914 61.3768 111.334 60.0701 121.055 58.907C121.112 51.5692 119.734 46.5577 118.585 43.6571C118.427 43.255 118.269 42.896 118.126 42.5801C115.067 35.7162 106.997 27.5457 91.9338 27.5457C73.6254 27.5457 61.1182 40.8713 61.1182 58.1315C61.1182 60.6588 61.4341 63.0999 62.0372 65.4262C62.0516 65.4836 62.0803 65.5267 62.0946 65.5841C62.2957 66.3165 62.5111 67.0345 62.7696 67.7381C62.8126 67.8817 62.87 68.0253 62.9275 68.1545C62.9562 68.2263 62.9849 68.2981 63.028 68.3842C69.0878 67.0775 75.3772 65.857 81.8534 64.6939" fill="#A04B32"/>
<path d="M142.394 56.552C143.054 48.7835 148.611 43.9874 156.121 43.9874C162.971 43.9874 168.183 47.9937 169.548 54.5991C175.291 54.2545 181.107 53.9529 186.98 53.7088C185.056 38.6456 173.453 27.5457 159.596 27.5457C151.828 27.5457 146.156 30.2165 142.336 34.6106V5.99194H124.961V54.0821C124.961 55.2596 124.674 56.5664 124.157 57.9162C124.157 57.9162 124.171 57.9162 124.186 57.9162C124.143 58.031 124.071 58.1603 124.028 58.2752C123.985 58.3757 123.942 58.4762 123.898 58.5767C129.958 57.8731 136.133 57.2413 142.408 56.6669C142.408 56.6238 142.408 56.5951 142.408 56.552" fill="#A04B32"/>
<path d="M247.075 29.154H229.699V52.8473C235.544 52.8473 241.331 52.9191 247.075 53.0196V29.1396V29.154Z" fill="#A04B32"/>
<path d="M208.835 29.1538H191.46V53.522C197.189 53.3066 202.991 53.1487 208.835 53.0338V29.1538Z" fill="#A04B32"/>
<path d="M270.251 34.7973V26.4544L282.227 39.421L270.251 34.7973ZM270.251 43.5279V37.9995L278.393 45.1649L270.251 43.5135V43.5279ZM270.251 52.316V49.0707L276.182 51.6411L270.251 52.316ZM338.89 48.1947C338.459 49.5158 338.114 50.88 337.87 52.2872L332.184 51.6411L338.904 48.1947H338.89ZM302.876 43.5135C310.673 43.5135 316.374 48.6686 316.733 56.9541C322.376 57.4997 327.919 58.0885 333.376 58.7203L332.629 58.4475L337.368 57.3274C337.368 57.6003 337.353 57.8587 337.353 58.1316C337.353 58.4906 337.353 58.8352 337.382 59.1942C343.413 59.9265 349.329 60.7306 355.116 61.5779C355.102 61.5061 355.073 61.4199 355.059 61.3338C354.843 60.3142 354.728 59.2516 354.728 58.1172C354.728 50.1189 360.286 44.6767 367.824 44.6767C372.922 44.6767 377.086 47.1178 379.068 51.1672L394.246 42.3647C389.263 33.4474 379.298 27.5313 368.054 27.5313C355.777 27.5313 345.696 34.0219 340.714 43.7864L329.973 45.1649L344.605 32.2843L326.139 39.421L349.76 6.8248L320.926 34.7542L327.244 16.7473L314.665 31.4802L316.087 12.5399L307.758 29.7858L304.183 2L300.607 29.7858L292.279 12.5399L293.686 31.4802L281.107 16.7473L287.425 34.7542L270.251 23.8983V2.48822H252.876V53.1488C265.268 53.4647 277.417 53.996 289.249 54.7571C290.441 47.7783 295.782 43.5135 302.876 43.5135Z" fill="#A04B32"/>
<path d="M40.2542 87.0948H57.6292V69.5618C51.5982 70.9259 45.7969 72.3619 40.2542 73.8553V87.0948Z" fill="#FFF7DA"/>
<path d="M19.3897 87.0947V80.2021C13.129 82.3561 7.32769 84.5962 2.01465 86.9368V87.0947H19.3897Z" fill="#FFF7DA"/>
<path d="M432.888 79.0105C432.96 79.2259 433.017 79.4412 433.089 79.671C433.132 79.8433 433.19 80.0156 433.233 80.1879C433.29 80.4177 433.362 80.6475 433.419 80.8916C433.462 81.0639 433.52 81.2506 433.563 81.4229C433.62 81.667 433.692 81.9255 433.75 82.1839C433.793 82.3562 433.836 82.5429 433.879 82.7296C433.936 83.0024 434.008 83.2752 434.066 83.5624C434.109 83.7491 434.152 83.9214 434.18 84.1081C434.252 84.424 434.31 84.7399 434.381 85.0702C434.41 85.2282 434.453 85.4005 434.482 85.5584C434.583 86.061 434.683 86.5636 434.769 87.0805H454.384C447.908 84.223 440.714 81.4947 432.859 78.9243C432.859 78.953 432.874 78.9817 432.888 78.9961" fill="#FFF7DA"/>
<path d="M416.245 87.0946V73.9844C410.702 72.4766 404.886 71.0406 398.87 69.6621V87.0946H416.245Z" fill="#FFF7DA"/>
<path d="M63.8757 70.4519C64.206 71.1125 64.5507 71.773 64.924 72.4049C64.9814 72.5054 65.0389 72.6059 65.0963 72.692C65.484 73.3382 65.9148 73.97 66.36 74.5875C66.4461 74.7167 66.5466 74.8316 66.6328 74.9609C67.0923 75.564 67.5661 76.1671 68.0831 76.7414C68.1692 76.8276 68.2554 76.9138 68.3272 77.0143C68.8442 77.5743 69.3755 78.1343 69.9499 78.6656C69.9929 78.7087 70.036 78.7518 70.0791 78.7948C70.6678 79.3405 71.2853 79.8575 71.9315 80.3744C72.0464 80.4749 72.1756 80.5755 72.3048 80.6616C72.9366 81.1498 73.5972 81.6093 74.2864 82.0688C74.4157 82.155 74.5449 82.2412 74.6741 82.313C75.3921 82.7725 76.1245 83.2033 76.8999 83.6197C76.943 83.6484 76.986 83.6627 77.0291 83.6915C77.7758 84.0935 78.5656 84.4669 79.3697 84.8259C79.499 84.8833 79.6282 84.9407 79.7574 84.9982C80.5616 85.3428 81.3944 85.6731 82.256 85.9746C82.4283 86.0321 82.6006 86.0895 82.7729 86.147C83.6489 86.4485 84.5392 86.7213 85.4582 86.9654C85.5731 86.9942 85.7023 87.0229 85.8315 87.066C86.7362 87.2957 87.6552 87.5111 88.6029 87.6978C88.7034 87.7122 88.804 87.7409 88.9045 87.7552C89.8809 87.9419 90.8861 88.0999 91.92 88.2291C92.121 88.2578 92.3077 88.2866 92.5087 88.3009C93.5283 88.4302 94.5622 88.5163 95.6248 88.5881C95.8115 88.5881 95.9981 88.6025 96.1848 88.6168C97.3048 88.6743 98.4392 88.7173 99.588 88.7173C113.258 88.7173 123.224 83.3899 130.174 75.966C135.501 83.7345 144.663 88.7173 156.366 88.7173C172.937 88.7173 187.311 75.3916 187.311 58.1314C187.311 57.5571 187.296 56.9683 187.268 56.3939C187.268 56.2073 187.239 56.0206 187.224 55.8339C187.196 55.4462 187.167 55.0729 187.138 54.6851C187.138 54.6134 187.138 54.5559 187.124 54.4841C187.095 54.2256 187.038 53.9672 187.009 53.6943C181.136 53.9384 175.32 54.24 169.577 54.5846C169.605 54.7569 169.648 54.9149 169.677 55.0872C169.735 55.4462 169.778 55.8195 169.821 56.1929C169.821 56.3078 169.849 56.4226 169.864 56.5375C169.907 57.0544 169.936 57.5858 169.936 58.1171C169.936 66.8046 164.149 72.2469 156.15 72.2469C148.152 72.2469 142.365 66.8046 142.365 58.1171C142.365 57.6145 142.394 57.1263 142.423 56.6524C136.147 57.2268 129.973 57.8729 123.913 58.5622C123.87 58.6484 123.841 58.7346 123.798 58.8207C123.655 59.1366 123.497 59.4382 123.339 59.7541C123.238 59.9408 123.138 60.1274 123.037 60.3141C122.836 60.6587 122.621 61.0177 122.391 61.3623C122.29 61.5059 122.204 61.6495 122.104 61.7931C121.759 62.2813 121.4 62.7696 120.998 63.2578C120.912 63.3583 120.826 63.4588 120.74 63.5594C120.424 63.9471 120.079 64.3204 119.72 64.6938C119.562 64.8661 119.39 65.024 119.232 65.182C118.93 65.4835 118.614 65.7851 118.284 66.0867C118.098 66.259 117.896 66.4313 117.695 66.6036C117.365 66.8908 117.021 67.1636 116.662 67.4365C116.461 67.5944 116.245 67.7523 116.03 67.9103C115.628 68.1975 115.226 68.4703 114.795 68.7431C114.608 68.858 114.421 68.9873 114.235 69.1021C113.617 69.4755 112.985 69.8488 112.325 70.1791C112.239 70.2222 112.153 70.2509 112.066 70.294C111.478 70.5812 110.889 70.854 110.272 71.1125C110.042 71.213 109.798 71.2848 109.554 71.3853C109.065 71.572 108.591 71.7443 108.089 71.9023C107.802 71.9884 107.529 72.0746 107.242 72.1464C106.753 72.2756 106.251 72.4048 105.748 72.5197C105.447 72.5772 105.16 72.649 104.858 72.7064C104.312 72.8069 103.752 72.8787 103.192 72.9505C102.919 72.9792 102.661 73.0223 102.388 73.051C101.555 73.1228 100.708 73.1803 99.8321 73.1803C88.244 73.1803 83.5771 68.8437 81.8396 64.6794C75.3634 65.8425 69.0739 67.0631 63.0142 68.3698C63.2583 69.016 63.5168 69.6478 63.804 70.2653C63.8327 70.3227 63.8757 70.3945 63.9044 70.4519" fill="#FFF7DA"/>
<path d="M191.46 64.7228C191.46 80.3604 207.571 88.7033 219.274 88.7033C234.338 88.7033 247.089 78.1634 247.089 64.7228V53.0342C241.345 52.9193 235.544 52.8618 229.714 52.8618V62.1812C229.714 69.1312 225.664 72.7211 219.289 72.7211C213.732 72.7211 208.864 69.1312 208.864 62.1812V53.0342C203.019 53.149 197.218 53.307 191.489 53.5224V64.7228H191.46Z" fill="#FFF7DA"/>
<path d="M270.251 73.7835L280.116 71.2849L270.251 82.4567V73.7835ZM270.251 65.1821L277.072 65.1247L270.251 69.7628V65.1677V65.1821ZM270.251 57.1407L275.737 58.4331L270.251 60.4578V57.1407ZM338.1 65.1821C338.129 65.297 338.158 65.4262 338.186 65.5411C338.244 65.7996 338.316 66.0581 338.373 66.3165C338.431 66.5607 338.502 66.7904 338.56 67.0345C338.632 67.293 338.718 67.5514 338.79 67.8243C338.861 68.054 338.933 68.2838 339.005 68.4992C339.091 68.7576 339.192 69.0161 339.278 69.2746C339.364 69.49 339.436 69.7054 339.522 69.9208C339.622 70.1792 339.737 70.4377 339.838 70.6818C339.895 70.8254 339.953 70.9547 340.01 71.0983L331.251 65.139L338.072 65.1964L338.1 65.1821ZM252.876 87.0948H270.251V84.2373L284.668 76.5405L269.189 102L290.455 80.5325L286.564 99.1569L297.104 83.0454L298.195 102L304.197 83.8926L310.2 102L311.291 83.0454L321.831 99.1569L317.939 80.5325L340.699 102L323.712 76.5405L341.087 85.8168L328.264 71.2849L342.035 74.7743C342.092 74.8605 342.15 74.9323 342.193 75.0184C342.408 75.3631 342.638 75.6933 342.868 76.0236C342.968 76.1672 343.054 76.2964 343.155 76.44C343.485 76.8995 343.83 77.3447 344.174 77.7754C344.232 77.8472 344.289 77.9047 344.347 77.9765C344.648 78.3499 344.964 78.7088 345.294 79.0535C345.424 79.1971 345.553 79.3263 345.682 79.4555C345.955 79.7427 346.228 80.0155 346.515 80.2884C346.644 80.4176 346.788 80.5469 346.917 80.6761C347.247 80.9777 347.592 81.2792 347.937 81.5664C348.023 81.6382 348.109 81.7244 348.195 81.7962C348.626 82.1551 349.071 82.4998 349.53 82.83C349.66 82.9306 349.789 83.0023 349.918 83.1028C350.263 83.347 350.607 83.5767 350.952 83.8065C351.11 83.907 351.282 84.0075 351.44 84.108C351.785 84.3234 352.13 84.5244 352.489 84.7255C352.632 84.8116 352.79 84.8978 352.948 84.984C353.451 85.2568 353.968 85.5153 354.485 85.7594C354.528 85.7881 354.585 85.8025 354.628 85.8312C355.102 86.0466 355.59 86.262 356.078 86.4486C356.251 86.5204 356.423 86.5779 356.595 86.6497C356.983 86.7933 357.371 86.9369 357.758 87.0661C357.945 87.1235 358.132 87.1953 358.318 87.2528C358.749 87.3964 359.194 87.5112 359.654 87.6405C359.783 87.6692 359.912 87.7123 360.042 87.741C360.616 87.8846 361.205 88.0138 361.794 88.1287C361.937 88.1574 362.095 88.1862 362.239 88.2005C362.698 88.2867 363.158 88.3585 363.617 88.4159C363.818 88.4446 364.034 88.4733 364.235 88.4877C364.665 88.5308 365.111 88.5739 365.556 88.6026C365.742 88.6026 365.943 88.6313 366.13 88.6457C366.762 88.6744 367.394 88.7031 368.04 88.7031C379.398 88.7031 389.249 82.8013 394.232 73.7548L380.332 65.7996C379.829 65.6991 379.312 65.6129 378.795 65.5124C376.842 69.2889 372.707 71.5578 367.81 71.5578C367.365 71.5578 366.934 71.529 366.503 71.5003C366.36 71.5003 366.231 71.4716 366.087 71.4429C365.8 71.4142 365.527 71.3711 365.24 71.328C365.082 71.2993 364.924 71.2706 364.766 71.2275C364.522 71.17 364.263 71.1126 364.019 71.0552C363.861 71.0121 363.703 70.969 363.545 70.9116C363.301 70.8398 363.072 70.7536 362.842 70.6675C362.698 70.61 362.555 70.5526 362.397 70.4951C362.153 70.3946 361.923 70.2798 361.693 70.1649C361.564 70.1075 361.435 70.05 361.32 69.9782C361.018 69.8203 360.731 69.6479 360.444 69.4612C360.401 69.4325 360.358 69.4038 360.3 69.3751C359.984 69.1597 359.668 68.93 359.367 68.6859C359.266 68.5997 359.166 68.5135 359.08 68.4274C358.879 68.255 358.692 68.0827 358.505 67.9104C358.39 67.8099 358.29 67.695 358.189 67.5801C358.031 67.4078 357.859 67.2355 357.715 67.0488C357.615 66.934 357.514 66.8048 357.414 66.6755C357.27 66.4889 357.127 66.2878 356.997 66.0868C356.911 65.9575 356.825 65.8283 356.739 65.699C356.595 65.4836 356.48 65.2539 356.351 65.0241C356.279 64.8949 356.208 64.7801 356.15 64.6508C355.992 64.3493 355.863 64.0333 355.734 63.7174C355.705 63.66 355.676 63.6025 355.662 63.5451C355.518 63.1574 355.375 62.7697 355.26 62.3677C355.231 62.2528 355.203 62.1235 355.174 61.9943C355.131 61.8363 355.102 61.6927 355.059 61.5348C349.272 60.6876 343.356 59.8834 337.325 59.1511C337.325 59.2085 337.325 59.2803 337.325 59.3378C337.325 59.4239 337.325 59.5101 337.339 59.5962C337.339 59.668 337.339 59.7255 337.339 59.7973C337.339 59.9122 337.339 60.0414 337.354 60.1563L336.406 59.8116L334.295 59.0362L333.319 58.6772C327.862 58.0454 322.319 57.4567 316.676 56.911C316.676 57.112 316.704 57.2987 316.704 57.4854C316.704 57.5572 316.704 57.6433 316.704 57.7151C316.704 66.4745 310.86 71.9598 302.804 71.9598C294.749 71.9598 288.904 66.4745 288.904 57.7151C288.904 57.0689 288.947 56.4515 289.005 55.8484C289.005 55.791 289.005 55.7192 289.005 55.6617C289.048 55.3314 289.105 55.0299 289.148 54.714C277.316 53.9529 265.168 53.4216 252.776 53.1057V87.0374L252.876 87.0948Z" fill="#FFF7DA"/>
</svg>
