<svg width="840" height="150" viewBox="0 0 840 150" fill="none" xmlns="http://www.w3.org/2000/svg">
<g clip-path="url(#clip0_185_11)">
<path d="M125.451 124.451C111.452 138.451 94.3737 145.436 74.2178 145.436C54.0619 145.436 36.9842 138.436 22.9846 124.451C8.98499 110.466 2 93.3885 2 73.2178C2 53.0471 8.99979 35.9842 22.9846 21.9846C36.9694 7.99979 54.0471 1 74.2178 1C94.3885 1 111.452 7.99979 125.451 21.9846C139.436 35.9842 146.436 53.0619 146.436 73.2178C146.436 93.3737 139.436 110.451 125.451 124.451ZM39.1153 108.927C48.6013 118.413 60.307 123.149 74.2326 123.149C88.1583 123.149 99.8641 118.413 109.35 108.927C118.836 99.4412 123.572 87.543 123.572 73.2178C123.572 58.8926 118.821 46.9945 109.35 37.5085C99.8641 28.0225 88.1583 23.2869 74.2326 23.2869C60.307 23.2869 48.6013 28.0373 39.1153 37.5085C29.6293 46.9945 24.8937 58.8926 24.8937 73.2178C24.8937 87.543 29.6293 99.456 39.1153 108.927Z" fill="black"/>
<path d="M249.302 70.628C255.399 73.8098 260.179 78.1902 263.627 83.7545C267.075 89.3188 268.792 95.7563 268.792 103.052C268.792 114.462 264.737 123.948 256.657 131.51C248.562 139.072 238.676 142.846 227.015 142.846H167.332V3.57495H222.634C234.044 3.57495 243.693 7.25983 251.581 14.6148C259.468 21.9698 263.42 31.1598 263.42 42.1701C263.42 54.2459 258.714 63.7318 249.287 70.628H249.302ZM222.649 25.0627H190.225V61.6748H222.649C227.696 61.6748 231.928 59.9138 235.376 56.4065C238.824 52.8992 240.556 48.5483 240.556 43.3688C240.556 38.1892 238.824 33.8532 235.376 30.3311C231.928 26.8238 227.681 25.0627 222.649 25.0627ZM227.015 121.358C232.313 121.358 236.797 119.464 240.437 115.69C244.078 111.917 245.913 107.299 245.913 101.868C245.913 96.437 244.093 91.8199 240.437 88.0462C236.782 84.2725 232.313 82.3782 227.015 82.3782H190.21V121.373H227.015V121.358Z" fill="black"/>
<path d="M413.109 3.57495H435.988V142.846H413.109V3.57495Z" fill="black"/>
<path d="M601.32 73.2178C601.32 91.8346 595.252 107.936 583.117 121.506L597.738 136.482L581.623 151L566.158 135.165C554.526 142.017 542.169 145.436 529.087 145.436C509.064 145.436 492.016 138.436 477.957 124.451C463.899 110.466 456.869 93.3885 456.869 73.2178C456.869 53.0471 463.899 35.9842 477.957 21.9846C492.016 7.99979 509.064 1 529.087 1C549.11 1 566.158 7.99979 580.217 21.9846C594.275 35.9842 601.305 53.0619 601.305 73.2178H601.32ZM529.013 123.149C536.427 123.149 543.383 121.595 549.864 118.472L524.514 92.5154L540.63 77.9978L567.371 105.39C574.741 96.2003 578.426 85.4712 578.426 73.2178C578.426 59.0258 573.646 47.1573 564.101 37.6121C554.556 28.0669 542.879 23.2869 529.087 23.2869C515.295 23.2869 503.618 28.0669 494.073 37.6121C484.528 47.1573 479.748 59.0406 479.748 73.2178C479.748 87.395 484.513 99.2784 494.044 108.824C503.574 118.369 515.235 123.149 528.998 123.149H529.013Z" fill="black"/>
<path d="M711.348 132.206C701.536 141.026 688.869 145.436 673.345 145.436C657.821 145.436 645.153 141.026 635.342 132.206C625.53 123.386 620.617 111.547 620.617 96.6886V3.57495H643.496V95.2975C643.496 103.792 645.982 110.555 650.954 115.587C655.927 120.633 663.385 123.149 673.33 123.149C683.275 123.149 690.733 120.633 695.706 115.587C700.678 110.54 703.164 103.777 703.164 95.2975V3.57495H726.043V96.6886C726.043 111.547 721.13 123.386 711.318 132.206H711.348Z" fill="black"/>
<path d="M775.205 120.959H836.886V142.846H752.326V3.57495H835.879V25.4623H775.205V61.6748H830.907V83.3549H775.205V120.959Z" fill="black"/>
<path d="M351.605 3.57495H326.669L276.709 142.846H301.645L351.605 3.57495Z" fill="#8958FE"/>
<path d="M396.209 120.959H322.792L314.949 142.846H396.209V120.959Z" fill="black"/>
</g>
<defs>
<clipPath id="clip0_185_11">
<rect width="840" height="150" fill="white"/>
</clipPath>
</defs>
</svg>
