<?xml version="1.0" encoding="UTF-8"?><svg id="Layer_1" xmlns="http://www.w3.org/2000/svg" xmlns:xlink="http://www.w3.org/1999/xlink" viewBox="0 0 590.41 172.71"><defs><style>.cls-1{stroke:#373435;stroke-miterlimit:2.61;stroke-width:.22px;}.cls-1,.cls-2{fill:none;}.cls-3{clip-path:url(#clippath);}.cls-4{fill:url(#linear-gradient);}.cls-4,.cls-5,.cls-6,.cls-7,.cls-2,.cls-8,.cls-9{stroke-width:0px;}.cls-5{fill:#fe2c06;}.cls-5,.cls-6,.cls-8,.cls-9{fill-rule:evenodd;}.cls-6{fill:#fefefe;}.cls-7,.cls-8{fill:#000;}.cls-2{clip-rule:evenodd;}.cls-9{fill:#8a0a1c;}</style><clipPath id="clippath"><path class="cls-2" d="M123.59,103.5c-.02,6.13-5,11.09-11.14,11.09-3.7,0-6.97-1.8-9-4.58l20.13-6.51ZM112.46,92.32c4.77,0,8.84,3,10.43,7.22l-21.17,6.85c-.25-.93-.39-1.92-.39-2.93,0-6.15,4.99-11.14,11.14-11.14Z"/></clipPath><linearGradient id="linear-gradient" x1="114.6" y1="108.33" x2="109.61" y2="96.94" gradientUnits="userSpaceOnUse"><stop offset="0" stop-color="#fe2c06"/><stop offset="1" stop-color="#8a0a1c"/></linearGradient></defs><path class="cls-8" d="M17.33,113.64l57.68,58.89,44.32-45.25,17.14,20.19.82.39c2.91,1.39,6.46.18,8.92-1.59,3-2.16,4.96-6.2,2.81-9.64l-.15-.23-14.86-18.08-1.73,1.26-1.92-2.28.63-.89c2.67-3.81,4.08-8.31,4.08-12.96,0-1.43-.13-2.85-.4-4.25l-.17-.88.78-.57c.39-.28.77-.57,1.15-.87,3.97-3.07,7.52-6.66,10.95-10.3l2.63-2.79-12.29-14.28.42-.85c2.25-4.48,3.96-9.42,5.18-14.28l.06-.24c1-4.07,1.73-8.35,1.89-12.55.28-7.08.51-14.19.34-21.28l-.09-3.95-3.95-.19c-4.18-.2-8.51.1-12.66.59-7.88.93-15.96,2.91-23.04,6.55l-1.31.67-6.81-14.49L75,0l-22.75,9.51-6.81,14.49-1.31-.67c-7.08-3.64-15.16-5.62-23.04-6.55-4.15-.49-8.48-.79-12.66-.59l-3.95.19-.09,3.95c-.17,7.09.07,14.19.34,21.28.16,4.19.89,8.48,1.89,12.55l.06.24c1.21,4.86,2.92,9.8,5.17,14.28l.42.85L0,83.8l2.63,2.79c3.43,3.64,6.99,7.23,10.95,10.3.05.04.1.08.16.12l.43.33,3.16,16.31Z"/><polygon class="cls-5" points="75 4.61 94.6 12.8 103.28 31.26 75 31.26 75 4.61"/><path class="cls-5" d="M75,39.84l30.69.08,21,11.3c-17.23,2.09-30.37,3.73-51.69,3.82v-15.19Z"/><path class="cls-9" d="M54.68,72.63c2.19,0,3.96,1.77,3.96,3.96s-1.77,3.96-3.96,3.96-3.96-1.77-3.96-3.96,1.77-3.96,3.96-3.96M75,59.57c-14.38-.27-29.37-1.15-45.9-3.06l-23.39,27.16c10.4,11.04,15.78,14.7,31.47,20.35,14.23,5.12,31.41,11.3,37.82,11.53v-9.3h-5.45s-.76-.22-.95-1.78c-.19-1.56,1.02-1.74,1.02-1.74h3v-4.61s-4.29-2.23-5.27-5.2c-.49-1.5-.39-2.52-.03-3.22.91-1.78,3.18-1.92,4.9-1.92h2.77v-28.2Z"/><path class="cls-9" d="M75,119.28v15.67l-22.67-21.83s13.29,5.42,22.67,6.15"/><path class="cls-9" d="M19.21,101.04s9.12,4.38,15.61,6.74c6.49,2.35,10.56,3.57,10.56,3.57l29.62,29.06v26.05l-53.75-54.88-2.04-10.54Z"/><path class="cls-5" d="M95.33,72.63c-2.19,0-3.96,1.77-3.96,3.96s1.77,3.96,3.96,3.96,3.96-1.77,3.96-3.96-1.77-3.96-3.96-3.96M75,59.57c14.38-.27,29.37-1.15,45.9-3.06l23.39,27.16c-4.34,4.61-7.81,7.93-11.52,10.65-3.49-7.74-11.27-13.13-20.31-13.13-12.29,0-22.26,9.96-22.26,22.26,0,2.8.52,5.47,1.46,7.94-7.17,2.33-13.35,4.03-16.66,4.15v-9.3h5.45s.76-.22.95-1.78c.19-1.56-1.02-1.74-1.02-1.74h-3v-4.61s4.29-2.23,5.27-5.2c.49-1.5.39-2.52.03-3.22-.91-1.78-3.18-1.92-4.9-1.92h-2.77v-28.2Z"/><path class="cls-5" d="M75,119.28v15.67l19.32-18.6c-.37-.51-.71-1.04-1.03-1.59-4.7,1.66-12.29,4.04-18.29,4.51"/><path class="cls-5" d="M96.67,119.14l-21.67,21.26v26.05l40.05-40.89c-.85.1-1.72.15-2.6.15-6.17,0-11.75-2.51-15.79-6.57"/><polygon class="cls-9" points="75 4.61 55.41 12.8 46.73 31.26 75 31.26 75 4.61"/><path class="cls-9" d="M75,39.84l-30.69.08-21,11.3c17.23,2.09,30.37,3.73,51.69,3.82v-15.19Z"/><g class="cls-3"><rect class="cls-4" x="101.32" y="92.32" width="22.27" height="22.27"/></g><path class="cls-6" d="M91.66,111.39c-7.17,2.33-13.35,4.03-16.66,4.15-3.95-.14-12.01-2.55-20.94-5.58-1.72-2.33-2.54-4.33-2.78-6.87-.76-8.31,5.39-17.33,12.16-22.37,3.91-2.91,7.73-4.22,11.56-4.31,3.84.09,7.65,1.4,11.56,4.31,3.12,2.32,6.1,5.48,8.34,9.03-2.95,3.78-4.71,8.53-4.71,13.69,0,2.8.52,5.47,1.46,7.94M48.72,64.53c4.04-1.01,8.4-1.47,12.06.83,2.52,1.58,3.78,4.34,4.73,7.05l-2.89-.4s-5.81-4.89-13.91-7.47ZM101.29,64.53c-4.04-1.01-8.4-1.47-12.06.83-2.52,1.58-3.78,4.34-4.73,7.05l2.89-.4s5.81-4.89,13.91-7.47ZM133.83,93.52c-.35.27-.71.54-1.06.8-3.4-7.56-10.91-12.87-19.68-13.12-3.14-8.17-9.03-13.33-9.03-13.33,0,0,14.22,2.45,21.95,10.79,4.69,5.07,6.85,10.99,7.82,14.86ZM16.18,93.52c5.39,4.17,11.07,6.89,20.55,10.33-1.08-2.77-2.63-8.46-1.45-16.48,1.72-11.65,10.67-19.49,10.67-19.49,0,0-14.22,2.45-21.95,10.79-4.69,5.07-6.85,10.99-7.82,14.86ZM106.31,27.92l4.8,9.69c4.26-2.45,12.24-5.72,20.42-6.19-.31,5.7-1,11.13-3.28,16.6l8.07,4.41c-2.89,1.68-7.5,2.64-10.54,3.47l8.3,11.4s6.41-12.34,6.94-25.84c.53-13.5.34-21.01.34-21.01,0,0-20.04-.98-35.05,7.48ZM43.7,27.92l-4.8,9.69c-4.26-2.45-12.24-5.72-20.42-6.19.31,5.7,1,11.13,3.28,16.6l-8.07,4.41c2.89,1.68,7.5,2.64,10.54,3.47l-8.3,11.4s-6.41-12.34-6.94-25.84c-.53-13.5-.34-21.01-.34-21.01,0,0,20.04-.98,35.05,7.48ZM116.71,93.16c2.84,1.18,5.09,3.49,6.17,6.38l-7.93,2.57c.48-1.17.99-2.72,1.27-4.46.31-1.91.43-3.43.48-4.48ZM112.46,89.15c7.9,0,14.3,6.4,14.3,14.3s-6.4,14.3-14.3,14.3-14.3-6.4-14.3-14.3,6.4-14.3,14.3-14.3ZM112.46,85.1c10.14,0,18.36,8.22,18.36,18.36s-8.22,18.36-18.36,18.36-18.36-8.22-18.36-18.36,8.22-18.36,18.36-18.36ZM124.11,122.42l2.7,2.95s.68-1.08,1.24-1.48c.56-.4,1.77-.64,1.77-.64l-2.62-3.11s-1.44,1.57-3.09,2.29ZM126.46,129.12l12.66,14.91s1.76.84,4.61-1.2c2.85-2.05,1.68-3.93,1.68-3.93l-12.14-14.76-6.82,4.99ZM105.17,102s1.02-2.31,2.81-3.92c1.18-1.06,2.18-1.33,2.85-1.71.71-.4,1.17-1.48.84-2.21-.32-.72-1.25-1.08-2.51-.64-1.75.6-3.51,1.52-5.01,3.68-1.5,2.16-1.47,4.55-1.47,4.55l2.49.26ZM75,87.77h2.77c1.72,0,4,.14,4.9,1.92.36.71.46,1.72-.03,3.22-.97,2.97-5.27,5.2-5.27,5.2v4.61h3s1.21.19,1.02,1.74c-.19,1.56-.95,1.78-.95,1.78h-10.9s-.76-.22-.95-1.78c-.19-1.56,1.02-1.74,1.02-1.74h3v-4.61s-4.29-2.23-5.27-5.2c-.49-1.5-.39-2.52-.03-3.22.91-1.78,3.18-1.92,4.9-1.92h2.77ZM104.02,102.88c1.01,0,1.84.82,1.84,1.84s-.82,1.84-1.84,1.84-1.84-.82-1.84-1.84.82-1.84,1.84-1.84Z"/><path class="cls-8" d="M54.68,80.55c2.19,0,3.96-1.77,3.96-3.96s-1.77-3.96-3.96-3.96-3.96,1.77-3.96,3.96,1.77,3.96,3.96,3.96ZM77.38,98.11s4.29-2.23,5.27-5.2c.49-1.5.39-2.52.03-3.22-.91-1.78-3.18-1.92-4.9-1.92h-5.54c-1.72,0-4,.14-4.9,1.92-.36.71-.46,1.72.03,3.22.97,2.97,5.27,5.2,5.27,5.2v4.61h-3s-1.21.19-1.02,1.74c.19,1.56.95,1.78.95,1.78h10.9s.76-.22.95-1.78c.19-1.56-1.02-1.74-1.02-1.74h-3v-4.61ZM91.36,76.59c0,2.19,1.77,3.96,3.96,3.96s3.96-1.77,3.96-3.96-1.77-3.96-3.96-3.96-3.96,1.77-3.96,3.96Z"/><path class="cls-1" d="M54.68,80.55c2.19,0,3.96-1.77,3.96-3.96s-1.77-3.96-3.96-3.96-3.96,1.77-3.96,3.96,1.77,3.96,3.96,3.96ZM77.38,98.11s4.29-2.23,5.27-5.2c.49-1.5.39-2.52.03-3.22-.91-1.78-3.18-1.92-4.9-1.92h-5.54c-1.72,0-4,.14-4.9,1.92-.36.71-.46,1.72.03,3.22.97,2.97,5.27,5.2,5.27,5.2v4.61h-3s-1.21.19-1.02,1.74c.19,1.56.95,1.78.95,1.78h10.9s.76-.22.95-1.78c.19-1.56-1.02-1.74-1.02-1.74h-3v-4.61ZM91.36,76.59c0,2.19,1.77,3.96,3.96,3.96s3.96-1.77,3.96-3.96-1.77-3.96-3.96-3.96-3.96,1.77-3.96,3.96Z"/><path class="cls-7" d="M194.82,85.23c0,2.8-.36,5.37-1.07,7.72-.71,2.35-1.74,4.37-3.09,6.05-1.34,1.69-2.99,3.01-4.95,3.96-1.95.95-4.17,1.42-6.65,1.42-1.95,0-3.67-.24-5.14-.71-1.48-.48-2.58-1-3.32-1.58v14.48h-6.57v-48.66c1.42-.42,3.26-.84,5.5-1.27,2.24-.42,4.81-.63,7.71-.63,2.64,0,5.04.45,7.2,1.35s4.01,2.18,5.54,3.84c1.53,1.66,2.72,3.68,3.56,6.05.84,2.37,1.27,5.04,1.27,7.99ZM188.09,85.23c0-4.27-1-7.58-3.01-9.93-2.01-2.35-4.62-3.52-7.83-3.52-1.79,0-3.2.08-4.23.24-1.03.16-1.83.34-2.41.55v23.18c.74.69,1.82,1.32,3.24,1.9,1.42.58,2.9.87,4.43.87,1.74,0,3.23-.34,4.47-1.03,1.24-.68,2.26-1.62,3.05-2.81s1.37-2.58,1.74-4.19c.37-1.61.55-3.36.55-5.26Z"/><path class="cls-7" d="M210.14,103.51v-34.73c5.38-1.85,10.81-2.77,16.3-2.77,1.69,0,3.3.07,4.83.2,1.53.13,3.22.41,5.06.83l-1.19,5.78c-1.69-.47-3.18-.78-4.47-.91-1.29-.13-2.7-.2-4.23-.2-3.22,0-6.49.45-9.81,1.34v30.46h-6.49Z"/><path class="cls-7" d="M279.28,85.15c0,2.9-.41,5.53-1.23,7.87-.82,2.35-1.97,4.37-3.44,6.05-1.48,1.69-3.24,2.99-5.3,3.92-2.06.92-4.3,1.38-6.72,1.38s-4.58-.46-6.61-1.38c-2.03-.92-3.79-2.23-5.26-3.92-1.48-1.69-2.62-3.71-3.44-6.05-.82-2.35-1.23-4.97-1.23-7.87s.41-5.54,1.23-7.91c.82-2.37,1.96-4.39,3.44-6.05,1.48-1.66,3.23-2.95,5.26-3.88,2.03-.92,4.23-1.38,6.61-1.38s4.67.46,6.72,1.38c2.06.92,3.82,2.22,5.3,3.88,1.48,1.66,2.62,3.68,3.44,6.05.82,2.37,1.23,5.01,1.23,7.91ZM272.56,85.15c0-4.17-.9-7.45-2.69-9.85-1.79-2.4-4.22-3.6-7.28-3.6s-5.39,1.2-7.16,3.6c-1.77,2.4-2.65,5.68-2.65,9.85s.88,7.37,2.65,9.77c1.77,2.4,4.15,3.6,7.16,3.6s5.49-1.2,7.28-3.6c1.79-2.4,2.69-5.66,2.69-9.77Z"/><path class="cls-7" d="M295.52,67.82c3.16-1.21,6.14-1.82,8.94-1.82,1.53,0,2.97.22,4.31.67,1.35.45,2.49,1.15,3.44,2.1,2.27-1.85,4.69-2.77,7.28-2.77,1.27,0,2.47.24,3.6.71,1.13.47,2.14,1.19,3.01,2.14s1.57,2.14,2.1,3.56c.53,1.42.79,3.09.79,4.98v26.11h-5.93v-26.27c0-1.9-.42-3.35-1.27-4.35-.84-1-1.9-1.5-3.16-1.5-.63,0-1.29.16-1.98.48-.69.32-1.32.82-1.9,1.5.32,1.21.47,2.56.47,4.03v11.95h-5.93v-12.03c0-1.85-.29-3.3-.87-4.35-.58-1.06-1.71-1.58-3.4-1.58-1.06,0-2.24.24-3.56.71v31.41h-5.93v-35.68Z"/><path class="cls-7" d="M380.1,85.23c0,2.8-.36,5.37-1.07,7.72-.72,2.35-1.74,4.37-3.08,6.05-1.35,1.69-3,3.01-4.95,3.96-1.95.95-4.16,1.42-6.64,1.42-1.95,0-3.67-.24-5.14-.71-1.48-.48-2.58-1-3.32-1.58v14.48h-6.57v-48.66c1.42-.42,3.26-.84,5.5-1.27,2.24-.42,4.81-.63,7.71-.63,2.64,0,5.03.45,7.2,1.35,2.16.9,4.01,2.18,5.54,3.84,1.53,1.66,2.71,3.68,3.56,6.05.85,2.37,1.27,5.04,1.27,7.99ZM373.37,85.23c0-4.27-1-7.58-3-9.93-2.01-2.35-4.62-3.52-7.83-3.52-1.79,0-3.2.08-4.23.24-1.03.16-1.83.34-2.41.55v23.18c.74.69,1.82,1.32,3.24,1.9,1.42.58,2.9.87,4.43.87,1.74,0,3.23-.34,4.47-1.03,1.24-.68,2.26-1.62,3.05-2.81s1.37-2.58,1.74-4.19c.37-1.61.55-3.36.55-5.26Z"/><path class="cls-7" d="M414.36,66.79h15.51v5.46h-15.51v17.09c0,1.85.13,3.35.4,4.51.26,1.16.7,2.1,1.3,2.81.61.71,1.39,1.2,2.33,1.46.95.26,2.11.4,3.48.4,1.9,0,3.43-.16,4.59-.47,1.16-.32,2.27-.74,3.32-1.27l.95,5.54c-.74.32-1.91.74-3.52,1.27-1.61.53-3.6.79-5.97.79-2.74,0-4.98-.32-6.72-.95-1.74-.63-3.1-1.58-4.07-2.85-.98-1.27-1.65-2.83-2.02-4.71-.37-1.87-.55-4.05-.55-6.53v-17.09h-7.75v-5.46h7.75v-10.29l6.49-1.11v11.39Z"/><path class="cls-7" d="M458.33,103.51v-31.25h-7.75v-5.46h7.75v-3.32c0-2.85.4-5.21,1.19-7.08.79-1.87,1.83-3.39,3.13-4.55,1.29-1.16,2.8-1.98,4.51-2.45,1.71-.48,3.52-.71,5.42-.71s3.81.21,5.74.63c1.93.42,3.73.92,5.42,1.5l-1.18,5.62c-1.16-.58-2.61-1.08-4.35-1.5-1.74-.42-3.51-.63-5.3-.63-1.11,0-2.15.15-3.13.44-.98.29-1.83.79-2.57,1.5-.74.71-1.32,1.66-1.74,2.85-.42,1.19-.63,2.68-.63,4.47v3.24h14.8v5.46h-14.8v31.25h-6.49Z"/><path class="cls-7" d="M533.42,85.15c0,2.9-.41,5.53-1.22,7.87-.82,2.35-1.97,4.37-3.44,6.05-1.48,1.69-3.24,2.99-5.3,3.92-2.06.92-4.3,1.38-6.72,1.38s-4.58-.46-6.61-1.38c-2.03-.92-3.78-2.23-5.26-3.92s-2.63-3.71-3.44-6.05c-.82-2.35-1.22-4.97-1.22-7.87s.41-5.54,1.22-7.91c.82-2.37,1.97-4.39,3.44-6.05s3.23-2.95,5.26-3.88c2.03-.92,4.23-1.38,6.61-1.38s4.67.46,6.72,1.38c2.06.92,3.83,2.22,5.3,3.88,1.48,1.66,2.62,3.68,3.44,6.05.82,2.37,1.22,5.01,1.22,7.91ZM526.69,85.15c0-4.17-.9-7.45-2.69-9.85-1.79-2.4-4.22-3.6-7.28-3.6s-5.4,1.2-7.16,3.6c-1.77,2.4-2.65,5.68-2.65,9.85s.88,7.37,2.65,9.77c1.77,2.4,4.15,3.6,7.16,3.6s5.48-1.2,7.28-3.6c1.79-2.4,2.69-5.66,2.69-9.77Z"/><path class="cls-7" d="M584.84,85.15c0,2.9-.41,5.53-1.22,7.87-.82,2.35-1.97,4.37-3.44,6.05s-3.24,2.99-5.3,3.92c-2.06.92-4.3,1.38-6.72,1.38s-4.58-.46-6.61-1.38c-2.03-.92-3.78-2.23-5.26-3.92s-2.63-3.71-3.44-6.05c-.82-2.35-1.22-4.97-1.22-7.87s.41-5.54,1.22-7.91c.82-2.37,1.97-4.39,3.44-6.05s3.23-2.95,5.26-3.88c2.03-.92,4.23-1.38,6.61-1.38s4.67.46,6.72,1.38c2.06.92,3.83,2.22,5.3,3.88s2.62,3.68,3.44,6.05c.82,2.37,1.22,5.01,1.22,7.91ZM578.12,85.15c0-4.17-.9-7.45-2.69-9.85-1.79-2.4-4.22-3.6-7.28-3.6s-5.4,1.2-7.16,3.6c-1.77,2.4-2.65,5.68-2.65,9.85s.88,7.37,2.65,9.77c1.77,2.4,4.15,3.6,7.16,3.6s5.48-1.2,7.28-3.6c1.79-2.4,2.69-5.66,2.69-9.77Z"/></svg>