<?xml version="1.0" encoding="UTF-8"?>
<svg id="Layer_1" xmlns="http://www.w3.org/2000/svg" version="1.1" viewBox="0 0 469 64">
  <!-- Generator: Adobe Illustrator 29.5.1, SVG Export Plug-In . SVG Version: 2.1.0 Build 141)  -->
  <defs>
    <style>
      .st0 {
        fill: #101827;
      }

      .st1 {
        fill: #a13df7;
      }
    </style>
  </defs>
  <path class="st0" d="M95.2,63V18.3h12.5v9.7h.4c1-4.9,4.4-9.7,11.3-9.7h2.2v11.7h-3.1c-7.3,0-10.8,1.6-10.8,6.8v26.1h-12.5Z"/>
  <path class="st0" d="M155.5,55.5h-.4c-1.5,4.5-5.2,8.5-12.4,8.5s-13.8-6.4-13.8-17.6v-28.1h12.5v27c0,5.4,1.8,8.5,6.3,8.5s7.9-2.2,7.9-6.5v-29h12.5v44.7h-12.5v-7.5Z"/>
  <path class="st0" d="M179.7,63V18.3h12.5v7.6h.5c1.6-4.7,5.3-8.6,12.3-8.6s13.8,6.5,13.8,17.7v28h-12.5v-27c0-5.7-1.6-8.5-6.2-8.5s-8,2.1-8,6.6v28.9h-12.5,0Z"/>
  <path class="st0" d="M230,63V18.3h12.5v9.7h.4c1-4.9,4.4-9.7,11.3-9.7h2.2v11.7h-3.1c-7.3,0-10.8,1.6-10.8,6.8v26.1h-12.5Z"/>
  <path class="st0" d="M260.9,40.6c0-14.1,7.4-23.3,20.8-23.3s20.6,10.7,20.6,22.8v3.7h-28.4v.7c0,5.9,3.1,9.6,9.8,9.6s8.1-2.5,10.9-5.4l6.2,7.8c-4,4.6-10.5,7.4-18.6,7.4-13.6,0-21.3-9.1-21.3-23.4h0ZM273.8,35.7v.7h15.5v-.8c0-5.4-2.4-9.1-7.4-9.1s-8.1,3.7-8.1,9.2h0Z"/>
  <path class="st0" d="M319.7,63l-14.5-44.7h12.3l5.5,18,4.1,16.2h.7l4.1-16.2,5.3-18h11.8l-14.5,44.7h-14.9,0Z"/>
  <path class="st0" d="M352.2,40.6c0-14.1,7.4-23.3,20.8-23.3s20.6,10.7,20.6,22.8v3.7h-28.4v.7c0,5.9,3.1,9.6,9.8,9.6s8.1-2.5,10.9-5.4l6.2,7.8c-4,4.6-10.5,7.4-18.6,7.4-13.6,0-21.3-9.1-21.3-23.4h0ZM365.1,35.7v.7h15.5v-.8c0-5.4-2.4-9.1-7.4-9.1s-8.1,3.7-8.1,9.2h0Z"/>
  <path class="st0" d="M435.2,63c-4.5,0-7.7-3.1-8.4-7.8h-.5c-1.4,5.8-6.2,8.8-13,8.8s-13.8-5.3-13.8-13,7.3-14,19-14h7v-2.8c0-4.3-2.1-7.1-7.3-7.1s-7.6,2.6-9.5,5.3l-7.4-6.6c3.5-5.3,8.6-8.5,17.9-8.5s18.9,5.8,18.9,16.3v19.6h4.1v9.8h-6.9,0ZM425.5,49.4v-5.3h-6.1c-4.8,0-7.3,1.8-7.3,5v1.3c0,3.2,2.1,4.8,5.8,4.8s7.6-1.7,7.6-5.8Z"/>
  <path class="st0" d="M462.9,63c-8.5,0-12.4-4.3-12.4-12.3V0h12.5v53.2h5.6v9.8h-5.7Z"/>
  <path class="st1" d="M52.1,0h-24.9v25.1c13.8,0,24.9-11.2,24.9-25.1Z"/>
  <path class="st1" d="M25.1,0v64H.2V25.1C.2,11.2,11.3,0,25.1,0Z"/>
  <path class="st1" d="M27.3,63.9h24.9v-25.1c-13.8,0-24.9,11.2-24.9,25.1Z"/>
  <path class="st1" d="M54.3,64V0h24.9v38.9c0,13.8-11.2,25.1-24.9,25.1Z"/>
</svg>