<svg version="1.1" id="Layer_1" xmlns="http://www.w3.org/2000/svg" xmlns:xlink="http://www.w3.org/1999/xlink" x="0px" y="0px"
	 width="100%" viewBox="0 0 5800 966" enable-background="new 0 0 5800 966" xml:space="preserve">
<path fill="#FEFEFE" opacity="1.000000" stroke="none" 
	d="
M4238.000000,968.000000 
	C2825.333496,968.000000 1413.666992,968.000000 2.000379,968.000000 
	C2.000253,646.000183 2.000253,324.000427 2.000126,2.000465 
	C1935.332886,2.000310 3868.665771,2.000310 5801.999023,2.000155 
	C5801.999023,323.999542 5801.999023,645.999084 5801.999512,967.999268 
	C5281.000000,968.000000 4760.000000,968.000000 4238.000000,968.000000 
M96.271301,423.165924 
	C96.315865,431.470032 96.360420,439.774139 96.014427,449.906525 
	C96.186676,470.598022 96.358917,491.289520 96.085350,513.815613 
	C96.155670,529.863220 96.225998,545.910767 95.927429,563.806763 
	C96.003357,584.520935 96.079285,605.235107 95.771957,627.801208 
	C95.910614,639.875977 96.049278,651.950806 95.784607,665.664124 
	C95.912582,668.459351 96.040565,671.254639 95.527924,675.405640 
	C95.852364,680.875732 96.176796,686.345886 96.429626,693.178833 
	C102.054184,696.875793 107.678741,700.572754 113.843544,705.312378 
	C115.243614,705.800171 116.643684,706.288025 118.980408,707.908630 
	C135.090240,717.245300 151.156342,726.658569 167.327606,735.887573 
	C175.970764,740.820312 184.795364,745.435120 194.322510,751.340027 
	C202.336472,756.015991 210.302139,760.777161 218.374512,765.350037 
	C234.782410,774.644775 251.247986,783.837708 268.484253,794.077820 
	C278.178680,799.558044 287.873077,805.038269 298.036438,811.544373 
	C299.348816,812.097046 300.661163,812.649719 303.092041,814.117310 
	C310.665375,818.252625 318.238678,822.387939 326.583130,827.614441 
	C338.867676,834.576904 351.152252,841.539368 363.964478,849.509399 
	C365.299835,850.075562 366.635162,850.641785 368.972137,852.143005 
	C371.790619,853.592346 374.609131,855.041687 377.943787,857.518555 
	C379.284851,858.086548 380.625946,858.654541 383.036560,860.191467 
	C389.304352,863.575439 395.572113,866.959473 402.595459,871.454590 
	C414.072174,878.129578 425.669250,884.609314 436.969604,891.570557 
	C441.859344,894.582703 445.805145,894.438843 450.705322,891.519287 
	C468.385162,880.985596 486.338287,870.911926 504.108673,860.528442 
	C517.547058,852.676331 530.864380,844.616821 545.644958,836.338196 
	C568.412659,823.298889 591.210205,810.311218 613.925171,797.180664 
	C619.047668,794.219543 623.882080,790.760254 630.259399,787.116455 
	C643.197327,779.880493 656.230530,772.808716 669.050171,765.368958 
	C686.790466,755.073547 704.370117,744.501282 723.424255,733.897766 
	C742.986084,722.641907 762.386292,711.089233 782.201355,700.298340 
	C788.749451,696.732483 790.570557,692.400635 790.530518,685.309631 
	C790.249207,635.510193 790.378845,585.708496 790.334045,535.907532 
	C790.331055,532.606506 789.973389,529.305725 790.256470,524.179443 
	C790.290222,499.360260 790.385010,474.540924 790.328979,449.721954 
	C790.305115,439.149933 789.966248,428.578674 790.241150,416.181519 
	C790.089661,396.122803 789.938171,376.064056 790.249023,354.177185 
	C790.283081,339.856201 790.341858,325.535217 790.344910,311.214233 
	C790.348633,293.956970 790.329285,293.954407 774.608276,286.927765 
	C774.006531,286.658844 773.340637,286.533478 772.058105,285.298706 
	C756.212952,276.356232 740.367737,267.413757 723.874634,257.435883 
	C712.067810,250.862946 700.260925,244.290024 687.662537,236.579697 
	C670.614258,226.969650 653.565918,217.359604 635.684570,206.624985 
	C627.909485,202.372421 620.113403,198.157639 612.364746,193.857605 
	C602.901428,188.606110 593.477966,183.283066 583.551880,176.701645 
	C571.076111,169.685257 558.600281,162.668884 545.382690,154.532135 
	C532.229675,147.097321 519.076721,139.662521 505.093689,131.122025 
	C503.086334,130.036041 501.063751,128.977219 499.074127,127.859650 
	C486.057404,120.548157 473.047821,113.223969 459.213470,104.830833 
	C449.213989,96.024117 439.139099,95.101128 428.806183,104.355217 
	C427.370758,105.640762 425.344452,106.246674 423.655670,107.272484 
	C412.723175,113.913193 401.808441,120.583107 389.567352,127.461823 
	C385.891327,129.527603 382.174652,131.524765 378.547302,133.672745 
	C369.637207,138.949005 360.768250,144.294724 350.472748,149.882599 
	C338.954437,156.384293 327.372528,162.776505 315.936737,169.420258 
	C305.666656,175.386749 295.557129,181.629623 284.155945,188.317093 
	C273.376740,194.622101 262.597504,200.927124 250.408783,207.567841 
	C242.352875,212.081696 234.198578,216.430557 226.270416,221.158600 
	C219.201172,225.374466 212.381989,230.009598 203.965515,234.644653 
	C181.646347,247.070541 159.269928,259.395111 137.031219,271.963379 
	C125.200829,278.649353 113.608925,285.757324 101.063683,292.642120 
	C100.469368,292.904388 100.192680,293.359802 99.272957,294.352905 
	C99.031601,294.955963 98.790253,295.558990 97.237167,297.013824 
	C97.081291,300.695221 96.925415,304.376648 96.310745,309.498810 
	C96.447327,310.986816 96.583908,312.474792 96.244461,315.784271 
	C96.388664,328.499054 96.532875,341.213806 96.222839,355.286285 
	C96.352135,356.220673 96.481430,357.155060 96.274208,359.346375 
	C96.379150,360.198944 96.484093,361.051483 96.125961,363.738739 
	C96.372543,380.613068 96.619125,397.487396 96.702385,415.802338 
	C96.746910,417.730957 96.791428,419.659607 96.271301,423.165924 
M3529.000732,710.540710 
	C3539.665039,710.534119 3550.333008,710.704285 3560.992188,710.464783 
	C3569.496826,710.273743 3572.125977,707.481384 3572.664062,698.914612 
	C3572.831055,696.258423 3572.719971,693.584167 3572.719971,690.918213 
	C3572.721924,634.929260 3572.683594,578.940247 3572.772949,522.951416 
	C3572.783447,516.302795 3573.001221,509.583069 3573.968994,503.021088 
	C3576.517822,485.737000 3583.585205,470.614258 3596.327881,458.290405 
	C3623.055664,432.441010 3682.359131,429.559906 3700.850830,482.586609 
	C3704.180908,492.135101 3705.432617,502.790344 3705.637695,512.975037 
	C3706.247559,543.290100 3705.857910,573.625366 3705.858643,603.952698 
	C3705.859375,633.613525 3705.846436,663.274353 3705.865234,692.935181 
	C3705.875244,708.688782 3707.760986,710.519653 3723.887695,710.535950 
	C3740.551025,710.552856 3757.214600,710.540161 3773.877930,710.539856 
	C3775.544189,710.539856 3777.212402,710.583618 3778.876709,710.525635 
	C3788.848877,710.178345 3791.696777,707.255859 3791.966797,697.100098 
	C3792.011230,695.434998 3791.970947,693.767578 3791.970947,692.101257 
	C3791.970215,643.110901 3791.954834,594.120605 3791.979004,545.130249 
	C3791.984619,533.467224 3791.876221,521.796204 3792.256348,510.143097 
	C3792.756348,494.796356 3797.005371,480.460114 3806.385498,468.169952 
	C3824.716797,444.151855 3849.757080,436.441956 3878.331543,442.356384 
	C3905.266113,447.931366 3918.884277,467.663818 3924.239746,493.339661 
	C3926.054932,502.041321 3926.033447,511.222107 3926.056152,520.185913 
	C3926.204590,578.174133 3926.116943,636.162842 3926.145752,694.151428 
	C3926.152588,707.646362 3929.026367,710.490051 3942.577148,710.525635 
	C3960.906982,710.573792 3979.236816,710.589417 3997.566406,710.516907 
	C4010.084961,710.467407 4012.324463,708.324402 4012.333740,696.024536 
	C4012.380371,633.036926 4012.393066,570.049316 4012.327881,507.061798 
	C4012.302490,482.540802 4008.741211,458.562073 4000.108154,435.515533 
	C3988.757324,405.214111 3969.603027,381.820648 3939.534668,368.412415 
	C3919.907715,359.660400 3899.107422,357.112885 3877.936035,358.559021 
	C3835.543213,361.454681 3802.395996,380.347137 3779.938232,416.951813 
	C3778.594971,419.141357 3777.075684,421.222809 3775.029053,424.258118 
	C3754.260254,382.889069 3721.145020,361.669220 3676.221191,358.573364 
	C3631.237305,355.473358 3595.156250,372.343811 3566.720459,409.448822 
	C3564.500244,398.379242 3562.800293,389.349457 3560.859619,380.371765 
	C3558.582764,369.839172 3556.907959,368.458679 3546.045410,368.358154 
	C3532.715820,368.234772 3519.384277,368.319580 3506.053467,368.329163 
	C3488.876709,368.341553 3487.218506,369.992523 3487.217773,387.152985 
	C3487.213379,488.799622 3487.215332,590.446228 3487.216553,692.092896 
	C3487.216553,694.425720 3487.124023,696.764587 3487.255859,699.090332 
	C3487.735352,707.563354 3490.351562,710.262268 3499.010010,710.472717 
	C3508.336182,710.699402 3517.671631,710.534668 3529.000732,710.540710 
M4905.939941,405.584503 
	C4904.144531,407.149200 4902.349121,408.713898 4899.799805,410.935150 
	C4899.472168,408.254761 4899.176270,406.976440 4899.180176,405.699036 
	C4899.433105,325.390564 4899.707031,245.082123 4899.993164,164.773743 
	C4900.013184,159.109695 4900.326660,153.441025 4900.176270,147.783249 
	C4899.900879,137.436401 4896.518066,134.059326 4886.240234,133.992966 
	C4868.911133,133.881058 4851.581543,133.957199 4834.251953,133.959106 
	C4815.470703,133.961166 4814.313965,135.097565 4814.313965,153.588882 
	C4814.312500,332.548828 4814.312500,511.508759 4814.312012,690.468689 
	C4814.312012,692.801514 4814.240234,695.137268 4814.332031,697.466553 
	C4814.725098,707.457703 4817.608398,710.393433 4827.763184,710.503540 
	C4841.425293,710.651611 4855.089844,710.548645 4868.753418,710.544861 
	C4885.475098,710.540222 4885.385254,710.522705 4887.935059,693.738403 
	C4889.573242,682.955322 4891.522949,672.219543 4893.349609,661.363037 
	C4894.905273,661.806152 4895.744629,661.787170 4896.114258,662.194580 
	C4897.901367,664.162354 4899.583496,666.227234 4901.262695,668.289795 
	C4916.739258,687.299500 4935.866211,701.347778 4958.626465,710.427063 
	C5019.623535,734.759155 5106.851074,720.749939 5151.977539,643.261047 
	C5189.621582,578.621521 5190.626465,510.791351 5156.898438,444.407013 
	C5128.991699,389.479095 5082.061523,360.830872 5020.080566,358.727844 
	C4975.804199,357.225525 4937.742188,372.079132 4905.939941,405.584503 
M1461.515747,409.062897 
	C1459.747925,398.556946 1457.773193,388.079987 1456.296631,377.533264 
	C1455.512695,371.934723 1452.846313,369.065338 1447.237671,369.060699 
	C1429.575562,369.046143 1411.910034,368.877655 1394.253174,369.188507 
	C1387.766968,369.302704 1384.705566,372.746429 1384.023682,379.223602 
	C1383.711182,382.192139 1383.900391,385.215851 1383.900146,388.214539 
	C1383.895996,472.529205 1383.896606,556.843872 1383.896729,641.158508 
	C1383.896729,715.142090 1383.887451,789.125732 1383.906128,863.109314 
	C1383.909668,877.286987 1386.510864,879.832275 1400.918579,879.874451 
	C1415.248657,879.916443 1429.578857,879.887268 1443.909058,879.884094 
	C1448.241333,879.883118 1452.581299,880.025208 1456.904419,879.821106 
	C1466.378418,879.373779 1469.422852,876.305298 1469.857910,867.061035 
	C1469.936157,865.398560 1469.871826,863.729126 1469.866943,862.062927 
	C1469.685303,800.079956 1469.493774,738.097046 1469.359619,676.114014 
	C1469.355225,674.071838 1469.931030,672.028442 1470.455933,668.515381 
	C1482.802490,682.547913 1495.639404,693.491882 1510.495972,701.996033 
	C1571.620605,736.984924 1666.280151,726.633911 1717.011719,650.459351 
	C1758.626221,587.974304 1759.865234,495.526001 1719.256958,432.285675 
	C1691.707520,389.382019 1652.589966,363.952759 1601.350586,359.144989 
	C1547.452026,354.087708 1502.340698,371.321014 1467.837158,413.969299 
	C1466.712891,415.358948 1465.265869,416.487335 1462.879028,418.788666 
	C1462.355225,415.089020 1462.043091,412.883759 1461.515747,409.062897 
M2183.601318,163.043304 
	C2183.601318,337.982880 2183.601318,512.922424 2183.601562,687.862000 
	C2183.601562,690.860962 2183.570068,693.860352 2183.610107,696.858826 
	C2183.764893,708.458679 2185.568115,710.385559 2196.866699,710.517029 
	C2206.528809,710.629456 2216.193115,710.546265 2225.856445,710.545654 
	C2236.186279,710.544983 2246.518311,710.678467 2256.844971,710.496155 
	C2266.496826,710.325806 2269.092529,707.610901 2269.547363,697.865417 
	C2269.656006,695.537842 2269.572998,693.201111 2269.572998,690.868591 
	C2269.574219,661.212158 2269.700684,631.554688 2269.465332,601.900085 
	C2269.419922,596.178894 2270.906982,591.786194 2274.840820,587.599731 
	C2283.051270,578.861694 2290.795654,569.687317 2298.812744,560.764893 
	C2300.476807,558.912964 2302.492432,557.377136 2304.616943,555.449951 
	C2306.785889,558.253235 2308.463135,560.303284 2310.014893,562.444458 
	C2343.447021,608.574341 2376.946533,654.655701 2410.189941,700.921326 
	C2414.705078,707.205078 2419.769531,710.244568 2427.647461,710.122864 
	C2450.301025,709.772766 2472.963135,710.003296 2495.622070,709.994385 
	C2497.620117,709.993591 2499.654053,710.137024 2501.609619,709.825623 
	C2509.607666,708.551941 2512.802246,702.428284 2509.044678,695.129333 
	C2507.383789,691.903809 2504.964844,689.054626 2502.785400,686.112244 
	C2461.536377,630.425659 2420.268311,574.753174 2379.019287,519.066895 
	C2376.868408,516.163147 2374.848877,513.162048 2372.381104,509.656799 
	C2374.961914,506.613770 2377.226318,503.830322 2379.608643,501.151947 
	C2412.383057,464.305511 2445.179688,427.479187 2477.945557,390.625336 
	C2480.153809,388.141785 2482.553711,385.702454 2484.177734,382.851379 
	C2487.920166,376.280304 2485.144775,370.826050 2477.761475,369.931030 
	C2474.802246,369.572327 2471.771729,369.784485 2468.773682,369.764679 
	C2448.786377,369.632538 2428.783936,369.914032 2408.819092,369.177063 
	C2401.050537,368.890320 2395.819092,370.983032 2390.689209,376.888855 
	C2353.107422,420.153778 2315.204834,463.140259 2277.374512,506.189056 
	C2275.525391,508.293182 2273.406250,510.160126 2269.573975,513.961487 
	C2269.573975,507.766235 2269.574219,503.925232 2269.574219,500.084198 
	C2269.573975,384.457367 2269.575195,268.830505 2269.564697,153.203674 
	C2269.564453,149.874466 2269.738281,146.504623 2269.299316,143.224823 
	C2268.486084,137.145615 2265.626465,134.170868 2259.411377,134.103867 
	C2237.421875,133.866821 2215.426758,133.852890 2193.437256,134.084732 
	C2186.592041,134.156891 2184.006836,137.112122 2183.674072,144.074539 
	C2183.404053,149.726639 2183.607422,155.401382 2183.601318,163.043304 
M1826.840576,660.178101 
	C1856.305054,692.189758 1892.263672,712.193909 1935.432739,718.789856 
	C1989.468140,727.046021 2036.941650,712.302490 2078.625977,677.629761 
	C2085.775146,671.683228 2086.938477,665.933960 2081.808350,658.408875 
	C2072.616943,644.926697 2063.000244,631.723633 2053.224365,618.655945 
	C2049.174805,613.242920 2045.206421,612.673096 2039.148804,615.662842 
	C2036.179321,617.128479 2033.489746,619.160828 2030.670288,620.931580 
	C2014.459229,631.112427 1997.428101,639.448608 1978.243896,642.046997 
	C1925.501343,649.190491 1890.220581,614.644226 1876.172485,582.688477 
	C1875.292480,580.686707 1875.063232,578.398743 1874.241211,575.069702 
	C1879.049438,575.069702 1882.963013,575.069763 1886.876587,575.069763 
	C1954.515991,575.069763 2022.155273,575.070740 2089.794678,575.066101 
	C2093.126221,575.065918 2096.468262,575.177063 2099.787842,574.963806 
	C2119.795166,573.678467 2133.210449,559.992859 2133.437012,539.941040 
	C2133.545898,530.312500 2133.075928,520.592163 2131.838135,511.047028 
	C2120.397217,422.838593 2050.897949,361.053619 1967.220581,358.512299 
	C1893.610962,356.276764 1824.664673,397.123840 1796.332153,464.823120 
	C1767.043457,534.807678 1776.698608,600.341858 1826.840576,660.178101 
M4469.226562,384.195648 
	C4466.348633,385.872375 4463.378418,387.409637 4460.609863,389.250885 
	C4450.599609,395.907623 4448.605957,403.224579 4454.026855,414.045898 
	C4459.397949,424.767242 4464.919434,435.415497 4470.529297,446.014343 
	C4474.074219,452.711334 4477.772949,454.596313 4485.146484,453.382690 
	C4488.050293,452.904785 4491.007812,451.936646 4493.607422,450.561371 
	C4511.508301,441.090027 4530.750977,435.768524 4550.572266,432.672913 
	C4568.368652,429.893524 4586.330078,428.203583 4604.281250,431.744568 
	C4641.863770,439.157898 4665.697754,477.163391 4655.207520,513.629150 
	C4653.443359,513.709900 4651.496582,513.872986 4649.549316,513.877319 
	C4613.890137,513.955933 4578.230469,514.058655 4542.571289,514.060730 
	C4524.819824,514.061768 4507.253906,515.730469 4490.178711,520.635925 
	C4463.066406,528.425049 4440.664551,542.601990 4429.835938,570.000122 
	C4426.096680,579.460693 4423.787598,589.837097 4422.823242,599.984985 
	C4417.830566,652.535217 4443.658691,692.269775 4488.777344,710.546570 
	C4517.089844,722.015320 4546.470703,723.578003 4576.265625,719.701660 
	C4610.767578,715.212769 4640.830566,701.504639 4664.193848,674.892883 
	C4665.029785,673.940063 4666.107422,673.199341 4667.748047,671.772522 
	C4668.600586,674.561584 4669.443848,676.609314 4669.839844,678.740173 
	C4671.240723,686.272888 4672.280762,693.877930 4673.856445,701.371704 
	C4675.330078,708.380920 4677.630859,710.365784 4684.835449,710.463440 
	C4700.163086,710.671265 4715.497559,710.678284 4730.825195,710.465088 
	C4738.974121,710.351868 4742.088867,707.122375 4742.899902,698.968079 
	C4743.097168,696.985229 4743.030762,694.972839 4743.030762,692.974060 
	C4743.037109,626.985901 4743.277344,560.996155 4742.832520,495.011047 
	C4742.743164,481.795105 4741.488281,468.231293 4738.268066,455.458740 
	C4728.483887,416.650757 4703.497559,390.309174 4667.490234,373.950562 
	C4640.538574,361.706024 4611.995605,357.828430 4582.684570,358.359528 
	C4543.590332,359.067841 4505.845703,365.867615 4469.226562,384.195648 
M3087.013916,528.999390 
	C3087.014893,542.326721 3086.972656,555.654175 3087.026367,568.981262 
	C3087.109619,589.755554 3089.548584,610.203430 3096.071777,630.013306 
	C3107.379639,664.352173 3127.384521,691.615540 3160.513428,707.823303 
	C3207.063721,730.596741 3277.335205,729.984375 3325.497803,677.181641 
	C3327.368164,675.131348 3329.397461,673.226501 3332.477051,670.119385 
	C3334.464111,680.221252 3336.104248,688.649963 3337.782227,697.071045 
	C3340.376709,710.092163 3341.390625,710.930420 3355.003174,710.975830 
	C3367.664551,711.018127 3380.325684,710.996582 3392.987061,710.983948 
	C3410.599854,710.966370 3412.002441,709.612854 3412.003906,692.423645 
	C3412.011963,590.800659 3412.008789,489.177704 3412.004395,387.554749 
	C3412.004395,384.889923 3412.119385,382.209625 3411.883057,379.563171 
	C3411.224121,372.187195 3408.600098,369.213043 3401.205811,369.131317 
	C3379.551514,368.891968 3357.890625,368.891113 3336.236816,369.151489 
	C3329.437744,369.233185 3326.727783,372.320648 3326.076904,379.031525 
	C3325.820557,381.673920 3325.974854,384.357971 3325.974609,387.023041 
	C3325.970703,442.998962 3325.976318,498.974884 3325.961670,554.950806 
	C3325.960449,559.280823 3326.056885,563.630066 3325.707764,567.937927 
	C3321.214600,623.380188 3265.124512,653.363342 3218.339355,633.492310 
	C3188.944580,621.007446 3173.442871,597.916443 3173.427734,565.371460 
	C3173.400635,506.730011 3173.416260,448.088531 3173.412598,389.447083 
	C3173.412354,386.781677 3173.550781,384.105133 3173.359619,381.452881 
	C3172.732666,372.740906 3169.681396,369.468933 3160.839111,369.367859 
	C3140.517090,369.135529 3120.189209,369.133118 3099.867188,369.356567 
	C3090.234375,369.462494 3087.492432,372.497101 3087.047363,382.062592 
	C3086.923828,384.722565 3087.014648,387.392731 3087.014648,390.058228 
	C3087.013672,435.705261 3087.013916,481.352295 3087.013916,528.999390 
M5424.645996,711.657288 
	C5429.604492,709.709656 5434.689941,708.032837 5439.500000,705.769897 
	C5467.781250,692.465576 5488.027832,672.231201 5494.208496,640.495972 
	C5498.292480,619.525208 5497.351074,598.537720 5489.727051,578.575134 
	C5482.180176,558.814453 5468.550781,543.394470 5450.803223,531.817749 
	C5435.909668,522.102905 5419.673340,515.121704 5402.757324,509.924408 
	C5382.396973,503.669189 5361.729004,498.411530 5341.406250,492.043976 
	C5333.231934,489.482727 5325.022461,486.038849 5317.889160,481.375427 
	C5305.552734,473.310577 5304.743652,456.404114 5316.280273,447.195007 
	C5321.521973,443.010712 5328.444824,440.154175 5335.049316,438.661163 
	C5342.398438,436.999939 5350.282227,436.948944 5357.883789,437.292419 
	C5385.004883,438.518097 5410.018555,447.533875 5434.251465,459.052765 
	C5446.781738,465.008514 5451.009766,463.986359 5458.040527,452.376343 
	C5465.279297,440.422882 5472.418945,428.406464 5479.415039,416.309814 
	C5487.954590,401.543762 5486.654785,397.307404 5471.303223,388.953949 
	C5445.620117,374.978607 5418.264160,365.538635 5389.536133,360.589050 
	C5361.383301,355.738464 5333.187012,355.517212 5305.308594,363.302338 
	C5245.477539,380.010376 5215.312988,432.790344 5231.641602,492.618439 
	C5239.519531,521.481995 5259.488281,539.654114 5285.439453,552.190369 
	C5306.234375,562.235657 5328.378418,568.379333 5350.574219,574.477234 
	C5364.664551,578.348328 5378.515625,583.226318 5392.186523,588.410645 
	C5397.325684,590.359436 5402.289551,593.802490 5406.232422,597.682617 
	C5418.423340,609.679199 5415.152344,627.847107 5399.583984,634.697083 
	C5393.878418,637.207764 5387.557129,638.641968 5381.367676,639.674866 
	C5351.328125,644.687744 5322.221191,640.054321 5293.987793,629.687073 
	C5280.577637,624.762939 5267.697754,618.395508 5254.577148,612.683594 
	C5245.557617,608.757141 5239.874023,609.512756 5235.411621,616.908691 
	C5225.949219,632.590332 5216.957031,648.566223 5208.176758,664.642639 
	C5204.993164,670.471863 5206.567871,675.521606 5211.888184,679.650452 
	C5214.495117,681.673584 5217.429199,683.434448 5220.466309,684.718262 
	C5239.773926,692.878906 5258.758301,702.044800 5278.583496,708.688782 
	C5326.235352,724.658081 5374.583496,726.230225 5424.645996,711.657288 
M1151.822632,483.462067 
	C1143.351807,478.413910 1138.680420,471.250488 1139.922119,461.122833 
	C1141.147949,451.123901 1147.491577,445.116455 1156.353882,441.478912 
	C1159.719482,440.097504 1163.278076,438.714752 1166.844849,438.391327 
	C1174.775879,437.672150 1182.802124,436.982910 1190.728027,437.414093 
	C1217.474609,438.869293 1242.124878,447.903015 1266.021362,459.332825 
	C1277.820557,464.976471 1282.120361,463.867462 1289.001831,452.620941 
	C1296.824707,439.836029 1304.481323,426.947266 1312.060913,414.016144 
	C1318.509277,403.014923 1317.208008,397.237030 1306.182007,391.086243 
	C1267.365723,369.433136 1225.797363,357.424255 1181.215820,357.271484 
	C1162.153809,357.206177 1143.253418,359.718842 1125.437622,367.095215 
	C1087.851562,382.657196 1062.758667,408.769348 1059.090454,450.780640 
	C1056.408081,481.502319 1063.226807,509.827454 1086.694946,532.068848 
	C1095.978638,540.867249 1106.670898,547.538513 1118.219360,552.930786 
	C1138.536377,562.417297 1160.004761,568.405579 1181.520508,574.417480 
	C1195.913574,578.439087 1210.088257,583.380615 1224.058228,588.704224 
	C1229.171997,590.652954 1234.072876,594.247375 1237.929565,598.203735 
	C1249.469604,610.042419 1246.019897,627.764282 1231.034058,634.652771 
	C1226.550781,636.713623 1221.626465,638.051147 1216.764160,639.010742 
	C1194.500122,643.404724 1172.326782,642.110596 1150.313965,637.155334 
	C1128.076416,632.149414 1107.275024,623.308777 1086.886230,613.305847 
	C1075.921875,607.926575 1070.599365,609.640259 1064.562256,620.049866 
	C1056.709106,633.590698 1049.037231,647.237854 1041.402466,660.903564 
	C1035.655884,671.189331 1036.891724,676.715637 1047.141602,682.188416 
	C1099.602295,710.199097 1154.707397,726.777649 1215.030396,720.123047 
	C1239.100464,717.467712 1262.226929,711.772583 1283.227051,699.131409 
	C1301.264648,688.273621 1314.931030,673.535278 1321.503662,653.354431 
	C1329.704590,628.174255 1329.306152,602.741272 1320.247803,577.833740 
	C1311.210449,552.983459 1292.701782,536.638367 1269.868652,524.729309 
	C1250.577637,514.667725 1230.011841,507.968933 1209.044434,502.386597 
	C1190.082642,497.338196 1170.770630,493.336456 1151.822632,483.462067 
M2744.751465,401.067322 
	C2744.750732,395.071869 2744.799805,389.075867 2744.738525,383.081055 
	C2744.615234,371.006622 2742.800293,369.086792 2730.867188,369.044647 
	C2708.217041,368.964630 2685.566650,369.033722 2662.916260,369.003296 
	C2659.722656,368.999023 2656.529541,368.783386 2652.727539,368.643158 
	C2652.727539,363.866333 2652.727539,360.243988 2652.727539,356.621643 
	C2652.727295,321.313843 2652.729248,286.006073 2652.722412,250.698288 
	C2652.721924,248.034378 2652.868164,245.348190 2652.586670,242.710724 
	C2651.701416,234.419357 2647.771240,231.778061 2639.635498,233.874741 
	C2638.029297,234.288666 2636.458984,234.871521 2634.912109,235.478302 
	C2616.318848,242.771072 2597.712402,250.030533 2579.153076,257.408813 
	C2567.362305,262.096252 2566.193848,263.887909 2566.176758,276.719513 
	C2566.140137,304.366150 2566.177246,332.012878 2566.141846,359.659485 
	C2566.138184,362.554626 2565.849365,365.449341 2565.655762,369.023041 
	C2552.959717,369.023041 2541.004639,368.881561 2529.054688,369.068298 
	C2519.684814,369.214752 2517.148682,371.546204 2517.027100,381.025238 
	C2516.779053,400.340973 2516.770996,419.665192 2517.060059,438.979950 
	C2517.191895,447.781036 2519.885010,450.261261 2528.607910,450.492493 
	C2538.593994,450.757233 2548.592529,450.510132 2558.584229,450.613129 
	C2561.081299,450.638885 2563.572998,451.154602 2566.633057,451.511047 
	C2566.633057,455.909454 2566.633301,459.540253 2566.633301,463.171082 
	C2566.633545,540.115417 2566.626221,617.059692 2566.639648,694.004028 
	C2566.642090,709.375549 2568.272461,710.955566 2583.961426,710.976562 
	C2600.282959,710.998413 2616.604492,710.985352 2632.926025,710.981567 
	C2652.208252,710.977173 2652.724609,710.477051 2652.725586,691.559204 
	C2652.729736,615.281067 2652.719727,539.002930 2652.749268,462.724792 
	C2652.750732,458.899628 2653.072510,455.074585 2653.275635,450.572388 
	C2657.729736,450.572388 2661.008301,450.572784 2664.287109,450.572327 
	C2686.937500,450.569183 2709.588379,450.675842 2732.237793,450.512146 
	C2742.271484,450.439667 2744.559326,448.043091 2744.703613,438.018982 
	C2744.870850,426.363098 2744.748047,414.703094 2744.751465,401.067322 
M4282.925293,470.999512 
	C4282.926270,545.958435 4282.908203,620.917419 4282.946289,695.876343 
	C4282.952637,708.626465 4284.819336,710.496521 4297.248535,710.544556 
	C4314.572266,710.611450 4331.896484,710.565247 4349.220215,710.561462 
	C4368.169434,710.557251 4368.740723,709.983093 4368.740723,690.837646 
	C4368.742188,511.935120 4368.741211,333.032623 4368.740723,154.130112 
	C4368.740723,152.131195 4368.772949,150.131607 4368.732910,148.133484 
	C4368.495117,136.352325 4366.270020,134.029129 4354.665039,133.978790 
	C4336.675293,133.900742 4318.684570,133.950333 4300.694336,133.956650 
	C4283.581055,133.962662 4282.927734,134.628769 4282.927246,152.172134 
	C4282.923828,257.781250 4282.925293,363.390381 4282.925293,470.999512 
M2780.891846,376.748962 
	C2780.774170,379.074310 2780.553711,381.399597 2780.553467,383.724976 
	C2780.536133,487.359283 2780.537842,590.993591 2780.542480,694.627869 
	C2780.542480,696.626343 2780.431396,698.645996 2780.670654,700.619507 
	C2781.478516,707.277527 2784.236084,710.352478 2790.989014,710.425476 
	C2812.645752,710.659607 2834.308594,710.662598 2855.964844,710.391846 
	C2862.675049,710.307922 2865.373291,707.160095 2865.984375,700.385376 
	C2866.252930,697.408997 2866.091309,694.391968 2866.091553,691.393372 
	C2866.096680,633.744690 2865.989258,576.095764 2866.136963,518.447510 
	C2866.233887,480.636871 2890.003418,448.473389 2926.284424,437.874847 
	C2955.128418,429.448761 2982.333984,433.576080 3006.999023,451.391327 
	C3014.754395,456.992737 3019.269043,457.027405 3023.890869,450.137207 
	C3034.095947,434.924835 3044.014648,419.512329 3053.702148,403.964752 
	C3057.651611,397.625946 3057.102783,394.221954 3051.140381,389.127502 
	C3044.591797,383.531982 3037.837158,377.854553 3030.330078,373.755890 
	C2982.340332,347.554504 2914.915527,350.539459 2868.655273,403.320251 
	C2866.367432,405.930450 2864.130615,408.585205 2860.483154,412.835297 
	C2858.126709,400.128204 2856.289551,389.759644 2854.261230,379.428619 
	C2852.569824,370.814270 2850.202637,368.527618 2841.589355,368.397766 
	C2825.597900,368.156677 2809.600342,368.320068 2793.605225,368.335907 
	C2788.290771,368.341156 2783.672852,369.660706 2780.891846,376.748962 
M5593.874023,284.545532 
	C5568.488281,297.894928 5556.722168,319.662842 5559.633301,349.709320 
	C5561.754395,371.604492 5573.098145,387.925934 5593.174316,396.938080 
	C5613.496582,406.060608 5633.600586,404.195862 5651.709961,390.935883 
	C5676.561035,372.738770 5682.999023,339.150482 5667.952148,310.313049 
	C5655.212402,285.897339 5625.196777,272.264069 5593.874023,284.545532 
z"/>
<path fill="#020202" opacity="1.000000" stroke="none" 
	d="
M3528.001953,710.540710 
	C3517.671631,710.534668 3508.336182,710.699402 3499.010010,710.472717 
	C3490.351562,710.262268 3487.735352,707.563354 3487.255859,699.090332 
	C3487.124023,696.764587 3487.216553,694.425720 3487.216553,692.092896 
	C3487.215332,590.446228 3487.213379,488.799622 3487.217773,387.152985 
	C3487.218506,369.992523 3488.876709,368.341553 3506.053467,368.329163 
	C3519.384277,368.319580 3532.715820,368.234772 3546.045410,368.358154 
	C3556.907959,368.458679 3558.582764,369.839172 3560.859619,380.371765 
	C3562.800293,389.349457 3564.500244,398.379242 3566.720459,409.448822 
	C3595.156250,372.343811 3631.237305,355.473358 3676.221191,358.573364 
	C3721.145020,361.669220 3754.260254,382.889069 3775.029053,424.258118 
	C3777.075684,421.222809 3778.594971,419.141357 3779.938232,416.951813 
	C3802.395996,380.347137 3835.543213,361.454681 3877.936035,358.559021 
	C3899.107422,357.112885 3919.907715,359.660400 3939.534668,368.412415 
	C3969.603027,381.820648 3988.757324,405.214111 4000.108154,435.515533 
	C4008.741211,458.562073 4012.302490,482.540802 4012.327881,507.061798 
	C4012.393066,570.049316 4012.380371,633.036926 4012.333740,696.024536 
	C4012.324463,708.324402 4010.084961,710.467407 3997.566406,710.516907 
	C3979.236816,710.589417 3960.906982,710.573792 3942.577148,710.525635 
	C3929.026367,710.490051 3926.152588,707.646362 3926.145752,694.151428 
	C3926.116943,636.162842 3926.204590,578.174133 3926.056152,520.185913 
	C3926.033447,511.222107 3926.054932,502.041321 3924.239746,493.339661 
	C3918.884277,467.663818 3905.266113,447.931366 3878.331543,442.356384 
	C3849.757080,436.441956 3824.716797,444.151855 3806.385498,468.169952 
	C3797.005371,480.460114 3792.756348,494.796356 3792.256348,510.143097 
	C3791.876221,521.796204 3791.984619,533.467224 3791.979004,545.130249 
	C3791.954834,594.120605 3791.970215,643.110901 3791.970947,692.101257 
	C3791.970947,693.767578 3792.011230,695.434998 3791.966797,697.100098 
	C3791.696777,707.255859 3788.848877,710.178345 3778.876709,710.525635 
	C3777.212402,710.583618 3775.544189,710.539856 3773.877930,710.539856 
	C3757.214600,710.540161 3740.551025,710.552856 3723.887695,710.535950 
	C3707.760986,710.519653 3705.875244,708.688782 3705.865234,692.935181 
	C3705.846436,663.274353 3705.859375,633.613525 3705.858643,603.952698 
	C3705.857910,573.625366 3706.247559,543.290100 3705.637695,512.975037 
	C3705.432617,502.790344 3704.180908,492.135101 3700.850830,482.586609 
	C3682.359131,429.559906 3623.055664,432.441010 3596.327881,458.290405 
	C3583.585205,470.614258 3576.517822,485.737000 3573.968994,503.021088 
	C3573.001221,509.583069 3572.783447,516.302795 3572.772949,522.951416 
	C3572.683594,578.940247 3572.721924,634.929260 3572.719971,690.918213 
	C3572.719971,693.584167 3572.831055,696.258423 3572.664062,698.914612 
	C3572.125977,707.481384 3569.496826,710.273743 3560.992188,710.464783 
	C3550.333008,710.704285 3539.665039,710.534119 3528.001953,710.540710 
z"/>
<path fill="#030303" opacity="1.000000" stroke="none" 
	d="
M4906.452148,405.020813 
	C4937.742188,372.079132 4975.804199,357.225525 5020.080566,358.727844 
	C5082.061523,360.830872 5128.991699,389.479095 5156.898438,444.407013 
	C5190.626465,510.791351 5189.621582,578.621521 5151.977539,643.261047 
	C5106.851074,720.749939 5019.623535,734.759155 4958.626465,710.427063 
	C4935.866211,701.347778 4916.739258,687.299500 4901.262695,668.289795 
	C4899.583496,666.227234 4897.901367,664.162354 4896.114258,662.194580 
	C4895.744629,661.787170 4894.905273,661.806152 4893.349609,661.363037 
	C4891.522949,672.219543 4889.573242,682.955322 4887.935059,693.738403 
	C4885.385254,710.522705 4885.475098,710.540222 4868.753418,710.544861 
	C4855.089844,710.548645 4841.425293,710.651611 4827.763184,710.503540 
	C4817.608398,710.393433 4814.725098,707.457703 4814.332031,697.466553 
	C4814.240234,695.137268 4814.312012,692.801514 4814.312012,690.468689 
	C4814.312500,511.508759 4814.312500,332.548828 4814.313965,153.588882 
	C4814.313965,135.097565 4815.470703,133.961166 4834.251953,133.959106 
	C4851.581543,133.957199 4868.911133,133.881058 4886.240234,133.992966 
	C4896.518066,134.059326 4899.900879,137.436401 4900.176270,147.783249 
	C4900.326660,153.441025 4900.013184,159.109695 4899.993164,164.773743 
	C4899.707031,245.082123 4899.433105,325.390564 4899.180176,405.699036 
	C4899.176270,406.976440 4899.472168,408.254761 4899.799805,410.935150 
	C4902.349121,408.713898 4904.144531,407.149200 4906.452148,405.020813 
M5093.632812,515.863281 
	C5093.220703,514.596985 5092.784180,513.337891 5092.399414,512.063171 
	C5078.322754,465.428528 5035.399902,436.977997 4987.605469,442.606781 
	C4939.657715,448.253632 4903.960938,485.633942 4900.644043,533.669250 
	C4895.536133,607.647461 4974.003418,660.799377 5040.719727,628.553345 
	C5081.987793,608.606934 5102.917969,564.969666 5093.632812,515.863281 
z"/>
<path fill="#030303" opacity="1.000000" stroke="none" 
	d="
M1461.623291,409.870728 
	C1462.043091,412.883759 1462.355225,415.089020 1462.879028,418.788666 
	C1465.265869,416.487335 1466.712891,415.358948 1467.837158,413.969299 
	C1502.340698,371.321014 1547.452026,354.087708 1601.350586,359.144989 
	C1652.589966,363.952759 1691.707520,389.382019 1719.256958,432.285675 
	C1759.865234,495.526001 1758.626221,587.974304 1717.011719,650.459351 
	C1666.280151,726.633911 1571.620605,736.984924 1510.495972,701.996033 
	C1495.639404,693.491882 1482.802490,682.547913 1470.455933,668.515381 
	C1469.931030,672.028442 1469.355225,674.071838 1469.359619,676.114014 
	C1469.493774,738.097046 1469.685303,800.079956 1469.866943,862.062927 
	C1469.871826,863.729126 1469.936157,865.398560 1469.857910,867.061035 
	C1469.422852,876.305298 1466.378418,879.373779 1456.904419,879.821106 
	C1452.581299,880.025208 1448.241333,879.883118 1443.909058,879.884094 
	C1429.578857,879.887268 1415.248657,879.916443 1400.918579,879.874451 
	C1386.510864,879.832275 1383.909668,877.286987 1383.906128,863.109314 
	C1383.887451,789.125732 1383.896729,715.142090 1383.896729,641.158508 
	C1383.896606,556.843872 1383.895996,472.529205 1383.900146,388.214539 
	C1383.900391,385.215851 1383.711182,382.192139 1384.023682,379.223602 
	C1384.705566,372.746429 1387.766968,369.302704 1394.253174,369.188507 
	C1411.910034,368.877655 1429.575562,369.046143 1447.237671,369.060699 
	C1452.846313,369.065338 1455.512695,371.934723 1456.296631,377.533264 
	C1457.773193,388.079987 1459.747925,398.556946 1461.623291,409.870728 
M1644.156616,601.094482 
	C1644.958008,600.029358 1645.797729,598.990723 1646.555420,597.895386 
	C1670.225220,563.672058 1672.913696,527.478943 1652.883179,491.386169 
	C1632.738525,455.087921 1600.371338,438.718964 1558.722656,441.805481 
	C1491.728882,446.770294 1449.734985,520.973816 1479.309937,581.936279 
	C1509.497437,644.161255 1597.178223,657.856201 1644.156616,601.094482 
z"/>
<path fill="#030303" opacity="1.000000" stroke="none" 
	d="
M2183.601074,162.054688 
	C2183.607422,155.401382 2183.404053,149.726639 2183.674072,144.074539 
	C2184.006836,137.112122 2186.592041,134.156891 2193.437256,134.084732 
	C2215.426758,133.852890 2237.421875,133.866821 2259.411377,134.103867 
	C2265.626465,134.170868 2268.486084,137.145615 2269.299316,143.224823 
	C2269.738281,146.504623 2269.564453,149.874466 2269.564697,153.203674 
	C2269.575195,268.830505 2269.573975,384.457367 2269.574219,500.084198 
	C2269.574219,503.925232 2269.573975,507.766235 2269.573975,513.961487 
	C2273.406250,510.160126 2275.525391,508.293182 2277.374512,506.189056 
	C2315.204834,463.140259 2353.107422,420.153778 2390.689209,376.888855 
	C2395.819092,370.983032 2401.050537,368.890320 2408.819092,369.177063 
	C2428.783936,369.914032 2448.786377,369.632538 2468.773682,369.764679 
	C2471.771729,369.784485 2474.802246,369.572327 2477.761475,369.931030 
	C2485.144775,370.826050 2487.920166,376.280304 2484.177734,382.851379 
	C2482.553711,385.702454 2480.153809,388.141785 2477.945557,390.625336 
	C2445.179688,427.479187 2412.383057,464.305511 2379.608643,501.151947 
	C2377.226318,503.830322 2374.961914,506.613770 2372.381104,509.656799 
	C2374.848877,513.162048 2376.868408,516.163147 2379.019287,519.066895 
	C2420.268311,574.753174 2461.536377,630.425659 2502.785400,686.112244 
	C2504.964844,689.054626 2507.383789,691.903809 2509.044678,695.129333 
	C2512.802246,702.428284 2509.607666,708.551941 2501.609619,709.825623 
	C2499.654053,710.137024 2497.620117,709.993591 2495.622070,709.994385 
	C2472.963135,710.003296 2450.301025,709.772766 2427.647461,710.122864 
	C2419.769531,710.244568 2414.705078,707.205078 2410.189941,700.921326 
	C2376.946533,654.655701 2343.447021,608.574341 2310.014893,562.444458 
	C2308.463135,560.303284 2306.785889,558.253235 2304.616943,555.449951 
	C2302.492432,557.377136 2300.476807,558.912964 2298.812744,560.764893 
	C2290.795654,569.687317 2283.051270,578.861694 2274.840820,587.599731 
	C2270.906982,591.786194 2269.419922,596.178894 2269.465332,601.900085 
	C2269.700684,631.554688 2269.574219,661.212158 2269.572998,690.868591 
	C2269.572998,693.201111 2269.656006,695.537842 2269.547363,697.865417 
	C2269.092529,707.610901 2266.496826,710.325806 2256.844971,710.496155 
	C2246.518311,710.678467 2236.186279,710.544983 2225.856445,710.545654 
	C2216.193115,710.546265 2206.528809,710.629456 2196.866699,710.517029 
	C2185.568115,710.385559 2183.764893,708.458679 2183.610107,696.858826 
	C2183.570068,693.860352 2183.601562,690.860962 2183.601562,687.862000 
	C2183.601318,512.922424 2183.601318,337.982880 2183.601074,162.054688 
z"/>
<path fill="#040404" opacity="1.000000" stroke="none" 
	d="
M1826.361328,659.653687 
	C1776.698608,600.341858 1767.043457,534.807678 1796.332153,464.823120 
	C1824.664673,397.123840 1893.610962,356.276764 1967.220581,358.512299 
	C2050.897949,361.053619 2120.397217,422.838593 2131.838135,511.047028 
	C2133.075928,520.592163 2133.545898,530.312500 2133.437012,539.941040 
	C2133.210449,559.992859 2119.795166,573.678467 2099.787842,574.963806 
	C2096.468262,575.177063 2093.126221,575.065918 2089.794678,575.066101 
	C2022.155273,575.070740 1954.515991,575.069763 1886.876587,575.069763 
	C1882.963013,575.069763 1879.049438,575.069702 1874.241211,575.069702 
	C1875.063232,578.398743 1875.292480,580.686707 1876.172485,582.688477 
	C1890.220581,614.644226 1925.501343,649.190491 1978.243896,642.046997 
	C1997.428101,639.448608 2014.459229,631.112427 2030.670288,620.931580 
	C2033.489746,619.160828 2036.179321,617.128479 2039.148804,615.662842 
	C2045.206421,612.673096 2049.174805,613.242920 2053.224365,618.655945 
	C2063.000244,631.723633 2072.616943,644.926697 2081.808350,658.408875 
	C2086.938477,665.933960 2085.775146,671.683228 2078.625977,677.629761 
	C2036.941650,712.302490 1989.468140,727.046021 1935.432739,718.789856 
	C1892.263672,712.193909 1856.305054,692.189758 1826.361328,659.653687 
M1871.582397,504.596893 
	C1871.395142,506.167664 1871.208008,507.738464 1871.021973,509.300415 
	C1884.661377,511.245300 2036.422852,510.603485 2043.902100,508.455170 
	C2035.771362,478.600861 2019.021362,456.105469 1988.795288,446.665009 
	C1941.486206,431.888885 1888.099487,454.453156 1871.582397,504.596893 
z"/>
<path fill="#030303" opacity="1.000000" stroke="none" 
	d="
M4469.889648,383.868286 
	C4505.845703,365.867615 4543.590332,359.067841 4582.684570,358.359528 
	C4611.995605,357.828430 4640.538574,361.706024 4667.490234,373.950562 
	C4703.497559,390.309174 4728.483887,416.650757 4738.268066,455.458740 
	C4741.488281,468.231293 4742.743164,481.795105 4742.832520,495.011047 
	C4743.277344,560.996155 4743.037109,626.985901 4743.030762,692.974060 
	C4743.030762,694.972839 4743.097168,696.985229 4742.899902,698.968079 
	C4742.088867,707.122375 4738.974121,710.351868 4730.825195,710.465088 
	C4715.497559,710.678284 4700.163086,710.671265 4684.835449,710.463440 
	C4677.630859,710.365784 4675.330078,708.380920 4673.856445,701.371704 
	C4672.280762,693.877930 4671.240723,686.272888 4669.839844,678.740173 
	C4669.443848,676.609314 4668.600586,674.561584 4667.748047,671.772522 
	C4666.107422,673.199341 4665.029785,673.940063 4664.193848,674.892883 
	C4640.830566,701.504639 4610.767578,715.212769 4576.265625,719.701660 
	C4546.470703,723.578003 4517.089844,722.015320 4488.777344,710.546570 
	C4443.658691,692.269775 4417.830566,652.535217 4422.823242,599.984985 
	C4423.787598,589.837097 4426.096680,579.460693 4429.835938,570.000122 
	C4440.664551,542.601990 4463.066406,528.425049 4490.178711,520.635925 
	C4507.253906,515.730469 4524.819824,514.061768 4542.571289,514.060730 
	C4578.230469,514.058655 4613.890137,513.955933 4649.549316,513.877319 
	C4651.496582,513.872986 4653.443359,513.709900 4655.207520,513.629150 
	C4665.697754,477.163391 4641.863770,439.157898 4604.281250,431.744568 
	C4586.330078,428.203583 4568.368652,429.893524 4550.572266,432.672913 
	C4530.750977,435.768524 4511.508301,441.090027 4493.607422,450.561371 
	C4491.007812,451.936646 4488.050293,452.904785 4485.146484,453.382690 
	C4477.772949,454.596313 4474.074219,452.711334 4470.529297,446.014343 
	C4464.919434,435.415497 4459.397949,424.767242 4454.026855,414.045898 
	C4448.605957,403.224579 4450.599609,395.907623 4460.609863,389.250885 
	C4463.378418,387.409637 4466.348633,385.872375 4469.889648,383.868286 
M4511.540527,622.881348 
	C4517.177734,634.233826 4526.652832,641.431946 4538.027832,645.955322 
	C4564.222168,656.371765 4590.122559,654.586426 4615.363770,642.547852 
	C4631.511230,634.846558 4643.821289,623.017578 4651.309570,606.626770 
	C4656.215332,595.888489 4658.180176,584.618042 4656.290527,572.451355 
	C4654.278809,572.219360 4652.687988,571.877136 4651.097656,571.875977 
	C4617.504883,571.851440 4583.912109,571.757751 4550.320312,571.977844 
	C4544.727539,572.014404 4539.016113,572.949280 4533.578613,574.330505 
	C4514.630371,579.143494 4504.682617,595.697754 4508.947266,614.761841 
	C4509.454102,617.027832 4510.211426,619.237793 4511.540527,622.881348 
z"/>
<path fill="#030303" opacity="1.000000" stroke="none" 
	d="
M3087.013916,527.999390 
	C3087.013916,481.352295 3087.013672,435.705261 3087.014648,390.058228 
	C3087.014648,387.392731 3086.923828,384.722565 3087.047363,382.062592 
	C3087.492432,372.497101 3090.234375,369.462494 3099.867188,369.356567 
	C3120.189209,369.133118 3140.517090,369.135529 3160.839111,369.367859 
	C3169.681396,369.468933 3172.732666,372.740906 3173.359619,381.452881 
	C3173.550781,384.105133 3173.412354,386.781677 3173.412598,389.447083 
	C3173.416260,448.088531 3173.400635,506.730011 3173.427734,565.371460 
	C3173.442871,597.916443 3188.944580,621.007446 3218.339355,633.492310 
	C3265.124512,653.363342 3321.214600,623.380188 3325.707764,567.937927 
	C3326.056885,563.630066 3325.960449,559.280823 3325.961670,554.950806 
	C3325.976318,498.974884 3325.970703,442.998962 3325.974609,387.023041 
	C3325.974854,384.357971 3325.820557,381.673920 3326.076904,379.031525 
	C3326.727783,372.320648 3329.437744,369.233185 3336.236816,369.151489 
	C3357.890625,368.891113 3379.551514,368.891968 3401.205811,369.131317 
	C3408.600098,369.213043 3411.224121,372.187195 3411.883057,379.563171 
	C3412.119385,382.209625 3412.004395,384.889923 3412.004395,387.554749 
	C3412.008789,489.177704 3412.011963,590.800659 3412.003906,692.423645 
	C3412.002441,709.612854 3410.599854,710.966370 3392.987061,710.983948 
	C3380.325684,710.996582 3367.664551,711.018127 3355.003174,710.975830 
	C3341.390625,710.930420 3340.376709,710.092163 3337.782227,697.071045 
	C3336.104248,688.649963 3334.464111,680.221252 3332.477051,670.119385 
	C3329.397461,673.226501 3327.368164,675.131348 3325.497803,677.181641 
	C3277.335205,729.984375 3207.063721,730.596741 3160.513428,707.823303 
	C3127.384521,691.615540 3107.379639,664.352173 3096.071777,630.013306 
	C3089.548584,610.203430 3087.109619,589.755554 3087.026367,568.981262 
	C3086.972656,555.654175 3087.014893,542.326721 3087.013916,527.999390 
z"/>
<path fill="#040404" opacity="1.000000" stroke="none" 
	d="
M5423.885742,711.888184 
	C5374.583496,726.230225 5326.235352,724.658081 5278.583496,708.688782 
	C5258.758301,702.044800 5239.773926,692.878906 5220.466309,684.718262 
	C5217.429199,683.434448 5214.495117,681.673584 5211.888184,679.650452 
	C5206.567871,675.521606 5204.993164,670.471863 5208.176758,664.642639 
	C5216.957031,648.566223 5225.949219,632.590332 5235.411621,616.908691 
	C5239.874023,609.512756 5245.557617,608.757141 5254.577148,612.683594 
	C5267.697754,618.395508 5280.577637,624.762939 5293.987793,629.687073 
	C5322.221191,640.054321 5351.328125,644.687744 5381.367676,639.674866 
	C5387.557129,638.641968 5393.878418,637.207764 5399.583984,634.697083 
	C5415.152344,627.847107 5418.423340,609.679199 5406.232422,597.682617 
	C5402.289551,593.802490 5397.325684,590.359436 5392.186523,588.410645 
	C5378.515625,583.226318 5364.664551,578.348328 5350.574219,574.477234 
	C5328.378418,568.379333 5306.234375,562.235657 5285.439453,552.190369 
	C5259.488281,539.654114 5239.519531,521.481995 5231.641602,492.618439 
	C5215.312988,432.790344 5245.477539,380.010376 5305.308594,363.302338 
	C5333.187012,355.517212 5361.383301,355.738464 5389.536133,360.589050 
	C5418.264160,365.538635 5445.620117,374.978607 5471.303223,388.953949 
	C5486.654785,397.307404 5487.954590,401.543762 5479.415039,416.309814 
	C5472.418945,428.406464 5465.279297,440.422882 5458.040527,452.376343 
	C5451.009766,463.986359 5446.781738,465.008514 5434.251465,459.052765 
	C5410.018555,447.533875 5385.004883,438.518097 5357.883789,437.292419 
	C5350.282227,436.948944 5342.398438,436.999939 5335.049316,438.661163 
	C5328.444824,440.154175 5321.521973,443.010712 5316.280273,447.195007 
	C5304.743652,456.404114 5305.552734,473.310577 5317.889160,481.375427 
	C5325.022461,486.038849 5333.231934,489.482727 5341.406250,492.043976 
	C5361.729004,498.411530 5382.396973,503.669189 5402.757324,509.924408 
	C5419.673340,515.121704 5435.909668,522.102905 5450.803223,531.817749 
	C5468.550781,543.394470 5482.180176,558.814453 5489.727051,578.575134 
	C5497.351074,598.537720 5498.292480,619.525208 5494.208496,640.495972 
	C5488.027832,672.231201 5467.781250,692.465576 5439.500000,705.769897 
	C5434.689941,708.032837 5429.604492,709.709656 5423.885742,711.888184 
z"/>
<path fill="#030303" opacity="1.000000" stroke="none" 
	d="
M1152.477539,483.833771 
	C1170.770630,493.336456 1190.082642,497.338196 1209.044434,502.386597 
	C1230.011841,507.968933 1250.577637,514.667725 1269.868652,524.729309 
	C1292.701782,536.638367 1311.210449,552.983459 1320.247803,577.833740 
	C1329.306152,602.741272 1329.704590,628.174255 1321.503662,653.354431 
	C1314.931030,673.535278 1301.264648,688.273621 1283.227051,699.131409 
	C1262.226929,711.772583 1239.100464,717.467712 1215.030396,720.123047 
	C1154.707397,726.777649 1099.602295,710.199097 1047.141602,682.188416 
	C1036.891724,676.715637 1035.655884,671.189331 1041.402466,660.903564 
	C1049.037231,647.237854 1056.709106,633.590698 1064.562256,620.049866 
	C1070.599365,609.640259 1075.921875,607.926575 1086.886230,613.305847 
	C1107.275024,623.308777 1128.076416,632.149414 1150.313965,637.155334 
	C1172.326782,642.110596 1194.500122,643.404724 1216.764160,639.010742 
	C1221.626465,638.051147 1226.550781,636.713623 1231.034058,634.652771 
	C1246.019897,627.764282 1249.469604,610.042419 1237.929565,598.203735 
	C1234.072876,594.247375 1229.171997,590.652954 1224.058228,588.704224 
	C1210.088257,583.380615 1195.913574,578.439087 1181.520508,574.417480 
	C1160.004761,568.405579 1138.536377,562.417297 1118.219360,552.930786 
	C1106.670898,547.538513 1095.978638,540.867249 1086.694946,532.068848 
	C1063.226807,509.827454 1056.408081,481.502319 1059.090454,450.780640 
	C1062.758667,408.769348 1087.851562,382.657196 1125.437622,367.095215 
	C1143.253418,359.718842 1162.153809,357.206177 1181.215820,357.271484 
	C1225.797363,357.424255 1267.365723,369.433136 1306.182007,391.086243 
	C1317.208008,397.237030 1318.509277,403.014923 1312.060913,414.016144 
	C1304.481323,426.947266 1296.824707,439.836029 1289.001831,452.620941 
	C1282.120361,463.867462 1277.820557,464.976471 1266.021362,459.332825 
	C1242.124878,447.903015 1217.474609,438.869293 1190.728027,437.414093 
	C1182.802124,436.982910 1174.775879,437.672150 1166.844849,438.391327 
	C1163.278076,438.714752 1159.719482,440.097504 1156.353882,441.478912 
	C1147.491577,445.116455 1141.147949,451.123901 1139.922119,461.122833 
	C1138.680420,471.250488 1143.351807,478.413910 1152.477539,483.833771 
z"/>
<path fill="#020202" opacity="1.000000" stroke="none" 
	d="
M2744.751465,402.056091 
	C2744.748047,414.703094 2744.870850,426.363098 2744.703613,438.018982 
	C2744.559326,448.043091 2742.271484,450.439667 2732.237793,450.512146 
	C2709.588379,450.675842 2686.937500,450.569183 2664.287109,450.572327 
	C2661.008301,450.572784 2657.729736,450.572388 2653.275635,450.572388 
	C2653.072510,455.074585 2652.750732,458.899628 2652.749268,462.724792 
	C2652.719727,539.002930 2652.729736,615.281067 2652.725586,691.559204 
	C2652.724609,710.477051 2652.208252,710.977173 2632.926025,710.981567 
	C2616.604492,710.985352 2600.282959,710.998413 2583.961426,710.976562 
	C2568.272461,710.955566 2566.642090,709.375549 2566.639648,694.004028 
	C2566.626221,617.059692 2566.633545,540.115417 2566.633301,463.171082 
	C2566.633301,459.540253 2566.633057,455.909454 2566.633057,451.511047 
	C2563.572998,451.154602 2561.081299,450.638885 2558.584229,450.613129 
	C2548.592529,450.510132 2538.593994,450.757233 2528.607910,450.492493 
	C2519.885010,450.261261 2517.191895,447.781036 2517.060059,438.979950 
	C2516.770996,419.665192 2516.779053,400.340973 2517.027100,381.025238 
	C2517.148682,371.546204 2519.684814,369.214752 2529.054688,369.068298 
	C2541.004639,368.881561 2552.959717,369.023041 2565.655762,369.023041 
	C2565.849365,365.449341 2566.138184,362.554626 2566.141846,359.659485 
	C2566.177246,332.012878 2566.140137,304.366150 2566.176758,276.719513 
	C2566.193848,263.887909 2567.362305,262.096252 2579.153076,257.408813 
	C2597.712402,250.030533 2616.318848,242.771072 2634.912109,235.478302 
	C2636.458984,234.871521 2638.029297,234.288666 2639.635498,233.874741 
	C2647.771240,231.778061 2651.701416,234.419357 2652.586670,242.710724 
	C2652.868164,245.348190 2652.721924,248.034378 2652.722412,250.698288 
	C2652.729248,286.006073 2652.727295,321.313843 2652.727539,356.621643 
	C2652.727539,360.243988 2652.727539,363.866333 2652.727539,368.643158 
	C2656.529541,368.783386 2659.722656,368.999023 2662.916260,369.003296 
	C2685.566650,369.033722 2708.217041,368.964630 2730.867188,369.044647 
	C2742.800293,369.086792 2744.615234,371.006622 2744.738525,383.081055 
	C2744.799805,389.075867 2744.750732,395.071869 2744.751465,402.056091 
z"/>
<path fill="#040404" opacity="1.000000" stroke="none" 
	d="
M4282.925293,469.999512 
	C4282.925293,363.390381 4282.923828,257.781250 4282.927246,152.172134 
	C4282.927734,134.628769 4283.581055,133.962662 4300.694336,133.956650 
	C4318.684570,133.950333 4336.675293,133.900742 4354.665039,133.978790 
	C4366.270020,134.029129 4368.495117,136.352325 4368.732910,148.133484 
	C4368.772949,150.131607 4368.740723,152.131195 4368.740723,154.130112 
	C4368.741211,333.032623 4368.742188,511.935120 4368.740723,690.837646 
	C4368.740723,709.983093 4368.169434,710.557251 4349.220215,710.561462 
	C4331.896484,710.565247 4314.572266,710.611450 4297.248535,710.544556 
	C4284.819336,710.496521 4282.952637,708.626465 4282.946289,695.876343 
	C4282.908203,620.917419 4282.926270,545.958435 4282.925293,469.999512 
z"/>
<path fill="#040404" opacity="1.000000" stroke="none" 
	d="
M2781.139404,375.943115 
	C2783.672852,369.660706 2788.290771,368.341156 2793.605225,368.335907 
	C2809.600342,368.320068 2825.597900,368.156677 2841.589355,368.397766 
	C2850.202637,368.527618 2852.569824,370.814270 2854.261230,379.428619 
	C2856.289551,389.759644 2858.126709,400.128204 2860.483154,412.835297 
	C2864.130615,408.585205 2866.367432,405.930450 2868.655273,403.320251 
	C2914.915527,350.539459 2982.340332,347.554504 3030.330078,373.755890 
	C3037.837158,377.854553 3044.591797,383.531982 3051.140381,389.127502 
	C3057.102783,394.221954 3057.651611,397.625946 3053.702148,403.964752 
	C3044.014648,419.512329 3034.095947,434.924835 3023.890869,450.137207 
	C3019.269043,457.027405 3014.754395,456.992737 3006.999023,451.391327 
	C2982.333984,433.576080 2955.128418,429.448761 2926.284424,437.874847 
	C2890.003418,448.473389 2866.233887,480.636871 2866.136963,518.447510 
	C2865.989258,576.095764 2866.096680,633.744690 2866.091553,691.393372 
	C2866.091309,694.391968 2866.252930,697.408997 2865.984375,700.385376 
	C2865.373291,707.160095 2862.675049,710.307922 2855.964844,710.391846 
	C2834.308594,710.662598 2812.645752,710.659607 2790.989014,710.425476 
	C2784.236084,710.352478 2781.478516,707.277527 2780.670654,700.619507 
	C2780.431396,698.645996 2780.542480,696.626343 2780.542480,694.627869 
	C2780.537842,590.993591 2780.536133,487.359283 2780.553467,383.724976 
	C2780.553711,381.399597 2780.774170,379.074310 2781.139404,375.943115 
z"/>
<path fill="#04BBEF" opacity="1.000000" stroke="none" 
	d="
M544.235535,836.649658 
	C530.864380,844.616821 517.547058,852.676331 504.108673,860.528442 
	C486.338287,870.911926 468.385162,880.985596 450.705322,891.519287 
	C445.805145,894.438843 441.859344,894.582703 436.969604,891.570557 
	C425.669250,884.609314 414.072174,878.129578 402.516418,870.255493 
	C413.254913,853.494995 422.112518,836.830200 430.090179,819.682861 
	C431.047211,817.625671 431.637360,815.307678 431.936920,813.049500 
	C433.910034,798.173767 437.135529,783.719971 444.681244,770.490356 
	C447.643768,765.296265 449.868958,759.682495 452.816193,754.478638 
	C455.770203,749.262878 456.811096,743.976074 455.455017,737.694519 
	C476.539032,725.141052 497.235870,713.060974 517.990417,701.080872 
	C522.262451,698.614990 526.749756,696.522095 531.348694,695.202332 
	C532.324158,705.007507 533.716370,713.868591 533.702637,722.727478 
	C533.683167,735.252136 532.418762,747.770325 532.120361,760.301636 
	C532.012329,764.837769 533.249390,769.394409 533.692444,773.959167 
	C533.999512,777.123657 533.824951,780.337463 534.178650,783.494141 
	C534.616455,787.401001 535.421692,791.265198 535.988586,795.159424 
	C536.650879,799.709167 536.958801,804.327515 537.896851,808.816528 
	C539.843018,818.129089 542.104004,827.375854 544.235535,836.649658 
z"/>
<path fill="#02DBE1" opacity="1.000000" stroke="none" 
	d="
M789.780762,526.004822 
	C789.973389,529.305725 790.331055,532.606506 790.334045,535.907532 
	C790.378845,585.708496 790.249207,635.510193 790.530518,685.309631 
	C790.570557,692.400635 788.749451,696.732483 782.201355,700.298340 
	C762.386292,711.089233 742.986084,722.641907 722.426147,733.292725 
	C717.455505,721.518982 713.287048,710.415039 709.567017,699.162842 
	C706.004578,688.387329 703.700256,677.451233 698.591064,666.890808 
	C691.947021,653.158142 688.730347,637.633911 688.009399,621.238892 
	C688.983887,617.708984 689.786072,614.871582 690.936035,612.182922 
	C697.243652,597.435181 703.636475,582.723816 710.705933,567.930786 
	C713.765930,566.703003 716.394470,565.899170 718.427673,564.325928 
	C728.553589,556.491089 738.043518,547.731384 748.673035,540.677185 
	C760.988525,532.504089 773.943420,524.873962 789.780762,526.004822 
z"/>
<path fill="#CC42B2" opacity="1.000000" stroke="none" 
	d="
M96.865707,414.361725 
	C96.619125,397.487396 96.372543,380.613068 97.055008,363.041534 
	C98.684784,366.207642 99.385506,370.070953 100.156097,374.760529 
	C100.816978,379.489624 101.393509,383.394714 102.003098,387.294647 
	C102.613312,391.198608 103.481613,395.078064 103.818771,399.004150 
	C104.124687,402.566467 106.062943,404.684570 109.173592,405.331329 
	C117.564255,407.075897 125.986656,409.445587 134.471710,409.808716 
	C157.540771,410.795959 178.262253,401.271027 197.359482,390.507843 
	C216.454727,379.745728 234.897385,366.793182 248.395813,348.573395 
	C254.084061,340.895569 260.005249,333.349731 265.103149,325.290100 
	C268.258087,320.302185 269.612061,314.202606 272.557526,309.049622 
	C282.151642,292.264862 289.543427,274.664703 294.382141,255.916824 
	C296.802551,246.538849 299.078339,237.113998 297.836853,227.507889 
	C296.400391,216.393509 293.931274,205.406723 291.730927,194.400436 
	C291.055939,191.024170 289.454590,188.089783 285.376801,187.750565 
	C295.557129,181.629623 305.666656,175.386749 315.936737,169.420258 
	C327.372528,162.776505 338.954437,156.384293 351.216309,150.576538 
	C356.078979,167.281113 360.551758,183.406540 359.709412,200.002090 
	C359.111877,211.774231 356.402588,223.510498 353.872314,235.096024 
	C350.345764,251.243576 347.418732,267.641846 339.717224,282.553467 
	C332.730255,296.081512 325.480713,309.475250 318.608887,323.060669 
	C316.713440,326.807892 315.754761,331.028900 313.928284,335.508240 
	C289.614868,349.941711 265.841827,364.080139 241.783371,377.714966 
	C236.556305,380.677338 233.775970,384.116943 233.142975,389.997498 
	C228.251602,391.926178 224.226120,394.181732 219.936951,395.684784 
	C208.387650,399.732056 196.875015,404.017487 185.069962,407.166809 
	C171.088226,410.896820 157.092026,414.744751 142.247421,414.161072 
	C133.907730,413.833099 125.505966,415.445190 117.116669,415.892181 
	C111.420425,416.195679 105.153740,417.680756 102.162285,410.551636 
	C100.032173,412.083923 98.448936,413.222809 96.865707,414.361725 
z"/>
<path fill="#05C6E9" opacity="1.000000" stroke="none" 
	d="
M544.940247,836.493896 
	C542.104004,827.375854 539.843018,818.129089 537.896851,808.816528 
	C536.958801,804.327515 536.650879,799.709167 535.988586,795.159424 
	C535.421692,791.265198 534.616455,787.401001 534.178650,783.494141 
	C533.824951,780.337463 533.999512,777.123657 533.692444,773.959167 
	C533.249390,769.394409 532.012329,764.837769 532.120361,760.301636 
	C532.418762,747.770325 533.683167,735.252136 533.702637,722.727478 
	C533.716370,713.868591 532.324158,705.007507 531.729248,694.705994 
	C538.466614,689.403259 544.983948,685.452881 551.611450,681.697021 
	C573.511169,669.286194 595.450623,656.945618 617.660034,645.328003 
	C618.632568,648.054321 619.319946,650.030823 619.898804,652.834961 
	C619.193481,657.542969 618.459534,661.408264 618.030884,665.307129 
	C617.313843,671.830078 616.650269,678.365173 616.217896,684.911926 
	C615.405334,697.215881 614.656006,709.527100 614.178040,721.846924 
	C614.094604,723.998779 615.692627,726.163269 616.133606,728.397034 
	C618.162842,738.674377 621.249573,748.930847 621.661926,759.286194 
	C622.067627,769.474304 623.179260,778.931946 628.849060,787.530273 
	C623.882080,790.760254 619.047668,794.219543 613.925171,797.180664 
	C591.210205,810.311218 568.412659,823.298889 544.940247,836.493896 
z"/>
<path fill="#03D2E5" opacity="1.000000" stroke="none" 
	d="
M629.554199,787.323364 
	C623.179260,778.931946 622.067627,769.474304 621.661926,759.286194 
	C621.249573,748.930847 618.162842,738.674377 616.133606,728.397034 
	C615.692627,726.163269 614.094604,723.998779 614.178040,721.846924 
	C614.656006,709.527100 615.405334,697.215881 616.217896,684.911926 
	C616.650269,678.365173 617.313843,671.830078 618.030884,665.307129 
	C618.459534,661.408264 619.193481,657.542969 620.620117,652.757751 
	C628.678040,648.608276 635.867798,645.274597 643.146790,642.148499 
	C648.517090,639.842163 654.104309,638.027100 659.416687,635.602600 
	C669.013977,631.222473 678.477966,626.550232 687.997559,622.000000 
	C688.730347,637.633911 691.947021,653.158142 698.591064,666.890808 
	C703.700256,677.451233 706.004578,688.387329 709.567017,699.162842 
	C713.287048,710.415039 717.455505,721.518982 721.723267,733.367676 
	C704.370117,744.501282 686.790466,755.073547 669.050171,765.368958 
	C656.230530,772.808716 643.197327,779.880493 629.554199,787.323364 
z"/>
<path fill="#E728AD" opacity="1.000000" stroke="none" 
	d="
M100.086227,373.934265 
	C99.385506,370.070953 98.684784,366.207642 97.286545,362.124207 
	C96.484093,361.051483 96.379150,360.198944 96.969681,358.608337 
	C100.800819,355.687836 99.357140,354.653259 96.677078,353.928589 
	C96.532875,341.213806 96.388664,328.499054 97.184998,314.905762 
	C99.046051,314.355713 100.725800,314.597229 100.774872,315.025543 
	C101.733192,323.390503 109.161781,327.462921 113.250984,333.711945 
	C119.044601,342.565643 124.318741,343.731445 134.740143,340.694916 
	C140.148712,339.118958 145.512787,336.849182 151.035141,336.311249 
	C164.901184,334.960510 173.329941,325.647919 181.667282,316.327362 
	C185.593796,311.937805 188.561264,306.621307 191.562347,301.490295 
	C195.383896,294.956573 199.421921,288.434113 202.214783,281.446442 
	C205.023270,274.419708 206.048935,266.699310 208.549622,259.524658 
	C210.553421,253.775620 210.103683,248.506958 208.046509,243.037109 
	C206.997299,240.247375 206.305679,237.323151 205.452438,234.459702 
	C212.381989,230.009598 219.201172,225.374466 226.270416,221.158600 
	C234.198578,216.430557 242.352875,212.081696 251.175415,208.307953 
	C253.293686,221.843872 255.032837,234.615845 255.822647,247.446243 
	C256.182007,253.284409 254.797638,259.257294 253.958389,265.133942 
	C253.166748,270.677094 252.629868,276.357697 250.948303,281.649689 
	C248.243118,290.163025 244.962463,298.523987 241.438782,306.740814 
	C232.415558,327.781952 220.409790,346.517487 199.722366,358.112518 
	C187.571854,364.922729 175.612518,372.154327 163.062759,378.138519 
	C156.653000,381.194885 148.963898,381.437012 142.149811,383.805115 
	C129.742767,388.116852 118.822876,386.490417 108.752777,377.870819 
	C106.437241,375.888824 103.004715,375.211823 100.086227,373.934265 
z"/>
<path fill="#03AFF1" opacity="1.000000" stroke="none" 
	d="
M455.088257,738.203247 
	C456.811096,743.976074 455.770203,749.262878 452.816193,754.478638 
	C449.868958,759.682495 447.643768,765.296265 444.681244,770.490356 
	C437.135529,783.719971 433.910034,798.173767 431.936920,813.049500 
	C431.637360,815.307678 431.047211,817.625671 430.090179,819.682861 
	C422.112518,836.830200 413.254913,853.494995 402.138672,869.699890 
	C395.572113,866.959473 389.304352,863.575439 382.362854,859.109924 
	C380.268616,857.515930 378.848145,857.003479 377.427643,856.491028 
	C374.609131,855.041687 371.790619,853.592346 368.330566,851.080444 
	C366.271637,849.512512 364.854248,849.007141 363.436829,848.501831 
	C351.152252,841.539368 338.867676,834.576904 326.301514,826.319641 
	C328.060242,818.967712 330.389526,812.742615 336.041779,809.401489 
	C343.033234,805.268738 346.931366,798.930908 350.835907,792.355957 
	C352.182709,790.088074 353.659393,787.882080 355.241730,785.771545 
	C368.925781,767.519592 385.548767,751.546875 397.206116,731.729553 
	C399.019745,728.646423 400.412079,725.315369 402.714111,722.159912 
	C411.639282,726.959167 419.953735,731.527710 428.031158,736.482605 
	C436.480804,741.666016 444.777161,746.232910 454.134491,738.473938 
	C454.367157,738.280945 454.766571,738.288940 455.088257,738.203247 
z"/>
<path fill="#13D5D4" opacity="1.000000" stroke="none" 
	d="
M789.786682,356.005341 
	C789.938171,376.064056 790.089661,396.122803 789.197754,417.096558 
	C783.915771,418.167206 779.666199,417.343689 775.963440,420.886841 
	C772.399170,424.297485 767.958130,426.770477 764.161377,429.963440 
	C751.675476,440.463654 740.082031,451.768341 731.134155,465.615967 
	C722.914185,478.337250 715.213440,491.492401 703.302856,502.072693 
	C698.835815,505.192841 694.596741,507.817047 691.387573,511.371124 
	C681.061584,522.806946 670.986633,534.478394 661.124512,546.317017 
	C658.980896,548.890259 656.995544,550.339478 653.539917,549.058533 
	C653.472412,524.091858 653.604797,500.044220 654.449707,475.941895 
	C658.219177,473.038910 661.499878,470.391968 664.284363,467.298431 
	C669.357483,461.662354 673.910828,455.549927 679.093933,450.023560 
	C685.826782,442.844727 693.060974,436.139008 699.905579,429.061554 
	C716.011902,412.407227 731.728455,395.363556 748.186829,379.067322 
	C755.882812,371.447266 765.081055,365.366516 773.313293,358.257935 
	C778.506165,353.773926 783.845886,353.460297 789.786682,356.005341 
z"/>
<path fill="#D737B1" opacity="1.000000" stroke="none" 
	d="
M100.156097,374.760529 
	C103.004715,375.211823 106.437241,375.888824 108.752777,377.870819 
	C118.822876,386.490417 129.742767,388.116852 142.149811,383.805115 
	C148.963898,381.437012 156.653000,381.194885 163.062759,378.138519 
	C175.612518,372.154327 187.571854,364.922729 199.722366,358.112518 
	C220.409790,346.517487 232.415558,327.781952 241.438782,306.740814 
	C244.962463,298.523987 248.243118,290.163025 250.948303,281.649689 
	C252.629868,276.357697 253.166748,270.677094 253.958389,265.133942 
	C254.797638,259.257294 256.182007,253.284409 255.822647,247.446243 
	C255.032837,234.615845 253.293686,221.843872 251.880188,208.140106 
	C262.597504,200.927124 273.376740,194.622101 284.766357,188.033829 
	C289.454590,188.089783 291.055939,191.024170 291.730927,194.400436 
	C293.931274,205.406723 296.400391,216.393509 297.836853,227.507889 
	C299.078339,237.113998 296.802551,246.538849 294.382141,255.916824 
	C289.543427,274.664703 282.151642,292.264862 272.557526,309.049622 
	C269.612061,314.202606 268.258087,320.302185 265.103149,325.290100 
	C260.005249,333.349731 254.084061,340.895569 248.395813,348.573395 
	C234.897385,366.793182 216.454727,379.745728 197.359482,390.507843 
	C178.262253,401.271027 157.540771,410.795959 134.471710,409.808716 
	C125.986656,409.445587 117.564255,407.075897 109.173592,405.331329 
	C106.062943,404.684570 104.124687,402.566467 103.818771,399.004150 
	C103.481613,395.078064 102.613312,391.198608 102.003098,387.294647 
	C101.393509,383.394714 100.816978,379.489624 100.156097,374.760529 
z"/>
<path fill="#0597F2" opacity="1.000000" stroke="none" 
	d="
M267.689789,793.072632 
	C251.247986,783.837708 234.782410,774.644775 218.374512,765.350037 
	C210.302139,760.777161 202.336472,756.015991 194.656372,750.651489 
	C196.543076,748.857605 198.664017,748.092957 199.562180,746.595154 
	C210.232697,728.800781 226.800690,718.877747 245.289398,711.059631 
	C250.354874,708.917664 256.835327,707.177734 258.899353,700.003296 
	C269.870636,700.715637 279.489319,699.733276 288.302643,694.007507 
	C291.266327,692.082092 295.118256,691.581055 298.421936,690.109680 
	C305.050751,687.157104 311.722412,684.240601 318.067719,680.748291 
	C319.993866,679.688232 320.906799,676.787292 323.016541,674.887573 
	C334.464966,681.103760 345.247345,687.047485 355.876434,693.253906 
	C365.318146,698.767029 374.589691,704.571533 383.485229,710.766052 
	C363.857727,718.330383 344.725525,725.500000 325.483978,732.362976 
	C317.347198,735.265259 309.432983,737.946838 303.657806,745.153748 
	C297.469391,752.876343 289.955139,759.554688 283.949982,767.400879 
	C277.808716,775.424805 270.127625,782.644043 267.689789,793.072632 
z"/>
<path fill="#058AF1" opacity="1.000000" stroke="none" 
	d="
M257.993896,700.004883 
	C256.835327,707.177734 250.354874,708.917664 245.289398,711.059631 
	C226.800690,718.877747 210.232697,728.800781 199.562180,746.595154 
	C198.664017,748.092957 196.543076,748.857605 194.264160,750.078125 
	C184.795364,745.435120 175.970764,740.820312 167.327606,735.887573 
	C151.156342,726.658569 135.090240,717.245300 118.300896,706.782715 
	C116.182014,705.194458 114.742653,704.732056 113.303291,704.269714 
	C107.678741,700.572754 102.054184,696.875793 96.948502,691.903809 
	C97.034439,685.102417 96.601494,679.576172 96.168549,674.049866 
	C96.040565,671.254639 95.912582,668.459351 96.657837,664.734619 
	C104.937981,654.427368 114.837898,651.211121 126.422264,652.001892 
	C137.943283,652.788391 149.504547,653.137512 160.988434,654.279297 
	C177.351151,655.906189 193.659348,658.081177 209.991272,660.934631 
	C209.994400,666.164856 210.225861,670.497498 209.942459,674.796204 
	C209.580856,680.281555 211.678223,683.005920 217.131363,684.832397 
	C230.901413,689.444397 244.391571,694.892090 257.993896,700.004883 
z"/>
<path fill="#4BADC8" opacity="1.000000" stroke="none" 
	d="
M636.517639,207.749557 
	C653.565918,217.359604 670.614258,226.969650 687.408325,237.477127 
	C685.256165,240.632721 682.809753,242.622025 681.549622,245.192780 
	C673.489685,261.635773 663.859802,277.038788 653.409790,292.101593 
	C641.138977,309.788910 630.154297,328.375977 618.846436,346.717468 
	C616.620300,350.328217 615.461609,354.597076 613.104858,358.412720 
	C601.690918,352.187042 590.929810,346.201569 580.294373,340.000793 
	C574.031067,336.349121 567.966919,332.355835 561.918823,327.771912 
	C563.126709,324.634796 564.022339,322.118652 565.364685,319.869049 
	C574.677673,304.261505 584.281250,288.824280 593.409546,273.110474 
	C604.869080,253.383682 616.091003,233.515076 627.109802,213.539078 
	C629.354736,209.469208 632.145935,207.677094 636.517639,207.749557 
z"/>
<path fill="#3771E2" opacity="1.000000" stroke="none" 
	d="
M96.155212,625.949280 
	C96.079285,605.235107 96.003357,584.520935 96.908272,562.781616 
	C103.112022,561.185608 108.460976,559.605713 113.533417,560.239380 
	C126.929001,561.912720 140.191681,564.627625 153.535751,566.748779 
	C157.750381,567.418762 162.071884,567.956299 166.314850,567.791565 
	C174.218033,567.484680 182.151382,566.984558 189.974792,565.877075 
	C197.178741,564.857117 204.311020,565.831543 211.427032,565.532837 
	C218.932602,565.217773 226.368057,563.231873 234.019257,562.901733 
	C234.370316,583.761414 234.536285,603.695374 233.860657,623.796753 
	C226.222992,625.294678 219.423920,627.771057 212.631424,627.753174 
	C186.154755,627.683472 159.476776,630.302673 133.345749,623.881470 
	C127.325867,622.402222 121.693954,623.230652 115.841866,623.999023 
	C109.306938,624.856995 102.719688,625.316406 96.155212,625.949280 
z"/>
<path fill="#AC62B7" opacity="1.000000" stroke="none" 
	d="
M390.887878,127.243462 
	C401.808441,120.583107 412.723175,113.913193 423.655670,107.272484 
	C425.344452,106.246674 427.370758,105.640762 428.806183,104.355217 
	C439.139099,95.101128 449.213989,96.024117 459.528320,106.143890 
	C458.272430,114.181313 456.894135,120.957817 455.089813,127.618896 
	C451.642517,140.345215 447.868835,152.983017 444.411407,165.706711 
	C443.290039,169.833557 442.914703,174.159027 441.879761,178.314362 
	C439.807953,186.632675 437.626129,194.927521 435.276520,203.171295 
	C433.742584,208.553223 431.948639,213.869217 430.070679,219.143372 
	C424.641357,234.391327 419.401245,249.717987 413.456573,264.764740 
	C411.468842,269.795959 409.476654,274.529266 409.593872,280.543091 
	C394.173462,289.537231 379.154205,297.986481 364.095978,305.622223 
	C365.276489,300.746490 366.226349,296.578735 367.766876,292.642151 
	C372.113159,281.536041 377.845398,270.837280 380.967285,259.413879 
	C388.445251,232.050781 395.479492,204.526230 399.537140,176.375229 
	C399.811188,174.473862 399.387115,172.458557 399.192169,170.505768 
	C398.832245,166.900223 398.324493,163.308319 398.015472,159.699005 
	C397.283081,151.144470 396.957489,142.536255 395.741547,134.053833 
	C395.390106,131.602158 392.574036,129.503799 390.887878,127.243462 
z"/>
<path fill="#6F91C1" opacity="1.000000" stroke="none" 
	d="
M636.101074,207.187271 
	C632.145935,207.677094 629.354736,209.469208 627.109802,213.539078 
	C616.091003,233.515076 604.869080,253.383682 593.409546,273.110474 
	C584.281250,288.824280 574.677673,304.261505 565.364685,319.869049 
	C564.022339,322.118652 563.126709,324.634796 561.211914,327.632080 
	C549.219971,321.927704 537.996582,315.694702 526.882263,309.273071 
	C522.371033,306.666565 518.097168,303.649414 513.830444,300.056824 
	C517.279663,293.218140 520.554810,287.108521 523.960388,281.072479 
	C530.470276,269.534363 537.408203,258.222595 543.529907,246.483856 
	C554.260254,225.907501 564.404053,205.025681 575.066223,184.412827 
	C576.776733,181.105972 578.888672,177.086716 584.037231,177.990967 
	C593.477966,183.283066 602.901428,188.606110 612.364746,193.857605 
	C620.113403,198.157639 627.909485,202.372421 636.101074,207.187271 
z"/>
<path fill="#09DAD8" opacity="1.000000" stroke="none" 
	d="
M704.002441,502.002441 
	C715.213440,491.492401 722.914185,478.337250 731.134155,465.615967 
	C740.082031,451.768341 751.675476,440.463654 764.161377,429.963440 
	C767.958130,426.770477 772.399170,424.297485 775.963440,420.886841 
	C779.666199,417.343689 783.915771,418.167206 788.962463,418.009338 
	C789.966248,428.578674 790.305115,439.149933 790.328979,449.721954 
	C790.385010,474.540924 790.290222,499.360260 790.018616,525.092163 
	C773.943420,524.873962 760.988525,532.504089 748.673035,540.677185 
	C738.043518,547.731384 728.553589,556.491089 718.427673,564.325928 
	C716.394470,565.899170 713.765930,566.703003 710.141113,567.407593 
	C708.067200,561.785767 707.257568,556.618958 706.462524,551.449890 
	C705.532471,545.403198 704.597778,539.357117 703.699158,533.305786 
	C703.173157,529.763916 702.212769,526.195374 702.330505,522.668335 
	C702.560913,515.768799 703.409668,508.889893 704.002441,502.002441 
z"/>
<path fill="#1FCFD2" opacity="1.000000" stroke="none" 
	d="
M790.017822,355.091248 
	C783.845886,353.460297 778.506165,353.773926 773.313293,358.257935 
	C765.081055,365.366516 755.882812,371.447266 748.186829,379.067322 
	C731.728455,395.363556 716.011902,412.407227 699.905579,429.061554 
	C693.060974,436.139008 685.826782,442.844727 679.093933,450.023560 
	C673.910828,455.549927 669.357483,461.662354 664.284363,467.298431 
	C661.499878,470.391968 658.219177,473.038910 654.258057,475.020813 
	C653.470215,462.099548 653.586609,450.044678 654.420044,437.934326 
	C657.683411,435.463684 660.649048,433.358826 662.705200,430.580841 
	C672.709351,417.064056 678.656799,400.945312 690.276428,388.359711 
	C695.366211,382.846771 698.698364,375.753845 703.324707,369.761414 
	C713.401245,356.709290 723.452454,343.609375 734.155823,331.077118 
	C745.242188,318.096436 753.092896,302.237915 768.123413,292.671021 
	C770.165955,291.370941 771.202393,288.490143 772.704651,286.341217 
	C773.340637,286.533478 774.006531,286.658844 774.608276,286.927765 
	C790.329285,293.954407 790.348633,293.956970 790.344910,311.214233 
	C790.341858,325.535217 790.283081,339.856201 790.017822,355.091248 
z"/>
<path fill="#04A4F1" opacity="1.000000" stroke="none" 
	d="
M268.087036,793.575195 
	C270.127625,782.644043 277.808716,775.424805 283.949982,767.400879 
	C289.955139,759.554688 297.469391,752.876343 303.657806,745.153748 
	C309.432983,737.946838 317.347198,735.265259 325.483978,732.362976 
	C344.725525,725.500000 363.857727,718.330383 384.173767,710.801025 
	C390.875336,714.244446 396.437286,718.171692 401.999207,722.098938 
	C400.412079,725.315369 399.019745,728.646423 397.206116,731.729553 
	C385.548767,751.546875 368.925781,767.519592 355.241730,785.771545 
	C353.659393,787.882080 352.182709,790.088074 350.835907,792.355957 
	C346.931366,798.930908 343.033234,805.268738 336.041779,809.401489 
	C330.389526,812.742615 328.060242,818.967712 325.915955,825.774048 
	C318.238678,822.387939 310.665375,818.252625 302.398376,813.078491 
	C300.325653,811.532654 298.946564,811.025574 297.567474,810.518494 
	C287.873077,805.038269 278.178680,799.558044 268.087036,793.575195 
z"/>
<path fill="#2AC6CE" opacity="1.000000" stroke="none" 
	d="
M772.381348,285.819946 
	C771.202393,288.490143 770.165955,291.370941 768.123413,292.671021 
	C753.092896,302.237915 745.242188,318.096436 734.155823,331.077118 
	C723.452454,343.609375 713.401245,356.709290 703.324707,369.761414 
	C698.698364,375.753845 695.366211,382.846771 690.276428,388.359711 
	C678.656799,400.945312 672.709351,417.064056 662.705200,430.580841 
	C660.649048,433.358826 657.683411,435.463684 654.246216,437.010559 
	C653.342041,421.527130 653.435730,406.910553 653.244141,392.297729 
	C653.192688,388.378906 652.271667,384.471497 651.821045,379.742798 
	C653.827332,373.746490 655.266052,368.303955 657.828613,363.455414 
	C660.737549,357.951477 664.698303,353.009186 668.120483,347.769653 
	C676.778748,334.513275 685.400513,321.233002 694.020142,307.951385 
	C702.989136,294.131317 711.991150,280.332062 720.846802,266.439636 
	C722.404724,263.995544 723.313843,261.137909 724.522583,258.471252 
	C740.367737,267.413757 756.212952,276.356232 772.381348,285.819946 
z"/>
<path fill="#7655D0" opacity="1.000000" stroke="none" 
	d="
M96.531158,511.981018 
	C96.358917,491.289520 96.186676,470.598022 96.896317,449.144806 
	C99.080536,450.968292 100.890648,453.422852 101.595284,456.161835 
	C104.317131,466.741852 105.426712,467.415222 116.080620,468.155090 
	C125.949844,468.840424 135.733643,470.712616 145.599915,471.500122 
	C151.506393,471.971558 157.684494,472.255096 163.415848,471.062653 
	C177.011429,468.234009 190.399216,464.417023 203.898621,461.112335 
	C213.845871,458.677277 223.836777,456.420471 233.997971,454.996277 
	C234.065582,474.604675 233.943436,493.301025 232.938568,511.999420 
	C223.898056,513.052856 215.668427,513.720215 207.596695,515.231201 
	C187.544647,518.984802 167.554779,522.917297 146.985641,519.994751 
	C141.445663,519.207642 135.870010,518.106262 130.314072,518.125305 
	C121.255028,518.156372 112.508621,517.622375 104.245888,513.304321 
	C102.044891,512.154053 99.122406,512.384460 96.531158,511.981018 
z"/>
<path fill="#B955B5" opacity="1.000000" stroke="none" 
	d="
M390.227600,127.352646 
	C392.574036,129.503799 395.390106,131.602158 395.741547,134.053833 
	C396.957489,142.536255 397.283081,151.144470 398.015472,159.699005 
	C398.324493,163.308319 398.832245,166.900223 399.192169,170.505768 
	C399.387115,172.458557 399.811188,174.473862 399.537140,176.375229 
	C395.479492,204.526230 388.445251,232.050781 380.967285,259.413879 
	C377.845398,270.837280 372.113159,281.536041 367.766876,292.642151 
	C366.226349,296.578735 365.276489,300.746490 363.707520,306.156433 
	C354.582428,312.705139 345.888519,318.051086 337.005890,323.062469 
	C329.573883,327.255524 321.921204,331.057404 314.366241,335.032532 
	C315.754761,331.028900 316.713440,326.807892 318.608887,323.060669 
	C325.480713,309.475250 332.730255,296.081512 339.717224,282.553467 
	C347.418732,267.641846 350.345764,251.243576 353.872314,235.096024 
	C356.402588,223.510498 359.111877,211.774231 359.709412,200.002090 
	C360.551758,183.406540 356.078979,167.281113 351.921326,150.441483 
	C360.768250,144.294724 369.637207,138.949005 378.547302,133.672745 
	C382.174652,131.524765 385.891327,129.527603 390.227600,127.352646 
z"/>
<path fill="#9F6DB8" opacity="1.000000" stroke="none" 
	d="
M409.994995,279.998169 
	C409.476654,274.529266 411.468842,269.795959 413.456573,264.764740 
	C419.401245,249.717987 424.641357,234.391327 430.070679,219.143372 
	C431.948639,213.869217 433.742584,208.553223 435.276520,203.171295 
	C437.626129,194.927521 439.807953,186.632675 441.879761,178.314362 
	C442.914703,174.159027 443.290039,169.833557 444.411407,165.706711 
	C447.868835,152.983017 451.642517,140.345215 455.089813,127.618896 
	C456.894135,120.957817 458.272430,114.181313 459.939514,106.680435 
	C473.047821,113.223969 486.057404,120.548157 499.074127,127.859650 
	C501.063751,128.977219 503.086334,130.036041 505.444855,132.390564 
	C501.205536,145.754700 497.047638,158.036606 491.934540,169.907074 
	C481.296631,194.603973 470.035004,219.031631 459.292267,243.684341 
	C456.267456,250.625763 454.154755,257.964661 450.911194,264.873230 
	C445.498352,261.725494 441.438782,262.302826 436.622864,265.346100 
	C428.074249,270.748138 418.904755,275.167633 409.994995,279.998169 
z"/>
<path fill="#F31EAB" opacity="1.000000" stroke="none" 
	d="
M204.708984,234.552185 
	C206.305679,237.323151 206.997299,240.247375 208.046509,243.037109 
	C210.103683,248.506958 210.553421,253.775620 208.549622,259.524658 
	C206.048935,266.699310 205.023270,274.419708 202.214783,281.446442 
	C199.421921,288.434113 195.383896,294.956573 191.562347,301.490295 
	C188.561264,306.621307 185.593796,311.937805 181.667282,316.327362 
	C173.329941,325.647919 164.901184,334.960510 151.035141,336.311249 
	C145.512787,336.849182 140.148712,339.118958 134.740143,340.694916 
	C124.318741,343.731445 119.044601,342.565643 113.250984,333.711945 
	C109.161781,327.462921 101.733192,323.390503 100.774872,315.025543 
	C100.725800,314.597229 99.046051,314.355713 97.423004,313.994995 
	C96.583908,312.474792 96.447327,310.986816 97.240295,308.737366 
	C103.402481,304.110901 103.460114,302.314514 98.548889,296.162048 
	C98.790253,295.558990 99.031601,294.955963 100.097519,294.048767 
	C101.363495,293.491699 101.692589,293.135101 101.909370,292.674835 
	C113.608925,285.757324 125.200829,278.649353 137.031219,271.963379 
	C159.269928,259.395111 181.646347,247.070541 204.708984,234.552185 
z"/>
<path fill="#635DD5" opacity="1.000000" stroke="none" 
	d="
M96.308258,512.898315 
	C99.122406,512.384460 102.044891,512.154053 104.245888,513.304321 
	C112.508621,517.622375 121.255028,518.156372 130.314072,518.125305 
	C135.870010,518.106262 141.445663,519.207642 146.985641,519.994751 
	C167.554779,522.917297 187.544647,518.984802 207.596695,515.231201 
	C215.668427,513.720215 223.898056,513.052856 233.135712,512.920288 
	C234.088455,529.884766 233.961304,545.930359 233.834152,561.975952 
	C226.368057,563.231873 218.932602,565.217773 211.427032,565.532837 
	C204.311020,565.831543 197.178741,564.857117 189.974792,565.877075 
	C182.151382,566.984558 174.218033,567.484680 166.314850,567.791565 
	C162.071884,567.956299 157.750381,567.418762 153.535751,566.748779 
	C140.191681,564.627625 126.929001,561.912720 113.533417,560.239380 
	C108.460976,559.605713 103.112022,561.185608 97.092720,561.857422 
	C96.225998,545.910767 96.155670,529.863220 96.308258,512.898315 
z"/>
<path fill="#3AB9CB" opacity="1.000000" stroke="none" 
	d="
M724.198608,257.953552 
	C723.313843,261.137909 722.404724,263.995544 720.846802,266.439636 
	C711.991150,280.332062 702.989136,294.131317 694.020142,307.951385 
	C685.400513,321.233002 676.778748,334.513275 668.120483,347.769653 
	C664.698303,353.009186 660.737549,357.951477 657.828613,363.455414 
	C655.266052,368.303955 653.827332,373.746490 651.121704,379.588715 
	C638.170959,373.021271 625.990784,365.791840 613.810608,358.562408 
	C615.461609,354.597076 616.620300,350.328217 618.846436,346.717468 
	C630.154297,328.375977 641.138977,309.788910 653.409790,292.101593 
	C663.859802,277.038788 673.489685,261.635773 681.549622,245.192780 
	C682.809753,242.622025 685.256165,240.632721 687.804077,238.045822 
	C700.260925,244.290024 712.067810,250.862946 724.198608,257.953552 
z"/>
<path fill="#8F7ABB" opacity="1.000000" stroke="none" 
	d="
M451.623657,265.121216 
	C454.154755,257.964661 456.267456,250.625763 459.292267,243.684341 
	C470.035004,219.031631 481.296631,194.603973 491.934540,169.907074 
	C497.047638,158.036606 501.205536,145.754700 505.859863,132.943420 
	C519.076721,139.662521 532.229675,147.097321 545.708496,155.865295 
	C545.421875,159.040649 545.067627,161.022614 544.157471,162.703598 
	C534.108398,181.263290 523.510071,199.542191 513.993042,218.368561 
	C504.752655,236.647781 496.492676,255.428329 488.067657,274.108490 
	C486.625366,277.306458 486.513885,281.104614 485.083008,284.456787 
	C473.460114,277.899078 462.541870,271.510132 451.623657,265.121216 
z"/>
<path fill="#7D86BF" opacity="1.000000" stroke="none" 
	d="
M485.787659,284.625519 
	C486.513885,281.104614 486.625366,277.306458 488.067657,274.108490 
	C496.492676,255.428329 504.752655,236.647781 513.993042,218.368561 
	C523.510071,199.542191 534.108398,181.263290 544.157471,162.703598 
	C545.067627,161.022614 545.421875,159.040649 546.079407,156.425491 
	C558.600281,162.668884 571.076111,169.685257 583.794556,177.346313 
	C578.888672,177.086716 576.776733,181.105972 575.066223,184.412827 
	C564.404053,205.025681 554.260254,225.907501 543.529907,246.483856 
	C537.408203,258.222595 530.470276,269.534363 523.960388,281.072479 
	C520.554810,287.108521 517.279663,293.218140 513.135620,299.846985 
	C503.479645,295.141479 494.633636,289.883484 485.787659,284.625519 
z"/>
<path fill="#1C7DEA" opacity="1.000000" stroke="none" 
	d="
M95.963585,626.875244 
	C102.719688,625.316406 109.306938,624.856995 115.841866,623.999023 
	C121.693954,623.230652 127.325867,622.402222 133.345749,623.881470 
	C159.476776,630.302673 186.154755,627.683472 212.631424,627.753174 
	C219.423920,627.771057 226.222992,625.294678 234.497009,624.003174 
	C248.011658,631.306335 260.048309,638.570496 271.679443,646.416504 
	C265.850616,649.326599 260.624207,652.761780 254.965805,653.768188 
	C240.074432,656.416626 224.995224,658.008972 209.990845,660.021973 
	C193.659348,658.081177 177.351151,655.906189 160.988434,654.279297 
	C149.504547,653.137512 137.943283,652.788391 126.422264,652.001892 
	C114.837898,651.211121 104.937981,654.427368 96.859505,663.915283 
	C96.049278,651.950806 95.910614,639.875977 95.963585,626.875244 
z"/>
<path fill="#0E0E0E" opacity="1.000000" stroke="none" 
	d="
M5594.596680,284.257141 
	C5625.196777,272.264069 5655.212402,285.897339 5667.952148,310.313049 
	C5682.999023,339.150482 5676.561035,372.738770 5651.709961,390.935883 
	C5633.600586,404.195862 5613.496582,406.060608 5593.174316,396.938080 
	C5573.098145,387.925934 5561.754395,371.604492 5559.633301,349.709320 
	C5556.722168,319.662842 5568.488281,297.894928 5594.596680,284.257141 
M5583.346191,375.571808 
	C5600.770996,397.266754 5644.933105,397.688141 5659.159180,362.500275 
	C5665.697754,346.327911 5664.746094,329.724609 5656.065430,314.333313 
	C5647.346191,298.873352 5633.795898,290.835693 5615.837402,291.347595 
	C5598.250488,291.848907 5585.287598,300.447205 5577.763184,316.063446 
	C5568.070801,336.177826 5568.988770,355.937012 5583.346191,375.571808 
z"/>
<path fill="#9E44C3" opacity="1.000000" stroke="none" 
	d="
M233.808212,454.084229 
	C223.836777,456.420471 213.845871,458.677277 203.898621,461.112335 
	C190.399216,464.417023 177.011429,468.234009 163.415848,471.062653 
	C157.684494,472.255096 151.506393,471.971558 145.599915,471.500122 
	C135.733643,470.712616 125.949844,468.840424 116.080620,468.155090 
	C105.426712,467.415222 104.317131,466.741852 101.595284,456.161835 
	C100.890648,453.422852 99.080536,450.968292 97.091591,448.230652 
	C96.360420,439.774139 96.315865,431.470032 97.379074,422.549377 
	C99.594170,423.013702 101.334648,423.910400 101.710831,425.203918 
	C105.460358,438.096619 108.059013,440.404785 121.279953,442.054077 
	C122.908058,442.257233 124.499634,442.957397 126.118629,442.996796 
	C138.670181,443.302673 151.612534,445.533295 163.680237,443.226074 
	C179.076096,440.282562 193.700806,433.439880 208.785614,428.682770 
	C217.221359,426.022522 224.320633,419.540558 234.013977,420.911011 
	C234.079254,432.580933 233.943741,443.332581 233.808212,454.084229 
z"/>
<path fill="#B339BE" opacity="1.000000" stroke="none" 
	d="
M233.813171,419.992706 
	C224.320633,419.540558 217.221359,426.022522 208.785614,428.682770 
	C193.700806,433.439880 179.076096,440.282562 163.680237,443.226074 
	C151.612534,445.533295 138.670181,443.302673 126.118629,442.996796 
	C124.499634,442.957397 122.908058,442.257233 121.279953,442.054077 
	C108.059013,440.404785 105.460358,438.096619 101.710831,425.203918 
	C101.334648,423.910400 99.594170,423.013702 97.661400,421.760559 
	C96.791428,419.659607 96.746910,417.730957 96.784042,415.082031 
	C98.448936,413.222809 100.032173,412.083923 102.162285,410.551636 
	C105.153740,417.680756 111.420425,416.195679 117.116669,415.892181 
	C125.505966,415.445190 133.907730,413.833099 142.247421,414.161072 
	C157.092026,414.744751 171.088226,410.896820 185.069962,407.166809 
	C196.875015,404.017487 208.387650,399.732056 219.936951,395.684784 
	C224.226120,394.181732 228.251602,391.926178 233.313690,390.919556 
	C234.091080,401.214478 233.952118,410.603577 233.813171,419.992706 
z"/>
<path fill="#138DED" opacity="1.000000" stroke="none" 
	d="
M95.848236,674.727783 
	C96.601494,679.576172 97.034439,685.102417 96.984299,691.222351 
	C96.176796,686.345886 95.852364,680.875732 95.848236,674.727783 
z"/>
<path fill="#E728AD" opacity="1.000000" stroke="none" 
	d="
M97.893028,296.587952 
	C103.460114,302.314514 103.402481,304.110901 97.469696,308.016968 
	C96.925415,304.376648 97.081291,300.695221 97.893028,296.587952 
z"/>
<path fill="#138DED" opacity="1.000000" stroke="none" 
	d="
M113.573410,704.791016 
	C114.742653,704.732056 116.182014,705.194458 117.832565,706.216309 
	C116.643684,706.288025 115.243614,705.800171 113.573410,704.791016 
z"/>
<path fill="#CC42B2" opacity="1.000000" stroke="none" 
	d="
M96.449959,354.607422 
	C99.357140,354.653259 100.800819,355.687836 97.137939,357.979889 
	C96.481430,357.155060 96.352135,356.220673 96.449959,354.607422 
z"/>
<path fill="#3AB9CB" opacity="1.000000" stroke="none" 
	d="
M297.801941,811.031433 
	C298.946564,811.025574 300.325653,811.532654 301.839142,812.621033 
	C300.661163,812.649719 299.348816,812.097046 297.801941,811.031433 
z"/>
<path fill="#2AC6CE" opacity="1.000000" stroke="none" 
	d="
M363.700684,849.005615 
	C364.854248,849.007141 366.271637,849.512512 367.829773,850.612915 
	C366.635162,850.641785 365.299835,850.075562 363.700684,849.005615 
z"/>
<path fill="#2AC6CE" opacity="1.000000" stroke="none" 
	d="
M377.685730,857.004761 
	C378.848145,857.003479 380.268616,857.515930 381.828064,858.625488 
	C380.625946,858.654541 379.284851,858.086548 377.685730,857.004761 
z"/>
<path fill="#E728AD" opacity="1.000000" stroke="none" 
	d="
M101.486526,292.658478 
	C101.692589,293.135101 101.363495,293.491699 100.577850,293.876526 
	C100.192680,293.359802 100.469368,292.904388 101.486526,292.658478 
z"/>
<path fill="#FCFCFC" opacity="1.000000" stroke="none" 
	d="
M5093.808594,516.681274 
	C5102.917969,564.969666 5081.987793,608.606934 5040.719727,628.553345 
	C4974.003418,660.799377 4895.536133,607.647461 4900.644043,533.669250 
	C4903.960938,485.633942 4939.657715,448.253632 4987.605469,442.606781 
	C5035.399902,436.977997 5078.322754,465.428528 5092.399414,512.063171 
	C5092.784180,513.337891 5093.220703,514.596985 5093.808594,516.681274 
z"/>
<path fill="#FCFCFC" opacity="1.000000" stroke="none" 
	d="
M1643.712036,601.654175 
	C1597.178223,657.856201 1509.497437,644.161255 1479.309937,581.936279 
	C1449.734985,520.973816 1491.728882,446.770294 1558.722656,441.805481 
	C1600.371338,438.718964 1632.738525,455.087921 1652.883179,491.386169 
	C1672.913696,527.478943 1670.225220,563.672058 1646.555420,597.895386 
	C1645.797729,598.990723 1644.958008,600.029358 1643.712036,601.654175 
z"/>
<path fill="#FAFAFA" opacity="1.000000" stroke="none" 
	d="
M1871.775024,503.845276 
	C1888.099487,454.453156 1941.486206,431.888885 1988.795288,446.665009 
	C2019.021362,456.105469 2035.771362,478.600861 2043.902100,508.455170 
	C2036.422852,510.603485 1884.661377,511.245300 1871.021973,509.300415 
	C1871.208008,507.738464 1871.395142,506.167664 1871.775024,503.845276 
z"/>
<path fill="#FAFAFA" opacity="1.000000" stroke="none" 
	d="
M4511.196289,622.177551 
	C4510.211426,619.237793 4509.454102,617.027832 4508.947266,614.761841 
	C4504.682617,595.697754 4514.630371,579.143494 4533.578613,574.330505 
	C4539.016113,572.949280 4544.727539,572.014404 4550.320312,571.977844 
	C4583.912109,571.757751 4617.504883,571.851440 4651.097656,571.875977 
	C4652.687988,571.877136 4654.278809,572.219360 4656.290527,572.451355 
	C4658.180176,584.618042 4656.215332,595.888489 4651.309570,606.626770 
	C4643.821289,623.017578 4631.511230,634.846558 4615.363770,642.547852 
	C4590.122559,654.586426 4564.222168,656.371765 4538.027832,645.955322 
	C4526.652832,641.431946 4517.177734,634.233826 4511.196289,622.177551 
z"/>
<path fill="#FEFEFF" opacity="1.000000" stroke="none" 
	d="
M234.013977,420.911011 
	C233.952118,410.603577 234.091080,401.214478 234.059341,390.903259 
	C233.775970,384.116943 236.556305,380.677338 241.783371,377.714966 
	C265.841827,364.080139 289.614868,349.941711 313.928284,335.508240 
	C321.921204,331.057404 329.573883,327.255524 337.005890,323.062469 
	C345.888519,318.051086 354.582428,312.705139 363.746521,306.969910 
	C379.154205,297.986481 394.173462,289.537231 409.593872,280.543091 
	C418.904755,275.167633 428.074249,270.748138 436.622864,265.346100 
	C441.438782,262.302826 445.498352,261.725494 450.911194,264.873230 
	C462.541870,271.510132 473.460114,277.899078 485.083008,284.456787 
	C494.633636,289.883484 503.479645,295.141479 513.020447,300.609283 
	C518.097168,303.649414 522.371033,306.666565 526.882263,309.273071 
	C537.996582,315.694702 549.219971,321.927704 561.106323,328.376343 
	C567.966919,332.355835 574.031067,336.349121 580.294373,340.000793 
	C590.929810,346.201569 601.690918,352.187042 613.104858,358.412720 
	C625.990784,365.791840 638.170959,373.021271 651.050476,380.404785 
	C652.271667,384.471497 653.192688,388.378906 653.244141,392.297729 
	C653.435730,406.910553 653.342041,421.527130 653.529175,437.066071 
	C653.586609,450.044678 653.470215,462.099548 653.545471,475.075500 
	C653.604797,500.044220 653.472412,524.091858 653.354126,549.983154 
	C653.321838,572.391174 653.020996,592.959839 653.373657,613.517273 
	C653.489929,620.296753 651.606689,624.468384 645.373840,627.737000 
	C635.744995,632.786438 626.679382,638.910095 617.374878,644.578125 
	C595.450623,656.945618 573.511169,669.286194 551.611450,681.697021 
	C544.983948,685.452881 538.466614,689.403259 531.518311,693.760925 
	C526.749756,696.522095 522.262451,698.614990 517.990417,701.080872 
	C497.235870,713.060974 476.539032,725.141052 455.455017,737.694458 
	C454.766571,738.288940 454.367157,738.280945 454.134491,738.473938 
	C444.777161,746.232910 436.480804,741.666016 428.031158,736.482605 
	C419.953735,731.527710 411.639282,726.959167 402.714111,722.159912 
	C396.437286,718.171692 390.875336,714.244446 384.624878,710.282349 
	C374.589691,704.571533 365.318146,698.767029 355.876434,693.253906 
	C345.247345,687.047485 334.464966,681.103760 322.547058,674.442444 
	C318.232697,672.160828 315.082428,670.549133 312.015076,668.792603 
	C298.691864,661.162964 285.392792,653.491150 272.084961,645.834656 
	C260.048309,638.570496 248.011658,631.306335 235.338623,623.835754 
	C234.536285,603.695374 234.370316,583.761414 234.019257,562.901733 
	C233.961304,545.930359 234.088455,529.884766 234.018463,512.918274 
	C233.943436,493.301025 234.065582,474.604675 233.997971,454.996277 
	C233.943741,443.332581 234.079254,432.580933 234.013977,420.911011 
z"/>
<path fill="#0AD3DF" opacity="1.000000" stroke="none" 
	d="
M617.660034,645.328003 
	C626.679382,638.910095 635.744995,632.786438 645.373840,627.737000 
	C651.606689,624.468384 653.489929,620.296753 653.373657,613.517273 
	C653.020996,592.959839 653.321838,572.391174 653.553955,550.902222 
	C656.995544,550.339478 658.980896,548.890259 661.124512,546.317017 
	C670.986633,534.478394 681.061584,522.806946 691.387573,511.371124 
	C694.596741,507.817047 698.835815,505.192841 703.302856,502.072693 
	C703.409668,508.889893 702.560913,515.768799 702.330505,522.668335 
	C702.212769,526.195374 703.173157,529.763916 703.699158,533.305786 
	C704.597778,539.357117 705.532471,545.403198 706.462524,551.449890 
	C707.257568,556.618958 708.067200,561.785767 709.435181,567.476807 
	C703.636475,582.723816 697.243652,597.435181 690.936035,612.182922 
	C689.786072,614.871582 688.983887,617.708984 688.009399,621.238892 
	C678.477966,626.550232 669.013977,631.222473 659.416687,635.602600 
	C654.104309,638.027100 648.517090,639.842163 643.146790,642.148499 
	C635.867798,645.274597 628.678040,648.608276 620.728699,651.930115 
	C619.319946,650.030823 618.632568,648.054321 617.660034,645.328003 
z"/>
<path fill="#138DED" opacity="1.000000" stroke="none" 
	d="
M271.679443,646.416504 
	C285.392792,653.491150 298.691864,661.162964 312.015076,668.792603 
	C315.082428,670.549133 318.232697,672.160828 321.814301,674.284302 
	C320.906799,676.787292 319.993866,679.688232 318.067719,680.748291 
	C311.722412,684.240601 305.050751,687.157104 298.421936,690.109680 
	C295.118256,691.581055 291.266327,692.082092 288.302643,694.007507 
	C279.489319,699.733276 269.870636,700.715637 258.899353,700.003296 
	C244.391571,694.892090 230.901413,689.444397 217.131363,684.832397 
	C211.678223,683.005920 209.580856,680.281555 209.942459,674.796204 
	C210.225861,670.497498 209.994400,666.164856 209.991272,660.934631 
	C224.995224,658.008972 240.074432,656.416626 254.965805,653.768188 
	C260.624207,652.761780 265.850616,649.326599 271.679443,646.416504 
z"/>
<path fill="#FAFAFA" opacity="1.000000" stroke="none" 
	d="
M5582.884277,375.011078 
	C5568.988770,355.937012 5568.070801,336.177826 5577.763184,316.063446 
	C5585.287598,300.447205 5598.250488,291.848907 5615.837402,291.347595 
	C5633.795898,290.835693 5647.346191,298.873352 5656.065430,314.333313 
	C5664.746094,329.724609 5665.697754,346.327911 5659.159180,362.500275 
	C5644.933105,397.688141 5600.770996,397.266754 5582.884277,375.011078 
M5611.000000,309.649414 
	C5606.041016,309.649414 5601.082031,309.649414 5595.680664,309.649414 
	C5595.680664,330.730225 5595.680664,351.111176 5595.680664,371.448425 
	C5599.948730,371.448425 5603.448242,371.448425 5608.027344,371.448425 
	C5608.027344,364.402466 5608.027344,357.930664 5608.027344,351.661591 
	C5619.781738,350.120728 5619.754395,350.134918 5624.432129,359.137756 
	C5626.694336,363.489899 5629.078125,367.778381 5631.072266,371.475922 
	C5635.927246,371.475922 5639.751465,371.475922 5644.868652,371.475922 
	C5642.309570,366.796265 5640.262207,363.084259 5638.245605,359.355896 
	C5636.082520,355.356293 5633.948242,351.341156 5631.790039,347.311981 
	C5633.433594,345.925354 5634.438477,345.073578 5635.447266,344.227386 
	C5642.832031,338.034119 5643.909180,329.940918 5640.995605,321.571289 
	C5638.163574,313.437286 5631.149414,310.314209 5622.888184,309.885376 
	C5619.565430,309.712891 5616.232910,309.722870 5611.000000,309.649414 
z"/>
<path fill="#0E0E0E" opacity="1.000000" stroke="none" 
	d="
M5611.952148,309.649597 
	C5616.232910,309.722870 5619.565430,309.712891 5622.888184,309.885376 
	C5631.149414,310.314209 5638.163574,313.437286 5640.995605,321.571289 
	C5643.909180,329.940918 5642.832031,338.034119 5635.447266,344.227386 
	C5634.438477,345.073578 5633.433594,345.925354 5631.790039,347.311981 
	C5633.948242,351.341156 5636.082520,355.356293 5638.245605,359.355896 
	C5640.262207,363.084259 5642.309570,366.796265 5644.868652,371.475922 
	C5639.751465,371.475922 5635.927246,371.475922 5631.072266,371.475922 
	C5629.078125,367.778381 5626.694336,363.489899 5624.432129,359.137756 
	C5619.754395,350.134918 5619.781738,350.120728 5608.027344,351.661591 
	C5608.027344,357.930664 5608.027344,364.402466 5608.027344,371.448425 
	C5603.448242,371.448425 5599.948730,371.448425 5595.680664,371.448425 
	C5595.680664,351.111176 5595.680664,330.730225 5595.680664,309.649414 
	C5601.082031,309.649414 5606.041016,309.649414 5611.952148,309.649597 
M5624.623047,322.119171 
	C5619.396973,319.150360 5613.969727,319.741058 5608.140625,320.607880 
	C5608.140625,327.388336 5608.140625,333.567535 5608.140625,340.327454 
	C5615.144043,340.864471 5622.075195,342.253967 5626.739746,336.044800 
	C5629.710449,332.089874 5629.354004,327.269409 5624.623047,322.119171 
z"/>
<path fill="#FAFAFA" opacity="1.000000" stroke="none" 
	d="
M5625.281738,322.642456 
	C5629.354004,327.269409 5629.710449,332.089874 5626.739746,336.044800 
	C5622.075195,342.253967 5615.144043,340.864471 5608.140625,340.327454 
	C5608.140625,333.567535 5608.140625,327.388336 5608.140625,320.607880 
	C5613.969727,319.741058 5619.396973,319.150360 5625.281738,322.642456 
z"/>
</svg>