<svg width="775" height="312" viewBox="0 0 775 312" fill="none" xmlns="http://www.w3.org/2000/svg">
<path d="M338.858 120.534C334.317 120.534 330.35 123.603 329.21 127.998L310.728 199.223H330.657C335.198 199.223 339.164 196.154 340.305 191.759L358.787 120.534H338.858ZM323.925 254.504L330.151 230.599C326.664 235.081 320.937 239.563 311.973 239.563H279.103C267.897 239.563 259.68 228.357 262.668 217.152L293.297 100.115C296.285 88.9094 309.233 82.186 320.439 82.186H350.072C359.036 82.186 363.519 84.6762 366.756 89.1584C367.94 85.3101 371.495 82.6841 375.522 82.6841H411.08L360.281 276.915C357.293 288.121 344.345 294.844 333.139 294.844H269.142L277.884 261.909C279.043 257.543 282.995 254.504 287.511 254.504H323.925ZM207.636 120.534L201.908 142.946H228.802L234.529 120.534H207.636ZM240.257 172.329H194.189L187.216 199.223H206.333C210.904 199.223 214.888 196.112 215.996 191.678L216.351 190.258H257.937L249.719 221.634C246.731 232.84 233.782 239.563 222.576 239.563H155.592C144.386 239.563 134.923 232.84 137.912 221.634L169.785 100.115C172.774 88.9094 185.722 82.186 196.928 82.186H264.162C275.368 82.186 284.83 88.9094 281.842 100.115L267.399 154.4C264.411 165.606 251.462 172.329 240.257 172.329ZM168.042 82.6841L91.5379 230.734C88.9728 235.698 83.8521 238.816 78.2645 238.816H57.4799C49.2283 238.816 42.5391 232.127 42.5391 223.875V82.6841H87.3617L83.1284 167.847L123.22 82.6841H168.042ZM463.614 120.534C459.073 120.534 455.107 123.603 453.966 127.998L435.484 199.223H455.413C459.954 199.223 463.921 196.154 465.061 191.759L483.544 120.534H463.614ZM497.193 231.376C496.047 235.759 492.087 238.816 487.557 238.816H460.385L456.65 223.875C452.168 232.84 441.211 239.563 432.247 239.563H404.606C393.4 239.563 385.183 228.357 388.171 217.152L418.8 100.115C421.539 88.9094 434.488 82.186 445.693 82.186H475.326C484.291 82.186 488.524 84.6762 491.761 89.1584C492.945 85.3101 496.501 82.6841 500.527 82.6841H536.086L497.193 231.376Z" fill="#1D1D1F"/>
<path fill-rule="evenodd" clip-rule="evenodd" d="M654.362 94.757C666.596 67.3474 682.537 61.2114 701.033 72.5133C719.529 83.8154 720.126 100.059 698.647 121.819C695.277 125.234 692.255 128.392 689.49 131.253C693.288 130.561 697.465 129.824 702.041 128.937C731.179 123.287 743.109 133.395 740.733 155.999C738.357 178.603 724.303 188.709 696.352 183.06C691.968 182.174 687.952 181.437 684.303 180.745C686.466 183.606 688.825 186.766 691.478 190.182C708.382 211.942 704.37 228.184 683.499 239.486C662.627 250.788 647.976 244.652 641.504 217.242C640.488 212.939 639.49 209.04 638.604 205.486C636.97 209.04 635.153 212.939 633.232 217.242C620.999 244.652 605.057 250.788 586.561 239.486C568.066 228.184 567.468 211.942 588.947 190.182C592.319 186.765 595.342 183.604 598.108 180.742C594.309 181.435 590.132 182.172 585.555 183.06C556.416 188.709 544.487 178.603 546.863 155.999C549.238 133.395 563.292 123.287 591.243 128.937C595.631 129.824 599.651 130.561 603.302 131.253C601.139 128.392 598.781 125.234 596.128 121.819C579.223 100.058 583.235 83.8154 604.107 72.5133C624.978 61.2115 639.63 67.3474 646.102 94.757C647.117 99.0545 648.113 102.948 648.998 106.498C650.629 102.948 652.444 99.0545 654.362 94.757ZM664.195 126.251C648.672 116.765 626.956 122.394 615.691 138.824C604.427 155.253 607.879 176.262 623.402 185.748C638.925 195.234 660.641 189.604 671.906 173.175C683.171 156.745 679.719 135.736 664.195 126.251Z" fill="#1D1D1F"/>
<path d="M560.635 75.9515C554.005 75.9515 548.734 70.6806 548.734 64.0506C548.734 57.3875 554.005 52.0835 560.635 52.0835C567.298 52.0835 572.602 57.3875 572.602 64.0506C572.602 70.6806 567.298 75.9515 560.635 75.9515ZM560.602 74.2277C566.271 74.2277 570.812 69.6861 570.812 64.0506C570.812 58.4151 566.271 53.8404 560.602 53.8404C554.967 53.8404 550.425 58.4151 550.425 64.0506C550.425 69.6861 554.967 74.2277 560.602 74.2277ZM556.392 70.6475V57.3212H561.795C564.017 57.3212 565.707 58.9455 565.707 61.1666C565.707 63.1887 564.149 64.9125 562.226 65.1114L565.972 70.6475H563.851L560.237 65.1446H558.149V70.6475H556.392ZM558.149 63.5202H561.729C562.956 63.5202 563.884 62.4926 563.884 61.266C563.884 59.9732 562.956 59.045 561.729 59.045H558.149V63.5202Z" fill="#1D1D1F"/>
</svg>
