<svg xmlns="http://www.w3.org/2000/svg" xmlns:xlink="http://www.w3.org/1999/xlink" version="1.0" x="0" y="0" width="2400" height="829.5740956804748" viewBox="98.82949844360351 100.39949813842773 142.34100311279298 49.20100372314453" preserveAspectRatio="xMidYMid meet" color-interpolation-filters="sRGB"><g><defs><linearGradient id="92" x1="0%" y1="0%" x2="100%" y2="0%"><stop offset="0%" stop-color="#fa71cd"></stop> <stop offset="100%" stop-color="#9b59b6"></stop></linearGradient><linearGradient id="93" x1="0%" y1="0%" x2="100%" y2="0%"><stop offset="0%" stop-color="#f9d423"></stop> <stop offset="100%" stop-color="#f83600"></stop></linearGradient><linearGradient id="94" x1="0%" y1="0%" x2="100%" y2="0%"><stop offset="0%" stop-color="#0064d2"></stop> <stop offset="100%" stop-color="#1cb0f6"></stop></linearGradient><linearGradient id="95" x1="0%" y1="0%" x2="100%" y2="0%"><stop offset="0%" stop-color="#f00978"></stop> <stop offset="100%" stop-color="#3f51b1"></stop></linearGradient><linearGradient id="96" x1="0%" y1="0%" x2="100%" y2="0%"><stop offset="0%" stop-color="#7873f5"></stop> <stop offset="100%" stop-color="#ec77ab"></stop></linearGradient><linearGradient id="97" x1="0%" y1="0%" x2="100%" y2="0%"><stop offset="0%" stop-color="#f9d423"></stop> <stop offset="100%" stop-color="#e14fad"></stop></linearGradient><linearGradient id="98" x1="0%" y1="0%" x2="100%" y2="0%"><stop offset="0%" stop-color="#009efd"></stop> <stop offset="100%" stop-color="#2af598"></stop></linearGradient><linearGradient id="99" x1="0%" y1="0%" x2="100%" y2="0%"><stop offset="0%" stop-color="#ffcc00"></stop> <stop offset="100%" stop-color="#00b140"></stop></linearGradient><linearGradient id="100" x1="0%" y1="0%" x2="100%" y2="0%"><stop offset="0%" stop-color="#d51007"></stop> <stop offset="100%" stop-color="#ff8177"></stop></linearGradient><linearGradient id="102" x1="0%" y1="0%" x2="100%" y2="0%"><stop offset="0%" stop-color="#a2b6df"></stop> <stop offset="100%" stop-color="#0c3483"></stop></linearGradient><linearGradient id="103" x1="0%" y1="0%" x2="100%" y2="0%"><stop offset="0%" stop-color="#7ac5d8"></stop> <stop offset="100%" stop-color="#eea2a2"></stop></linearGradient><linearGradient id="104" x1="0%" y1="0%" x2="100%" y2="0%"><stop offset="0%" stop-color="#00ecbc"></stop> <stop offset="100%" stop-color="#007adf"></stop></linearGradient><linearGradient id="105" x1="0%" y1="0%" x2="100%" y2="0%"><stop offset="0%" stop-color="#b88746"></stop> <stop offset="100%" stop-color="#fdf5a6"></stop></linearGradient></defs><g fill="#000000" class="basesvg" transform="translate(100.2249984741211,101.79499816894531)"><g fill-rule="" class="tp-name"><g transform="scale(1)"><g><path d="M36.01-45.5L36.01-45.5 36.01-39.13 12.22-7.8 36.01-7.8 36.01 0 6.24 0 6.24 0 1.3 0 1.3-6.37 25.09-37.7 1.3-37.7 1.3-45.5 31.07-45.5 31.07-45.5 36.01-45.5ZM63.64-32.56L71.44-32.56 71.44 0 63.64 0 63.64-16.25Q63.64-20.15 60.91-22.88L60.91-22.88Q58.18-25.61 54.28-25.61L54.28-25.61Q52.39-25.61 50.67-24.89 48.95-24.18 47.65-22.88L47.65-22.88Q44.92-20.15 44.92-16.25L44.92-16.25Q44.92-12.42 47.65-9.69L47.65-9.69Q48.95-8.32 50.67-7.64 52.39-6.96 54.28-6.96L54.28-6.96Q56.23-6.96 57.79-7.61L57.79-7.61 60.58-0.65Q57.59 0.84 53.63 0.84L53.63 0.84Q50.05 0.84 47.03-0.49 44.01-1.82 41.8-4.16 39.59-6.5 38.35-9.62 37.12-12.74 37.12-16.25L37.12-16.25Q37.12-19.82 38.35-22.95 39.59-26.07 41.8-28.41 44.01-30.75 47.03-32.08 50.05-33.41 53.63-33.41L53.63-33.41Q56.81-33.41 59.28-32.44 61.75-31.46 63.64-29.96L63.64-29.96 63.64-32.56ZM98.35-32.5L106.15-32.5 106.15 0 98.35 0 98.35-2.47Q96.59-0.98 94.38-0.03 92.17 0.91 89.44 0.91L89.44 0.91Q86.26 0.91 83.66-0.29 81.06-1.5 79.2-3.58 77.35-5.66 76.34-8.45 75.34-11.25 75.34-14.43L75.34-14.43 75.34-32.5 83.14-32.5 83.14-14.43Q83.14-11.38 85.41-9.1L85.41-9.1Q87.62-6.89 90.74-6.89L90.74-6.89Q93.93-6.89 96.14-9.1L96.14-9.1Q98.35-11.31 98.35-14.43L98.35-14.43 98.35-32.5ZM126.75-33.41L126.75-33.41Q129.94-33.41 132.53-32.21 135.13-31.01 136.99-28.89 138.84-26.78 139.85-23.98 140.85-21.19 140.85-18L140.85-18 140.85 0 133.06 0 133.06-18Q133.06-21.25 130.78-23.4L130.78-23.4Q128.57-25.61 125.45-25.61L125.45-25.61Q122.27-25.61 120.06-23.4L120.06-23.4Q117.84-21.19 117.84-18L117.84-18 117.84 0 110.05 0 110.05-32.5 117.84-32.5 117.84-30.03Q119.6-31.53 121.81-32.47 124.02-33.41 126.75-33.41Z" transform="translate(-1.2999999523162842, 45.5)"></path></g> </g></g> </g><defs v-gra="od"></defs></g></svg>