<svg width="124" height="37" viewBox="0 0 124 37" fill="none" xmlns="http://www.w3.org/2000/svg">
<path fill-rule="evenodd" clip-rule="evenodd" d="M8.90431 7.67809C7.25846 8.12966 4.99917 8.35544 4.10386 8.41189C4.09031 9.54049 4.06424 10.8764 4.03684 12.2804C4.01213 13.5469 3.98633 14.8687 3.96767 16.1439C4.47408 16.2411 5.21844 16.3139 6.03784 16.3261C7.07441 16.3417 8.12256 16.2585 8.84483 16.057C9.51401 15.8704 10.2192 15.409 10.8436 14.8784C11.181 14.5917 11.477 14.3001 11.7102 14.0519C11.4998 13.6972 11.379 13.283 11.379 12.8406C11.379 11.5275 12.4435 10.463 13.7566 10.463C15.0697 10.463 16.1342 11.5275 16.1342 12.8406C16.1342 14.1537 15.0697 15.2182 13.7566 15.2182C13.4392 15.2182 13.1362 15.156 12.8594 15.0431C12.5837 15.3396 12.231 15.6894 11.8256 16.0339C11.1352 16.6206 10.2313 17.2446 9.25216 17.5177C8.32606 17.7759 7.11099 17.8587 6.01515 17.8423C5.28012 17.8313 4.54945 17.7748 3.94889 17.6795C3.94639 17.9462 3.94439 18.2086 3.94297 18.4658C4.54465 18.3699 5.2777 18.3131 6.01515 18.302C7.11099 18.2856 8.32606 18.3684 9.25216 18.6267C10.2313 18.8998 11.1352 19.5238 11.8256 20.1105C12.2902 20.5053 12.6857 20.9071 12.9752 21.2276C13.22 21.1424 13.4829 21.0962 13.7566 21.0962C15.0697 21.0962 16.1342 22.1607 16.1342 23.4738C16.1342 24.787 15.0697 25.8515 13.7566 25.8515C12.4435 25.8515 11.379 24.787 11.379 23.4738C11.379 22.9885 11.5244 22.5371 11.774 22.1609C11.532 21.8988 11.2126 21.5795 10.8436 21.2659C10.2192 20.7353 9.51401 20.2739 8.84483 20.0873C8.12256 19.8859 7.07441 19.8027 6.03784 19.8182C5.20483 19.8307 4.44937 19.9056 3.94263 20.0053C3.95231 21.5642 3.99719 22.7774 4.10391 23.3135C4.441 25.0069 5.5326 27.2647 8.1614 28.6759C10.2644 29.8048 12.4284 30.6515 13.2475 30.9337C13.3748 30.887 13.5416 30.8396 13.7469 30.7814L13.7469 30.7813C14.6166 30.5344 16.1756 30.0916 18.3337 28.6759C21.001 26.9261 21.724 25.4585 22.2197 23.3135C22.7155 21.1686 22.2197 8.41189 22.2197 8.41189C21.572 8.33662 19.7281 8.0845 17.5336 7.67809C15.3391 7.27168 13.7619 5.92828 13.2475 5.30737C12.6189 6.15406 10.9616 7.11363 8.90431 7.67809Z" fill="#040923"/>
<path fill-rule="evenodd" clip-rule="evenodd" d="M13.2373 4.92836C13.3537 4.92526 13.465 4.97582 13.5393 5.06548C14.009 5.63253 15.5123 6.91818 17.6025 7.30528C19.7888 7.71018 21.6243 7.96102 22.2633 8.03527C22.4489 8.05683 22.5911 8.21041 22.5983 8.3971L22.2195 8.41182C22.5983 8.3971 22.5983 8.39716 22.5983 8.39727L22.5998 8.43404C22.6007 8.45834 22.602 8.49438 22.6038 8.54146C22.6073 8.63562 22.6124 8.77391 22.6187 8.95064C22.6313 9.3041 22.6488 9.81132 22.6681 10.4266C22.7069 11.6572 22.7534 13.3206 22.7845 15.0515C22.8155 16.7818 22.831 18.5823 22.8077 20.0861C22.7847 21.5711 22.7238 22.8152 22.5889 23.3988C22.3362 24.4921 22.0183 25.4462 21.4051 26.3549C20.7924 27.2629 19.9022 28.1001 18.5414 28.9928C16.3377 30.4385 14.7375 30.894 13.8503 31.146C13.8499 31.1461 13.8495 31.1462 13.849 31.1463C13.639 31.2059 13.4886 31.249 13.3779 31.2895C13.296 31.3196 13.2063 31.3205 13.1239 31.2921C12.2894 31.0045 10.1061 30.1501 7.98191 29.0098C5.23311 27.5343 4.08621 25.1672 3.73193 23.3875C3.6166 22.8081 3.57297 21.554 3.56336 20.0076C3.56223 19.8255 3.69067 19.6684 3.8693 19.6333C4.40423 19.5281 5.18333 19.4518 6.03198 19.4391C7.08332 19.4233 8.17323 19.5064 8.94647 19.7221C9.69321 19.9303 10.4481 20.4324 11.0889 20.977C11.4718 21.3023 11.8022 21.6328 12.0524 21.9036C12.1709 22.032 12.1864 22.2248 12.0897 22.3704C11.88 22.6864 11.7579 23.0652 11.7579 23.4738C11.7579 24.5775 12.6527 25.4723 13.7564 25.4723C14.8602 25.4723 15.755 24.5775 15.755 23.4738C15.755 22.37 14.8602 21.4752 13.7564 21.4752C13.5257 21.4752 13.3048 21.5142 13.0996 21.5855C12.9557 21.6356 12.7959 21.5947 12.6938 21.4816C12.413 21.1709 12.0294 20.7813 11.5799 20.3993C10.9061 19.8266 10.0519 19.2432 9.15014 18.9918C8.27498 18.7477 7.10162 18.6648 6.02064 18.681C5.29698 18.6918 4.58247 18.7476 4.00245 18.8401C3.89251 18.8576 3.78043 18.8259 3.69594 18.7534C3.61145 18.6809 3.5631 18.5749 3.56371 18.4636C3.56512 18.2059 3.56713 17.943 3.56964 17.6759C3.57067 17.5656 3.61969 17.4612 3.70391 17.39C3.78813 17.3188 3.8992 17.2878 4.00813 17.305C4.58716 17.3969 5.29937 17.4524 6.02064 17.4632C7.10162 17.4794 8.27498 17.3965 9.15014 17.1524C10.0519 16.901 10.9061 16.3176 11.5799 15.745C11.972 15.4118 12.314 15.0727 12.5816 14.7849C12.6889 14.6695 12.8564 14.6325 13.0023 14.6921C13.2345 14.7867 13.4889 14.8391 13.7564 14.8391C14.8602 14.8391 15.755 13.9443 15.755 12.8405C15.755 11.7368 14.8602 10.842 13.7564 10.842C12.6527 10.842 11.7579 11.7368 11.7579 12.8405C11.7579 13.213 11.8594 13.5606 12.0361 13.8585C12.1223 14.0037 12.102 14.1884 11.9863 14.3115C11.7454 14.5679 11.4391 14.8696 11.0889 15.1672C10.4481 15.7118 9.69321 16.2139 8.94648 16.4221C8.17323 16.6378 7.08332 16.7209 6.03198 16.7051C5.19698 16.6926 4.42967 16.6186 3.89601 16.5161C3.71541 16.4815 3.58574 16.3222 3.58843 16.1383C3.60711 14.8622 3.63292 13.5396 3.65763 12.2734L3.65764 12.2729C3.68505 10.8685 3.71108 9.53415 3.72461 8.40727C3.72699 8.20894 3.88186 8.04597 4.07982 8.03349C4.96689 7.97756 7.1956 7.75369 8.80383 7.31245C9.80598 7.03749 10.7062 6.66739 11.4275 6.26705C12.1562 5.86262 12.6747 5.44265 12.943 5.08133C13.0124 4.98785 13.1209 4.93145 13.2373 4.92836ZM21.8528 8.74864C21.0209 8.64203 19.3743 8.40449 17.4644 8.05078C15.4902 7.68517 13.9936 6.60012 13.2562 5.8736C12.8905 6.24217 12.386 6.60219 11.7955 6.92997C11.0167 7.36219 10.0596 7.75411 9.00443 8.04361C7.50845 8.45405 5.53362 8.67957 4.47826 8.76469C4.46389 9.81695 4.44031 11.0251 4.41569 12.2867L4.41567 12.2877C4.39306 13.4467 4.36955 14.6511 4.35143 15.8236C4.80755 15.8896 5.39897 15.9374 6.04333 15.947C7.06513 15.9623 8.07153 15.879 8.74281 15.6918C9.33443 15.5268 9.98998 15.1062 10.598 14.5895C10.839 14.3847 11.0585 14.1768 11.2479 13.9852C11.0885 13.6362 10.9997 13.2484 10.9997 12.8405C10.9997 11.318 12.2339 10.0838 13.7564 10.0838C15.2789 10.0838 16.5132 11.318 16.5132 12.8405C16.5132 14.363 15.2789 15.5973 13.7564 15.5973C13.4819 15.5973 13.2163 15.557 12.9654 15.482C12.712 15.7441 12.4095 16.0349 12.0709 16.3227C11.364 16.9234 10.4105 17.5881 9.35381 17.8827C9.07433 17.9607 8.77196 18.0231 8.45667 18.0721C8.77196 18.1211 9.07433 18.1835 9.35381 18.2615C10.4105 18.5561 11.364 19.2208 12.0709 19.8215C12.4686 20.1595 12.8167 20.5019 13.094 20.7972C13.3065 20.7448 13.5284 20.717 13.7564 20.717C15.2789 20.717 16.5132 21.9513 16.5132 23.4738C16.5132 24.9963 15.2789 26.2305 13.7564 26.2305C12.2339 26.2305 10.9997 24.9963 10.9997 23.4738C10.9997 23.0209 11.1092 22.5928 11.3031 22.2153C11.1017 22.0085 10.8628 21.7798 10.598 21.5547C9.98998 21.038 9.33443 20.6174 8.74281 20.4524C8.07153 20.2652 7.06513 20.1819 6.04333 20.1972C5.38578 20.207 4.78359 20.2566 4.32409 20.3246C4.33795 21.734 4.38423 22.7808 4.47552 23.2395C4.79541 24.8465 5.83173 26.9951 8.34051 28.3418C10.3248 29.407 12.3662 30.2191 13.2492 30.5326C13.363 30.4962 13.4926 30.4594 13.6306 30.4202L13.6431 30.4166C13.6434 30.4165 13.6438 30.4164 13.6441 30.4164L13.6467 30.4156C14.4996 30.1734 16.016 29.7428 18.1256 28.3589C19.4321 27.5017 20.2371 26.7302 20.7766 25.9308C21.3157 25.132 21.6071 24.2798 21.8502 23.2281C21.9632 22.7393 22.0262 21.5844 22.0496 20.0743C22.0728 18.5829 22.0574 16.7921 22.0264 15.0651C21.9955 13.3387 21.949 11.6789 21.9103 10.4505C21.891 9.83638 21.8736 9.33022 21.861 8.97766C21.858 8.89204 21.8552 8.81549 21.8528 8.74864Z" fill="#040923"/>
<path fill-rule="evenodd" clip-rule="evenodd" d="M13.2333 0.000319911C13.5145 -0.00713194 13.7834 0.115943 13.9615 0.333685C14.5381 1.03845 16.453 2.70148 19.1113 3.19992C22.0029 3.7421 24.4288 4.07759 25.267 4.1762C25.712 4.22855 26.0527 4.59713 26.0698 5.04488L25.1607 5.07978C26.0698 5.04488 26.0699 5.04497 26.0699 5.04512L26.0699 5.04574L26.0717 5.09478C26.0725 5.11528 26.0735 5.14197 26.0747 5.17462C26.0755 5.1941 26.0763 5.2157 26.0771 5.23937C26.0818 5.36604 26.0886 5.55202 26.0969 5.78964C26.1137 6.26486 26.1368 6.9467 26.1626 7.77381C26.214 9.42773 26.2758 11.6639 26.317 13.9912C26.3582 16.317 26.3789 18.7404 26.3479 20.7666C26.3175 22.7485 26.2378 24.4653 26.0477 25.2981C25.7076 26.7877 25.2723 28.1224 24.4204 29.4006C23.5691 30.6776 22.3433 31.8375 20.5085 33.0562C17.5045 35.0513 15.2661 35.6897 14.1436 36.0098C13.9 36.0793 13.709 36.1338 13.5741 36.1839C13.3756 36.2576 13.1576 36.2598 12.9577 36.19C11.8337 35.7979 8.91627 34.6418 6.07514 33.0977C2.29903 31.0454 0.721089 27.7494 0.233818 25.2711C0.103716 24.6094 0.0441158 23.3905 0.0175368 21.9242C-0.00960562 20.4269 -0.0026155 18.5846 0.0206197 16.6217C0.0438685 14.6576 0.0834824 12.5654 0.12196 10.5673C0.123939 10.4646 0.125914 10.3621 0.127884 10.2599C0.16426 8.37262 0.198785 6.58142 0.216719 5.06899C0.222361 4.5932 0.593658 4.20212 1.06851 4.17181C2.23626 4.09728 5.15942 3.79872 7.25171 3.21753C8.55216 2.85629 9.71548 2.37124 10.6414 1.85097C11.5846 1.32097 12.2162 0.791073 12.5237 0.371782C12.69 0.144912 12.952 0.00777169 13.2333 0.000319911ZM24.2795 5.88406C23.0939 5.72351 21.0781 5.42003 18.776 4.98838C16.2979 4.52374 14.3682 3.22968 13.2692 2.2276C12.7874 2.65847 12.1923 3.06671 11.5328 3.43731C10.4684 4.03535 9.1677 4.57383 7.73872 4.97077C5.88303 5.48624 3.49707 5.78616 2.02519 5.92103C2.0059 7.24798 1.97713 8.74054 1.94722 10.292C1.94524 10.3952 1.94324 10.4987 1.94124 10.6024C1.90275 12.6012 1.86327 14.6869 1.84011 16.6432C1.81694 18.6007 1.81022 20.4214 1.83686 21.8912C1.86407 23.3921 1.92575 24.4445 2.01926 24.9201C2.4264 26.9909 3.74492 29.7603 6.94403 31.4989C9.46171 32.8672 12.0516 33.9227 13.2688 34.3686C13.3985 34.3287 13.5409 34.2875 13.696 34.2426C14.8695 33.9031 16.7743 33.3519 19.5017 31.5404C21.2057 30.4087 22.2288 29.4078 22.9063 28.3914C23.583 27.3761 23.9561 26.2846 24.2737 24.8931C24.4124 24.2854 24.4972 22.78 24.5285 20.7387C24.5591 18.7419 24.5387 16.3414 24.4977 14.0234C24.4567 11.7068 24.3951 9.47928 24.3438 7.8304C24.3187 7.02358 24.2961 6.35565 24.2795 5.88406Z" fill="#040923"/>
<path d="M123.073 11.7254V14.4427H113.573V11.7254H123.073ZM116.121 7.55884H119.506V24.0099C119.506 24.6666 119.604 25.161 119.8 25.4931C119.997 25.8177 120.25 26.0403 120.559 26.1611C120.876 26.2743 121.219 26.3309 121.589 26.3309C121.861 26.3309 122.099 26.3121 122.303 26.2743C122.506 26.2366 122.665 26.2064 122.778 26.1837L123.39 28.9803C123.193 29.0558 122.914 29.1313 122.552 29.2068C122.189 29.2898 121.736 29.3351 121.193 29.3426C120.302 29.3577 119.472 29.1992 118.702 28.8671C117.932 28.535 117.31 28.0217 116.834 27.3273C116.358 26.6329 116.121 25.7611 116.121 24.7119V7.55884Z" fill="#040923"/>
<path d="M99.1598 18.7904V29.1162H95.7745V5.92847H99.1145V14.5559H99.3296C99.7372 13.62 100.36 12.8765 101.198 12.3255C102.036 11.7745 103.13 11.499 104.481 11.499C105.674 11.499 106.715 11.7443 107.606 12.2349C108.504 12.7255 109.199 13.4577 109.689 14.4314C110.188 15.3975 110.437 16.6052 110.437 18.0545V29.1162H107.051V18.4621C107.051 17.1864 106.723 16.1976 106.066 15.4957C105.41 14.7861 104.496 14.4314 103.326 14.4314C102.526 14.4314 101.809 14.6012 101.175 14.9409C100.549 15.2805 100.054 15.7787 99.6919 16.4354C99.3372 17.0845 99.1598 17.8695 99.1598 18.7904Z" fill="#040923"/>
<path d="M83.3892 36C82.0079 36 80.8191 35.8188 79.8227 35.4565C78.8339 35.0942 78.0263 34.6149 77.3998 34.0186C76.7733 33.4223 76.3053 32.7694 75.9959 32.0599L78.9056 30.8597C79.1094 31.1919 79.3812 31.5428 79.7208 31.9127C80.0681 32.2901 80.536 32.6109 81.1248 32.8751C81.7211 33.1393 82.4872 33.2714 83.4232 33.2714C84.7063 33.2714 85.7669 32.9581 86.6047 32.3316C87.4425 31.7127 87.8615 30.7239 87.8615 29.3652V25.9459H87.6463C87.4425 26.3158 87.1482 26.7272 86.7632 27.1801C86.3858 27.6329 85.865 28.0254 85.2008 28.3576C84.5365 28.6897 83.6723 28.8557 82.608 28.8557C81.2342 28.8557 79.9963 28.5349 78.8943 27.8933C77.7998 27.2442 76.9318 26.2894 76.2902 25.0288C75.6562 23.7608 75.3392 22.2021 75.3392 20.3528C75.3392 18.5035 75.6524 16.9184 76.2789 15.5975C76.9129 14.2766 77.781 13.2652 78.883 12.5632C79.985 11.8537 81.2342 11.4989 82.6306 11.4989C83.71 11.4989 84.5818 11.6801 85.246 12.0424C85.9103 12.3971 86.4273 12.8123 86.7972 13.2878C87.1746 13.7633 87.4652 14.1822 87.669 14.5446H87.9181V11.7253H91.2354V29.5011C91.2354 30.9956 90.8882 32.2222 90.1938 33.1808C89.4994 34.1394 88.5597 34.8489 87.3746 35.3093C86.1971 35.7698 84.8686 36 83.3892 36ZM83.3552 26.0478C84.3289 26.0478 85.1517 25.8214 85.8235 25.3685C86.5028 24.9081 87.0161 24.2514 87.3633 23.3985C87.718 22.538 87.8954 21.5077 87.8954 20.3075C87.8954 19.1376 87.7218 18.1073 87.3746 17.2166C87.0274 16.3259 86.5179 15.6315 85.8461 15.1333C85.1743 14.6276 84.344 14.3747 83.3552 14.3747C82.3363 14.3747 81.4871 14.6389 80.8078 15.1673C80.1284 15.6881 79.6152 16.3976 79.268 17.2958C78.9283 18.1941 78.7585 19.198 78.7585 20.3075C78.7585 21.4473 78.9321 22.4474 79.2793 23.3079C79.6265 24.1684 80.1398 24.8401 80.8191 25.3232C81.506 25.8063 82.3513 26.0478 83.3552 26.0478Z" fill="#040923"/>
<path d="M68.1576 29.1161V11.7253H71.5429V29.1161H68.1576ZM69.8672 9.042C69.2785 9.042 68.7728 8.84575 68.3501 8.45325C67.9349 8.0532 67.7274 7.57767 67.7274 7.02666C67.7274 6.4681 67.9349 5.99257 68.3501 5.60007C68.7728 5.20002 69.2785 5 69.8672 5C70.456 5 70.9579 5.20002 71.3731 5.60007C71.7958 5.99257 72.0071 6.4681 72.0071 7.02666C72.0071 7.57767 71.7958 8.0532 71.3731 8.45325C70.9579 8.84575 70.456 9.042 69.8672 9.042Z" fill="#040923"/>
<path d="M55.9209 29.1162V11.7254H59.193V14.488H59.3741C59.6912 13.552 60.2497 12.8161 61.0498 12.2802C61.8575 11.7367 62.7708 11.465 63.7898 11.465C64.0011 11.465 64.2502 11.4725 64.537 11.4876C64.8314 11.5027 65.0616 11.5216 65.2277 11.5442V14.7824C65.0918 14.7446 64.8503 14.7031 64.5031 14.6578C64.1559 14.605 63.8086 14.5786 63.4614 14.5786C62.6613 14.5786 61.948 14.7484 61.3216 15.088C60.7026 15.4202 60.212 15.8844 59.8497 16.4807C59.4874 17.0694 59.3062 17.7412 59.3062 18.496V29.1162H55.9209Z" fill="#040923"/>
<path d="M35.3318 29.1162V5.92847H43.8234C45.4689 5.92847 46.8313 6.2002 47.9107 6.74366C48.9901 7.27957 49.7977 8.00797 50.3336 8.92883C50.8695 9.84215 51.1375 10.8725 51.1375 12.0198C51.1375 12.9859 50.9601 13.8011 50.6053 14.4654C50.2506 15.122 49.7751 15.6504 49.1788 16.0505C48.59 16.443 47.9409 16.7298 47.2313 16.9109V17.1374C48.0013 17.1751 48.7523 17.4242 49.4845 17.8846C50.2242 18.3375 50.8356 18.9829 51.3186 19.8207C51.8017 20.6586 52.0433 21.6776 52.0433 22.8777C52.0433 24.0627 51.764 25.127 51.2054 26.0705C50.6544 27.0065 49.8015 27.75 48.6466 28.301C47.4918 28.8445 46.0161 29.1162 44.2197 29.1162H35.3318ZM38.8303 26.1158H43.88C45.5557 26.1158 46.7558 25.7913 47.4804 25.1421C48.2051 24.493 48.5674 23.6816 48.5674 22.7079C48.5674 21.9757 48.3824 21.3039 48.0126 20.6925C47.6427 20.0811 47.1144 19.5943 46.4275 19.232C45.7481 18.8697 44.9405 18.6885 44.0045 18.6885H38.8303V26.1158ZM38.8303 15.9599H43.5177C44.3027 15.9599 45.0084 15.8089 45.6349 15.507C46.269 15.2051 46.7709 14.7824 47.1408 14.2389C47.5182 13.6879 47.7069 13.0388 47.7069 12.2915C47.7069 11.3329 47.371 10.529 46.6992 9.87989C46.0274 9.23075 44.9971 8.90619 43.6083 8.90619H38.8303V15.9599Z" fill="#040923"/>
</svg>
