<svg width="495" height="140" viewBox="0 0 495 140" fill="none" xmlns="http://www.w3.org/2000/svg">
<path d="M49.4673 16.8867C43.0315 23.6839 29.3313 28.3984 13.4295 28.4789V59.3574C15.3906 59.672 17.9683 59.892 20.7423 59.9336C24.7429 59.9935 28.8904 59.6773 31.8328 58.8567C34.6743 58.0642 37.547 56.1537 39.9855 54.0814C41.3181 52.949 42.4834 51.8007 43.4003 50.8251C43.8403 50.3568 43.9176 49.6539 43.5897 49.1012C42.9174 47.9679 42.531 46.6451 42.531 45.2277C42.531 41.0275 45.9359 37.6226 50.1361 37.6226C54.3363 37.6226 57.7412 41.0275 57.7412 45.2277C57.7412 49.4279 54.3363 52.8328 50.1361 52.8328C49.1181 52.8328 48.1501 52.6335 47.2666 52.2732C46.7113 52.0468 46.0739 52.1875 45.6655 52.6266C44.6474 53.7215 43.3457 55.012 41.8538 56.2798C39.2898 58.4588 36.0391 60.6788 32.6078 61.6357C29.2776 62.5645 24.8126 62.8799 20.6991 62.8183C18.1137 62.7796 15.5589 62.5901 13.4295 62.2759V67.9948C15.5588 67.6806 18.1136 67.491 20.6991 67.4523C24.8126 67.3908 29.2776 67.7062 32.6078 68.6349C36.0391 69.5919 39.2898 71.8119 41.8538 73.9909C43.5643 75.4445 45.024 76.9272 46.0923 78.1096C46.4809 78.5397 47.0891 78.6954 47.6366 78.505C48.4175 78.2334 49.258 78.0852 50.1361 78.0852C54.3363 78.0852 57.7412 81.4901 57.7412 85.6902C57.7412 89.8904 54.3363 93.2953 50.1361 93.2953C45.9359 93.2953 42.531 89.8904 42.531 85.6902C42.531 84.1357 42.9958 82.6942 43.7938 81.4917C44.1615 80.9376 44.1028 80.2039 43.6516 79.7154C42.6998 78.6847 41.4424 77.4274 39.9855 76.1893C37.547 74.117 34.6743 72.2064 31.8328 71.414C28.8904 70.5934 24.7429 70.2772 20.7423 70.3371C17.9693 70.3786 15.3915 70.5985 13.4295 70.9133V74.5208L13.4311 74.5208C13.4311 96.3431 29.5655 114.034 49.4682 114.034C69.371 114.034 85.5054 96.3431 85.5054 74.5208C85.5054 74.4762 85.5053 74.4316 85.5052 74.387V28.4789C69.6033 28.3985 55.9031 23.6839 49.4673 16.8867Z" fill="#474A5D"/>
<path fill-rule="evenodd" clip-rule="evenodd" d="M51.6404 1.2366C51.0203 0.581692 50.1581 0.210693 49.2562 0.210693C48.3543 0.210693 47.4921 0.581692 46.872 1.2366C39.5466 8.97337 23.1412 14.8982 3.26673 14.9987C1.4599 15.0078 0 16.4751 0 18.282V77.0172C0 77.0572 0.00073134 77.0972 0.00218668 77.137C0.0613623 106.444 21.8139 130.706 49.2575 130.706C76.7385 130.706 98.5129 106.378 98.5129 77.0171L98.5128 76.9407C98.5128 76.9083 98.5127 76.8758 98.5126 76.8434V18.282C98.5126 16.4751 97.0527 15.0078 95.2459 14.9987C75.3713 14.8982 58.9658 8.97339 51.6404 1.2366ZM6.56873 77.0171C6.56873 76.9782 6.56804 76.9394 6.56667 76.9006V21.4986C24.2824 20.8639 40.0958 15.8259 49.2562 8.00845C58.4167 15.8259 74.2301 20.864 91.9459 21.4986V76.8464L91.946 76.8562C91.9461 76.9098 91.9462 76.9635 91.9462 77.0171C91.9462 103.333 72.5558 124.14 49.2575 124.14C25.9591 124.14 6.56873 103.333 6.56873 77.0171Z" fill="#474A5D"/>
<path d="M272.387 27.9156C269.941 27.9156 267.84 27.1004 266.084 25.4698C264.359 23.8078 263.497 21.8323 263.497 19.5432C263.497 17.2228 264.359 15.2473 266.084 13.6167C267.84 11.9548 269.941 11.1238 272.387 11.1238C274.833 11.1238 276.918 11.9548 278.643 13.6167C280.399 15.2473 281.277 17.2228 281.277 19.5432C281.277 21.8323 280.399 23.8078 278.643 25.4698C276.918 27.1004 274.833 27.9156 272.387 27.9156Z" fill="#474A5D"/>
<path d="M402.546 41.5549C399.065 43.844 396.478 46.9327 394.785 50.821H393.891V14.9796H380.016V111.309H394.08V68.4124C394.08 64.5868 394.816 61.3257 396.29 58.629C397.795 55.9009 399.849 53.8313 402.452 52.4202C405.086 51.0091 408.065 50.3036 411.389 50.3036C416.249 50.3036 420.043 51.7774 422.772 54.725C425.5 57.6412 426.864 61.749 426.864 67.0484V111.309H440.927V65.3551C440.927 59.3345 439.893 54.3173 437.823 50.3036C435.785 46.2585 432.9 43.2168 429.168 41.1786C425.468 39.1404 421.141 38.1213 416.187 38.1213C410.574 38.1213 406.027 39.2658 402.546 41.5549Z" fill="#474A5D"/>
<path d="M478.604 90.0969C478.604 92.825 479.011 94.8789 479.827 96.2586C480.642 97.6069 481.692 98.532 482.978 99.0337C484.295 99.5041 485.722 99.7392 487.258 99.7392C488.387 99.7392 489.375 99.6608 490.222 99.5041C491.068 99.3473 491.727 99.2218 492.197 99.1278L494.737 110.746C493.922 111.059 492.762 111.373 491.256 111.686C489.751 112.031 487.87 112.219 485.612 112.251C481.912 112.314 478.463 111.655 475.264 110.275C472.066 108.896 469.479 106.763 467.503 103.878C465.528 100.994 464.54 97.3718 464.54 93.0131V50.3515H453.957V39.0628H464.54V21.7536H478.604V39.0628H493.42V50.3515H478.604V90.0969Z" fill="#474A5D"/>
<path fill-rule="evenodd" clip-rule="evenodd" d="M328.559 139.908C322.82 139.908 317.882 139.155 313.742 137.65C309.635 136.145 306.279 134.154 303.677 131.677C301.074 129.199 299.13 126.487 297.844 123.539L309.933 118.554C310.779 119.933 311.908 121.392 313.319 122.928C314.762 124.496 316.706 125.829 319.152 126.926C321.629 128.024 324.812 128.572 328.7 128.572C334.031 128.572 338.436 127.271 341.917 124.668C345.398 122.097 347.138 117.989 347.138 112.345V98.1401H346.244C345.398 99.6766 344.175 101.386 342.576 103.267C341.008 105.148 338.844 106.779 336.085 108.159C333.325 109.538 329.735 110.228 325.313 110.228C319.606 110.228 314.464 108.896 309.886 106.23C305.339 103.534 301.733 99.5668 299.067 94.3301C296.433 89.0621 295.116 82.5868 295.116 74.9043C295.116 67.2217 296.418 60.6367 299.02 55.1492C301.654 49.6616 305.26 45.4598 309.838 42.5435C314.417 39.5959 319.606 38.1221 325.407 38.1221C329.892 38.1221 333.513 38.8747 336.273 40.3799C339.032 41.8537 341.18 43.5783 342.717 45.5538C344.285 47.5293 345.492 49.2697 346.338 50.7748H347.373V39.0629H361.155V112.909C361.155 119.118 359.712 124.214 356.827 128.196C353.943 132.178 350.039 135.126 345.115 137.039C340.224 138.952 334.705 139.908 328.559 139.908ZM328.418 98.5634C332.463 98.5634 335.881 97.6227 338.672 95.7412C341.494 93.8284 343.626 91.1003 345.068 87.557C346.542 83.9822 347.279 79.702 347.279 74.7161C347.279 69.8558 346.558 65.5755 345.115 61.8753C343.673 58.1752 341.556 55.2903 338.766 53.2207C335.975 51.1197 332.526 50.0693 328.418 50.0693C324.184 50.0693 320.657 51.1668 317.835 53.3618C315.012 55.5255 312.88 58.473 311.438 62.2046C310.027 65.9361 309.321 70.1066 309.321 74.7161C309.321 79.4511 310.042 83.6059 311.485 87.1807C312.927 90.7554 315.059 93.5462 317.882 95.5531C320.735 97.56 324.247 98.5634 328.418 98.5634Z" fill="#474A5D"/>
<path d="M228.513 67.1909C228.513 64.0551 229.265 61.2643 230.771 58.8185C232.276 56.3412 234.314 54.4128 236.885 53.033C239.488 51.622 242.451 50.9164 245.775 50.9164C247.217 50.9164 248.66 51.0262 250.102 51.2457C251.545 51.4338 252.548 51.6063 253.113 51.7631V38.3108C252.423 38.2167 251.466 38.1383 250.243 38.0756C249.052 38.0129 248.017 37.9815 247.139 37.9815C242.906 37.9815 239.112 39.1104 235.756 41.3681C232.432 43.5945 230.112 46.6518 228.795 50.5401H228.042V39.0634H214.449V111.311H228.513V67.1909Z" fill="#474A5D"/>
<path fill-rule="evenodd" clip-rule="evenodd" d="M181.172 18.3661C176.687 16.1084 171.027 14.9796 164.192 14.9796H128.915V111.309H165.838C173.301 111.309 179.431 110.18 184.229 107.923C189.027 105.634 192.57 102.545 194.859 98.6566C197.179 94.7369 198.34 90.3155 198.34 85.3924C198.34 80.4066 197.336 76.1734 195.329 72.6927C193.323 69.2121 190.783 66.531 187.71 64.6496C184.668 62.7368 181.548 61.702 178.349 61.5452V60.6045C181.297 59.8519 183.994 58.6603 186.44 57.0297C188.917 55.3678 190.892 53.1728 192.366 50.4447C193.84 47.6852 194.577 44.2987 194.577 40.2849C194.577 35.5186 193.464 31.2383 191.237 27.4441C189.011 23.6185 185.656 20.5925 181.172 18.3661ZM179.384 94.7996C176.374 97.4963 171.388 98.8447 164.427 98.8447H143.449V67.9891H164.944C168.832 67.9891 172.188 68.7417 175.01 70.2468C177.863 71.752 180.058 73.7745 181.595 76.3145C183.131 78.8544 183.9 81.6452 183.9 84.6869C183.9 88.732 182.394 92.1029 179.384 94.7996ZM171.717 54.772C169.115 56.0263 166.183 56.6534 162.922 56.6534H143.449V27.35H163.298C169.068 27.35 173.348 28.6984 176.139 31.3951C178.929 34.0918 180.325 37.4314 180.325 41.4138C180.325 44.5182 179.541 47.2149 177.973 49.504C176.437 51.7617 174.351 53.5177 171.717 54.772Z" fill="#474A5D"/>
<path d="M265.284 111.31V39.0632H279.348V111.31H265.284Z" fill="#474A5D"/>
</svg>
