<svg width="647" height="220" viewBox="0 0 647 220" fill="none" xmlns="http://www.w3.org/2000/svg">
<path d="M490.471 119.423C490.471 100.561 501.632 88.5068 519.267 88.5068C533.776 88.5068 547.058 98.1053 547.393 119.646V122.995H507.436C508.329 131.477 512.57 136.611 519.267 136.611C523.954 136.611 527.972 133.709 529.87 128.798L546.5 130.473C543.263 142.415 532.548 150.339 519.267 150.339C501.632 150.339 490.471 138.285 490.471 119.423ZM507.882 113.173H530.316C528.865 106.03 524.624 102.235 519.267 102.235C513.24 102.235 509.222 106.253 507.882 113.173Z" fill="#2500DC"/>
<path d="M483.483 69.7561V149H468.304L467.969 140.406C464.732 146.768 459.487 150.339 451.451 150.339C437.388 150.339 428.905 137.616 428.905 119.423C428.905 101.23 437.388 88.5068 451.451 88.5068C458.929 88.5068 464.063 91.9667 467.746 98.3286V69.7561H483.483ZM445.535 119.423C445.535 129.356 449.553 136.611 457.255 136.611C464.844 136.611 468.862 129.245 468.862 119.423C468.862 109.49 464.844 102.123 457.255 102.123C449.553 102.123 445.535 109.378 445.535 119.423Z" fill="#2500DC"/>
<path d="M408.078 89.8461V135.049H425.935V149H371.134V135.049H392.229V103.798H372.585V89.8461H408.078ZM392.117 82.9262V69.7561H407.966V82.9262H392.117Z" fill="#2500DC"/>
<path d="M343.275 109.043C342.494 104.356 339.146 102.235 334.235 102.235C329.77 102.235 326.422 104.021 326.757 107.369C327.091 111.052 331.556 112.168 339.927 114.066C351.981 116.633 360.91 122.995 360.91 132.705C360.91 144.312 351.199 150.339 336.244 150.339C321.288 150.339 309.903 142.192 309.01 129.691L326.087 129.022C326.533 133.932 330.663 136.611 336.244 136.611C341.043 136.611 344.28 135.383 344.28 132.258C344.28 129.022 339.815 127.682 332.114 125.785C319.055 122.66 310.127 116.856 310.127 107.257C310.127 95.8731 320.841 88.5068 335.239 88.5068C348.298 88.5068 358.789 96.2079 360.575 108.374L343.275 109.043Z" fill="#2500DC"/>
<path d="M258.606 159.045L291.643 66.631H306.822L273.785 159.045H258.606Z" fill="#2500DC"/>
<path d="M233.983 113.619C232.979 106.923 228.514 102.235 222.822 102.235C215.233 102.235 210.768 108.82 210.768 119.423C210.768 130.026 215.233 136.611 222.822 136.611C228.849 136.611 233.314 131.923 234.207 125.115L250.837 125.785C249.386 140.406 237.778 150.339 222.822 150.339C205.188 150.339 194.138 138.285 194.138 119.423C194.138 100.561 205.188 88.5068 222.822 88.5068C237.332 88.5068 249.162 98.3286 250.613 112.726L233.983 113.619Z" fill="#2500DC"/>
<path d="M114.007 159.741C110.489 136.115 119.084 117.266 126.619 106.052C127.187 105.207 127.123 104.087 126.447 103.326C125.591 102.362 124.09 102.339 123.228 103.297C106.991 121.329 100.901 140.332 98.0801 156.958C97.8779 158.15 98.5412 159.314 99.6616 159.767L105.287 162.043C105.497 162.128 105.717 162.185 105.942 162.213L111.053 162.847C112.811 163.065 114.268 161.494 114.007 159.741Z" fill="#2500DC"/>
<path fill-rule="evenodd" clip-rule="evenodd" d="M127.682 102.228C126.188 100.545 123.537 100.483 121.999 102.191C105.49 120.526 99.3055 139.855 96.4501 156.681C96.1156 158.653 97.215 160.56 99.0412 161.299L104.666 163.575C105.01 163.715 105.37 163.808 105.739 163.854L105.942 162.213L105.739 163.854L110.849 164.487C113.754 164.848 116.055 162.27 115.642 159.498C112.204 136.414 120.596 117.978 127.991 106.974C128.969 105.518 128.87 103.565 127.682 102.228ZM124.456 104.403C124.642 104.196 124.993 104.178 125.211 104.423C125.375 104.608 125.404 104.897 125.247 105.13C117.571 116.554 108.773 135.817 112.372 159.985C112.481 160.718 111.868 161.283 111.256 161.207L106.145 160.573C106.063 160.563 105.983 160.542 105.906 160.511L105.286 162.043L105.906 160.511L100.281 158.235C99.8666 158.067 99.6394 157.647 99.7093 157.235C102.497 140.809 108.492 122.132 124.456 104.403Z" fill="#2500DC"/>
<path d="M146.588 127.659C141.855 112.731 131.458 101.994 126.85 98.4915C123.721 96.9925 126.783 94.0477 137.336 98.4297C157.924 106.979 152.503 146.32 146.588 127.659Z" fill="#2500DC"/>
<path fill-rule="evenodd" clip-rule="evenodd" d="M128.231 97.6432C129.799 97.623 132.581 98.0982 136.754 99.8312C141.475 101.792 144.761 105.536 146.941 109.905C149.126 114.284 150.155 119.21 150.386 123.333C150.501 125.392 150.414 127.211 150.19 128.628C150.024 129.674 149.802 130.378 149.607 130.796C149.203 130.242 148.648 129.136 148.034 127.201C143.337 112.384 133.219 101.615 128.231 97.6432ZM149.939 131.157C149.939 131.157 149.937 131.156 149.932 131.153C149.937 131.156 149.939 131.158 149.939 131.157ZM126.044 99.785C125.592 99.5526 125.174 99.2609 124.845 98.8975C124.482 98.4969 124.147 97.9123 124.168 97.19C124.189 96.433 124.591 95.8479 125.066 95.4701C125.519 95.1097 126.076 94.8975 126.634 94.7737C128.798 94.2935 132.566 94.8056 137.918 97.0282C143.491 99.3422 147.248 103.722 149.657 108.55C152.061 113.369 153.167 118.715 153.416 123.164C153.54 125.391 153.452 127.431 153.187 129.103C152.936 130.693 152.486 132.213 151.689 133.15C151.259 133.656 150.587 134.147 149.685 134.142C148.816 134.136 148.129 133.668 147.645 133.17C146.706 132.204 145.89 130.48 145.141 128.118C140.562 113.672 130.518 103.232 126.044 99.785Z" fill="#2500DC"/>
<path d="M127.4 131.428C130.571 118.529 127.788 106.177 126 101.614C124.397 99.1526 127.915 98.3639 133.618 106.178C144.745 121.421 123.437 147.553 127.4 131.428Z" fill="#2500DC"/>
<path fill-rule="evenodd" clip-rule="evenodd" d="M127.816 102.17C128.918 102.961 130.487 104.461 132.393 107.072C134.902 110.51 135.621 114.606 135.272 118.692C134.922 122.788 133.502 126.781 131.858 129.849C131.038 131.381 130.18 132.648 129.403 133.562C129.017 134.017 128.686 134.342 128.421 134.567C128.438 133.979 128.557 133.081 128.874 131.791C131.909 119.444 129.655 107.611 127.816 102.17ZM128.489 135.343C128.49 135.343 128.489 135.34 128.486 135.336C128.488 135.341 128.489 135.343 128.489 135.343ZM124.637 102.297C124.408 101.918 124.226 101.503 124.143 101.067C124.05 100.579 124.064 99.9421 124.44 99.3635C124.834 98.7563 125.45 98.4821 126.011 98.4107C126.544 98.3427 127.078 98.4431 127.557 98.6054C129.406 99.2323 131.944 101.309 134.844 105.283C137.899 109.467 138.689 114.354 138.296 118.951C137.904 123.538 136.331 127.928 134.534 131.283C133.634 132.963 132.659 134.417 131.717 135.527C130.828 136.573 129.797 137.52 128.743 137.869C128.17 138.06 127.389 138.133 126.66 137.684C125.958 137.252 125.644 136.54 125.506 135.935C125.24 134.765 125.424 133.111 125.927 131.066C128.977 118.657 126.34 106.742 124.637 102.297Z" fill="#2500DC"/>
<path d="M153.012 100.003C143.599 95.3739 133.777 95.4601 130.043 96.0819C127.939 96.9131 127.826 94.0488 134.588 90.9323C147.78 84.8523 164.779 105.79 153.012 100.003Z" fill="#2500DC"/>
<path fill-rule="evenodd" clip-rule="evenodd" d="M131.664 94.364C132.439 93.7741 133.583 93.0666 135.223 92.3105C138.084 90.9922 141.213 91.1051 144.236 92.0472C147.266 92.9917 150.085 94.7414 152.179 96.5156C153.223 97.4004 154.059 98.2668 154.636 99.0065C154.662 99.0409 154.689 99.0749 154.714 99.1084C154.42 98.9887 154.077 98.8357 153.682 98.6414C145.21 94.4748 136.433 93.9857 131.664 94.364ZM130.257 95.8532C130.259 95.8525 130.265 95.8388 130.272 95.8142C130.259 95.8417 130.256 95.8539 130.257 95.8532ZM156.146 99.5071C156.146 99.507 156.144 99.5071 156.14 99.5075C156.144 99.5073 156.146 99.5071 156.146 99.5071ZM130.429 97.5568C130.083 97.6762 129.706 97.754 129.318 97.7442C128.865 97.7326 128.296 97.5928 127.843 97.1404C126.863 96.1627 127.324 94.8668 127.663 94.253C128.458 92.816 130.491 91.1497 133.953 89.5541C137.689 87.8324 141.632 88.0567 145.139 89.1496C148.638 90.2401 151.807 92.223 154.141 94.1999C155.31 95.1906 156.299 96.2044 157.029 97.1394C157.709 98.0114 158.325 99.0159 158.456 99.9652C158.527 100.479 158.481 101.211 157.937 101.813C157.406 102.399 156.69 102.537 156.156 102.543C155.136 102.554 153.836 102.099 152.343 101.365C143.384 96.9594 134.022 96.9966 130.429 97.5568Z" fill="#2500DC"/>
<path d="M114.19 78.1293C122.246 84.8483 126.159 93.8576 127.109 97.5224C127.204 99.782 129.867 98.7213 129.966 91.2762C130.16 76.7516 104.121 69.7304 114.19 78.1293Z" fill="#2500DC"/>
<path fill-rule="evenodd" clip-rule="evenodd" d="M128.019 95.3424C128.243 94.3951 128.425 93.0622 128.449 91.256C128.491 88.1068 127.116 85.2939 125.026 82.9147C122.932 80.5296 120.188 78.6657 117.715 77.4733C116.482 76.8786 115.351 76.4677 114.441 76.241C114.399 76.2304 114.357 76.2203 114.316 76.2107C114.545 76.431 114.824 76.6819 115.162 76.9639C122.413 83.0115 126.426 90.8317 128.019 95.3424ZM127.23 97.2333C127.23 97.2318 127.24 97.2205 127.26 97.2043C127.24 97.2268 127.23 97.2349 127.23 97.2333ZM113.37 75.0648C113.37 75.0648 113.371 75.0665 113.372 75.0697C113.37 75.0664 113.37 75.0648 113.37 75.0648ZM125.604 97.7689C125.635 98.1333 125.718 98.5099 125.884 98.8599C126.079 99.2697 126.438 99.7324 127.036 99.9627C128.327 100.46 129.324 99.513 129.747 98.9534C130.737 97.6431 131.433 95.1083 131.484 91.2964C131.538 87.1833 129.731 83.6718 127.307 80.9119C124.888 78.158 121.788 76.0682 119.034 74.7396C117.653 74.0737 116.325 73.5824 115.174 73.2958C114.101 73.0286 112.933 72.8735 112.012 73.14C111.514 73.2841 110.863 73.6233 110.535 74.3655C110.216 75.0888 110.38 75.7992 110.592 76.2889C110.996 77.2257 111.94 78.2287 113.218 79.2946C120.884 85.689 124.656 94.2587 125.604 97.7689Z" fill="#2500DC"/>
<path d="M103.492 112.983C111.387 106.076 120.897 103.619 124.665 103.254C126.912 103.513 126.281 100.717 118.942 99.4552C104.626 96.9943 93.6223 121.616 103.492 112.983Z" fill="#2500DC"/>
<path fill-rule="evenodd" clip-rule="evenodd" d="M122.654 102.014C121.753 101.644 120.465 101.257 118.685 100.951C115.581 100.417 112.588 101.336 109.911 103.027C107.228 104.724 104.958 107.143 103.394 109.398C102.614 110.523 102.031 111.576 101.665 112.44C101.648 112.48 101.632 112.52 101.616 112.559C101.869 112.367 102.161 112.131 102.492 111.841C109.598 105.624 117.95 102.882 122.654 102.014ZM124.398 103.088C124.397 103.088 124.387 103.076 124.374 103.054C124.393 103.078 124.4 103.089 124.398 103.088ZM100.336 113.314C100.336 113.314 100.338 113.314 100.341 113.313C100.338 113.314 100.336 113.314 100.336 113.314ZM124.673 104.778C125.038 104.804 125.423 104.782 125.795 104.672C126.23 104.544 126.743 104.261 127.064 103.707C127.757 102.509 126.977 101.377 126.491 100.872C125.351 99.6891 122.956 98.6054 119.199 97.9596C115.145 97.2627 111.394 98.4993 108.29 100.462C105.192 102.421 102.643 105.156 100.9 107.669C100.027 108.928 99.3339 110.163 98.871 111.255C98.4393 112.274 98.1035 113.403 98.2229 114.354C98.2874 114.868 98.5207 115.564 99.2025 116.004C99.867 116.433 100.594 116.382 101.111 116.249C102.1 115.996 103.238 115.221 104.49 114.125C112.004 107.552 121.058 105.167 124.673 104.778Z" fill="#2500DC"/>
<path d="M89.0206 92.4632C104.661 91.6623 118.361 97.6364 123.256 100.724C125.757 103.129 127.442 99.2288 119.639 90.8816C104.415 74.5969 69.47 93.4644 89.0206 92.4632Z" fill="#2500DC"/>
<path fill-rule="evenodd" clip-rule="evenodd" d="M123.568 99.1333C123.037 97.6578 121.617 95.2191 118.531 91.9179C115.04 88.1836 110.381 86.4187 105.525 85.9086C100.658 85.3975 95.6841 86.1602 91.7417 87.3898C89.7734 88.0037 88.0994 88.7227 86.851 89.4295C85.9298 89.9511 85.3487 90.406 85.025 90.7348C85.6856 90.9196 86.9156 91.0515 88.9434 90.9477C104.467 90.1527 118.1 95.854 123.568 99.1333ZM84.5703 90.551C84.5705 90.551 84.5727 90.5526 84.5766 90.5559C84.5721 90.5528 84.5702 90.5511 84.5703 90.551ZM122.328 101.933C122.704 102.274 123.124 102.563 123.58 102.744C124.082 102.943 124.747 103.052 125.416 102.78C126.118 102.494 126.525 101.913 126.712 101.336C126.891 100.785 126.894 100.189 126.815 99.6232C126.506 97.4283 124.706 94.079 120.748 89.8452C116.627 85.4372 111.208 83.4538 105.842 82.8902C100.486 82.3276 95.0911 83.1659 90.838 84.4924C88.7087 85.1565 86.8283 85.9545 85.3556 86.7884C83.955 87.5814 82.689 88.5354 82.0905 89.6103C81.7673 90.1908 81.5428 90.9923 81.8645 91.8348C82.1746 92.6469 82.8536 93.1257 83.4899 93.4047C84.7231 93.9452 86.6244 94.1055 89.0987 93.9788C104.233 93.2037 117.531 98.9506 122.328 101.933Z" fill="#2500DC"/>
<path fill-rule="evenodd" clip-rule="evenodd" d="M118.952 46.2044C120.272 45.7092 121.728 45.7092 123.048 46.2044L169.715 63.7044C171.992 64.5582 173.5 66.7347 173.5 69.1663V110C173.5 130.104 160.19 146.168 148.175 156.681C142.044 162.045 135.942 166.238 131.383 169.087C129.098 170.515 127.185 171.616 125.83 172.366C125.153 172.741 124.613 173.029 124.236 173.227C124.047 173.326 123.898 173.403 123.793 173.457C123.772 173.468 123.753 173.477 123.736 173.486C123.709 173.5 123.686 173.512 123.667 173.521L123.63 173.54L123.617 173.546L123.612 173.549C123.61 173.55 123.609 173.55 121 168.333C118.391 173.55 118.39 173.55 118.388 173.549L118.383 173.546L118.37 173.54L118.333 173.521C118.302 173.505 118.26 173.484 118.207 173.457C118.102 173.403 117.953 173.326 117.764 173.227C117.387 173.029 116.847 172.741 116.17 172.366C114.815 171.616 112.902 170.515 110.617 169.087C106.058 166.238 99.9555 162.045 93.8254 156.681C81.8102 146.168 68.5 130.104 68.5 110V69.1663C68.5 66.7347 70.0083 64.5582 72.2851 63.7044L118.952 46.2044ZM121 168.333L118.391 173.55C120.034 174.372 121.966 174.372 123.609 173.55L121 168.333ZM121 161.699C122.118 161.065 123.547 160.227 125.2 159.194C129.391 156.574 134.956 152.746 140.492 147.901C151.81 137.998 161.833 124.895 161.833 110V73.2088L121 57.8963L80.1667 73.2088V110C80.1667 124.895 90.1898 137.998 101.508 147.901C107.044 152.746 112.608 156.574 116.8 159.194C118.453 160.227 119.882 161.065 121 161.699Z" fill="#2500DC"/>
</svg>
