<?xml version="1.0" encoding="UTF-8"?>
<svg xmlns="http://www.w3.org/2000/svg" version="1.1" viewBox="0 0 1500 414.1">
  <defs>
    <style>
      .cls-1 {
        fill-rule: evenodd;
      }

      .cls-1, .cls-2 {
        fill: #2500dc;
      }
    </style>
  </defs>
  <!-- Generator: Adobe Illustrator 28.7.3, SVG Export Plug-In . SVG Version: 1.2.0 Build 164)  -->
  <g>
    <g id="Layer_1">
      <g id="Layer_1-2" data-name="Layer_1">
        <path class="cls-2" d="M1303.8,235.8c0-57.6,34-94.5,87.9-94.5s84.8,29.3,85.9,95.1v10.2h-122.1c2.7,25.9,15.7,41.6,36.2,41.6s26.5-8.8,32.4-23.9l50.8,5.1c-9.9,36.5-42.6,60.7-83.2,60.7s-87.9-36.8-87.9-94.5h0ZM1356.9,216.7h68.5c-4.4-21.8-17.4-33.4-33.8-33.4s-30.7,12.3-34.7,33.4Z"/>
        <path class="cls-2" d="M1282.5,84.1v242h-46.4l-1.1-26.3c-9.9,19.4-25.9,30.3-50.4,30.3-42.9,0-68.9-38.9-68.9-94.5s25.9-94.5,68.9-94.5,38.5,10.6,49.7,30v-87.2h48.2ZM1166.6,235.8c0,30.3,12.3,52.5,35.8,52.5s35.5-22.5,35.5-52.5-12.3-52.8-35.5-52.8-35.8,22.1-35.8,52.8Z"/>
        <path class="cls-2" d="M1052.1,145.5v138h54.5v42.6h-167.4v-42.6h64.4v-95.4h-60v-42.6h108.5ZM1003.5,124.3v-40.2h48.4v40.2h-48.4Z"/>
        <path class="cls-2" d="M854.3,204.1c-2.4-14.3-12.6-20.8-27.6-20.8s-23.9,5.5-22.8,15.7c1.1,11.3,14.6,14.6,40.2,20.5,36.8,7.9,64.1,27.2,64.1,56.9s-29.6,53.9-75.3,53.9-80.4-24.9-83.2-63.1l52.1-2c1.3,15,13.9,23.2,31.1,23.2s24.5-3.8,24.5-13.3-13.7-13.9-37.1-19.7c-39.9-9.5-67.1-27.2-67.1-56.6s32.7-57.2,76.7-57.2,72,23.6,77.3,60.7l-52.8,2h-.1Z"/>
        <path class="cls-2" d="M595.6,356.8l100.9-282.2h46.4l-100.9,282.2h-46.4Z"/>
        <path class="cls-2" d="M520.4,218c-3.1-20.5-16.7-34.7-34-34.7s-36.8,20.1-36.8,52.5,13.7,52.5,36.8,52.5,32-14.3,34.7-35.1l50.8,2c-4.4,44.6-39.9,75-85.5,75s-87.6-36.8-87.6-94.5,33.8-94.5,87.6-94.5,80.4,30,84.8,74l-50.8,2.7h0Z"/>
        <path class="cls-2" d="M154.1,358.9c-10.7-72.1,15.5-129.7,38.5-163.9,1.8-2.6,1.5-5.9-.5-8.3-2.6-3-7.3-3-9.9,0-49.6,55.1-68.2,113.1-76.9,163.8-.6,3.7,1.4,7.1,4.9,8.6l17.1,6.9c.6.2,1.3.5,2,.5l15.6,1.9c5.4.7,9.9-4.2,9-9.5h0Z"/>
        <path class="cls-1" d="M197.9,181.3c-4.5-5.1-12.6-5.4-17.4,0-50.4,56-69.4,115-78,166.4-1.1,6.1,2.4,11.9,8,14.2l17.1,6.9c1.1.5,2.1.7,3.3.8l.6-5-.6,5,15.6,1.9c8.9,1.1,15.9-6.8,14.6-15.2-10.5-70.6,15.1-126.8,37.7-160.4,3-4.4,2.7-10.5-1-14.5h0ZM188,188c.6-.6,1.7-.7,2.3,0,.5.6.6,1.4,0,2.1-23.4,34.9-50.3,93.7-39.3,167.5.4,2.3-1.5,3.9-3.5,3.7l-15.6-1.9c-.2,0-.5,0-.7-.2l-1.9,4.6,1.9-4.6-17.1-6.9c-1.3-.5-1.9-1.8-1.8-3.1,8.6-50.2,26.8-107.2,75.5-161.3h.1Z"/>
        <path class="cls-2" d="M253.6,261c-14.4-45.6-46.2-78.4-60.3-89.1-9.5-4.5-.2-13.6,32-.2,62.8,26.1,46.3,146.2,28.2,89.2h.1Z"/>
        <path class="cls-1" d="M197.6,169.3c4.8,0,13.3,1.4,26.1,6.7,14.4,5.9,24.5,17.4,31.1,30.8,6.7,13.3,9.8,28.4,10.5,41s0,11.9-.6,16.2c-.5,3.2-1.2,5.4-1.8,6.7-1.2-1.7-3-5.1-4.8-10.9-14.4-45.2-45.2-78.2-60.4-90.3h0ZM263.8,271.6h0ZM190.9,175.8c-1.4-.7-2.6-1.5-3.7-2.7s-2.1-3-2-5.2c0-2.3,1.3-4,2.7-5.2,1.4-1.1,3.1-1.8,4.8-2.1,6.7-1.4,18.1,0,34.5,6.9,17,7,28.4,20.5,35.8,35.2,7.4,14.8,10.7,31.1,11.4,44.6.4,6.8,0,13.1-.7,18.1-.7,4.9-2.1,9.5-4.5,12.4-1.3,1.5-3.3,3.1-6.1,3-2.6,0-4.8-1.4-6.2-3-2.9-3-5.4-8.2-7.6-15.5-14-44.1-44.6-76-58.3-86.5h-.1Z"/>
        <path class="cls-2" d="M195.1,272.4c9.6-39.4,1.2-77.1-4.3-91-4.9-7.5,5.8-9.9,23.3,13.9,34,46.5-31.1,126.3-19,77.1Z"/>
        <path class="cls-1" d="M196.2,183.1c3.3,2.4,8.2,7,13.9,15,7.6,10.5,9.9,23,8.8,35.5-1.1,12.5-5.4,24.7-10.5,34-2.5,4.6-5.1,8.6-7.5,11.3-1.2,1.4-2.1,2.4-3,3.1,0-1.8.4-4.5,1.4-8.4,9.3-37.7,2.4-73.9-3.2-90.4h0ZM198.3,284.4h0ZM186.6,183.5c-.7-1.2-1.3-2.4-1.5-3.8-.2-1.5-.2-3.5,1-5.2,1.2-1.9,3.1-2.7,4.8-2.9,1.7-.2,3.2,0,4.8.6,5.6,1.9,13.4,8.2,22.2,20.3,9.3,12.7,11.8,27.7,10.6,41.8-1.2,14-5.9,27.4-11.5,37.7-2.7,5.1-5.7,9.5-8.6,13-2.7,3.2-5.8,6.1-9,7.1-1.8.6-4.2.8-6.3-.6-2.1-1.3-3.1-3.5-3.6-5.4-.8-3.6-.2-8.6,1.3-14.9,9.3-38,1.3-74.2-3.9-87.8h-.1Z"/>
        <path class="cls-2" d="M273.2,176.5c-28.8-14.2-58.8-13.9-70.2-12-6.4,2.5-6.8-6.2,13.9-15.7,40.3-18.6,92.2,45.3,56.3,27.7Z"/>
        <path class="cls-1" d="M208,159.3c2.4-1.8,5.8-3.9,10.8-6.3,8.7-4,18.3-3.7,27.5-.8,9.3,2.9,17.8,8.2,24.3,13.7,3.2,2.7,5.7,5.4,7.5,7.6,0,0,.1.2.2.4-1-.4-1.9-.8-3.1-1.4-25.8-12.7-52.7-14.3-67.2-13.1ZM203.7,163.8h0c0-.1,0,0,0,0ZM282.7,175h0ZM204.2,169c-1.1.4-2.3.6-3.5.6s-3.1-.5-4.5-1.8c-3-3-1.5-6.9-.6-8.8,2.4-4.4,8.7-9.5,19.2-14.4,11.4-5.2,23.4-4.5,34.1-1.2s20.3,9.4,27.5,15.5c3.6,3,6.5,6.1,8.8,8.9,2,2.6,3.9,5.7,4.4,8.7.2,1.5,0,3.8-1.5,5.6-1.7,1.8-3.8,2.3-5.5,2.3-3.1,0-7.1-1.3-11.7-3.6-27.4-13.4-55.9-13.3-67-11.7h.2Z"/>
        <path class="cls-2" d="M154.6,109.7c24.6,20.5,36.5,48.1,39.5,59.2.2,6.9,8.4,3.7,8.7-19,.6-44.4-78.9-65.8-48.2-40.1h0Z"/>
        <path class="cls-1" d="M196.8,162.2c.7-2.9,1.2-7,1.3-12.5.1-9.6-4-18.2-10.5-25.5-6.4-7.3-14.8-13-22.4-16.7-3.8-1.8-7.3-3.1-10-3.8h-.4c.7.7,1.5,1.4,2.6,2.3,22.1,18.4,34.4,42.4,39.3,56.2h0ZM194.5,168.1h0ZM152.1,100.3h0ZM189.5,169.6c0,1.1.4,2.3.8,3.3.6,1.3,1.7,2.6,3.6,3.3,3.9,1.5,7-1.4,8.3-3.1,3-4,5.1-11.8,5.4-23.4.1-12.6-5.4-23.3-12.7-31.8-7.4-8.4-16.9-14.8-25.2-18.8-4.2-2-8.3-3.6-11.8-4.4-3.3-.8-6.9-1.3-9.6-.5-1.5.5-3.5,1.4-4.5,3.7-1,2.3-.5,4.4.1,5.8,1.2,2.9,4.2,5.9,8,9.2,23.4,19.5,35,45.7,37.8,56.4v.2Z"/>
        <path class="cls-2" d="M122,216.1c24.2-21.1,53.2-28.6,64.6-29.7,6.9.8,4.9-7.7-17.5-11.7-43.7-7.5-77.3,67.7-47.2,41.3h.1Z"/>
        <path class="cls-1" d="M180.5,182.6c-2.7-1.1-6.7-2.3-12.1-3.2-9.5-1.7-18.7,1.2-26.8,6.3-8.2,5.2-15.1,12.6-19.9,19.5s-4.2,6.7-5.2,9.3c0,.1,0,.2-.1.4.7-.6,1.7-1.3,2.6-2.1,21.7-19,47.2-27.4,61.6-30h-.1ZM185.8,185.9h0ZM112.4,217.1h0ZM186.7,191c1.1,0,2.3,0,3.5-.4,1.3-.4,2.9-1.3,3.9-3,2.1-3.7-.2-7.1-1.8-8.7-3.5-3.6-10.8-6.9-22.2-8.9-12.4-2.1-23.8,1.7-33.3,7.6-9.5,5.9-17.3,14.3-22.6,22-2.6,3.8-4.8,7.6-6.2,10.9-1.3,3.1-2.4,6.5-2,9.5.2,1.5,1,3.7,3,5s4.3,1.2,5.8.7c3-.7,6.5-3.1,10.4-6.5,23-20.1,50.6-27.4,61.6-28.6v.2Z"/>
        <path class="cls-2" d="M77.8,153.4c47.7-2.5,89.6,15.8,104.6,25.2,7.6,7.4,12.7-4.5-11.1-30.1-46.5-49.7-153.2,7.9-93.5,4.9Z"/>
        <path class="cls-1" d="M183.3,173.8c-1.7-4.5-5.9-11.9-15.3-22-10.7-11.4-24.9-16.8-39.7-18.3-14.9-1.5-30.1.7-42.1,4.5-6.1,1.9-11.1,4-15,6.2-2.9,1.5-4.6,3-5.6,4,2,.6,5.8,1,12,.6,47.4-2.4,89,15,105.8,25h0ZM64.2,147.6h0ZM179.5,182.4c1.2,1.1,2.4,1.9,3.8,2.5,1.5.6,3.6,1,5.6,0,2.1-.8,3.3-2.6,3.9-4.4.6-1.7.6-3.5.4-5.2-1-6.7-6.4-16.9-18.6-29.9-12.6-13.4-29.1-19.5-45.6-21.3-16.3-1.7-32.8.8-45.8,4.9-6.5,2-12.3,4.5-16.8,7-4.3,2.4-8.1,5.4-10,8.6-1,1.8-1.7,4.2-.7,6.8,1,2.5,3,3.9,5,4.8,3.8,1.7,9.5,2.1,17.1,1.8,46.2-2.4,86.8,15.2,101.5,24.3v.2Z"/>
        <path class="cls-1" d="M169.2,12.2c4-1.5,8.4-1.5,12.5,0l142.5,53.4c6.9,2.6,11.5,9.3,11.5,16.7v124.7c0,61.4-40.7,110.4-77.3,142.5-18.7,16.4-37.4,29.1-51.3,37.8-7,4.4-12.8,7.7-17,10-2,1.2-3.7,2-4.9,2.6-.6.4-1.1.6-1.3.7h-.4l-8-15.9c-5.3,10.6-8,15.9-8,15.9h0s-.2-.1-.4-.2c-.4-.1-.8-.4-1.3-.7-1.2-.6-2.9-1.4-4.9-2.6-4.2-2.3-10-5.7-17-10-13.9-8.7-32.6-21.5-51.3-37.8C56.2,317.1,15.5,268.1,15.5,206.7v-124.7c0-7.4,4.6-14,11.5-16.7L169.6,12l-.4.2ZM175.7,384.7l-8,15.9c5,2.5,10.9,2.5,15.9,0l-8-15.9h0ZM175.4,364.9c3.5-1.9,7.7-4.5,12.8-7.6,12.8-8,29.7-19.7,46.8-34.5,34.6-30.2,65.2-70.3,65.2-115.8v-112.3l-124.7-46.8-124.7,46.8v112.3c0,45.4,30.6,85.5,65.2,115.8,16.9,14.8,33.9,26.5,46.8,34.5,5,3.2,9.4,5.7,12.8,7.6h-.2Z"/>
      </g>
    </g>
  </g>
</svg>