<?xml version="1.0" encoding="UTF-8"?><svg id="Layer_2" xmlns="http://www.w3.org/2000/svg" viewBox="0 0 367.4396856 80"><defs><style>.cls-1{fill:#2d2b4d;}.cls-1,.cls-2,.cls-3,.cls-4{stroke-width:0px;}.cls-2{fill:#19182b;}.cls-3{fill:#3bccb6;}.cls-4{fill:#9272e8;}</style></defs><g id="Prophet_Security_-_Branding"><g id="Logo_-_On_White"><path id="Wordmark_-_Black" class="cls-2" d="m356.3725469,30.5371338v17.5319824c0,2.0579834,1.2196045,3.2775879,3.4302368,3.2775879h7.6369019v8.5372314h-9.3900146c-6.555542,0-10.4429321-3.8114624-10.4429321-10.2902832v-19.0565186h-6.0980225v-8.5371704h6.0980225v-10.3335571h8.7658081v10.3335571h11.0671387v8.5371704h-11.0671387Zm-217.8007202,10.4537964c0,11.8843994-7.9983521,20.1123657-18.6641846,19.9599609-5.7901611,0-10.3610229-2.7426758-12.8754272-6.5521851h-.3806763v17.8972778h-8.6838379V22.0212036h8.6838379v5.2564087h.3806763c2.590271-3.6564331,7.1611328-6.2467041,12.8754272-6.3232422,10.8947754-.0758667,18.6641846,8.3045044,18.6641846,20.0365601Zm-8.8369751-.0765991c0-6.5514526-4.6467285-11.6554565-11.5788574-11.6554565-6.8563232,0-11.4285889,5.1798706-11.4285889,11.6554565,0,6.3997803,4.5722656,11.656189,11.4285889,11.656189,6.9321289,0,11.5788574-5.1040039,11.5788574-11.656189Zm22.586792-12.6464233h-.3034058v-6.2467041h-8.4562988v37.862854h8.7597046v-18.5124512c0-6.5515137,4.1143799-10.5134277,10.0562134-10.5134277h5.0232544v-8.8369751h-4.8701782c-4.8756714,0-8.5321045,2.2854614-10.2092896,6.2467041Zm56.4835205,12.6464233c0,11.1989136-8.0741577,20.0365601-20.1882324,20.0365601-12.3416138,0-20.493042-8.8376465-20.493042-20.0365601s8.0755615-19.9599609,20.493042-19.9599609c12.1899414,0,20.1882324,8.7610474,20.1882324,19.9599609Zm-8.7610474.0765991c0-6.475647-4.5708618-11.5803223-11.4271851-11.5803223-7.0838623,0-11.6561279,5.1046753-11.6561279,11.5803223,0,6.3990479,4.6480713,11.5795898,11.6561279,11.5795898,6.8563232,0,11.4271851-5.2564087,11.4271851-11.5795898Zm54.3553467,0c0,11.8843994-7.9983521,20.1123657-18.6641846,19.9599609-5.7901611,0-10.3610229-2.7426758-12.8754272-6.5521851h-.3806763v17.8972778h-8.6838379V22.0212036h8.6838379v5.2564087h.3806763c2.590271-3.6564331,7.1611328-6.2467041,12.8754272-6.3232422,10.8947754-.0758667,18.6641846,8.3045044,18.6641846,20.0365601Zm-8.8369751-.0765991c0-6.5514526-4.6467285-11.6554565-11.5788574-11.6554565-6.8563232,0-11.4285889,5.1798706-11.4285889,11.6554565,0,6.3997803,4.5722656,11.656189,11.4285889,11.656189,6.9321289,0,11.5788574-5.1040039,11.5788574-11.656189Zm34.9298096-19.9599609c-5.1046143,0-9.3706665,2.2861328-12.0368042,5.9425659h-.3820801V7.856897h-8.7596436v52.0271606h8.7596436v-19.2745361c0-6.5514526,4.4191895-11.0465088,10.2093506-11.0465088,5.4094238,0,8.9899902,3.9619751,8.9899902,9.9038086v20.4172363h8.7611084v-21.788208c0-10.6658325-6.0949707-17.1414795-15.5415649-17.1414795Zm59.1538086,23.0074463h-29.94104c.6868896,4.8757324,4.7998657,8.7611084,10.7416992,8.9135132,4.2674561.0758667,7.9996948-1.8282471,9.5238037-4.8757324h9.065918c-2.4385376,8.2280273-9.8286743,12.9512939-18.7414551,12.9512939-12.4174805,0-19.65448-9.2183228-19.65448-19.9599609,0-11.1989136,7.9983521-20.0365601,19.65448-20.0365601,12.5706177,0,20.493103,9.9803467,19.3510742,23.0074463Zm-9.065918-7.1611328c-1.1433716-4.7232666-5.1046143-7.770752-10.4368286-7.770752-5.2577515,0-9.2189941,3.1233521-10.2851562,7.770752h20.7219849Z"/><g id="Symbol_-_On_White"><path class="cls-3" d="m7.3289747,78.8588829c.4076819.7061257,1.1611091,1.1411171,1.9764728,1.1411171s1.568791-.4349914,1.9764728-1.1411171l30.763624-53.2841598c.4076819-.7061257.4076819-1.5761085,0-2.2822343s-1.1611091-1.1411171-1.9764728-1.1411171h-13.3337547c-1.7655931,0-3.3970683.9419327-4.2798648,2.4709811L.6620974,62.3695504c-.8827965,1.5290484-.8827965,3.4129138,0,4.9419622l6.6668773,11.5473703Z"/><path class="cls-1" d="m62.1954341,58.2776685c.4076819-.7061258.4076819-1.5761086,0-2.2822343s-1.1611091-1.1411171-1.9764729-1.1411171l-28.2835456.0000012c-.8153638,0-1.5687909.4349914-1.9764728,1.1411172s-.4076819,1.5761085,0,2.2822342l6.6668774,11.5473704c.8827965,1.5290484,2.5142718,2.4709811,4.2798648,2.4709811h10.3430061c1.7655931,0,3.3970683-.9419327,4.2798648-2.4709811l6.6668781-11.5473716Z"/><path class="cls-4" d="m73.609426,33.5396646c.8827965,1.5290484.8827965,3.4129138,0,4.9419622l-6.6668773,11.5473703c-.4076819.7061257-1.1611091,1.1411171-1.9764728,1.1411171s-1.568791-.4349914-1.9764728-1.1411171L36.0818209,3.4233514c-.4076819-.7061257-.4076819-1.5761085,0-2.2822343S37.24293,0,38.0582938,0h13.3337547c1.7655931,0,3.3970683.9419327,4.2798648,2.4709811l17.9375127,31.0686834Z"/></g></g></g></svg>