<svg width="312" height="46" viewBox="0 0 312 46" fill="none" xmlns="http://www.w3.org/2000/svg">
<path fill-rule="evenodd" clip-rule="evenodd" d="M0 23L15.7503 39.287C24.4059 48.2377 38.5941 48.2377 47.2497 39.287L56.0055 30.2326L54.2571 28.4244L52.5086 26.6164L49.0113 23L43.7945 17.6053L40.2555 13.9459C35.4603 8.98722 27.5397 8.98722 22.7445 13.9459L20.9829 15.7675L24.4801 19.3836L26.2417 17.5622C29.1061 14.6 33.8939 14.6 36.7583 17.5622L37.1018 17.9174L40.2972 21.2217L42.0171 23L45.5141 26.6164L49.0113 30.2326L43.7528 35.6706C37.027 42.6252 25.9727 42.6252 19.2472 35.6706L10.4914 26.6164L6.9942 23L3.49724 19.3836L0 23ZM13.9887 15.7675L17.4859 19.3836L20.9829 23L21.8637 23.9105L25.3607 27.5269L26.2417 28.4377C29.1061 31.4001 33.8939 31.4001 36.7583 28.4377L38.5199 26.6164L42.0171 30.2326L40.2555 32.0542C35.4603 37.0128 27.5397 37.0128 22.7445 32.0542L18.3664 27.5269L13.9887 23L10.4914 19.3836L7.90381 16.7081L6.9942 15.7675L15.7503 6.71296C24.4059 -2.23765 38.5941 -2.23765 47.2497 6.71296L63 23L59.5028 26.6164L56.0055 23L52.7648 19.6489L43.7528 10.3294C37.027 3.37478 25.9727 3.37478 19.2472 10.3294L13.9887 15.7675ZM27.9774 23L29.7387 24.8217C30.6731 25.7876 32.3269 25.7876 33.2613 24.8217L35.0226 23L33.2613 21.1784C32.3269 20.2124 30.6731 20.2124 29.7387 21.1784L27.9774 23Z" fill="#00C292"/>
<path d="M79.9277 33C77.1116 33 74.9346 32.3467 73.3967 31.0401C71.8788 29.7143 71.0799 27.8793 71 25.5351H75.1343C75.1942 26.9762 75.6436 28.0714 76.4824 28.8208C77.3213 29.551 78.4897 29.916 79.9876 29.916C81.3857 29.916 82.4841 29.6086 83.283 28.9937C84.1019 28.3789 84.5114 27.5334 84.5114 26.4574C84.5114 24.632 83.2731 23.7193 80.7965 23.7193H78.1302C75.8932 23.7193 74.1956 23.2197 73.0372 22.2206C71.8788 21.2214 71.2996 19.886 71.2996 18.2143C71.2996 16.9269 71.6291 15.8124 72.2882 14.8709C72.9673 13.9102 73.9459 13.1704 75.2242 12.6516C76.5024 12.1136 78.0303 11.8446 79.8078 11.8446C82.564 11.8446 84.6611 12.4787 86.0992 13.7469C87.5372 14.9958 88.2861 16.7155 88.3461 18.906H84.3016C84.1818 16.2544 82.6739 14.9286 79.7779 14.9286C78.3998 14.9286 77.3213 15.2072 76.5424 15.7644C75.7634 16.3024 75.374 17.0518 75.374 18.0125C75.374 18.7811 75.6436 19.396 76.1828 19.8571C76.7421 20.2991 77.6308 20.5201 78.8492 20.5201H81.5155C83.9921 20.5201 85.7996 21.0581 86.938 22.1341C88.0764 23.1909 88.6456 24.5647 88.6456 26.2556C88.6456 27.6199 88.2961 28.8112 87.5971 29.8296C86.918 30.8287 85.9194 31.6069 84.6012 32.1642C83.283 32.7214 81.7252 33 79.9277 33Z" fill="black"/>
<path d="M97.3397 33C95.6021 33 94.224 32.4524 93.2054 31.3571C92.2068 30.2427 91.7075 28.6575 91.7075 26.6015V16.6579H95.4823V26.1692C95.4823 27.5142 95.7519 28.5038 96.2912 29.1378C96.8504 29.7719 97.6194 30.089 98.598 30.089C99.6565 30.089 100.535 29.7335 101.234 29.0226C101.953 28.3116 102.313 27.2164 102.313 25.7368V16.6579H106.088V32.51H102.373V30.089H102.313C101.834 31.0497 101.164 31.7799 100.306 32.2794C99.4468 32.7598 98.4582 33 97.3397 33Z" fill="black"/>
<path d="M119.349 33C118.111 33 117.002 32.7118 116.024 32.1353C115.065 31.5589 114.336 30.7615 113.837 29.7431H113.777C113.797 30.1466 113.807 30.7134 113.807 31.4436V32.51H110.062V10H113.837V17.8108C113.837 18.5217 113.817 19.0597 113.777 19.4248H113.837C114.336 18.4064 115.065 17.609 116.024 17.0326C117.002 16.4561 118.111 16.1679 119.349 16.1679C120.667 16.1679 121.886 16.4946 123.004 17.1479C124.122 17.8012 125.011 18.7619 125.67 20.0301C126.349 21.2982 126.689 22.8162 126.689 24.584C126.689 26.3517 126.349 27.8697 125.67 29.1378C125.011 30.406 124.122 31.3667 123.004 32.0201C121.886 32.6733 120.667 33 119.349 33ZM113.807 24.584C113.807 26.2749 114.196 27.6199 114.975 28.619C115.774 29.6182 116.852 30.1178 118.211 30.1178C119.589 30.1178 120.667 29.6182 121.446 28.619C122.245 27.6199 122.644 26.2749 122.644 24.584C122.644 22.8931 122.245 21.548 121.446 20.5489C120.667 19.5497 119.589 19.0501 118.211 19.0501C116.852 19.0501 115.774 19.5497 114.975 20.5489C114.196 21.548 113.807 22.8931 113.807 24.584Z" fill="black"/>
<path d="M129.583 10H133.358V32.51H129.583V10Z" fill="black"/>
<path d="M137.343 16.6579H141.118V32.51H137.343V16.6579ZM137.283 10.6341H141.148V14.1504H137.283V10.6341Z" fill="black"/>
<path d="M145.132 16.6579H148.847V18.9925H148.907C149.386 18.147 150.025 17.4649 150.824 16.9461C151.623 16.4273 152.562 16.1679 153.64 16.1679C154.799 16.1679 155.797 16.4465 156.636 17.0038C157.475 17.561 158.094 18.3584 158.494 19.396H158.554C159.033 18.3776 159.702 17.5898 160.561 17.0326C161.44 16.4561 162.478 16.1679 163.677 16.1679C165.314 16.1679 166.623 16.7059 167.601 17.782C168.58 18.858 169.069 20.3471 169.069 22.2494V32.51H165.294V22.6241C165.294 21.4327 165.035 20.5489 164.515 19.9724C164.016 19.3768 163.317 19.0789 162.418 19.0789C161.44 19.0789 160.621 19.4248 159.962 20.1165C159.323 20.8083 159.003 21.817 159.003 23.1429V32.51H155.198V22.6241C155.198 21.4327 154.939 20.5489 154.419 19.9724C153.92 19.3768 153.231 19.0789 152.352 19.0789C151.374 19.0789 150.555 19.4344 149.896 20.1454C149.237 20.8371 148.907 21.8363 148.907 23.1429V32.51H145.132V16.6579Z" fill="black"/>
<path d="M180.121 33C178.503 33 177.075 32.6637 175.837 31.9912C174.598 31.3187 173.64 30.3484 172.961 29.0802C172.282 27.812 171.942 26.3133 171.942 24.584C171.942 22.8546 172.282 21.3559 172.961 20.0877C173.66 18.8195 174.618 17.8492 175.837 17.1767C177.075 16.5042 178.493 16.1679 180.091 16.1679C181.609 16.1679 182.967 16.4754 184.165 17.0902C185.364 17.6859 186.302 18.5698 186.981 19.7419C187.66 20.9139 188 22.3262 188 23.9787V25.6216H175.957C176.017 26.9858 176.426 28.081 177.185 28.9073C177.944 29.7143 178.942 30.1178 180.181 30.1178C181.08 30.1178 181.858 29.8968 182.518 29.4549C183.177 29.0129 183.636 28.4077 183.896 27.6391H187.79C187.431 29.2531 186.562 30.5501 185.184 31.5301C183.806 32.51 182.118 33 180.121 33ZM184.195 22.9987C184.195 21.8266 183.836 20.8755 183.117 20.1454C182.418 19.4152 181.439 19.0501 180.181 19.0501C178.942 19.0501 177.964 19.4152 177.245 20.1454C176.526 20.8755 176.106 21.8266 175.987 22.9987H184.195Z" fill="black"/>
<path d="M203.509 33.0185C200.853 33.0185 198.795 32.3469 197.337 31.0037C195.879 29.6407 195.1 27.7741 195 25.4037H197.816C197.916 27.063 198.456 28.337 199.434 29.2259C200.413 30.1148 201.792 30.5593 203.569 30.5593C205.227 30.5593 206.526 30.184 207.464 29.4333C208.403 28.663 208.873 27.6358 208.873 26.3519C208.873 24.258 207.464 23.2111 204.648 23.2111H201.921C199.764 23.2111 198.116 22.7074 196.978 21.7C195.859 20.6926 195.3 19.3691 195.3 17.7296C195.3 16.4852 195.619 15.3889 196.258 14.4407C196.918 13.4728 197.856 12.7222 199.075 12.1889C200.293 11.6556 201.712 11.3889 203.33 11.3889C205.886 11.3889 207.844 12.0407 209.202 13.3444C210.561 14.6481 211.29 16.3963 211.39 18.5889H208.573C208.393 15.4284 206.626 13.8481 203.27 13.8481C201.672 13.8481 200.413 14.1938 199.494 14.8852C198.576 15.5568 198.116 16.4852 198.116 17.6704C198.116 19.5864 199.424 20.5444 202.041 20.5444H204.768C207.265 20.5444 209.043 21.0877 210.101 22.1741C211.16 23.2605 211.689 24.6333 211.689 26.2926C211.689 27.6556 211.36 28.8506 210.7 29.8778C210.041 30.8852 209.092 31.6654 207.854 32.2185C206.616 32.7519 205.167 33.0185 203.509 33.0185Z" fill="black"/>
<path d="M222.102 33.0185C220.504 33.0185 219.086 32.663 217.848 31.9519C216.629 31.2407 215.68 30.2432 215.001 28.9593C214.342 27.6556 214.012 26.1444 214.012 24.4259C214.012 22.7074 214.352 21.1963 215.031 19.8926C215.71 18.5889 216.649 17.5914 217.848 16.9C219.066 16.1889 220.464 15.8333 222.042 15.8333C223.52 15.8333 224.849 16.1494 226.027 16.7815C227.226 17.3938 228.165 18.2827 228.844 19.4481C229.523 20.6136 229.863 21.9864 229.863 23.5667V25.3148H216.859C216.959 26.8951 217.478 28.1889 218.417 29.1963C219.356 30.2037 220.584 30.7074 222.102 30.7074C223.241 30.7074 224.22 30.4309 225.039 29.8778C225.878 29.3049 226.467 28.5346 226.806 27.5667H229.713C229.493 28.6333 229.024 29.5815 228.305 30.4111C227.605 31.221 226.716 31.863 225.638 32.337C224.559 32.7914 223.381 33.0185 222.102 33.0185ZM227.046 23.0333C227.046 21.5716 226.607 20.3963 225.728 19.5074C224.849 18.5988 223.65 18.1444 222.132 18.1444C220.614 18.1444 219.416 18.5988 218.537 19.5074C217.658 20.3963 217.118 21.5716 216.919 23.0333H227.046Z" fill="black"/>
<path d="M240.275 33.0185C238.657 33.0185 237.229 32.663 235.99 31.9519C234.752 31.2407 233.793 30.2432 233.114 28.9593C232.435 27.6556 232.095 26.1444 232.095 24.4259C232.095 22.6877 232.415 21.1765 233.054 19.8926C233.713 18.5889 234.662 17.5914 235.901 16.9C237.139 16.1889 238.597 15.8333 240.275 15.8333C241.773 15.8333 243.072 16.1296 244.17 16.7222C245.289 17.2951 246.158 18.0852 246.777 19.0926C247.396 20.1 247.766 21.2358 247.886 22.5H245.069C244.969 21.2556 244.49 20.2185 243.631 19.3889C242.792 18.5593 241.673 18.1444 240.275 18.1444C238.637 18.1444 237.329 18.7272 236.35 19.8926C235.391 21.058 234.912 22.5691 234.912 24.4259C234.912 25.6901 235.141 26.7963 235.601 27.7444C236.08 28.6926 236.72 29.4235 237.519 29.937C238.337 30.4506 239.256 30.7074 240.275 30.7074C241.194 30.7074 241.993 30.5099 242.672 30.1148C243.371 29.7 243.921 29.1864 244.32 28.5741C244.72 27.9617 244.969 27.3296 245.069 26.6778H247.886C247.726 27.8235 247.326 28.8802 246.687 29.8481C246.048 30.816 245.179 31.5864 244.08 32.1593C243.002 32.7321 241.733 33.0185 240.275 33.0185Z" fill="black"/>
<path d="M256.221 33.0185C254.423 33.0185 253.025 32.416 252.026 31.2111C251.028 30.0062 250.528 28.2877 250.528 26.0556V16.2778H253.225V25.7889C253.225 27.4877 253.554 28.7222 254.214 29.4926C254.873 30.263 255.782 30.6481 256.94 30.6481C258.259 30.6481 259.357 30.1938 260.236 29.2852C261.115 28.3568 261.554 26.9642 261.554 25.1074V16.2778H264.251V32.5741H261.614V29.5222H261.554C261.075 30.6679 260.376 31.537 259.457 32.1296C258.538 32.7222 257.46 33.0185 256.221 33.0185Z" fill="black"/>
<path d="M268.732 16.2778H271.368V19.1222H271.428C271.868 18.1543 272.387 17.4432 272.986 16.9889C273.606 16.5148 274.525 16.2778 275.743 16.2778H277.331V18.6481H275.383C274.025 18.6481 273.026 19.0432 272.387 19.8333C271.748 20.6235 271.428 21.8086 271.428 23.3889V32.5741H268.732V16.2778Z" fill="black"/>
<path d="M279.529 16.2778H282.225V32.5741H279.529V16.2778ZM279.499 10.5H282.255V13.2259H279.499V10.5Z" fill="black"/>
<path d="M292.076 32.5741C289.16 32.5741 287.702 31.142 287.702 28.2778V18.6481H284.406V16.2778H287.702V11.8333H290.399V16.2778H295.612V18.6481H290.399V28.2778C290.399 28.9494 290.558 29.4432 290.878 29.7593C291.217 30.0556 291.717 30.2037 292.376 30.2037H295.762V32.5741H292.076Z" fill="black"/>
<path d="M296.659 36.1296H301.034L302.951 31.6852L296.659 16.2778H299.595L304.3 28.5741H304.36L309.064 16.2778H312L303.461 37.2556C303.141 38.0852 302.522 38.5 301.603 38.5H296.659V36.1296Z" fill="black"/>
</svg>
