<svg width="474" height="122" viewBox="0 0 474 122" fill="none" xmlns="http://www.w3.org/2000/svg">
<path d="M161.61 96V36.51H172.68V96H161.61ZM152.25 58.83V48.57H183.03V58.83H152.25Z" fill="#0A081D"/>
<path d="M190.56 96V48.57H201.45L201.63 63.69L200.1 60.27C200.76 57.87 201.9 55.71 203.52 53.79C205.14 51.87 207 50.37 209.1 49.29C211.26 48.15 213.51 47.58 215.85 47.58C216.87 47.58 217.83 47.67 218.73 47.85C219.69 48.03 220.47 48.24 221.07 48.48L218.1 60.63C217.44 60.27 216.63 59.97 215.67 59.73C214.71 59.49 213.75 59.37 212.79 59.37C211.29 59.37 209.85 59.67 208.47 60.27C207.15 60.81 205.98 61.59 204.96 62.61C203.94 63.63 203.13 64.83 202.53 66.21C201.99 67.53 201.72 69.03 201.72 70.71V96H190.56Z" fill="#0A081D"/>
<path d="M241.63 96.9C237.73 96.9 234.19 95.82 231.01 93.66C227.83 91.5 225.28 88.56 223.36 84.84C221.44 81.12 220.48 76.89 220.48 72.15C220.48 67.41 221.44 63.18 223.36 59.46C225.28 55.74 227.89 52.83 231.19 50.73C234.49 48.63 238.21 47.58 242.35 47.58C244.75 47.58 246.94 47.94 248.92 48.66C250.9 49.32 252.64 50.28 254.14 51.54C255.64 52.8 256.87 54.24 257.83 55.86C258.85 57.48 259.54 59.22 259.9 61.08L257.47 60.45V48.57H268.63V96H257.38V84.66L259.99 84.21C259.57 85.83 258.79 87.42 257.65 88.98C256.57 90.48 255.19 91.83 253.51 93.03C251.89 94.17 250.06 95.1 248.02 95.82C246.04 96.54 243.91 96.9 241.63 96.9ZM244.69 87.09C247.27 87.09 249.55 86.46 251.53 85.2C253.51 83.94 255.04 82.2 256.12 79.98C257.26 77.7 257.83 75.09 257.83 72.15C257.83 69.27 257.26 66.72 256.12 64.5C255.04 62.28 253.51 60.54 251.53 59.28C249.55 58.02 247.27 57.39 244.69 57.39C242.11 57.39 239.83 58.02 237.85 59.28C235.93 60.54 234.43 62.28 233.35 64.5C232.27 66.72 231.73 69.27 231.73 72.15C231.73 75.09 232.27 77.7 233.35 79.98C234.43 82.2 235.93 83.94 237.85 85.2C239.83 86.46 242.11 87.09 244.69 87.09Z" fill="#0A081D"/>
<path d="M297.304 96.9C292.864 96.9 288.874 95.82 285.334 93.66C281.794 91.5 279.004 88.56 276.964 84.84C274.924 81.12 273.904 76.92 273.904 72.24C273.904 67.56 274.924 63.36 276.964 59.64C279.004 55.92 281.794 52.98 285.334 50.82C288.874 48.66 292.864 47.58 297.304 47.58C301.564 47.58 305.434 48.39 308.914 50.01C312.394 51.63 315.094 53.88 317.014 56.76L310.894 64.14C309.994 62.88 308.854 61.74 307.474 60.72C306.094 59.7 304.624 58.89 303.064 58.29C301.504 57.69 299.944 57.39 298.384 57.39C295.744 57.39 293.374 58.05 291.274 59.37C289.234 60.63 287.614 62.4 286.414 64.68C285.214 66.9 284.614 69.42 284.614 72.24C284.614 75.06 285.214 77.58 286.414 79.8C287.674 82.02 289.354 83.79 291.454 85.11C293.554 86.43 295.894 87.09 298.474 87.09C300.034 87.09 301.534 86.85 302.974 86.37C304.474 85.83 305.884 85.08 307.204 84.12C308.524 83.16 309.754 81.96 310.894 80.52L317.014 87.99C314.974 90.63 312.154 92.79 308.554 94.47C305.014 96.09 301.264 96.9 297.304 96.9Z" fill="#0A081D"/>
<path d="M344.11 96.9C339.13 96.9 334.72 95.85 330.88 93.75C327.1 91.65 324.13 88.8 321.97 85.2C319.87 81.54 318.82 77.37 318.82 72.69C318.82 68.97 319.42 65.58 320.62 62.52C321.82 59.46 323.47 56.82 325.57 54.6C327.73 52.32 330.28 50.58 333.22 49.38C336.22 48.12 339.49 47.49 343.03 47.49C346.15 47.49 349.06 48.09 351.76 49.29C354.46 50.49 356.8 52.14 358.78 54.24C360.76 56.28 362.26 58.74 363.28 61.62C364.36 64.44 364.87 67.53 364.81 70.89L364.72 74.76H326.29L324.22 67.2H355.45L354.01 68.73V66.75C353.83 64.89 353.23 63.27 352.21 61.89C351.19 60.45 349.87 59.34 348.25 58.56C346.69 57.72 344.95 57.3 343.03 57.3C340.09 57.3 337.6 57.87 335.56 59.01C333.58 60.15 332.08 61.8 331.06 63.96C330.04 66.06 329.53 68.7 329.53 71.88C329.53 74.94 330.16 77.61 331.42 79.89C332.74 82.17 334.57 83.94 336.91 85.2C339.31 86.4 342.1 87 345.28 87C347.5 87 349.54 86.64 351.4 85.92C353.26 85.2 355.27 83.91 357.43 82.05L362.92 89.7C361.3 91.2 359.44 92.49 357.34 93.57C355.3 94.59 353.14 95.4 350.86 96C348.58 96.6 346.33 96.9 344.11 96.9Z" fill="#0A081D"/>
<path d="M397.204 96.9C395.104 96.9 393.034 96.6 390.994 96C389.014 95.34 387.214 94.47 385.594 93.39C383.974 92.31 382.624 91.11 381.544 89.79C380.464 88.41 379.744 87.03 379.384 85.65L381.994 84.48L381.724 95.82H371.014V29.4H382.084V59.55L380.104 58.65C380.404 57.21 381.064 55.86 382.084 54.6C383.164 53.28 384.484 52.11 386.044 51.09C387.604 50.01 389.314 49.17 391.174 48.57C393.034 47.91 394.924 47.58 396.844 47.58C401.104 47.58 404.854 48.63 408.094 50.73C411.394 52.83 413.974 55.74 415.834 59.46C417.754 63.18 418.714 67.41 418.714 72.15C418.714 76.95 417.784 81.21 415.924 84.93C414.064 88.65 411.484 91.59 408.184 93.75C404.944 95.85 401.284 96.9 397.204 96.9ZM394.864 87.18C397.384 87.18 399.634 86.55 401.614 85.29C403.594 83.97 405.154 82.2 406.294 79.98C407.434 77.7 408.004 75.09 408.004 72.15C408.004 69.27 407.434 66.72 406.294 64.5C405.214 62.28 403.684 60.54 401.704 59.28C399.724 58.02 397.444 57.39 394.864 57.39C392.284 57.39 390.004 58.02 388.024 59.28C386.044 60.54 384.484 62.28 383.344 64.5C382.204 66.72 381.634 69.27 381.634 72.15C381.634 75.09 382.204 77.7 383.344 79.98C384.484 82.2 386.044 83.97 388.024 85.29C390.004 86.55 392.284 87.18 394.864 87.18Z" fill="#0A081D"/>
<path d="M425.342 96V48.57H436.412V96H425.342ZM430.742 38.49C428.522 38.49 426.782 37.95 425.522 36.87C424.322 35.73 423.722 34.14 423.722 32.1C423.722 30.18 424.352 28.62 425.612 27.42C426.872 26.22 428.582 25.62 430.742 25.62C433.022 25.62 434.762 26.19 435.962 27.33C437.222 28.41 437.852 30 437.852 32.1C437.852 33.96 437.222 35.49 435.962 36.69C434.702 37.89 432.962 38.49 430.742 38.49Z" fill="#0A081D"/>
<path d="M451.98 96V36.51H463.05V96H451.98ZM442.62 58.83V48.57H473.4V58.83H442.62Z" fill="#0A081D"/>
<path d="M3 60C1.34315 60 -0.00782013 58.6558 0.0749664 57.001C0.655907 45.3898 4.60025 34.1731 11.459 24.7329C18.9067 14.482 29.4084 6.85209 41.459 2.93661C53.5096 -0.978867 66.4904 -0.978867 78.541 2.93661C90.5916 6.85209 101.093 14.482 108.541 24.7329C115.989 34.9837 120 47.3292 120 60C120 72.6708 115.989 85.0163 108.541 95.2671C101.093 105.518 90.5916 113.148 78.541 117.063C67.4434 120.669 55.5568 120.954 44.3344 117.919C42.735 117.486 41.874 115.786 42.386 114.21C42.898 112.634 44.5889 111.781 46.1907 112.204C56.2055 114.854 66.7945 114.571 76.6869 111.357C87.5325 107.833 96.984 100.966 103.687 91.7404C110.39 82.5146 114 71.4037 114 60C114 48.5963 110.39 37.4854 103.687 28.2596C96.984 19.0338 87.5325 12.1669 76.6869 8.64295C65.8414 5.11902 54.1586 5.11902 43.3131 8.64294C32.4675 12.1669 23.016 19.0338 16.3131 28.2596C10.1992 36.6746 6.65841 46.658 6.08329 57.0014C5.99131 58.6557 4.65685 60 3 60Z" fill="#5F65CC"/>
<path d="M34.1225 110.787C33.3703 112.264 31.5594 112.857 30.1226 112.032C22.2495 107.511 15.4928 101.255 10.3752 93.725C5.25748 86.1946 1.92818 77.6095 0.623146 68.625C0.384979 66.9853 1.60347 65.5201 3.25297 65.3642C4.90247 65.2082 6.35751 66.421 6.60478 68.0593C7.80896 76.0375 10.7881 83.6581 15.3376 90.3525C19.8872 97.0469 25.8759 102.622 32.8506 106.679C34.2828 107.512 34.8747 109.311 34.1225 110.787Z" fill="#5F65CC"/>
<path d="M105 60C106.657 60 108.01 61.3446 107.906 62.9982C107.338 72.0735 104.202 80.824 98.8328 88.2137C92.8747 96.4144 84.4733 102.518 74.8328 105.651C65.1923 108.783 54.8077 108.783 45.1672 105.651C35.5267 102.518 27.1253 96.4144 21.1672 88.2137C15.209 80.013 12 70.1366 12 60C12 49.8634 15.209 39.987 21.1672 31.7863C27.1253 23.5856 35.5267 17.4817 45.1672 14.3493C53.8543 11.5267 63.1458 11.2475 71.9524 13.5119C73.5571 13.9245 74.4178 15.6267 73.9058 17.2025C73.3938 18.7782 71.703 19.6294 70.0947 19.2312C62.4971 17.3498 54.5031 17.6246 47.0213 20.0556C38.5859 22.7965 31.2347 28.1374 26.0213 35.313C20.8079 42.4886 18 51.1305 18 60C18 68.8695 20.8079 77.5114 26.0213 84.687C31.2347 91.8626 38.5859 97.2035 47.0213 99.9444C55.4567 102.685 64.5433 102.685 72.9787 99.9444C81.4141 97.2035 88.7653 91.8626 93.9787 84.687C98.6027 78.3226 101.334 70.8047 101.893 62.9976C102.011 61.345 103.343 60 105 60Z" fill="#5F65CC"/>
<path d="M80.4296 19.9047C81.1818 18.4284 82.9939 17.8334 84.4203 18.6763C90.3881 22.2029 95.532 26.9871 99.4867 32.709C103.441 38.431 106.098 44.934 107.288 51.7631C107.572 53.3953 106.375 54.8801 104.728 55.062C103.081 55.2438 101.61 54.0532 101.311 52.4235C100.24 46.5829 97.9399 41.0239 94.5509 36.1204C91.1619 31.2169 86.7747 27.1005 81.6898 24.034C80.271 23.1784 79.6774 21.381 80.4296 19.9047Z" fill="#5F65CC"/>
<path d="M60 27.06C60 25.37 61.3726 23.9865 63.0564 24.13C69.5736 24.6852 75.8376 27.0082 81.1603 30.8754C87.3108 35.344 91.8887 41.645 94.238 48.8754C96.5873 56.1058 96.5873 63.8943 94.238 71.1246C91.8887 78.355 87.3108 84.656 81.1603 89.1246C75.0098 93.5932 67.6025 96 60 96C52.3975 96 44.9902 93.5932 38.8397 89.1246C32.6892 84.656 28.1113 78.355 25.762 71.1246C23.7289 64.8674 23.4552 58.1921 24.9411 51.8224C25.325 50.1766 27.0649 49.2987 28.6722 49.821C30.2795 50.3432 31.1425 52.0679 30.7873 53.7202C29.6839 58.8532 29.9489 64.2059 31.5824 69.2334C33.5323 75.2346 37.332 80.4645 42.437 84.1734C47.5419 87.8824 53.69 89.88 60 89.88C66.31 89.88 72.4581 87.8824 77.563 84.1734C82.6679 80.4645 86.4677 75.2346 88.4176 69.2334C90.3675 63.2322 90.3675 56.7678 88.4176 50.7666C86.4677 44.7654 82.6679 39.5355 77.563 35.8266C73.2863 32.7194 68.2776 30.8133 63.0547 30.2765C61.3736 30.1038 60 28.75 60 27.06Z" fill="#5F65CC"/>
<path d="M30.6502 45.0455C29.1445 44.2783 28.5348 42.4273 29.4271 40.9921C31.9769 36.8909 35.3318 33.3354 39.2998 30.5466C43.2679 27.7578 47.7496 25.8057 52.472 24.7959C54.1246 24.4425 55.6597 25.6431 55.8715 27.3197C56.0833 28.9964 54.8903 30.5117 53.244 30.8938C49.511 31.7603 45.9698 33.3392 42.8188 35.5537C39.6679 37.7682 36.9828 40.5652 34.903 43.7841C33.9859 45.2035 32.156 45.8128 30.6502 45.0455Z" fill="#5F65CC"/>
<path d="M60 81C60 82.6569 58.6516 84.0193 57.0077 83.8128C53.0074 83.3101 49.1809 81.8051 45.8932 79.4164C41.7928 76.4373 38.7408 72.2366 37.1746 67.4164C35.6085 62.5962 35.6085 57.4038 37.1746 52.5836C38.7408 47.7633 41.7928 43.5627 45.8932 40.5836C49.9935 37.6045 54.9317 36 60 36C65.0683 36 70.0065 37.6045 74.1068 40.5836C78.2072 43.5627 81.2592 47.7634 82.8254 52.5836C84.0812 56.4486 84.33 60.5529 83.5719 64.5127C83.2604 66.14 81.5479 67.0014 79.9722 66.4894C78.3964 65.9774 77.5611 64.284 77.8046 62.6452C78.2115 59.9064 77.9829 57.0966 77.119 54.4377C75.9444 50.8225 73.6554 47.672 70.5801 45.4377C67.5049 43.2034 63.8012 42 60 42C56.1988 42 52.4951 43.2034 49.4199 45.4377C46.3446 47.672 44.0556 50.8225 42.881 54.4377C41.7063 58.0529 41.7063 61.9471 42.881 65.5623C44.0556 69.1775 46.3446 72.328 49.4199 74.5623C51.6817 76.2056 54.2834 77.2912 57.0138 77.7506C58.6477 78.0255 60 79.3431 60 81Z" fill="#5F65CC"/>
<path d="M78.7111 69.5338C80.1874 70.286 80.7892 72.1059 79.8589 73.4769C78.3038 75.7683 76.3594 77.7798 74.1068 79.4164C71.8542 81.053 69.3404 82.2806 66.6805 83.0515C65.0892 83.5127 63.5443 82.3779 63.2851 80.7415C63.0259 79.105 64.1554 77.592 65.7262 77.0649C67.4566 76.4843 69.0941 75.6419 70.5801 74.5623C72.0661 73.4827 73.3733 72.1855 74.4602 70.7193C75.4469 69.3883 77.2349 68.7816 78.7111 69.5338Z" fill="#5F65CC"/>
</svg>
