<svg width="178" height="33" viewBox="0 0 178 33" fill="none" xmlns="http://www.w3.org/2000/svg">
<path d="M1 2.32955H6.51136L11.8182 12.3523H12.0455L17.3523 2.32955H22.8636L14.375 17.375V25.6023H9.48864V17.375L1 2.32955Z" fill="black"/>
<path d="M36.8961 9.02273C36.8052 8.10606 36.4151 7.39394 35.7257 6.88636C35.0363 6.37879 34.1007 6.125 32.9189 6.125C32.1158 6.125 31.4378 6.23864 30.8848 6.46591C30.3317 6.68561 29.9075 6.99243 29.612 7.38636C29.3242 7.7803 29.1802 8.22727 29.1802 8.72727C29.1651 9.14394 29.2522 9.50758 29.4416 9.81818C29.6386 10.1288 29.9075 10.3977 30.2484 10.625C30.5893 10.8447 30.9833 11.0379 31.4302 11.2045C31.8772 11.3636 32.3545 11.5 32.862 11.6136L34.953 12.1136C35.9681 12.3409 36.8999 12.6439 37.7484 13.0227C38.5969 13.4015 39.3317 13.8674 39.953 14.4205C40.5742 14.9735 41.0552 15.625 41.3961 16.375C41.7446 17.125 41.9227 17.9848 41.9302 18.9545C41.9227 20.3788 41.559 21.6136 40.8393 22.6591C40.1272 23.697 39.0969 24.5038 37.7484 25.0795C36.4075 25.6477 34.7901 25.9318 32.8961 25.9318C31.0173 25.9318 29.381 25.6439 27.987 25.0682C26.6007 24.4924 25.5173 23.6402 24.737 22.5114C23.9643 21.375 23.559 19.9697 23.5211 18.2955H28.2825C28.3355 19.0758 28.559 19.7273 28.953 20.25C29.3545 20.7652 29.8886 21.1553 30.5552 21.4205C31.2295 21.678 31.9908 21.8068 32.8393 21.8068C33.6727 21.8068 34.3961 21.6856 35.0098 21.4432C35.631 21.2008 36.112 20.8636 36.453 20.4318C36.7939 20 36.9643 19.5038 36.9643 18.9432C36.9643 18.4205 36.809 17.9811 36.4984 17.625C36.1954 17.2689 35.7484 16.9659 35.1575 16.7159C34.5742 16.4659 33.8583 16.2386 33.0098 16.0341L30.4757 15.3977C28.5136 14.9205 26.9643 14.1742 25.828 13.1591C24.6916 12.1439 24.1272 10.7765 24.1348 9.05682C24.1272 7.64773 24.5022 6.41667 25.2598 5.36364C26.0249 4.31061 27.0742 3.48864 28.4075 2.89773C29.7408 2.30682 31.256 2.01136 32.953 2.01136C34.6802 2.01136 36.1878 2.30682 37.4757 2.89773C38.7711 3.48864 39.7787 4.31061 40.4984 5.36364C41.2181 6.41667 41.5893 7.63636 41.612 9.02273H36.8961Z" fill="black"/>
<path d="M51.8235 25.9432C50.0281 25.9432 48.4826 25.5795 47.1872 24.8523C45.8993 24.1174 44.9069 23.0795 44.2099 21.7386C43.5129 20.3902 43.1644 18.7955 43.1644 16.9545C43.1644 15.1591 43.5129 13.5833 44.2099 12.2273C44.9069 10.8712 45.8879 9.81439 47.1531 9.05682C48.4258 8.29924 49.9182 7.92046 51.6303 7.92046C52.7819 7.92046 53.8538 8.10606 54.8462 8.47727C55.8462 8.84091 56.7175 9.39015 57.4599 10.125C58.2099 10.8598 58.7932 11.7841 59.2099 12.8977C59.6266 14.0038 59.8349 15.2992 59.8349 16.7841V18.1136H45.0962V15.1136H55.2781C55.2781 14.4167 55.1266 13.7992 54.8235 13.2614C54.5205 12.7235 54.1 12.303 53.5622 12C53.0319 11.6894 52.4144 11.5341 51.7099 11.5341C50.975 11.5341 50.3235 11.7045 49.7553 12.0455C49.1947 12.3788 48.7553 12.8295 48.4372 13.3977C48.119 13.9583 47.9561 14.5833 47.9485 15.2727V18.125C47.9485 18.9886 48.1076 19.7348 48.4258 20.3636C48.7516 20.9924 49.2099 21.4773 49.8008 21.8182C50.3917 22.1591 51.0925 22.3295 51.9031 22.3295C52.4409 22.3295 52.9334 22.2538 53.3803 22.1023C53.8273 21.9508 54.2099 21.7235 54.5281 21.4205C54.8463 21.1174 55.0887 20.7462 55.2553 20.3068L59.7326 20.6023C59.5053 21.678 59.0394 22.6174 58.3349 23.4205C57.6379 24.2159 56.7364 24.8371 55.6303 25.2841C54.5319 25.7235 53.2629 25.9432 51.8235 25.9432Z" fill="black"/>
<path d="M69.6003 25.9432C67.8125 25.9432 66.2746 25.5644 64.9867 24.8068C63.7064 24.0417 62.7216 22.9811 62.0322 21.625C61.3503 20.2689 61.0094 18.7083 61.0094 16.9432C61.0094 15.1553 61.3541 13.5871 62.0435 12.2386C62.7405 10.8826 63.7291 9.82576 65.0094 9.06818C66.2897 8.30303 67.8125 7.92046 69.5776 7.92046C71.1003 7.92046 72.4337 8.19697 73.5776 8.75C74.7216 9.30303 75.6269 10.0795 76.2935 11.0795C76.9602 12.0795 77.3276 13.2538 77.3958 14.6023H72.8276C72.6988 13.7311 72.3579 13.0303 71.8049 12.5C71.2594 11.9621 70.5435 11.6932 69.6572 11.6932C68.9072 11.6932 68.2519 11.8977 67.6913 12.3068C67.1382 12.7083 66.7064 13.2955 66.3958 14.0682C66.0852 14.8409 65.9299 15.7765 65.9299 16.875C65.9299 17.9886 66.0814 18.9356 66.3844 19.7159C66.695 20.4962 67.1306 21.0909 67.6913 21.5C68.2519 21.9091 68.9072 22.1136 69.6572 22.1136C70.2102 22.1136 70.7064 22 71.1458 21.7727C71.5928 21.5455 71.9602 21.2159 72.2481 20.7841C72.5435 20.3447 72.7367 19.8182 72.8276 19.2045H77.3958C77.32 20.5379 76.9564 21.7121 76.3049 22.7273C75.6609 23.7348 74.7708 24.5227 73.6344 25.0909C72.4981 25.6591 71.1534 25.9432 69.6003 25.9432Z" fill="black"/>
<path d="M90.4084 18.1705V8.14773H95.2493V25.6023H90.6016V22.4318H90.4198C90.0258 23.4545 89.3705 24.2765 88.4539 24.8977C87.5448 25.5189 86.4349 25.8295 85.1243 25.8295C83.9576 25.8295 82.9311 25.5644 82.0448 25.0341C81.1584 24.5038 80.4652 23.75 79.9652 22.7727C79.4728 21.7955 79.2228 20.625 79.2152 19.2614V8.14773H84.0561V18.3977C84.0637 19.428 84.3402 20.2424 84.8857 20.8409C85.4311 21.4394 86.1622 21.7386 87.0789 21.7386C87.6622 21.7386 88.2076 21.6061 88.7152 21.3409C89.2228 21.0682 89.6319 20.6667 89.9425 20.1364C90.2607 19.6061 90.416 18.9508 90.4084 18.1705Z" fill="black"/>
<path d="M97.8415 25.6023V8.14773H102.535V11.1932H102.716C103.035 10.1098 103.569 9.29167 104.319 8.73864C105.069 8.17803 105.932 7.89773 106.91 7.89773C107.152 7.89773 107.413 7.91288 107.694 7.94318C107.974 7.97349 108.22 8.01515 108.432 8.06818V12.3636C108.205 12.2955 107.891 12.2348 107.489 12.1818C107.088 12.1288 106.72 12.1023 106.387 12.1023C105.675 12.1023 105.038 12.2576 104.478 12.5682C103.925 12.8712 103.485 13.2955 103.16 13.8409C102.841 14.3864 102.682 15.0152 102.682 15.7273V25.6023H97.8415Z" fill="black"/>
<path d="M109.655 25.6023V8.14773H114.496V25.6023H109.655ZM112.087 5.89773C111.367 5.89773 110.75 5.65909 110.235 5.18182C109.727 4.69697 109.473 4.11742 109.473 3.44318C109.473 2.77652 109.727 2.20455 110.235 1.72727C110.75 1.24242 111.367 1 112.087 1C112.807 1 113.42 1.24242 113.928 1.72727C114.443 2.20455 114.701 2.77652 114.701 3.44318C114.701 4.11742 114.443 4.69697 113.928 5.18182C113.42 5.65909 112.807 5.89773 112.087 5.89773Z" fill="black"/>
<path d="M126.378 8.14773V11.7841H115.867V8.14773H126.378ZM118.253 3.96591H123.094V20.2386C123.094 20.6856 123.162 21.0341 123.299 21.2841C123.435 21.5265 123.624 21.697 123.867 21.7955C124.117 21.8939 124.405 21.9432 124.73 21.9432C124.958 21.9432 125.185 21.9242 125.412 21.8864C125.639 21.8409 125.814 21.8068 125.935 21.7841L126.696 25.3864C126.454 25.4621 126.113 25.5492 125.674 25.6477C125.234 25.7538 124.7 25.8182 124.071 25.8409C122.905 25.8864 121.882 25.7311 121.003 25.375C120.132 25.0189 119.454 24.4659 118.969 23.7159C118.484 22.9659 118.245 22.0189 118.253 20.875V3.96591Z" fill="black"/>
<path d="M131.24 32.1477C130.626 32.1477 130.051 32.0985 129.513 32C128.983 31.9091 128.543 31.7917 128.195 31.6477L129.286 28.0341C129.854 28.2083 130.365 28.303 130.82 28.3182C131.282 28.3333 131.68 28.2273 132.013 28C132.354 27.7727 132.63 27.3864 132.842 26.8409L133.126 26.1023L126.865 8.14773H131.956L135.57 20.9659H135.751L139.399 8.14773H144.524L137.74 27.4886C137.414 28.428 136.971 29.2462 136.411 29.9432C135.858 30.6477 135.157 31.1894 134.308 31.5682C133.46 31.9545 132.437 32.1477 131.24 32.1477Z" fill="black"/>
<path d="M147.457 25.8977C146.707 25.8977 146.063 25.6326 145.525 25.1023C144.995 24.5644 144.73 23.9205 144.73 23.1705C144.73 22.428 144.995 21.7917 145.525 21.2614C146.063 20.7311 146.707 20.4659 147.457 20.4659C148.185 20.4659 148.821 20.7311 149.366 21.2614C149.912 21.7917 150.185 22.428 150.185 23.1705C150.185 23.6705 150.056 24.1288 149.798 24.5455C149.548 24.9545 149.219 25.2841 148.81 25.5341C148.4 25.7765 147.95 25.8977 147.457 25.8977Z" fill="black"/>
<path d="M152.879 25.6023V8.14773H157.72V25.6023H152.879ZM155.311 5.89773C154.591 5.89773 153.974 5.65909 153.459 5.18182C152.951 4.69697 152.697 4.11742 152.697 3.44318C152.697 2.77652 152.951 2.20455 153.459 1.72727C153.974 1.24242 154.591 1 155.311 1C156.03 1 156.644 1.24242 157.152 1.72727C157.667 2.20455 157.924 2.77652 157.924 3.44318C157.924 4.11742 157.667 4.69697 157.152 5.18182C156.644 5.65909 156.03 5.89773 155.311 5.89773Z" fill="black"/>
<path d="M168.204 25.9432C166.439 25.9432 164.912 25.5682 163.625 24.8182C162.344 24.0606 161.356 23.0076 160.659 21.6591C159.962 20.303 159.613 18.7311 159.613 16.9432C159.613 15.1402 159.962 13.5644 160.659 12.2159C161.356 10.8598 162.344 9.80682 163.625 9.05682C164.912 8.29924 166.439 7.92046 168.204 7.92046C169.969 7.92046 171.492 8.29924 172.772 9.05682C174.06 9.80682 175.053 10.8598 175.75 12.2159C176.447 13.5644 176.795 15.1402 176.795 16.9432C176.795 18.7311 176.447 20.303 175.75 21.6591C175.053 23.0076 174.06 24.0606 172.772 24.8182C171.492 25.5682 169.969 25.9432 168.204 25.9432ZM168.227 22.1932C169.03 22.1932 169.7 21.9659 170.238 21.5114C170.776 21.0492 171.181 20.4205 171.454 19.625C171.734 18.8295 171.875 17.9242 171.875 16.9091C171.875 15.8939 171.734 14.9886 171.454 14.1932C171.181 13.3977 170.776 12.7689 170.238 12.3068C169.7 11.8447 169.03 11.6136 168.227 11.6136C167.416 11.6136 166.734 11.8447 166.181 12.3068C165.636 12.7689 165.223 13.3977 164.943 14.1932C164.67 14.9886 164.534 15.8939 164.534 16.9091C164.534 17.9242 164.67 18.8295 164.943 19.625C165.223 20.4205 165.636 21.0492 166.181 21.5114C166.734 21.9659 167.416 22.1932 168.227 22.1932Z" fill="black"/>
</svg>
