<?xml version="1.0" encoding="utf-8"?>
<svg xmlns="http://www.w3.org/2000/svg" xmlns:xlink="http://www.w3.org/1999/xlink" version="1.2" viewBox="0 0 165 129" baseProfile="tiny-ps">
  <title>Security B-Sides</title>
  <desc>BSides Logo</desc>
  <g>
    <path d="M114.9 52.9c-.4 2.1-1.6 4-3.5 5.1-3.7 2.2-8.4 1.1-10.7-2.5-1-1.6-1.3-3.5-1.1-5.3.3-2.2 1.6-4.2 3.6-5.4 3.7-2.2 8.4-1.1 10.7 2.5 1.1 1.8 1.4 3.8 1 5.6zM65.4 77.2c-1.1-1.7-2.7-2.9-4.5-3.4-2-.6-4.3-.3-6.2.8-2.1 1.3-3.4 3.5-3.6 5.7-.2 1.7.2 3.4 1.1 4.9 1 1.6 2.5 2.8 4.2 3.3 2.1.7 4.4.5 6.4-.8 1.8-1.1 3-2.9 3.5-4.8.5-1.8.3-3.9-.9-5.7zm43.4-65.3c.8.2 1.5.5 2.1.5.1 0 .2 0 .3-.1s.2-.1.4-.1c1-.1 3 .4 4.6.9.7.2 1.2.4 1.7.4.6.1 1.3.3 1.9.5 1 .3 2 .7 2.9.6h.1v.1c.1.1.5.3.8.3.2 0 .3 0 .4-.1h0c-5.1-2.3-10.8-3.5-16.4-3.4l.2.1a12.59 12.59 0 0 1 1 .3zm-7.7 1.2c1.2 0 2.8.7 3.9 1.2.2.1.5.2.7.3 0-.1 0-.1.1-.2s.2-.1.3-.1c5.6 1.8 11.8 3.1 17.8 4.3l6.5 1.4c.9.2 1.8.4 2.7.7-1.3-1.1-2.6-2.1-4-3-.3-.1-.6-.2-.9-.4-2-.3-3.5-.8-4.9-1.2-1.3-.4-2.5-.8-4-1h0c-1.3-.6-2.7-.9-4.1-1.2-1-.2-2.1-.4-3-.8v.1c0 .1 0 .2-.1.3l-.1.1h-.1l-1.4-.3c-1.8-.4-3.2-.7-5.3-1.5h-.3v.2.1h-.1c-.4 0-.7-.1-1.1-.2-1.8.2-3.6.6-5.3 1.1.6.1 1.1.3 1.7.6l.3-.2c-.1-.2.3-.3.7-.3z" />
    <path d="M115.8 14.8h0l.1-.1c.4 0 .5.2.6.3l.1.1.1.1-.1.1c-.1.1-.2.1-.3.1-.2 0-.5-.1-.6-.3 0 0 0-.2.1-.3zm-2.1-.7c.2-.1.3 0 .5 0 .1 0 .3.1.5.1h.2v.2c0 .2-.2.3-.4.3-.3 0-.7-.2-.8-.3l-.1-.2.1-.1zm11.4 1.4c-.1-.1-.2-.1-.3-.2.1.1.2.1.3.2h0zM73.7 65.4c.5 0 1 .1 1.6.3l1.4.5-1.5-.2h0-.3c-.2 0-.5.1-.8.1H74h0 0c.3.4.7.8 1 1.2.1-.1.3-.1.4-.1h.2.2.2V67l.1.2c.1.1.1.3.1.3-.1.1-.2.2-.5.2-.2 0-.3 0-.5-.1.4.5.8 1 1.1 1.6h0l4.8 1h0 0c.4.4 1 .4 1.6.5.7.1 1.3.1 1.8.6.8-.3 1.5-.2 2.1.2l.2.1h0 .4.1v.1c.1.1.1.2.1.3s-.1.1-.2.2c2.1.3 4.2.6 6.1 1.3v-.1h.1c1.2.5 2.6.9 4 1.2 0-.4-.1-.7-.1-1.1l-.8-.3c-.6-.3-1.2-.5-1.8-.6l-.4-.1.3-.2c.2-.1.4-.2.7-.2.4 0 .8.1 1.2.2.2.1.4.1.6.1l-.6-2.8h-.1c-.6 0-1.3-.4-1.8-.7-.1-.1-.3-.1-.4-.2h0c-.1-.1-.1-.2 0-.2.1-.1.2-.1.2-.1h.1.1c.2 0 .2 0 .3-.1v-.1l-.1-.7c-.2.2-.5.3-.9.2v.1a.66.66 0 0 1 .2.7v.1H94c-.2 0-.3-.2-.4-.3l-.1-.1v.1h-.1 0c-.5 0-1.4-.5-1.4-.7v-.1h.2 0c-.2 0-.3-.1-.4-.3V67c-.1 0-.1 0-.1.1a.76.76 0 0 0-.4.2l-.1.1-1.4-.3c-.3 0-.5-.1-.5-.3 0-.1 0-.2.3-.2.1 0 .3 0 .4.1.3 0 .7 0 1 .1.2-.2.5-.2.9 0h0 0c.9 0 2.2.3 2.8.5V67l.1.3.2.1-.1.1.3.7c.1.2.2.2.4.2s.4-.1.6-.2h0c0-.1-.1-.2-.1-.4-1.3-.9-2.6-1.9-3.7-3-.9-1-1.7-2-2.4-3.1-.4-.6-.7-1.3-1-1.9h-.2c-.2 0-.5-.1-.8-.2-.2-.1-.5-.2-.7-.2h-.2v-.2c0-.2.1-.3.2-.3.1-.1.1-.1.1-.2v-.3l.3.2c.2.2.3.2.4.2h.1.3c0-.1-.1-.1-.1-.2h-.2c-1-.2-2-.5-2.7-.8l-.2-.1.2-.2c.2-.1.4-.2.6-.2.3 0 .6.1 1 .3.1 0 .1.1.2.1l.1-.1c.1-.2.5-.2.7-.2l-.6-2.2-3.3-.8-.3-.1.2-.2c.2-.2.5-.2.8-.2.4 0 .9.1 1.4.2h.1c0-.1.1-.2.1-.3l.1-.1h.1c.2.1.4.1.6.2-.2-1.9-.2-3.7.1-5.6.5-3.1 1.8-6 3.7-8.5-.5-.1-1.1-.2-1.6-.4l-.3-.1.3-.2c.2-.2.5-.2.8-.2.4 0 .8.1 1.2.3h.1l1.4-1.6.2-.2c-.4-.2-.9-.3-1.4-.5-1-.3-2-.7-2.8-1l-1-.4.9.1a23.76 23.76 0 0 1 3.7.6L92 36l.1-.2c.1-.2.4-.2.6-.2s.3.1.4.2c0 .1.1.2 0 .4v.1c.3.1.7.1 1 .2.6-.7 1.3-1.4 2.1-2-.2-.1-.4-.1-.6-.2-.2.1-.4.1-.7.1-.4 0-.7-.1-1-.4h-.2v-.1c0-.1.1-.2.2-.3l-3-.6-4.2-.9c0 .1 0 .1-.1.2v.1h-.1-.2c-.6 0-1.1-.3-1.3-.7l-3.5-1c-1.6-.4-2.9-.7-4.1-1.3l-.6-.3h-.3c-.1 0-.2 0-.3-.1-1 1.6-1.9 3.3-2.6 5 .1 0 .2.1.3.1.3.2.6.4 1 .4.3 0 .5-.1.6-.4l.1-.1h.1c.2.1.4.1.7.1.7 0 1.5.1 1.5.8v.2h-.2c-.5 0-1 0-1.5-.1-.9 0-1.9-.1-2.8-.1l-.4 1.2c.4.1.7.3.8.4l.3.2h-.2l.4.1v.1c0 .1 0 .2-.1.3s-.2.1-.3.1c-.2 0-.3-.1-.4-.2 0-.1-.1-.2 0-.4h-.1c-.2 0-.4 0-.6-.1l-.5 1.6c.3 0 .7 0 1.1.1s.8.1 1.1 0h.1l.1.1c.1.1.1.2 0 .3-.2.3-1 .3-1.1.3-.2 0-.9 0-1.3-.4l-1.2 4 3.9 1.1 2.8.8c1 .3 2 .5 2.9.5h0c.4 0 .8-.1 1.1-.2h0l.5.1v.2c-.1.6-.7.9-1.7.9h-.8c-1.4-.2-3.2-.7-5-1.2l-4.2-1.1-1 3.2c.2.1.4.2.5.3s.1.3.1.5v.1h-.1-.1c-.2 0-.4 0-.6-.1l-.5 1.3h.1c.2 0 .4 0 .6.1.2 0 .5.1.7.1V49l.2.1c1.3.6 2.5.8 3.9.9-.1 0-.2-.1-.3-.1l-.5-.3h.5a10.9 10.9 0 0 1 2.6.3l1.8.3h.1v.1c.1.1.2.3.3.4s.3.3.4.5l.1.2h-.2-1-.2.1c1.2.4 2.7.8 4 .7h.1l.1.1c.2.3.8.4 1.5.6.4.1.7.1 1.1.2l.3.1-.2.2c-.3.2-.6.3-1.1.3-.7 0-1.4-.2-2.2-.4s-1.5-.5-2.2-.5c-.3 0-.6.1-.8.2l-.2.1v-.3c0-.3 0-.4-.5-.4h-.4l.3-.2h.1v-.3-.1c-2.2 0-4.6-.6-6.9-1.2l-1-.2v-.1-.1H70c-.3 0-.6-.1-.8-.2-.1 0-.3-.1-.4-.1l-.1.1-3.4 11.2c3 .9 5.7 2.5 8 4.7.1-.3.3-.4.4-.4z" />
    <path d="M93.5 71.7c.1-.1.2-.3.4-.3.1 0 .2 0 .3.1.1 0 .2.1.4.1l.4.1-.3.2c-.1.1-.2.1-.5.1-.2 0-.4 0-.6-.1l-.2-.1.1-.1zm-5.9-9.6c.1-.2.4-.2.6-.2.3 0 .7.1.9.3l.1.1-.2.1c-.1.1-.2.1-.3.1-.2 0-.3-.1-.5-.1-.2-.1-.3-.1-.4 0l-.1.1-.1-.2v-.2zM90.9 35c.1.1.3.1.4.1s.3 0 .4-.1c.1 0 .3-.1.4-.1.2 0 .4.1.5.2l.3.2-.3.1c-.1 0-.2 0-.3.1-.2.1-.6.2-.8.2-.5 0-.7-.3-.7-.5l-.1-.3.2.1zM74.4 48.3c-.1.1-.1.3-.1.4 0 .2 0 .4-.2.6l-.1.1h-.1c-.4-.1-.6-.4-.7-.7-.1-.2-.1-.4-.4-.4l-.2-.1.1-.2c.1-.1.2-.2.3-.2.2 0 .3.2.4.3.2-.2.4-.2.8-.1h.3l-.1.3zm2.4-11.1c.1-.2.3-.2.6-.2.2 0 .5.1.7.1s.3.1.5.1h.3l-.3.2c-.2.1-.4.2-.6.2s-.4 0-.6-.1c-.2 0-.3-.1-.5-.1h-.4l.3-.2zm-2.4 2.5c.1-.2.3-.2.4-.2.2 0 .5.1.7.2s.3.2.5.2h.4l-.3.2c-.1.1-.2.1-.4.1s-.3-.1-.5-.1c-.2-.1-.4-.2-.7-.2h-.3l.2-.2zm-1.2 2.2c-.1.1-.2.1-.4.1h-.3-.3-.2v-.2c0-.2.1-.4.4-.4.1 0 .3.1.4.1s.3.1.3.1h.6l-.5.3z" />
    <path d="M74 42.5l-.2-.1.2-.1c.3-.2.6-.2 1.1 0h.2l-.1.2a.55.55 0 0 1-.5.3c-.2 0-.5-.2-.7-.3zm4.7 2.1c-.1.1-.2.1-.4.1-.4 0-.8-.2-1.3-.4-.4-.2-.8-.4-1.2-.4l-.8-.1.8-.2h.4c.5 0 1.1.2 1.6.5.3.1.6.3.9.4l.4.1h-.4zm1.3-9v-.1h.1c.4-.2.8-.1 1.3.2.1 0 .2 0 .2.2s-.2.2-.4.2c-1.1-.2-1.2-.4-1.2-.5z" />
    <path d="M81.2 36.9h-.1v-.1c0-.3.3-.4.4-.4s.1 0 .1-.1v-.2l.2.1a12.65 12.65 0 0 0 2.8.3c.9 0 1.7.1 2.4.3l.4.1H87c-.7.3-1.7.4-2.4.4-.5 0-1 0-1.4-.1h.1c.3.1.6.1.9.2.3 0 .7 0 1 .3l.2.2-.3.1c-.2.1-.5.2-.8.2-.6 0-1-.2-1.2-.7l-.1-.3-1.8-.3zm3.1 9.2c-.1.1-.2.2-.5.2s-.6-.1-.7-.5v-.1h0c.1-.2.2-.2.3-.2a.76.76 0 0 1 .4.2c.1 0 .1.1.2.1l.1-.2.1.2c.1.1.1.2.1.3zm.6-2.6a3.73 3.73 0 0 0-1.2-.2h-.3l.2-.2c.1-.1.3-.2.5-.2s.4 0 .5.1h.3v-.3l.1-.2.2.1c.2.1.3.1.4.1s.1 0 .2-.1c0 0 .1-.1.2-.1h0 0c.2 0 .3.1.4.2h0c.3-.1.6.1.8.3.1.1.3.4.3.6v.2h-.2a8.75 8.75 0 0 1-2.4-.3zm-3.8 25.7h-.2c-.6 0-1.2-.3-1.9-.7-.8-.4-1.6-.8-2.5-.8l-.9.1.8-.4c.2-.1.4-.1.7-.1l-.1-.1c0-.1-.1-.2.1-.4l.1-.1h.1c.4.2.4.2.9.2h.2v.2c0 .1-.1.2-.3.2 1.1.2 2.3.9 3.1 1.5l.3.2-.4.2zm2.4-.1c-.1.1-.3.1-.4.1h-.2-.1-.5l.4-.3h.1v-.3-.1l.8.2-.1.2v.1l.2.1h-.2zm2.5-2.8c0 .1.1.2-.1.4l-.1.1h-.1c-.2 0-.3-.2-.4-.3s-.1-.1-.2-.1H85l.1-.1c.1-.1.2-.2.3-.2.2 0 .5.1.6.2z" />
    <path d="M84.6 65.3c.1-.1.2-.1.3-.1.2 0 .4.1.6.3.1.1.2.1.2.1l.2.1-.1.2c-.1.1-.3.2-.5.2-.3 0-.7-.3-.7-.6v-.2h0zm-2.1-.6c0-.1.2-.3.4-.3s.3.1.5.1c.1 0 .3.1.4.1l.6.1-.6.2c-.1 0-.3.1-.5.1s-.4 0-.6-.1h-.3l.1-.2zm-.2 1.9l-.3-.1c-.2-.1-.4-.1-.5-.1-.5-.1-1.1-.2-1.1-.8v-.2l.2.1a.9.9 0 0 0 .5.1c.5.1 1 .3 1.2.7v.3z" />
    <path d="M80.8 64.4c.1-.2.2-.3.4-.3.1 0 .2.1.4.1.1 0 .2.1.2.1l.3.1-.3.2c-.1.1-.3.1-.5.1h-.4-.4l.3-.3z" />
    <path d="M77.6 64.5c1.2-.3 2.2-.2 2.9.3l.1.1v.1c-.1.2-.4.3-.7.3-.4 0-.8-.1-1.2-.3l-1.1-.3h-1.1l1.1-.2zm-1.2-3.7c.1-.2.2-.3.4-.3s.3.1.4.2.1.3.1.4v.1h-.1c-.3 0-.5-.1-.7-.3l-.1-.1h0zm-.9 2.1c0-.1.1-.2.3-.2.1 0 .2 0 .3.1.1 0 .2.1.2.1h.2v.2c0 .2-.2.3-.4.3s-.5-.1-.6-.3v-.2h0zm-3.4-4.3c-.2 0-.3 0-.5-.1h-.1v-.1c0-.1.1-.2.3-.2h.1 0c.1-.1.2-.4.6-.4.1 0 .2 0 .4.1l.1.1v.1c-.3.3-.5.5-.9.5zM93.5 68h0 .1 0v-.1h-.2c.1 0 .1 0 .1.1zm49.7-33.4c-.4-.1-.7-.2-1.1-.2.4.1.8.2 1.1.2h0zm-65.9 16h.3.4.1c-.4 0-.6-.1-.8 0zm.5 20.4l-.5.1v.1c.1 0 .2-.1.4-.1.5 0 1 .3 1.4.5.1 0 .1.1.2.1 0-.1.1-.2.2-.2-.2-.1-.4-.2-.6-.2-.4-.2-.8-.4-1.1-.3zm22-57.5c.2.1.3.2.5.2 1 .4 2 .9 2.9.9l-3.1-1-.3-.1zm35.1 34.7h0v.1c0 .1-.1.2-.2.2h0 .2c0-.3.1-.5.1-.7 0 .1-.1.2-.2.3l.1.1zM95.8 29.8c-.1 0-.3 0-.5.1h-.1.2c.2 0 .4 0 .5.1 0-.1 0-.2-.1-.2zM88.2 58h0c-.1 0-.1-.1-.2-.1h-.1c.1.1.2.1.3.1zm45-11h-.4-.1c.3.1.7.2 1 .2h.4c-.3-.2-.6-.2-.9-.2zM80.7 27.4c-.3-.1-.5-.2-.8-.2-.1 0-.3-.1-.4-.1l.1.1c.4.1.7.1 1.1.2zm15.5 41.5h.1 0v-.1s0 .1-.1.1zm-35.7 40.6h.1-.1z" />
    <path d="M52.7 116.7h0c4.8 1 9.7 1 14.6 0v-.2-.1h.1c.2 0 .5 0 .9.1.1 0 .2-.1.3-.1 0-.1.1-.2.2-.2s.1 0 .1.1c1.8-.4 3.6-1 5.3-1.7-1.7-.2-3-.4-4.1-.7H70v-.1c0-.1 0-.3.2-.3-.2-.1-.4-.1-.6-.1s-.4-.1-.5-.1v.1c0 .1-.2.3-.5.3h-.3-.3-.1l-.1-.1v-.1c.1-.2.8-.2.9-.2h.1a1.38 1.38 0 0 1-.3-.4c-1.3 0-2.8-.4-4.3-.8-.8-.2-1.5-.4-2.3-.5l-.6-.1.5-.2c.4-.1 1 0 1.5.1.3.1.5.1.8.2-.6-.3-1.4-.4-2.2-.6-.7-.1-1.4-.2-1.8-.4l-.4-.2.4-.1H60v-.1-.2-.3h-.5l-.3.3h0 0c-.2.1-.4.2-.6.2s-.3-.1-.4-.2c-.3.1-.6.1-.9.1l-.1.2v-.3h-.1c-.2 0-.5-.1-.7-.1-.1.1-.2.1-.3.1s-.1 0-.2.1l-.2.1v-.2h0-.2l.2-.1v-.1c-.4-.1-.8-.2-.9-.6v-.4l.3.2a2.39 2.39 0 0 0 .9.2c.5 0 1.1.1 1.3.4.2-.2.6-.1 1-.1h.1v.1h.1c.2 0 .4.1.5.1v-.1c0-.1-.2-.1-.3-.1-.2-.1-.6-.2-.4-.6v-.1h.1c.8.3 1.6.3 2.2.4.3 0 .6.1.9.1l.3.1-.2.2c-.2.2-.4.2-.9.2h-.1c.1.1.1.2.1.3s-.1.2-.2.3h.1.5v-.1c0-.2.2-.3.5-.3a.9.9 0 0 1 .5.1c.2 0 .5.1.7.1h.2l-.1.2c-.1.3-.3.4-.6.4-.2 0-.4-.1-.6-.1-.2-.1-.4-.1-.5-.1.4.1.9.2 1.4.3.1-.1.2-.2.5-.2s.7 0 .8-.3l.1-.2.1.2c.1.2.3.2.6.2a1.08 1.08 0 0 1 .7.3c.3-.2.7-.3 1.1-.3h.2v.2c-.1.2-.1.3-.1.4v.2h.2c.6.2 1.2.3 1.6.1l.2-.1v.3c0 .2 0 .2.1.3h.2l-.1.1c.1.1.3.1.5.2v-.1c.6.1 1.3.3 2.1.5 1.3.4 2.8.8 4.1.7h.1 0c.2.2.4.3.7.4a47.53 47.53 0 0 0 3.1-1.7c8.1-5 13.6-12.4 16.3-20.8h-.5c-.7 0-1.4-.2-2.2-.3-.3-.1-.5-.1-.8-.2H92l.1-.2c.1-.2 0-.3-.1-.4 0 .1-.1.2-.3.2h0c0 .1-.1.2-.4.2-.2 0-.5-.1-.6-.3 0-.1-.1-.2 0-.3l.1-.1h.1c.2.1.4.1.5.1h.2c-.1 0-.1-.1-.2-.1-.2-.1-.5-.2-.7-.3l-.2-.6h.6c.8.1 1.7.4 2.6.7.8.3 1.7.6 2.5.7l.6-2.1h-.1v-.2h-.1 0-.1c-.1 0-.3-.1-.6-.2v-.1h-.1v.2c-.1 0-.1 0-.2-.1h.2v-.2c.3 0 .9.2 1 .4.1-.4.2-.9.3-1.3-.5.1-1 .1-1.5.1a5.7 5.7 0 0 1-2.2-.4l-.3-.1.3-.2c.2-.1.4-.2.8-.2s.8.1 1.2.2h.2c-.8-.3-1.7-.5-2.8-.8-.8-.2-1.5-.3-2.3-.6h-.1v-.1-.2c-.9-.3-2-.3-3.1-.3-1.6 0-3.3-.1-4.5-.9l-.4-.3h.5c.5 0 1 .1 1.6.2-1.7-.5-3.6-1-5.4-1.5-.1.4-.1.9-.2 1.3a18.73 18.73 0 0 1-4 8.4c-1.6 2.6-3.8 4.8-6.4 6.4-.4.2-.7.4-1.1.6h.3 0 .1c.1-.1.4-.1.7 0h.1v.1c0 .2-.1.3-.1.5v.1h-.1c-.2 0-.4-.1-.6-.1h-.2l.1-.2v-.1l-.4-.2c-2.8 1.4-5.8 2.2-9 2.2-2 0-3.9-.3-5.8-.9a19.86 19.86 0 0 1-10.9-8.4c0-.1-.1-.2-.1-.2h-.1v-.1c-.1-.2-.2-.3-.3-.5-.2-.1-.4-.2-.6-.4-.9-.6-1.7-1.1-2.9-1.4h-.1v-.1c-.1-.2-.3-.4-.6-.5-.3-.2-.7-.3-.8-.7h0 0c0-.3.2-.3.3-.3h0 0c.7.2 1.5.6 2.2 1 .6.3 1.1.6 1.7.8a20.18 20.18 0 0 1-1.4-10.6c.3-1.8.8-3.5 1.5-5.2H22.2a37.84 37.84 0 0 0 5.2 26c5 8.2 12.7 13.8 21.2 16.4 1.3.6 2.7.9 4.1 1.1h0z" />
    <path d="M66.7 116.1c-.1.2-.4.3-.7.3-.4 0-.8-.2-.9-.5v-.1l.1-.1c.2-.1.6 0 1 .1.2 0 .3.1.5.1h.2l-.2.2zm-1.4-3.6c.4.2.6.2.9.2.2 0 .5 0 .9.2l.2.1-.2.2c-.2.1-.5.2-.8.2-.6 0-1.2-.2-1.2-.7v-.3l.2.1z" />
    <path d="M63.4 113.2c.1-.1.3-.1.5-.1.4 0 .9.3 1.2.5.2.1.4.2.5.3l.3.1c0-.1.1-.1.1-.2l.2-.2.1-.1h.1c.2 0 .3.1.4.2s.1.3 0 .4l-.1.2-.2-.1h-.2c-.1 0-.3.1-.5 0l-.1-.1v-.1l-.1.1c-.2.1-.4.1-.6.1-.5 0-.9-.3-1.2-.5-.2-.1-.3-.2-.4-.2l-.7.1.7-.4zm27.1-19.8c0-.1.1-.2.4-.2.2 0 .5.1.6.3 0 .1.1.2 0 .3v.1c.1.1.1.1.1.2h0 0c0 .1-.2.2-.3.2-.2 0-.5-.2-.6-.3v-.1-.1c0-.1.1-.1.1-.2-.1 0-.2-.1-.3-.2h0 0zm-4.1 6.9l-.3-.1.2-.2c.2-.1.3-.2.5-.2s.4.1.5.2c.2.1.4.3.8.2h.3l-.2.3c-.1.1-.2.3-.5.3-.4 0-.9-.2-1.2-.4 0-.1-.1-.1-.1-.1z" />
    <path d="M88.3 101.2c-.1.1-.2.2-.5.2s-.7-.1-.8-.2l-.2-.2h.2c.3-.1.7-.1 1.1 0h.3l-.1.2zm.4-7.3c.2 0 .3-.1.3-.3v-.2h.2c.2 0 .3.1.5.1h.1l-.2.7h-.3-.3-.3c-.3 0-.6 0-.8.1h0 0c-.1 0-.2 0-.2-.1-.1-.1-.1-.2-.1-.2l-.3-.1.3-.2c.2-.1.4-.1.7-.1.2.3.3.3.4.3z" />
    <path d="M87.4 93.2c.1 0 .3.1.5.1h.2l-.1.2c-.1.2-.3.3-.6.3-.2 0-.5-.1-.8-.1l-.4-.1.2-.2c.3-.3.6-.3 1-.2zm-1.8-1.4c0-.1.1-.3.4-.3.1 0 .3 0 .5.1.1 0 .2.1.3.1h.3l-.2.3c-.2.2-.5.2-.6.2s-.4 0-.6-.2l-.1-.2h0zM83.3 86c.1.1.1.2.1.4v.2l-.2-.1c-.1 0-.3-.1-.4-.1-.3 0-.5-.1-.6-.2s-.1-.2 0-.3v-.1h.1c.2-.1.8-.1 1 .2zm-1.9-2.3c.1-.2.2-.3.4-.3a.76.76 0 0 1 .4.2c.3.1.5.1.5.3s-.2.2-.4.2c-.4 0-.8 0-.9-.4h0 0zm-.1 19.1c.1-.1.4-.2.7-.2a6.57 6.57 0 0 1 2.5.6l.2.1-.1.1c-.1.1-.3.1-.3.1h-.2-.2c-.1 0-.1 0-.1.1l-.1 1-.2-1c-.1-.3-.4-.4-1-.4-.4 0-.8-.1-1.1-.2l-.2-.1.1-.1zm-2.2 4.5c0-.2.2-.3.5-.3.2 0 .5.1.6.2l.1.1-.1.1c-.1.1-.2.2-.3.2h-.2c-.1 0-.2-.1-.4 0h-.2v-.3zm-2.9-9.5v.1h-.1c-.1 0-.1 0-.4-.1s-.8-.2-1.4-.3h-.1v-.1c0-.1.1-.2.3-.2.3 0 1 .2 1.2.3.5.2.5.2.5.3zm-.8 2h0c-.1.3-.2.4-.4.4s-.4-.1-.4-.2c-.1-.1-.1-.3 0-.4v-.1h.1c.3 0 .5.1.7.3h0zm-1.8-6.1l.1-.1.8.2v.1c0 .3-.3.4-.5.4s-.3-.1-.4-.2c-.1 0-.1-.1 0-.4zm-1.1 12.4c.5 0 1.8.4 2.5.7h0c.2-.2.5-.1.8 0 .1 0 .3.1.4.1h.3l-.2.2a.76.76 0 0 1-.4.2c-.2 0-.4-.1-.6-.2 0 0-.1 0-.1-.1l.1.3-.4-.2.1-.1h0l-.1.1h0 0c-.1 0-.3-.1-.5-.1-1-.2-1.8-.3-2-.6l-.2-.3h.3zm-5.8-.8h.4c.6 0 1.2-.1 2.1.4l.4.2-.4.1c-.2.1-.4.1-.6.1h-.4c.1.1.2.3 0 .5v.1h-.1c-.3 0-.5-.1-.7-.2s-.3-.1-.4-.1c0 0-.1 0-.2.2l-.1.2-.2-.1c-.4-.3-.5-.3-1.2-.5h-.1v-.1c0-.2.1-.3.1-.5v-.2h.2c.5-.1.9-.1 1.2-.1z" />
    <path d="M63.9 105c.1-.4.5-.5.8-.5s.5.1.6.3v.1.1c-.1.4-.5.4-.6.4h-.3-.4-.2l.1-.4zm-1.5-.2c0-.2.2-.4.4-.4.3 0 .8.2.9.4l.1.1-.1.1c-.1.1-.2.1-.3.1s-.3-.1-.4-.1c-.1-.1-.2-.1-.3-.1l-.2.1-.1-.2zm-1.4 1.9c0-.1.1-.3.4-.3.2 0 .6.1 1 .2.6.2 1.2.3 1.4.2l.1-.1h.1s.2.1.2.2-.1.2-.1.2c-.1.1-.1.1-.1.2l.1.2h-.2c-.7 0-1.1-.2-1.5-.3s-.7-.3-1.1-.3H61v-.2zM24.4 77.8a.55.55 0 0 1-.5.3c-.1 0-.2 0-.3-.1s-.1-.2-.1-.4v-.2h.2.2c.2 0 .3 0 .5.2v.2h0zm11.5-.7h0l.1-.2.2.1c.2.1.4.2.2.7v.1h-.1c-.2 0-.4-.1-.6-.1h-.1v-.1c-.1-.5.2-.5.3-.5zm1 28.6l.4 1.1-.6-.8c-.1-.1-.2-.1-.4-.2h-.2l.1-.5c-.2 0-.3 0-.4.1s-.2.1-.4.1c-.1 0-.2-.1-.3-.2h0v-.1c0-.2 0-.3.1-.4s.3-.2.5-.2.4 0 .7.1c.2 0 .3.1.5.1l1 .1-1 .2h-.1c-.1.2 0 .4.1.6zm2.7-8.2c0 .2-.2.3-.4.3-.3 0-.8-.3-.9-.4l-.1-.2.2-.1c.1 0 .2-.1.4-.1.1.2.7.2.8.5h0 0zm4.6 11.1v.2l-.2-.1c-.2-.1-.3-.1-.3 0h-.4-.2l.1-.2c.1-.1.1-.2.2-.2h.1c0-.1-.1-.2 0-.4l.2-.9.1.9c0 .1.1.1.2.2.1 0 .3.2.2.5zm.2-3.3c-.1.1-.2.2-.4.2s-.3-.1-.5-.2l-.1-.1v-.1c0-.2.2-.3.4-.3s.5.1.6.3v.2h0zm8.3-3h0v-.1c0-.1.1-.2.4-.2.2 0 .5.1.6.3 0 .1.1.2 0 .3l-.1.1h-.1c-.4-.1-.7-.1-.8-.4zm.5 3.3l-.2-.2.3-.1c.2-.1.5 0 .7.1s.4.1.6.1l.5-.1-.4.3c-.1.1-.3.1-.5.1-.3.1-.7 0-1-.2zm2 2.6c0 .2-.2.3-.4.3s-.4-.1-.5-.2c0-.1-.1-.2.1-.4l.1-.1h.1c.3 0 .5.1.7.3l-.1.1h0zm2.7-.4c-.1.2-.2.3-.5.3-.1 0-.3 0-.5-.1h-.2l-.6-.1.7-.2c.3-.1.6-.2 1-.1h.2l-.1.2zm1.4-1.7c1.1-.2.8.5 0 0h0z" />
    <path d="M58.6 105.6v-.1h.2c.1 0 .2.1.2.2h.3.2l-.1.2c-.1.2-.2.4-.4.4-.1 0-.3-.1-.4-.1s-.2-.1-.3-.1h-.1v-.1-.3s.1-.1.2-.1c.1-.1.1 0 .2 0h0zm-1.5-2.3s.1-.1.2-.1h.1.1 0l-.1-.5.3.3c.1.1.1.1.1.2s0 .1.1.1h.4l-.3.2c-.1.1-.3.1-.5.1h-.4-.1v-.1c.1-.1.1-.2.1-.2zm-.2 1c.1 0 .2.1.2.1h.2v.2c0 .2-.2.3-.4.3s-.5-.1-.6-.3v-.1-.1c0-.1.1-.2.3-.2 0 0 .2.1.3.1zm-7.2 3.3c-.1.1-.3.2-.5.2s-.5 0-.7-.1c-.2 0-.3-.1-.4-.1h-.2 0c-.4-.1-.8-.2-.9-.5h0 0c0-.2.2-.3.4-.3h.1.1.1l.1-.1h.1c.4.1.5.4.5.6h0 .6.3c.1 0 .1 0 .2-.1l.2-.3v.4c.1.1.1.2 0 .3zm1.8 6.1l-.1.1-.2-.1c-.2-.1-.4-.2-.8-.3h-.2l.1-.2c.1-.1.2-.1.4-.1s.7.1.8.3c.1.1.1.2 0 .3zm.3-11.6c-.1.1-.3.1-.5.1h-.2 0c.1.1.2.2.5.2h.2v.2c0 .2-.2.3-.4.3s-.4-.1-.5-.2c0-.1-.1-.2.1-.4v-.1c-.2 0-.3-.1-.5-.1l.1.1h.1-.1 0c0 .1-.1.2-.4.1v.1h.1.3l-.2.2c-.1.1-.2.2-.4.2-.1 0-.2 0-.4-.1-.1 0-.3-.1-.5-.1h-.4l.3-.2c.2-.1.3-.2.5-.2h0 .1c.1 0 .2-.1.3-.1h0v-.1h.1.1 0l-.3-.1.2-.2c.1-.2.3-.3.6-.3s.5.1.8.2c.1 0 .2.1.4.1l.4.1-.4.3z" />
    <path d="M52.1 101.4h-.5l.3-.3c.2-.2.6-.2.8-.2.4 0 .8.1 1.1.3h.1v.1c0 .1 0 .2-.1.2.2 0 .3 0 .5-.1h0 .1c.2-.1.3-.2.3-.4v-.1h.1c.3 0 .5.1.6.2h.1l.3-.2-.2.3c.1 0 .2.1.3-.1l.1-.1h.1c.1.1.2.1.2.2 0 .2-.1.3-.1.4h.1l-.1.2c0 .1-.2.2-.4.2h-.2l.1.1v.1.1c0 .1-.1.3-.4.3-.1 0-.3 0-.5-.1-.1 0-.2-.1-.3-.1h-.4l.3-.2c.1 0 .1-.1.1-.2h-.1c0 .1-.1.2-.1.3-.1.1-.3.2-.5.2-.5 0-1.2-.3-1.5-.5l-.1-.1v-.1c0-.1.1-.1.2-.2.1-.3-.1-.3-.3-.2zm26-30.8c-.4-.1-.8-.2-1.2-.4.1.3.3.5.4.8l.5-.3c.1-.1.2-.1.3-.1zm19.7 7.3l-1.7-.7H96v-.1c0-.1.1-.3.4-.3h.1s0-.1-.1-.1c0-.1 0-.2.1-.3l.1-.1.1.1c.2.1.2.1.3.1h.1.1v-.1h0l-.2-.1.1-.2c.1-.1.2-.2.3-.2s.2.1.3.1v-.5c-.1 0-.3-.1-.4-.1l-.3.2c-.1.1-.3.1-.5.1-.4 0-.8-.1-1.2-.3-.3-.1-.7-.2-1-.2l-.6-.1.5-.2c.2-.1.4-.1.7-.1h.3l-5.8-1.5-.3.2c-.3.2-.8.1-1.3-.1-.3-.1-.7-.2-1.1-.3h-.1V73c-.1-.1-.1-.2-.1-.3s0-.1-.2-.2c-.8-.1-1.6-.3-2.3-.6-.9-.3-1.7-.5-2.6-.6-.2.2-.5.3-.8.3-.2 0-.4 0-.6-.1h0c.2.5.8.5 1.5.5.4 0 .7 0 1.1.1l.6.2-.6.1v.1c0 .1 0 .1-.1.2h.3c.3 0 .7 0 .8.5v.1.1c-.2.2-.3.3-.5.3-.3 0-.5-.2-.8-.4-.1-.1-.3-.2-.4-.3-.6-.2-1.1-.3-1.8-.4s-1.5-.3-2.3-.5c.1.2.2.4.2.5.3.9.6 1.9.8 2.9l.3.1c.2 0 .4.1.7.1.2 0 .4 0 .6.1h0l.1-.1c.1-.1.2-.1.3-.1s.2.1.3.2.2.2.3.1l.5-.1-.4.3-.1.1h.2c.3 0 .6.1.6.4v.1h-.1c0 .3-.3.3-.6.3-.9 0-2.2-.6-2.5-1.1l-.1-.2c.1.3.1.6.1.8h.1l.1.1v.1h0c.2 1.4.2 2.8.1 4.2.7.1 1.4.3 2 .5 2.1.7 4.6 1.3 7.2 1.9l3.3.8h.2v.1c0 .2-.2.2-.3.3.7.1 1.3.2 1.8.4l4 .8c.3-2.5.4-5.1.3-7.8z" />
    <path d="M82.8 77.6c0 .1-.1.1-.3.1s-.5-.1-.7-.2l-.1-.1v-.1c0-.1.1-.2.3-.2.1 0 .2 0 .3.1.1 0 .1.1.2.1l.1-.4.2.4c.1.1.1.2 0 .3zm4.9-3.5c0-.1-.1-.2 0-.4l.1-.1.7.2v.1c0 .3-.2.4-.4.4s-.3 0-.4-.2z" />
    <path d="M88.4 74.8h-.2v-.2c.1-.4.5-.4.7-.5.2 0 .3 0 .4-.1l.1-.1.1.2c.1.2.3.2.5.3.2 0 .4.1.7.2l.2.1-.2.1h0 .1.2l.1.2s0 .1-.1.1c.6.3 1.4.6 2 1l.2.1-.2.1c-.2.2-.5.2-.8.2-.6 0-1.2-.4-1.9-.9-.6-.2-1.2-.7-1.9-.8zm3.6 8.5c-.2-.1-.4-.2-.7-.2h-.1V83l-.2-.3h.3.1c.2 0 .4-.1.7-.1s.5.1.6.2.1.2.1.4v.1h-.1-.1c-.2.1-.4 0-.6 0zm2.3.8c-.2.1-.4.2-.7.2-.2 0-.4 0-.7-.1h-.1v-.1c0-.1.1-.2.1-.3l.1-.1v-.3l.2.2c.1.1.2.1.4.1s.4.1.6.2l.2.1-.1.1zm.6-4.2c-.2 0-.4 0-.6-.1-.2 0-.4-.1-.6-.1h-.4l.2-.3c.2-.2.3-.2.6-.2.2 0 .5.1.7.2.1 0 .2.1.3.1l.5.1-.5.2c0 .1-.1.1-.2.1zm1.9 1.4c-.2 0-.4-.1-.6-.1-.2-.1-.5-.1-.7-.1h-.3l.2-.3c.1-.2.3-.3.6-.3.2 0 .5.1.8.1.1 0 .3.1.4.1h.2l-.1.3a.55.55 0 0 1-.5.3zm49.3-27.8l-.9-.3c-.1 0-.3-.1-.3-.2s.1-.2.1-.2c-.6-.1-1-.2-1.4-.2s-.8 0-1.3-.2h-.2v-.1c-2.8-.7-6.3-1.6-9.2-1.8h-.2l.1-.2s0-.1.1-.1c-.5-.1-.9-.2-1.4-.2-.7-.1-1.4-.2-2-.5l-.1-.1v-.1c.1-.3.3-.5.6-.5.2 0 .5.1.6.1s.2 0 .2.1l5.9 1.3 3 .7 2.3.5 4.1 1h0c.2-2.3.1-4.7-.1-7-.5-.2-1.1-.3-1.7-.5l-.6-.1.6-.2c.1 0 .3-.1.5-.1.4 0 .7.1 1.1.2-.1-1-.3-2-.5-3-.1 0-.3-.1-.3-.2-.1-.1-.1-.2-.1-.4v-.1h.1.1l-.9-3.3c-.3-.1-.5-.1-.8-.2-.8-.2-1.6-.4-2.3-.7l-.6-.3h.8c.8 0 1.7.1 2.6.3-.2-.6-.4-1.2-.7-1.7-.8-.2-1.5-.5-2-.8l.1-.2-5.5-1h-.3l.2-.2.2-.2c-.2 0-.4-.1-.5-.2l-.1-.2.2-.1c.2-.1.5-.2.8-.2.5 0 1.1.2 1.6.4s1 .3 1.5.3h.4c.1-.1.3-.1.3.1h0c.9.3 1.8.5 2.6.7-.6-1.4-1.4-2.7-2.2-4.1-1.6-2.6-3.4-4.9-5.5-6.9-1.5-.1-2.9-.4-4.5-1l-1-.4 1 .1c1.1.1 2.4.3 3.7.6l-.2-.2-2.6-.6-.5-.1h0c-.1 0-.2 0-.3.1-.1 0-.1.1-.2.1h-.1a1.38 1.38 0 0 1-.4-.3c-.1-.1-.1-.2-.2-.2-.4-.1-.9-.2-1.4-.2-.8 0-1.5.1-2 .2h0 0c-.3-.1-.6-.2-.9-.2-.6-.1-1.1-.2-1.5-.5l-.1-.1.1-.1c.1-.1.1-.1.2-.1l-8-1.6-8.3-1.7-.2-.1.1-.2c.1-.1.2-.2.4-.2.1 0 .3 0 .4.1.1 0 .2.1.3.1-.5-.3-.9-.2-1.4-.1-.2.1-.5.1-.8.1s-.5 0-.8-.1h-.1v-.1c0-.1.1-.2.3-.2h.1.1.1l-2.1-.6c-.2 0-.4-.1-.5-.2.1.1.1.3.1.4v.2c.1 0 .2.1.3.1l.9.3h-.8l.1.1-.2-.1c-.2 0-.3 0-.4-.1-.9-.3-1.8-.4-2.7-.6-1.6-.3-3.3-.6-5-1.4h0-.1 0c0 .1-.1.2-.2.2l-.1.1-.1-.1s-.1 0-.1-.1c-.1 0-.2.1-.4.1.2.1.3.1.5.2v-.1c.5.1 1.5.5 2.6 1l4.2 1.7-.1.3c-1.7-.2-3.2-.9-4.7-1.5-.8-.4-1.6-.7-2.4-1l-.9-.3c-.2.1-.4.1-.5.2h.2c.3 0 1 .1 1.2.4.1.1.1.2.1.3v.2l-.3-.3c-.2-.2-.4-.2-.7-.2-.2 0-.5-.1-.7-.2l-.2-.1-1.9.9-.1.2h-.1-.2-.1v.3l-.1.1-.1-.1c-.1 0-.2-.1-.3-.1s-.1.1-.2.1c1.7.5 3.3 1.1 4.5 1.9l.4.2.5-.1c.5-.1 1.1 0 1.6.2.4.1.8.3 1.2.3h.3 0 0l.2.2h0 0 .2c.1 0 .2.1.2.1.1.1 0 .2 0 .3v.1h-.1c-.6 0-1.2-.2-1.9-.5-.5-.2-1.1-.4-1.7-.5l-.4-.1.1.1-.7-.1c-1.2-.1-3.1-.8-5.1-1.4-.2 0-.3-.1-.5-.1-.3.2-.6.3-.9.5a4.44 4.44 0 0 0-1.1.8v.1H87c-2 1.3-3.8 2.8-5.4 4.3l2.3 1 .2.1-.2.2c-.1.1-.3.2-.5.2s-.4-.1-.7-.2-.7-.2-1-.1l-.1-.2h-.1c-.2 0-.4-.1-.4-.3v-.1h-.2c-.2.2-.4.5-.7.7l.8.5-1-.3c-.8.8-1.5 1.6-2.1 2.5l.6.2c.2.1.4.2.4.4h0c.4-.1 1.1 0 1.8.2.3.1.7.2 1.1.2v-.2h-.1.1l.3-.9c.2-.2.3-.2.4-.2a.76.76 0 0 1 .4.2c.1 0 .3.1.3.2s-.1.2-.1.2c.1 0 .2 0 .3.1.4.1.8.2 1.1.4l.2.1h.3c-.4.3-.9.2-1.4 0-.1 0-.2-.1-.4-.1a14.62 14.62 0 0 0 2 .5h.3l-.2.2c-.3.3-.7.4-1.2.4-.2 0-.4 0-.6-.1.5.3 1.2.4 1.9.5.8.1 1.6.2 2.2.6l.7.4-.8-.1h-1.1-.6c-.2 0-.5 0-.8-.1-.5.2-1.5-.2-2.6-.7-1-.4-2.2-1-3.1-1-.3 0-.5.1-.7.2h-.1-.1c-.4-.2-.9-.3-1.3-.5-.2.4-.5.7-.7 1.1l1 .2-.2.3c-.1.1-.2.1-.3.1l.6.1c2.3.2 4.5.8 6.6 1.3 2.5.6 4.9 1.2 7.1 1.2h0 0c.1 0 .2.1.3.2v.2c.4.1.8.2 1.3.2 1 .2 2.2.4 3.1.9l.2.1-.1.2c-.1.1-.1.1-.2.1l1.1.3c.4-.3.8-.6 1.2-.8 1-.6 2-1.1 3-1.5l-4.7-1.2c-.1 0-.1-.1-.2-.1h-.1c-.6.1-1.6-.1-3.2-.7h-.1v.1l-.1-.1s-.1 0-.1-.1l-.6-.2h.1a11.95 11.95 0 0 0-2.2-.5c-.8-.1-1.5-.3-2-.4l-.2-.1.1-.2c.1-.3.5-.4.8-.4.2 0 .4 0 .5-.1l.1-.1.1.1c.5.5 1.7.9 2.5.9.3 0 .6-.1.7-.2l.1-.1.1.1c.3.2.3.8.2 1.1h.1.5.4c.3 0 .4.1.5.2l.1-.1c.1-.1.2-.3.4-.3h0v-.1.1h0c1.9.3 3.5.8 5.1 1.3l2.2.7c6.9-2.3 14.6-.4 19.8 4.8 0 0 0-.1.1-.1l.1-.2.1.2s.1.1.2.1c.2.1.3.1.4.3v.4.1h-.1 0c.7.8 1.4 1.7 2 2.7.1.2.3.5.4.7h0 .2c.2 0 .5 0 .9.1l.4.1-.4.1c-.1.1-.5.1-.8.1h-.1a14.35 14.35 0 0 1 1.3 3.2c1.6.3 3.2.6 4.8.7h.3l-.2.2c-.1.2-.4.3-.8.3s-.8-.1-1.3-.1c-.4-.1-.9-.1-1.2-.1s-.5.1-.6.2l-.1.1h-.1c-.2-.1-.4-.1-.6-.2 0 .1 0 .2.1.3.9.2 1.8.5 2.4.7.1 0 .2.1.3.1.1-.1.3-.2.5-.2 1 0 3.9.6 4.7 1.1v-.1-.2l.2.1a4.53 4.53 0 0 0 1.6.3c.6.1 1.2.2 1.7.4l.2.1-.2.1c-.1.1-.3.1-.5.1-.3 0-.8-.1-1.2-.3-.6-.2-1.2-.3-1.4-.1-.1.1-.1.2-.1.4h.2c.6.1 1.3.2 1.4.8v.1h-.1c-.2.1-.4 0-.6-.1s-.3-.2-.6-.2h0-.1v.1c0 .1 0 .4-.2.5h-.1-.1c-.8 0-1.3-.1-1.5-.4-.1-.1-.2-.3-.2-.5v-.2l.2.1h.1c.1 0 .2-.1.3-.1h0c-.2-.3 0-.6.1-.8l-.1-.1-.4.2c-.2.2-.5.2-.8.2-.6 0-1.2-.3-1.6-.4-.1 0-.2-.1-.3-.1l-.4-.1.4-.1c.1-.1.3-.1.4-.1h-.1c-.2 0-.4.1-.7.1-1 0-2-.3-3.1-.7-.1 0-.3-.1-.4-.1.4 2.4.4 4.7 0 7.1l18.4 3.2c.6-.8.7-1.7.8-2.6z" />
    <path d="M94.9 16.3l-.1-.3h0l-.6.2c-.1 0-.2.1-.3.1-.5 0-1.2-.3-1.5-.6l-.1-.1.1-.1c.1-.1.2-.2.4-.2s.5.2.8.3c.2.1.4.3.6.3l.6.1c-.1-.2-.1-.4-.4-.4h-.2v-.2c0-.2.1-.4.3-.4.1 0 .3 0 .4.1.1 0 .2.1.3.1h.3l-.1.2c-.1.1-.1.2-.1.3s0 .2-.2.3l-.2.3zm2 1.5h-.2c-.2 0-.4-.1-.6-.2s-.4-.2-.6-.2l-.4-.1.4-.2c.1-.1.2-.1.3-.1.4 0 1 .3 1.1.5l.1.1-.1.2z" />
    <path d="M98.2 16.5l-.2.1c-.2.2-.4.3-.7.3-.2 0-.4 0-.6-.1l-.2.2.1-.3c-.2-.1-.3-.2-.4-.3-.2-.2-.3-.4-.2-.6v-.5l.3.5c0 .1.2.1.3.1.2.1.4.1.5.3.2-.1.4 0 .5.1.1 0 .3.1.4.1l.5-.1-.3.2c.2-.1.5-.1.9 0-.5.1-.8.1-.9 0zm-17.4 9.9c-.1.3-.3.3-.5.3s-.5-.2-.7-.3l-.2-.1.1-.1c0-.1.1-.2.3-.2.1 0 .3.1.4.1s.3.1.3.1h.3v.2z" />
    <path d="M81.9 25.6c-.1.1-.1.2-.2.2-.1.1-.2.2-.2.4v.2l-.2-.1c-.2-.1-.2-.3-.2-.5v-.2H81v-.1c0-.1.1-.2.3-.2.1 0 .2 0 .3.1.1 0 .1.1.2.1h.3l-.2.1zM80 29c0 .1-.1.3-.4.3-.1 0-.3 0-.4-.1h-.1-.2V29c0-.1.1-.3.4-.3.1 0 .3 0 .4.1h.1.2v.2zm9.3.2c.6-.1 1.7.2 2.5.4.2.1.5.1.6.2l.6.2-.6.2H92c-.7 0-2.1-.2-2.8-.7l-.3-.2.4-.1zm-3.8-1.8c-.1-.2.1-.4.2-.5h0 0 0s-.2-.1-.1-.3c0 0 .1-.1.2-.1s.3 0 .5.1c.1 0 .2 0 .2.1h.1c0-.1 0-.1.1-.2v-.2l.7.2-.1.2c-.1.2-.2.5-.5.5h-.1 0l-.2.2c-.1.1-.1.1-.1.2v.2h-.2c-.4-.2-.6-.3-.7-.4zm1.6 1.6c-.1 0-.3-.1-.4-.1s-.3-.1-.3-.1h-.2v-.2c0-.1 0-.1.1-.1-1.2.1-1.5-.5 0 0 .1-.1.1-.2.3-.2.1 0 .3.1.4.1s.3.1.3.1h.2v.2c-.1.2-.2.3-.4.3z" />
    <path d="M88.2 27.6l-.1.2-.2-.1c-.2-.1-.3-.1-.4-.1h-.1c-.1 0-.3 0-.4-.2v-.1l.2-.1c.5-.2.8-.1 1 0v.4zm.5-2.6c-.2-.1-.4-.1-.6 0-.1 0-.3.1-.4.1h-.2-.1V25v-.1c-.1 0-.3 0-.5-.1-.1 0-.2-.1-.2-.1h-.2v-.2l.1-.4.8.2v-.1-.1h.1.4c.4 0 .9.1 1 .6v.3h-.2zm5.5 1c.1 0 .2-.1.3-.1.3 0 .7.2.8.4s.1.4 0 .6v.1h-.1-.1c-.2 0-.4-.2-.5-.3h0v.1h-.1l-.2-.2c0-.1 0-.1.1-.1h-.1l-.4-.1.3-.4zM91 21.7c.2-.2.7 0 1.3.2.3.1.6.2.8.2h.8l-.8.2h-.3c-.4 0-.9-.2-1.3-.3-.2-.1-.3-.1-.5-.2l-.3-.1h.3zm.6 3.7c-.1 0-.2-.1-.2-.2h0V25c.1-.1.3-.1.9.1.2.1.4.1.6.2l.2.1-.1.1a.55.55 0 0 1-.5.3c-.1 0-.2 0-.3-.1-.1 0-.3-.1-.4 0l-.3.1.2-.3-.1-.1c.1.1.1 0 0 0zm-2.1-1.1c.2.1.4.1.6 0 .1 0 .3-.1.5 0h.1v.1c.2.4-.1.6-.3.8-.1.1-.2.1-.2.2l-.1.1H90c-.5-.1-.6-.5-.7-.8l-.1-.4h.3zm2.8 3.9c-.4 0-.7.1-1.1.1-.7 0-1.3-.2-1.6-.6l-.2-.2h.3c.3 0 .8.1 1.3.2.4.1.8.2 1.2.2l1 .2-.9.1z" />
    <path d="M96.2 28h-.3c-1.8 0-3.7-.5-5.5-1.1l-1.1-.3.7-.1c.3 0 .6-.1.9-.1 1.2 0 2.3.3 3.7.8.5.2 1 .3 1.6.5l.9.3h-.9zm2.7 1c-.1.1-.2.3-.5.3h-.2-.1v-.1c0-.1-.1-.3 0-.5v-.1h.1c.2-.2.6-.1.8.2l.1.1-.2.1zm4.7-8.7c-.2.1-.4.2-.6.2-.4 0-.8-.1-1.3-.3-.4-.1-.8-.3-1.2-.3l-.9-.1.9-.2c.6-.1 1.3 0 2.1.2.3.1.6.2 1 .2l.3.1-.3.2zm2.1-2.6c-.1.1-.2.1-.4.1-.5 0-1.1-.2-1.5-.4l-.4-.2.5-.1a2.4 2.4 0 0 1 1.5.2c.1 0 .2.1.3.1l.3.1-.3.2zm6.2 11.9c-.2.1-.4.2-.7.2-.1 0-.3 0-.5-.1l-.4-.2.4-.1c.1 0 .1-.1.2-.1.2-.1.5-.2.9 0l.3.1-.2.2zm18.1 7.3c.4-.2.8-.1 1.1.1l.1.1-.1.1c-.1.1-.2.2-.4.2s-.3-.1-.5-.1c-.1 0-.2-.1-.3-.1l-.4-.1.5-.2zm-2.7-9.4c-.9.2-.9-.6 0 0h0zm.7 4c-.1.2-.2.3-.6.3-.5 0-1.2-.3-1.5-.5s-.4-.3-.4-.4c0 0 .1-.1.2-.1.2 0 .6.1 1.1.2l1.1.3h.2l-.1.2zm5.1 8.9h-.5c-.9 0-2.2-.4-3.2-.7-.5-.2-.9-.3-1.1-.3v-.3c.9 0 1.9.3 3 .6.6.2 1.2.3 1.8.4l.8.1-.8.2zm1.7-14.8c-.1.1-.3.2-.5.2s-.5-.1-.7-.2-.4-.2-.6-.2h-.2v-.2c.1-.2.3-.2.4-.2.4 0 1.1.1 1.4.3l.2.1v.2zm9.5 25.8l.8.4-.9-.1c-1-.1-1.9-.3-2.8-.5-.6-.2-1.3-.3-2-.4-.2 0-.4-.1-.4-.2v-.2c0-.1.1-.1.4-.1l1.6.3c1.2.1 2.3.3 3.3.8zm-2.2-4.9h.3c.3 0 1 .1 1.3.4.1.1.1.2.1.3v.2l-.2-.1c-.3-.1-.5-.2-.7-.2-.3 0-.6-.1-.8-.3l-.2-.2.2-.1zm-.3 1.9s.9 0 .9.3c0 .1 0 .1-.1.2h-.1c-.1 0-.3 0-.6-.1h-.2-.5l-.4-.1.1-.1h-.1-.5c-.7 0-1-.2-1.1-.6v-.2l2.3.5c.1.2.2.1.3.1zm-4-12.6c.1-.1.2-.1.3-.1.5 0 1.4.2 1.8.3l.5.1-.5.2c-.1 0-.3.1-.5.1-.4 0-.9-.1-1.4-.2l-.6-.1.4-.3zm0 6c.4-.3.9-.2 1.3 0 .3.1.5.1.7.1l.2-.1v.2c0 .1-.1.3-.6.3-.4 0-1.1-.1-1.6-.3l-.3-.1.3-.1z" />
    <path d="M139.9 42.6l-.3.2c-.1.1-.3.1-.5.1-.3 0-.6-.1-.8-.1l-.7-.2.6-.2c.4-.1.9 0 1.4.1l.3.1zm-3.4 3.9l-1.2-.3h-.1v-.1c0-.1.1-.2.1-.3s.1-.1.1-.1v-.2l.2.1c1.4.5 3.2.9 4.9 1.2l.9.1-.9.2c-.2 0-.5.1-.8.1l-3.2-.7zm-7.9 1.9c-.2-.1-.4-.1-.5-.1h-.3l.2-.3c.1-.1.2-.2.5-.2a1.53 1.53 0 0 1 1 .4l.2.1-.2.1c-.1.1-.2.1-.3.1-.2 0-.4 0-.6-.1zm10.5 5.6l-.8-.2v-.2c.1-.4.4-.5.6-.5h.2.2l-.2.9zM75 114.1c.1 0 .2.1.3.1h0c-.1-.1-.2-.1-.3-.1z" />
  </g>
</svg>
