<?xml version="1.0" encoding="utf-8"?>
<svg xmlns="http://www.w3.org/2000/svg" xmlns:xlink="http://www.w3.org/1999/xlink" version="1.2" viewBox="0 0 165 129" baseProfile="tiny-ps">
  <title>Security B-Sides</title>
  <desc>BSides Logo</desc>
  <g>
    <path d="M114.9,52.9c-0.4,2.1-1.6,4-3.5,5.1c-3.7,2.2-8.4,1.1-10.7-2.5c-1-1.6-1.3-3.5-1.1-5.3c0.3-2.2,1.6-4.2,3.6-5.4   c3.7-2.2,8.4-1.1,10.7,2.5C115,49.1,115.3,51.1,114.9,52.9z"/>
    <path d="M65.4,77.2c-1.1-1.7-2.7-2.9-4.5-3.4c-2-0.6-4.3-0.3-6.2,0.8c-2.1,1.3-3.4,3.5-3.6,5.7c-0.2,1.7,0.2,3.4,1.1,4.9   c1,1.6,2.5,2.8,4.2,3.3c2.1,0.7,4.4,0.5,6.4-0.8c1.8-1.1,3-2.9,3.5-4.8C66.8,81.1,66.6,79,65.4,77.2z"/>
    <path d="M108.8,11.9c0.8,0.2,1.5,0.5,2.1,0.5c0.1,0,0.2,0,0.3-0.1c0.1-0.1,0.2-0.1,0.4-0.1c1-0.1,3,0.4,4.6,0.9   c0.7,0.2,1.2,0.4,1.7,0.4c0.6,0.1,1.3,0.3,1.9,0.5c1,0.3,2,0.7,2.9,0.6h0.1v0.1c0.1,0.1,0.5,0.3,0.8,0.3c0.2,0,0.3,0,0.4-0.1l0,0   c-5.1-2.3-10.8-3.5-16.4-3.4l0.2,0.1C108.2,11.7,108.5,11.8,108.8,11.9z"/>
    <g>
      <path d="M101.1,13.1c1.2,0,2.8,0.7,3.9,1.2c0.2,0.1,0.5,0.2,0.7,0.3c0-0.1,0-0.1,0.1-0.2c0.1-0.1,0.2-0.1,0.3-0.1    c5.6,1.8,11.8,3.1,17.8,4.3c2.2,0.5,4.4,0.9,6.5,1.4c0.9,0.2,1.8,0.4,2.7,0.7c-1.3-1.1-2.6-2.1-4-3c-0.3-0.1-0.6-0.2-0.9-0.4    c-2-0.3-3.5-0.8-4.9-1.2c-1.3-0.4-2.5-0.8-4-1l0,0c-1.3-0.6-2.7-0.9-4.1-1.2c-1-0.2-2.1-0.4-3-0.8v0.1c0,0.1,0,0.2-0.1,0.3    l-0.1,0.1h-0.1c-0.5-0.1-1-0.2-1.4-0.3c-1.8-0.4-3.2-0.7-5.3-1.5c-0.1,0-0.2,0-0.3,0c0,0.1,0,0.1,0,0.2v0.1h-0.1    c-0.4,0-0.7-0.1-1.1-0.2c-1.8,0.2-3.6,0.6-5.3,1.1c0.6,0.1,1.1,0.3,1.7,0.6l0.3-0.2C100.3,13.2,100.7,13.1,101.1,13.1z"/>
      <path d="M115.8,14.8L115.8,14.8l0.1-0.1c0.4,0,0.5,0.2,0.6,0.3l0.1,0.1l0.1,0.1l-0.1,0.1c-0.1,0.1-0.2,0.1-0.3,0.1    c-0.2,0-0.5-0.1-0.6-0.3C115.7,15.1,115.7,14.9,115.8,14.8z"/>
      <path d="M113.7,14.1c0.2-0.1,0.3,0,0.5,0c0.1,0,0.3,0.1,0.5,0.1h0.2v0.2c0,0.2-0.2,0.3-0.4,0.3c-0.3,0-0.7-0.2-0.8-0.3l-0.1-0.2    L113.7,14.1z"/>
    </g>
    <path d="M125.1,15.5c-0.1-0.1-0.2-0.1-0.3-0.2C124.9,15.4,125,15.4,125.1,15.5L125.1,15.5z"/>
    <g>
      <path d="M73.7,65.4c0.5,0,1,0.1,1.6,0.3l1.4,0.5L75.2,66l0,0c-0.1,0-0.2,0-0.3,0c-0.2,0-0.5,0.1-0.8,0.1H74l0,0l0,0    c0.3,0.4,0.7,0.8,1,1.2c0.1-0.1,0.3-0.1,0.4-0.1s0.1,0,0.2,0s0.1,0,0.2,0s0.1,0,0.2,0l0-0.2l0.1,0.2c0.1,0.1,0.1,0.3,0.1,0.3    c-0.1,0.1-0.2,0.2-0.5,0.2c-0.2,0-0.3,0-0.5-0.1c0.4,0.5,0.8,1,1.1,1.6l0,0c1.7,0.4,3.3,0.8,4.8,1l0,0l0,0c0.4,0.4,1,0.4,1.6,0.5    c0.7,0.1,1.3,0.1,1.8,0.6c0.8-0.3,1.5-0.2,2.1,0.2l0.2,0.1l0,0c0.2,0,0.3,0,0.4,0h0.1v0.1c0.1,0.1,0.1,0.2,0.1,0.3    c0,0.1-0.1,0.1-0.2,0.2c2.1,0.3,4.2,0.6,6.1,1.3v-0.1h0.1c1.2,0.5,2.6,0.9,4,1.2c0-0.4-0.1-0.7-0.1-1.1c-0.3-0.1-0.5-0.2-0.8-0.3    c-0.6-0.3-1.2-0.5-1.8-0.6l-0.4-0.1l0.3-0.2c0.2-0.1,0.4-0.2,0.7-0.2c0.4,0,0.8,0.1,1.2,0.2c0.2,0.1,0.4,0.1,0.6,0.1    c-0.2-0.9-0.4-1.9-0.6-2.8h-0.1c-0.6,0-1.3-0.4-1.8-0.7c-0.1-0.1-0.3-0.1-0.4-0.2l0,0c-0.1-0.1-0.1-0.2,0-0.2    c0.1-0.1,0.2-0.1,0.2-0.1h0.1h0.1c0.2,0,0.2,0,0.3-0.1v-0.1l-0.1-0.7c-0.2,0.2-0.5,0.3-0.9,0.2v0.1c0.1,0.1,0.3,0.3,0.2,0.7v0.1    H94c-0.2,0-0.3-0.2-0.4-0.3l-0.1-0.1v0.1h-0.1l0,0c-0.5,0-1.4-0.5-1.4-0.7v-0.1h0.2l0,0c-0.2,0-0.3-0.1-0.4-0.3c0,0,0-0.1,0-0.2    c-0.1,0-0.1,0-0.1,0.1c-0.1,0-0.3,0.1-0.4,0.2l-0.1,0.1l-1.4-0.3c-0.3,0-0.5-0.1-0.5-0.3c0-0.1,0-0.2,0.3-0.2c0.1,0,0.3,0,0.4,0.1    c0.3,0,0.7,0,1,0.1c0.2-0.2,0.5-0.2,0.9,0l0,0l0,0c0.9,0,2.2,0.3,2.8,0.5V67l0.1,0.3l0.2,0.1l-0.1,0.1l0.3,0.7    c0.1,0.2,0.2,0.2,0.4,0.2c0.2,0,0.4-0.1,0.6-0.2l0,0c0-0.1-0.1-0.2-0.1-0.4c-1.3-0.9-2.6-1.9-3.7-3c-0.9-1-1.7-2-2.4-3.1    c-0.4-0.6-0.7-1.3-1-1.9c-0.1,0-0.1,0-0.2,0c-0.2,0-0.5-0.1-0.8-0.2c-0.2-0.1-0.5-0.2-0.7-0.2h-0.2v-0.2c0-0.2,0.1-0.3,0.2-0.3    c0.1-0.1,0.1-0.1,0.1-0.2v-0.3l0.3,0.2c0.2,0.2,0.3,0.2,0.4,0.2h0.1c0.1,0,0.2,0,0.3,0c0-0.1-0.1-0.1-0.1-0.2c-0.1,0-0.1,0-0.2,0    c-1-0.2-2-0.5-2.7-0.8l-0.2-0.1l0.2-0.2c0.2-0.1,0.4-0.2,0.6-0.2c0.3,0,0.6,0.1,1,0.3c0.1,0,0.1,0.1,0.2,0.1l0.1-0.1    c0.1-0.2,0.5-0.2,0.7-0.2c-0.2-0.7-0.4-1.5-0.6-2.2c-1.1-0.3-2.2-0.6-3.3-0.8l-0.3-0.1l0.2-0.2c0.2-0.2,0.5-0.2,0.8-0.2    c0.4,0,0.9,0.1,1.4,0.2h0.1c0-0.1,0.1-0.2,0.1-0.3l0.1-0.1h0.1c0.2,0.1,0.4,0.1,0.6,0.2c-0.2-1.9-0.2-3.7,0.1-5.6    c0.5-3.1,1.8-6,3.7-8.5c-0.5-0.1-1.1-0.2-1.6-0.4l-0.3-0.1l0.3-0.2c0.2-0.2,0.5-0.2,0.8-0.2c0.4,0,0.8,0.1,1.2,0.3h0.1    c0.4-0.5,0.9-1.1,1.4-1.6c0.1-0.1,0.1-0.1,0.2-0.2c-0.4-0.2-0.9-0.3-1.4-0.5c-1-0.3-2-0.7-2.8-1l-1-0.4l0.9,0.1    c1.2,0.1,2.5,0.3,3.7,0.6L92,36l0.1-0.2c0.1-0.2,0.4-0.2,0.6-0.2s0.3,0.1,0.4,0.2c0,0.1,0.1,0.2,0,0.4v0.1c0.3,0.1,0.7,0.1,1,0.2    c0.6-0.7,1.3-1.4,2.1-2c-0.2-0.1-0.4-0.1-0.6-0.2c-0.2,0.1-0.4,0.1-0.7,0.1c-0.4,0-0.7-0.1-1-0.4l-0.2,0v-0.1    c0-0.1,0.1-0.2,0.2-0.3c-0.9-0.2-2-0.4-3-0.6c-1.5-0.3-3-0.6-4.2-0.9c0,0.1,0,0.1-0.1,0.2v0.1h-0.1c-0.1,0-0.1,0-0.2,0    c-0.6,0-1.1-0.3-1.3-0.7c-1.3-0.4-2.5-0.7-3.5-1c-1.6-0.4-2.9-0.7-4.1-1.3l-0.6-0.3c-0.1,0-0.2,0-0.3,0c-0.1,0-0.2,0-0.3-0.1    c-1,1.6-1.9,3.3-2.6,5c0.1,0,0.2,0.1,0.3,0.1c0.3,0.2,0.6,0.4,1,0.4c0.3,0,0.5-0.1,0.6-0.4l0.1-0.1h0.1c0.2,0.1,0.4,0.1,0.7,0.1    c0.7,0,1.5,0.1,1.5,0.8v0.2h-0.2c-0.5,0-1,0-1.5-0.1c-0.9,0-1.9-0.1-2.8-0.1L73,36.1c0.4,0.1,0.7,0.3,0.8,0.4l0.3,0.2h-0.2    l0.4,0.1v0.1c0,0.1,0,0.2-0.1,0.3s-0.2,0.1-0.3,0.1c-0.2,0-0.3-0.1-0.4-0.2c0-0.1-0.1-0.2,0-0.4h-0.1c-0.2,0-0.4,0-0.6-0.1    l-0.5,1.6c0.3,0,0.7,0,1.1,0.1s0.8,0.1,1.1,0h0.1l0.1,0.1c0.1,0.1,0.1,0.2,0,0.3c-0.2,0.3-1,0.3-1.1,0.3c-0.2,0-0.9,0-1.3-0.4    l-1.2,4c1.3,0.3,2.6,0.7,3.9,1.1c0.9,0.3,1.9,0.5,2.8,0.8c1,0.3,2,0.5,2.9,0.5l0,0c0.4,0,0.8-0.1,1.1-0.2l0,0l0.5,0.1v0.2    c-0.1,0.6-0.7,0.9-1.7,0.9c-0.3,0-0.6,0-0.8,0c-1.4-0.2-3.2-0.7-5-1.2c-1.4-0.4-2.9-0.9-4.2-1.1l-1,3.2c0.2,0.1,0.4,0.2,0.5,0.3    s0.1,0.3,0.1,0.5v0.1h-0.1H70c-0.2,0-0.4,0-0.6-0.1L68.9,49H69c0.2,0,0.4,0,0.6,0.1c0.2,0,0.5,0.1,0.7,0.1V49l0.2,0.1    c1.3,0.6,2.5,0.8,3.9,0.9c-0.1,0-0.2-0.1-0.3-0.1l-0.5-0.3h0.5c0.9,0,1.8,0.1,2.6,0.3c0.6,0.1,1.1,0.2,1.8,0.3h0.1v0.1    c0.1,0.1,0.2,0.3,0.3,0.4c0.1,0.1,0.3,0.3,0.4,0.5l0.1,0.2h-0.2c-0.3,0-0.7,0-1,0c-0.1,0-0.1,0-0.2,0h0.1c1.2,0.4,2.7,0.8,4,0.7    h0.1l0.1,0.1c0.2,0.3,0.8,0.4,1.5,0.6c0.4,0.1,0.7,0.1,1.1,0.2l0.3,0.1L85,53.3c-0.3,0.2-0.6,0.3-1.1,0.3c-0.7,0-1.4-0.2-2.2-0.4    c-0.8-0.2-1.5-0.5-2.2-0.5c-0.3,0-0.6,0.1-0.8,0.2L78.5,53v-0.3c0-0.3,0-0.4-0.5-0.4h-0.4l0.3-0.2c0,0,0,0,0.1,0    c0-0.1,0-0.2,0-0.3v-0.1c-2.2,0-4.6-0.6-6.9-1.2l-1-0.2v-0.1c0,0,0,0,0-0.1H70c-0.3,0-0.6-0.1-0.8-0.2c-0.1,0-0.3-0.1-0.4-0.1    l-0.1,0.1l-3.4,11.2c3,0.9,5.7,2.5,8,4.7C73.4,65.5,73.6,65.4,73.7,65.4z"/>
      <path d="M93.5,71.7c0.1-0.1,0.2-0.3,0.4-0.3c0.1,0,0.2,0,0.3,0.1c0.1,0,0.2,0.1,0.4,0.1l0.4,0.1l-0.3,0.2C94.6,72,94.5,72,94.2,72    c-0.2,0-0.4,0-0.6-0.1l-0.2-0.1L93.5,71.7z"/>
      <path d="M87.6,62.1c0.1-0.2,0.4-0.2,0.6-0.2c0.3,0,0.7,0.1,0.9,0.3l0.1,0.1L89,62.4c-0.1,0.1-0.2,0.1-0.3,0.1    c-0.2,0-0.3-0.1-0.5-0.1c-0.2-0.1-0.3-0.1-0.4,0l-0.1,0.1l-0.1-0.2C87.6,62.3,87.6,62.2,87.6,62.1z"/>
      <path d="M90.9,35c0.1,0.1,0.3,0.1,0.4,0.1s0.3,0,0.4-0.1c0.1,0,0.3-0.1,0.4-0.1c0.2,0,0.4,0.1,0.5,0.2l0.3,0.2l-0.3,0.1    c-0.1,0-0.2,0-0.3,0.1c-0.2,0.1-0.6,0.2-0.8,0.2c-0.5,0-0.7-0.3-0.7-0.5l-0.1-0.3L90.9,35z"/>
      <path d="M74.4,48.3c-0.1,0.1-0.1,0.3-0.1,0.4c0,0.2,0,0.4-0.2,0.6L74,49.4h-0.1c-0.4-0.1-0.6-0.4-0.7-0.7    c-0.1-0.2-0.1-0.4-0.4-0.4l-0.2-0.1l0.1-0.2c0.1-0.1,0.2-0.2,0.3-0.2c0.2,0,0.3,0.2,0.4,0.3c0.2-0.2,0.4-0.2,0.8-0.1h0.3    L74.4,48.3z"/>
      <path d="M76.8,37.2c0.1-0.2,0.3-0.2,0.6-0.2c0.2,0,0.5,0.1,0.7,0.1s0.3,0.1,0.5,0.1h0.3l-0.3,0.2c-0.2,0.1-0.4,0.2-0.6,0.2    s-0.4,0-0.6-0.1c-0.2,0-0.3-0.1-0.5-0.1h-0.4L76.8,37.2z"/>
      <path d="M74.4,39.7c0.1-0.2,0.3-0.2,0.4-0.2c0.2,0,0.5,0.1,0.7,0.2c0.2,0.1,0.3,0.2,0.5,0.2h0.4l-0.3,0.2    c-0.1,0.1-0.2,0.1-0.4,0.1c-0.2,0-0.3-0.1-0.5-0.1c-0.2-0.1-0.4-0.2-0.7-0.2h-0.3L74.4,39.7z"/>
      <path d="M73.2,41.9C73.1,42,73,42,72.8,42c-0.1,0-0.2,0-0.3,0c-0.1,0-0.2,0-0.3,0H72v-0.2c0-0.2,0.1-0.4,0.4-0.4    c0.1,0,0.3,0.1,0.4,0.1s0.3,0.1,0.3,0.1h0.6L73.2,41.9z"/>
      <path d="M74,42.5l-0.2-0.1l0.2-0.1c0.3-0.2,0.6-0.2,1.1,0h0.2l-0.1,0.2c-0.1,0.2-0.3,0.3-0.5,0.3C74.5,42.8,74.2,42.6,74,42.5z"/>
      <path d="M78.7,44.6c-0.1,0.1-0.2,0.1-0.4,0.1c-0.4,0-0.8-0.2-1.3-0.4c-0.4-0.2-0.8-0.4-1.2-0.4L75,43.8l0.8-0.2c0.1,0,0.3,0,0.4,0    c0.5,0,1.1,0.2,1.6,0.5c0.3,0.1,0.6,0.3,0.9,0.4l0.4,0.1L78.7,44.6z"/>
      <path d="M80,35.6v-0.1h0.1c0.4-0.2,0.8-0.1,1.3,0.2c0.1,0,0.2,0,0.2,0.2s-0.2,0.2-0.4,0.2C80.1,35.9,80,35.7,80,35.6z"/>
      <path d="M81.2,36.9h-0.1v-0.1c0-0.3,0.3-0.4,0.4-0.4s0.1,0,0.1-0.1v-0.2l0.2,0.1c0.9,0.2,1.8,0.3,2.8,0.3c0.9,0,1.7,0.1,2.4,0.3    l0.4,0.1l-0.4,0c-0.7,0.3-1.7,0.4-2.4,0.4c-0.5,0-1,0-1.4-0.1h0.1c0.3,0.1,0.6,0.1,0.9,0.2c0.3,0,0.7,0,1,0.3l0.2,0.2L85.1,38    c-0.2,0.1-0.5,0.2-0.8,0.2c-0.6,0-1-0.2-1.2-0.7L83,37.2C82.3,37.1,81.7,37,81.2,36.9z"/>
      <path d="M84.3,46.1c-0.1,0.1-0.2,0.2-0.5,0.2s-0.6-0.1-0.7-0.5v-0.1l0,0c0.1-0.2,0.2-0.2,0.3-0.2c0.1,0,0.3,0.1,0.4,0.2    c0.1,0,0.1,0.1,0.2,0.1l0.1-0.2l0.1,0.2C84.3,45.9,84.3,46,84.3,46.1z"/>
      <path d="M84.9,43.5c-0.3-0.1-0.7-0.2-1.2-0.2h-0.3l0.2-0.2c0.1-0.1,0.3-0.2,0.5-0.2s0.4,0,0.5,0.1c0.1,0,0.2,0,0.3,0    c0-0.1,0-0.2,0-0.3l0.1-0.2l0.2,0.1c0.2,0.1,0.3,0.1,0.4,0.1s0.1,0,0.2-0.1c0,0,0.1-0.1,0.2-0.1l0,0l0,0c0.2,0,0.3,0.1,0.4,0.2    l0,0c0.3-0.1,0.6,0.1,0.8,0.3c0.1,0.1,0.3,0.4,0.3,0.6v0.2h-0.2C86.3,43.8,85.7,43.7,84.9,43.5z"/>
      <path d="M81.1,69.2c-0.1,0-0.2,0-0.2,0c-0.6,0-1.2-0.3-1.9-0.7c-0.8-0.4-1.6-0.8-2.5-0.8l-0.9,0.1l0.8-0.4    c0.2-0.1,0.4-0.1,0.7-0.1L77,67.2c0-0.1-0.1-0.2,0.1-0.4l0.1-0.1h0.1c0.4,0.2,0.4,0.2,0.9,0.2h0.2v0.2c0,0.1-0.1,0.2-0.3,0.2    c1.1,0.2,2.3,0.9,3.1,1.5l0.3,0.2L81.1,69.2z"/>
      <path d="M83.5,69.1c-0.1,0.1-0.3,0.1-0.4,0.1h-0.2h-0.1h-0.5l0.4-0.3c0,0,0,0,0.1,0c0-0.1,0-0.2,0-0.3v-0.1l0.8,0.2l-0.1,0.2    c0,0.1,0,0.1,0,0.1l0.2,0.1L83.5,69.1z"/>
      <path d="M86,66.3c0,0.1,0.1,0.2-0.1,0.4l-0.1,0.1h-0.1c-0.2,0-0.3-0.2-0.4-0.3c-0.1-0.1-0.1-0.1-0.2-0.1H85l0.1-0.1    c0.1-0.1,0.2-0.2,0.3-0.2C85.6,66.1,85.9,66.2,86,66.3z"/>
      <path d="M84.6,65.3c0.1-0.1,0.2-0.1,0.3-0.1c0.2,0,0.4,0.1,0.6,0.3c0.1,0.1,0.2,0.1,0.2,0.1l0.2,0.1l-0.1,0.2    c-0.1,0.1-0.3,0.2-0.5,0.2c-0.3,0-0.7-0.3-0.7-0.6V65.3L84.6,65.3z"/>
      <path d="M82.5,64.7c0-0.1,0.2-0.3,0.4-0.3c0.2,0,0.3,0.1,0.5,0.1c0.1,0,0.3,0.1,0.4,0.1l0.6,0.1l-0.6,0.2c-0.1,0-0.3,0.1-0.5,0.1    s-0.4,0-0.6-0.1h-0.3L82.5,64.7z"/>
      <path d="M82.3,66.6L82,66.5c-0.2-0.1-0.4-0.1-0.5-0.1c-0.5-0.1-1.1-0.2-1.1-0.8v-0.2l0.2,0.1c0.2,0.1,0.3,0.1,0.5,0.1    c0.5,0.1,1,0.3,1.2,0.7L82.3,66.6z"/>
      <path d="M80.8,64.4c0.1-0.2,0.2-0.3,0.4-0.3c0.1,0,0.2,0.1,0.4,0.1c0.1,0,0.2,0.1,0.2,0.1l0.3,0.1l-0.3,0.2    c-0.1,0.1-0.3,0.1-0.5,0.1c-0.1,0-0.2,0-0.4,0h-0.4L80.8,64.4z"/>
      <path d="M77.6,64.5c1.2-0.3,2.2-0.2,2.9,0.3l0.1,0.1V65c-0.1,0.2-0.4,0.3-0.7,0.3c-0.4,0-0.8-0.1-1.2-0.3    c-0.4-0.1-0.8-0.2-1.1-0.3h-1.1L77.6,64.5z"/>
      <path d="M76.4,60.8c0.1-0.2,0.2-0.3,0.4-0.3c0.2,0,0.3,0.1,0.4,0.2c0.1,0.1,0.1,0.3,0.1,0.4v0.1h-0.1c-0.3,0-0.5-0.1-0.7-0.3    L76.4,60.8L76.4,60.8z"/>
      <path d="M75.5,62.9c0-0.1,0.1-0.2,0.3-0.2c0.1,0,0.2,0,0.3,0.1c0.1,0,0.2,0.1,0.2,0.1h0.2v0.2c0,0.2-0.2,0.3-0.4,0.3    c-0.2,0-0.5-0.1-0.6-0.3V62.9L75.5,62.9z"/>
      <path d="M72.1,58.6c-0.2,0-0.3,0-0.5-0.1h-0.1v-0.1c0-0.1,0.1-0.2,0.3-0.2c0,0,0,0,0.1,0l0,0c0.1-0.1,0.2-0.4,0.6-0.4    c0.1,0,0.2,0,0.4,0.1L73,58v0.1C72.7,58.4,72.5,58.6,72.1,58.6z"/>
    </g>
    <path d="M93.5,68L93.5,68c0.1,0,0.1,0,0.1,0l0,0v-0.1c-0.1,0-0.1,0-0.2,0C93.5,67.9,93.5,67.9,93.5,68z"/>
    <path d="M143.2,34.6c-0.4-0.1-0.7-0.2-1.1-0.2C142.5,34.5,142.9,34.6,143.2,34.6C143.3,34.6,143.3,34.6,143.2,34.6z"/>
    <path d="M77.3,50.6c0.1,0,0.2,0,0.3,0c0.2,0,0.3,0,0.4,0h0.1C77.7,50.6,77.5,50.5,77.3,50.6z"/>
    <path d="M77.8,71l-0.5,0.1v0.1c0.1,0,0.2-0.1,0.4-0.1c0.5,0,1,0.3,1.4,0.5c0.1,0,0.1,0.1,0.2,0.1c0-0.1,0.1-0.2,0.2-0.2   c-0.2-0.1-0.4-0.2-0.6-0.2C78.5,71.1,78.1,70.9,77.8,71z"/>
    <path d="M99.8,13.5c0.2,0.1,0.3,0.2,0.5,0.2c1,0.4,2,0.9,2.9,0.9c-1.1-0.3-2.1-0.6-3.1-1L99.8,13.5z"/>
    <path d="M134.9,48.2L134.9,48.2v0.1c0,0.1-0.1,0.2-0.2,0.2l0,0c0.1,0,0.1,0,0.2,0c0-0.3,0.1-0.5,0.1-0.7c0,0.1-0.1,0.2-0.2,0.3   L134.9,48.2z"/>
    <path d="M95.8,29.8c-0.1,0-0.3,0-0.5,0.1h-0.1c0.1,0,0.1,0,0.2,0c0.2,0,0.4,0,0.5,0.1C95.9,29.9,95.9,29.8,95.8,29.8z"/>
    <path d="M88.2,58L88.2,58c-0.1,0-0.1-0.1-0.2-0.1h-0.1C88,58,88.1,58,88.2,58z"/>
    <path d="M133.2,47h-0.4h-0.1c0.3,0.1,0.7,0.2,1,0.2h0.4C133.8,47,133.5,47,133.2,47z"/>
    <path d="M80.7,27.4c-0.3-0.1-0.5-0.2-0.8-0.2c-0.1,0-0.3-0.1-0.4-0.1l0.1,0.1C80,27.3,80.3,27.3,80.7,27.4z"/>
    <path d="M96.2,68.9h0.1l0,0v-0.1C96.3,68.8,96.3,68.9,96.2,68.9z"/>
    <path d="M60.5,109.5h0.1H60.5z"/>
    <g>
      <path d="M52.7,116.7L52.7,116.7c4.8,1,9.7,1,14.6,0c0-0.1,0-0.1,0-0.2v-0.1h0.1c0.2,0,0.5,0,0.9,0.1c0.1,0,0.2-0.1,0.3-0.1    c0-0.1,0.1-0.2,0.2-0.2s0.1,0,0.1,0.1c1.8-0.4,3.6-1,5.3-1.7c-1.7-0.2-3-0.4-4.1-0.7H70v-0.1c0-0.1,0-0.3,0.2-0.3    c-0.2-0.1-0.4-0.1-0.6-0.1s-0.4-0.1-0.5-0.1v0.1c0,0.1-0.2,0.3-0.5,0.3c-0.1,0-0.2,0-0.3,0c-0.1,0-0.2,0-0.3,0h-0.1l-0.1-0.1v-0.1    c0.1-0.2,0.8-0.2,0.9-0.2h0.1c-0.1-0.1-0.2-0.2-0.3-0.4c-1.3,0-2.8-0.4-4.3-0.8c-0.8-0.2-1.5-0.4-2.3-0.5l-0.6-0.1l0.5-0.2    c0.4-0.1,1,0,1.5,0.1c0.3,0.1,0.5,0.1,0.8,0.2c-0.6-0.3-1.4-0.4-2.2-0.6c-0.7-0.1-1.4-0.2-1.8-0.4l-0.4-0.2l0.4-0.1H60v-0.1    c0-0.1,0-0.1,0-0.2s0-0.2,0-0.3c-0.2,0-0.4,0-0.5,0c-0.1,0.1-0.2,0.2-0.3,0.3l0,0l0,0c-0.2,0.1-0.4,0.2-0.6,0.2s-0.3-0.1-0.4-0.2    c-0.3,0.1-0.6,0.1-0.9,0.1l-0.1,0.2V110h-0.1c-0.2,0-0.5-0.1-0.7-0.1c-0.1,0.1-0.2,0.1-0.3,0.1s-0.1,0-0.2,0.1l-0.2,0.1V110l0,0    h-0.2l0.2-0.1c0,0,0,0,0-0.1c-0.4-0.1-0.8-0.2-0.9-0.6v-0.4l0.3,0.2c0.2,0.1,0.6,0.2,0.9,0.2c0.5,0,1.1,0.1,1.3,0.4    c0.2-0.2,0.6-0.1,1-0.1h0.1v0.1h0.1c0.2,0,0.4,0.1,0.5,0.1v-0.1c0-0.1-0.2-0.1-0.3-0.1c-0.2-0.1-0.6-0.2-0.4-0.6v-0.1h0.1    c0.8,0.3,1.6,0.3,2.2,0.4c0.3,0,0.6,0.1,0.9,0.1l0.3,0.1l-0.2,0.2c-0.2,0.2-0.4,0.2-0.9,0.2h-0.1c0.1,0.1,0.1,0.2,0.1,0.3    c0,0.1-0.1,0.2-0.2,0.3h0.1c0.2,0,0.4,0,0.5,0v-0.1c0-0.2,0.2-0.3,0.5-0.3c0.2,0,0.3,0,0.5,0.1c0.2,0,0.5,0.1,0.7,0.1H63l-0.1,0.2    c-0.1,0.3-0.3,0.4-0.6,0.4c-0.2,0-0.4-0.1-0.6-0.1c-0.2-0.1-0.4-0.1-0.5-0.1c0.4,0.1,0.9,0.2,1.4,0.3c0.1-0.1,0.2-0.2,0.5-0.2    s0.7,0,0.8-0.3l0.1-0.2l0.1,0.2c0.1,0.2,0.3,0.2,0.6,0.2c0.2,0,0.5,0.1,0.7,0.3c0.3-0.2,0.7-0.3,1.1-0.3h0.2v0.2    c-0.1,0.2-0.1,0.3-0.1,0.4s0,0.1,0,0.2h0.2c0.6,0.2,1.2,0.3,1.6,0.1l0.2-0.1v0.3c0,0.2,0,0.2,0.1,0.3h0.2l-0.1,0.1    c0.1,0.1,0.3,0.1,0.5,0.2v-0.1c0.6,0.1,1.3,0.3,2.1,0.5c1.3,0.4,2.8,0.8,4.1,0.7h0.1l0,0c0.2,0.2,0.4,0.3,0.7,0.4    c1-0.5,2.1-1.1,3.1-1.7c8.1-5,13.6-12.4,16.3-20.8c-0.2,0-0.3,0-0.5,0c-0.7,0-1.4-0.2-2.2-0.3c-0.3-0.1-0.5-0.1-0.8-0.2H92    l0.1-0.2c0.1-0.2,0-0.3-0.1-0.4c0,0.1-0.1,0.2-0.3,0.2l0,0c0,0.1-0.1,0.2-0.4,0.2c-0.2,0-0.5-0.1-0.6-0.3c0-0.1-0.1-0.2,0-0.3    l0.1-0.1h0.1c0.2,0.1,0.4,0.1,0.5,0.1s0.1,0,0.2,0c-0.1,0-0.1-0.1-0.2-0.1c-0.2-0.1-0.5-0.2-0.7-0.3L90.5,89h0.6    c0.8,0.1,1.7,0.4,2.6,0.7c0.8,0.3,1.7,0.6,2.5,0.7c0.2-0.7,0.4-1.4,0.6-2.1h-0.1v-0.2c0,0,0,0-0.1,0l0,0c0,0,0,0-0.1,0    s-0.3-0.1-0.6-0.2c0,0,0,0,0-0.1h-0.1V88c-0.1,0-0.1,0-0.2-0.1c0.1,0,0.1,0,0.2,0v-0.2c0.3,0,0.9,0.2,1,0.4    c0.1-0.4,0.2-0.9,0.3-1.3c-0.5,0.1-1,0.1-1.5,0.1c-0.8,0-1.4-0.1-2.2-0.4l-0.3-0.1l0.3-0.2c0.2-0.1,0.4-0.2,0.8-0.2    s0.8,0.1,1.2,0.2c0.1,0,0.1,0,0.2,0c-0.8-0.3-1.7-0.5-2.8-0.8c-0.8-0.2-1.5-0.3-2.3-0.6h-0.1v-0.1c0-0.1,0-0.1,0-0.2    c-0.9-0.3-2-0.3-3.1-0.3c-1.6,0-3.3-0.1-4.5-0.9L82.4,83h0.5c0.5,0,1,0.1,1.6,0.2c-1.7-0.5-3.6-1-5.4-1.5C79,82.1,79,82.6,78.9,83    c-0.6,3.1-2,6-4,8.4c-1.6,2.6-3.8,4.8-6.4,6.4c-0.4,0.2-0.7,0.4-1.1,0.6h0.3l0,0h0.1c0.1-0.1,0.4-0.1,0.7,0h0.1v0.1    c0,0.2-0.1,0.3-0.1,0.5v0.1h-0.1c-0.2,0-0.4-0.1-0.6-0.1h-0.2l0.1-0.2c0-0.1,0-0.1,0-0.1l-0.4-0.2c-2.8,1.4-5.8,2.2-9,2.2    c-2,0-3.9-0.3-5.8-0.9c-4.5-1.4-8.4-4.4-10.9-8.4c0-0.1-0.1-0.2-0.1-0.2h-0.1v-0.1c-0.1-0.2-0.2-0.3-0.3-0.5    c-0.2-0.1-0.4-0.2-0.6-0.4c-0.9-0.6-1.7-1.1-2.9-1.4h-0.1v-0.1c-0.1-0.2-0.3-0.4-0.6-0.5c-0.3-0.2-0.7-0.3-0.8-0.7l0,0l0,0    c0-0.3,0.2-0.3,0.3-0.3l0,0l0,0c0.7,0.2,1.5,0.6,2.2,1c0.6,0.3,1.1,0.6,1.7,0.8c-1.4-3.3-1.9-7-1.4-10.6c0.3-1.8,0.8-3.5,1.5-5.2    H22.2c-1.4,8.7,0.2,17.9,5.2,26c5,8.2,12.7,13.8,21.2,16.4C49.9,116.2,51.3,116.5,52.7,116.7L52.7,116.7z"/>
      <path d="M66.7,116.1c-0.1,0.2-0.4,0.3-0.7,0.3c-0.4,0-0.8-0.2-0.9-0.5v-0.1l0.1-0.1c0.2-0.1,0.6,0,1,0.1c0.2,0,0.3,0.1,0.5,0.1    h0.2L66.7,116.1z"/>
      <path d="M65.3,112.5c0.4,0.2,0.6,0.2,0.9,0.2c0.2,0,0.5,0,0.9,0.2l0.2,0.1l-0.2,0.2c-0.2,0.1-0.5,0.2-0.8,0.2    c-0.6,0-1.2-0.2-1.2-0.7v-0.3L65.3,112.5z"/>
      <path d="M63.4,113.2c0.1-0.1,0.3-0.1,0.5-0.1c0.4,0,0.9,0.3,1.2,0.5c0.2,0.1,0.4,0.2,0.5,0.3l0.3,0.1c0-0.1,0.1-0.1,0.1-0.2    c0.1-0.1,0.1-0.1,0.2-0.2l0.1-0.1h0.1c0.2,0,0.3,0.1,0.4,0.2s0.1,0.3,0,0.4l-0.1,0.2l-0.2-0.1c-0.1,0-0.1,0-0.2,0s-0.3,0.1-0.5,0    l-0.1-0.1V114l-0.1,0.1c-0.2,0.1-0.4,0.1-0.6,0.1c-0.5,0-0.9-0.3-1.2-0.5c-0.2-0.1-0.3-0.2-0.4-0.2l-0.7,0.1L63.4,113.2z"/>
      <path d="M90.5,93.4c0-0.1,0.1-0.2,0.4-0.2c0.2,0,0.5,0.1,0.6,0.3c0,0.1,0.1,0.2,0,0.3v0.1c0.1,0.1,0.1,0.1,0.1,0.2l0,0l0,0    c0,0.1-0.2,0.2-0.3,0.2c-0.2,0-0.5-0.2-0.6-0.3v-0.1v-0.1c0-0.1,0.1-0.1,0.1-0.2C90.7,93.6,90.6,93.5,90.5,93.4L90.5,93.4    L90.5,93.4z"/>
      <path d="M86.4,100.3l-0.3-0.1l0.2-0.2c0.2-0.1,0.3-0.2,0.5-0.2s0.4,0.1,0.5,0.2c0.2,0.1,0.4,0.3,0.8,0.2h0.3l-0.2,0.3    c-0.1,0.1-0.2,0.3-0.5,0.3c-0.4,0-0.9-0.2-1.2-0.4C86.5,100.3,86.4,100.3,86.4,100.3z"/>
      <path d="M88.3,101.2c-0.1,0.1-0.2,0.2-0.5,0.2s-0.7-0.1-0.8-0.2l-0.2-0.2H87c0.3-0.1,0.7-0.1,1.1,0h0.3L88.3,101.2z"/>
      <path d="M88.7,93.9c0.2,0,0.3-0.1,0.3-0.3v-0.2h0.2c0.2,0,0.3,0.1,0.5,0.1h0.1l-0.2,0.7h-0.3c-0.1,0-0.2,0-0.3,0h-0.3    c-0.3,0-0.6,0-0.8,0.1l0,0l0,0c-0.1,0-0.2,0-0.2-0.1c-0.1-0.1-0.1-0.2-0.1-0.2l-0.3-0.1l0.3-0.2c0.2-0.1,0.4-0.1,0.7-0.1    C88.5,93.9,88.6,93.9,88.7,93.9z"/>
      <path d="M87.4,93.2c0.1,0,0.3,0.1,0.5,0.1h0.2L88,93.5c-0.1,0.2-0.3,0.3-0.6,0.3c-0.2,0-0.5-0.1-0.8-0.1l-0.4-0.1l0.2-0.2    C86.7,93.1,87,93.1,87.4,93.2z"/>
      <path d="M85.6,91.8c0-0.1,0.1-0.3,0.4-0.3c0.1,0,0.3,0,0.5,0.1c0.1,0,0.2,0.1,0.3,0.1h0.3L86.9,92c-0.2,0.2-0.5,0.2-0.6,0.2    s-0.4,0-0.6-0.2L85.6,91.8L85.6,91.8z"/>
      <path d="M83.3,86c0.1,0.1,0.1,0.2,0.1,0.4v0.2l-0.2-0.1c-0.1,0-0.3-0.1-0.4-0.1c-0.3,0-0.5-0.1-0.6-0.2s-0.1-0.2,0-0.3v-0.1h0.1    C82.5,85.7,83.1,85.7,83.3,86z"/>
      <path d="M81.4,83.7c0.1-0.2,0.2-0.3,0.4-0.3c0.1,0,0.3,0.1,0.4,0.2c0.3,0.1,0.5,0.1,0.5,0.3c0,0.2-0.2,0.2-0.4,0.2    C81.9,84.1,81.5,84.1,81.4,83.7L81.4,83.7L81.4,83.7z"/>
      <path d="M81.3,102.8c0.1-0.1,0.4-0.2,0.7-0.2c0.8,0,1.9,0.3,2.5,0.6l0.2,0.1l-0.1,0.1c-0.1,0.1-0.3,0.1-0.3,0.1    c-0.1,0-0.1,0-0.2,0s-0.1,0-0.2,0s-0.1,0-0.1,0.1l-0.1,1l-0.2-1c-0.1-0.3-0.4-0.4-1-0.4c-0.4,0-0.8-0.1-1.1-0.2l-0.2-0.1    L81.3,102.8z"/>
      <path d="M79.1,107.3c0-0.2,0.2-0.3,0.5-0.3c0.2,0,0.5,0.1,0.6,0.2l0.1,0.1l-0.1,0.1c-0.1,0.1-0.2,0.2-0.3,0.2c-0.1,0-0.1,0-0.2,0    s-0.2-0.1-0.4,0h-0.2V107.3z"/>
      <path d="M76.2,97.8v0.1h-0.1c-0.1,0-0.1,0-0.4-0.1s-0.8-0.2-1.4-0.3h-0.1v-0.1c0-0.1,0.1-0.2,0.3-0.2c0.3,0,1,0.2,1.2,0.3    C76.2,97.7,76.2,97.7,76.2,97.8z"/>
      <path d="M75.4,99.8L75.4,99.8c-0.1,0.3-0.2,0.4-0.4,0.4c-0.2,0-0.4-0.1-0.4-0.2c-0.1-0.1-0.1-0.3,0-0.4v-0.1h0.1    C75,99.5,75.2,99.6,75.4,99.8L75.4,99.8z"/>
      <path d="M73.6,93.7l0.1-0.1l0.8,0.2v0.1c0,0.3-0.3,0.4-0.5,0.4s-0.3-0.1-0.4-0.2C73.5,94.1,73.5,94,73.6,93.7z"/>
      <path d="M72.5,106.1c0.5,0,1.8,0.4,2.5,0.7l0,0c0.2-0.2,0.5-0.1,0.8,0c0.1,0,0.3,0.1,0.4,0.1h0.3l-0.2,0.2    c-0.1,0.1-0.3,0.2-0.4,0.2c-0.2,0-0.4-0.1-0.6-0.2c0,0-0.1,0-0.1-0.1l0.1,0.3l-0.4-0.2L75,107l0,0l-0.1,0.1l0,0l0,0    c-0.1,0-0.3-0.1-0.5-0.1c-1-0.2-1.8-0.3-2-0.6l-0.2-0.3H72.5z"/>
      <path d="M66.7,105.3c0.1,0,0.3,0,0.4,0c0.6,0,1.2-0.1,2.1,0.4l0.4,0.2l-0.4,0.1c-0.2,0.1-0.4,0.1-0.6,0.1c-0.1,0-0.3,0-0.4,0    c0.1,0.1,0.2,0.3,0,0.5v0.1h-0.1c-0.3,0-0.5-0.1-0.7-0.2s-0.3-0.1-0.4-0.1c0,0-0.1,0-0.2,0.2l-0.1,0.2l-0.2-0.1    c-0.4-0.3-0.5-0.3-1.2-0.5h-0.1v-0.1c0-0.2,0.1-0.3,0.1-0.5v-0.2h0.2C66,105.3,66.4,105.3,66.7,105.3z"/>
      <path d="M63.9,105c0.1-0.4,0.5-0.5,0.8-0.5s0.5,0.1,0.6,0.3v0.1v0.1c-0.1,0.4-0.5,0.4-0.6,0.4s-0.2,0-0.3,0c-0.1,0-0.3,0-0.4,0    h-0.2L63.9,105z"/>
      <path d="M62.4,104.8c0-0.2,0.2-0.4,0.4-0.4c0.3,0,0.8,0.2,0.9,0.4l0.1,0.1l-0.1,0.1c-0.1,0.1-0.2,0.1-0.3,0.1S63.1,105,63,105    c-0.1-0.1-0.2-0.1-0.3-0.1l-0.2,0.1L62.4,104.8z"/>
      <path d="M61,106.7c0-0.1,0.1-0.3,0.4-0.3c0.2,0,0.6,0.1,1,0.2c0.6,0.2,1.2,0.3,1.4,0.2l0.1-0.1H64c0,0,0.2,0.1,0.2,0.2    s-0.1,0.2-0.1,0.2c-0.1,0.1-0.1,0.1-0.1,0.2l0.1,0.2h-0.2c-0.7,0-1.1-0.2-1.5-0.3c-0.4-0.1-0.7-0.3-1.1-0.3H61V106.7z"/>
      <path d="M24.4,77.8c-0.1,0.2-0.3,0.3-0.5,0.3c-0.1,0-0.2,0-0.3-0.1c-0.1-0.1-0.1-0.2-0.1-0.4v-0.2h0.2c0.1,0,0.2,0,0.2,0    c0.2,0,0.3,0,0.5,0.2L24.4,77.8L24.4,77.8z"/>
      <path d="M35.9,77.1L35.9,77.1l0.1-0.2l0.2,0.1c0.2,0.1,0.4,0.2,0.2,0.7v0.1h-0.1c-0.2,0-0.4-0.1-0.6-0.1h-0.1v-0.1    C35.5,77.1,35.8,77.1,35.9,77.1z"/>
      <path d="M36.9,105.7l0.4,1.1l-0.6-0.8c-0.1-0.1-0.2-0.1-0.4-0.2h-0.2l0.1-0.5c-0.2,0-0.3,0-0.4,0.1c-0.1,0.1-0.2,0.1-0.4,0.1    c-0.1,0-0.2-0.1-0.3-0.2l0,0v-0.1c0-0.2,0-0.3,0.1-0.4s0.3-0.2,0.5-0.2s0.4,0,0.7,0.1c0.2,0,0.3,0.1,0.5,0.1l1,0.1l-1,0.2    c-0.1,0-0.1,0-0.1,0C36.7,105.3,36.8,105.5,36.9,105.7z"/>
      <path d="M39.6,97.5c0,0.2-0.2,0.3-0.4,0.3c-0.3,0-0.8-0.3-0.9-0.4l-0.1-0.2l0.2-0.1c0.1,0,0.2-0.1,0.4-0.1    C38.9,97.2,39.5,97.2,39.6,97.5L39.6,97.5L39.6,97.5z"/>
      <path d="M44.2,108.6v0.2l-0.2-0.1c-0.2-0.1-0.3-0.1-0.3,0c-0.1,0-0.2,0-0.4,0h-0.2l0.1-0.2c0.1-0.1,0.1-0.2,0.2-0.2h0.1    c0-0.1-0.1-0.2,0-0.4l0.2-0.9l0.1,0.9c0,0.1,0.1,0.1,0.2,0.2C44.1,108.1,44.3,108.3,44.2,108.6z"/>
      <path d="M44.4,105.3c-0.1,0.1-0.2,0.2-0.4,0.2s-0.3-0.1-0.5-0.2l-0.1-0.1v-0.1c0-0.2,0.2-0.3,0.4-0.3s0.5,0.1,0.6,0.3V105.3    L44.4,105.3z"/>
      <path d="M52.7,102.3L52.7,102.3v-0.1c0-0.1,0.1-0.2,0.4-0.2c0.2,0,0.5,0.1,0.6,0.3c0,0.1,0.1,0.2,0,0.3l-0.1,0.1h-0.1    C53.1,102.6,52.8,102.6,52.7,102.3z"/>
      <path d="M53.2,105.6l-0.2-0.2l0.3-0.1c0.2-0.1,0.5,0,0.7,0.1s0.4,0.1,0.6,0.1l0.5-0.1l-0.4,0.3c-0.1,0.1-0.3,0.1-0.5,0.1    C53.9,105.9,53.5,105.8,53.2,105.6z"/>
      <path d="M55.2,108.2c0,0.2-0.2,0.3-0.4,0.3s-0.4-0.1-0.5-0.2c0-0.1-0.1-0.2,0.1-0.4l0.1-0.1h0.1c0.3,0,0.5,0.1,0.7,0.3L55.2,108.2    L55.2,108.2z"/>
      <path d="M57.9,107.8c-0.1,0.2-0.2,0.3-0.5,0.3c-0.1,0-0.3,0-0.5-0.1c-0.1,0-0.1,0-0.2,0l-0.6-0.1l0.7-0.2c0.3-0.1,0.6-0.2,1-0.1    H58L57.9,107.8z"/>
      <path d="M59.3,106.1C60.4,105.9,60.1,106.6,59.3,106.1L59.3,106.1z"/>
      <path d="M58.6,105.6v-0.1h0.2c0.1,0,0.2,0.1,0.2,0.2c0.1,0,0.2,0,0.3,0h0.2l-0.1,0.2c-0.1,0.2-0.2,0.4-0.4,0.4    c-0.1,0-0.3-0.1-0.4-0.1c-0.1,0-0.2-0.1-0.3-0.1h-0.1V106c0-0.1,0-0.2,0-0.3c0,0,0.1-0.1,0.2-0.1    C58.5,105.5,58.5,105.6,58.6,105.6L58.6,105.6z"/>
      <path d="M57.1,103.3c0,0,0.1-0.1,0.2-0.1h0.1c0,0,0,0,0.1,0l0,0l-0.1-0.5l0.3,0.3c0.1,0.1,0.1,0.1,0.1,0.2s0,0.1,0.1,0.1h0.4    l-0.3,0.2c-0.1,0.1-0.3,0.1-0.5,0.1c-0.1,0-0.2,0-0.4,0H57v-0.1C57.1,103.4,57.1,103.3,57.1,103.3z"/>
      <path d="M56.9,104.3c0.1,0,0.2,0.1,0.2,0.1h0.2v0.2c0,0.2-0.2,0.3-0.4,0.3s-0.5-0.1-0.6-0.3v-0.1v-0.1c0-0.1,0.1-0.2,0.3-0.2    C56.6,104.2,56.8,104.3,56.9,104.3z"/>
      <path d="M49.7,107.6c-0.1,0.1-0.3,0.2-0.5,0.2s-0.5,0-0.7-0.1c-0.2,0-0.3-0.1-0.4-0.1h-0.2l0,0c-0.4-0.1-0.8-0.2-0.9-0.5l0,0l0,0    c0-0.2,0.2-0.3,0.4-0.3h0.1h0.1c0.1,0,0.1,0,0.1,0l0.1-0.1h0.1c0.4,0.1,0.5,0.4,0.5,0.6l0,0c0.2,0,0.4,0,0.6,0c0.1,0,0.2,0,0.3,0    s0.1,0,0.2-0.1l0.2-0.3v0.4C49.8,107.4,49.8,107.5,49.7,107.6z"/>
      <path d="M51.5,113.7l-0.1,0.1l-0.2-0.1c-0.2-0.1-0.4-0.2-0.8-0.3h-0.2l0.1-0.2c0.1-0.1,0.2-0.1,0.4-0.1s0.7,0.1,0.8,0.3    C51.6,113.5,51.6,113.6,51.5,113.7z"/>
      <path d="M51.8,102.1c-0.1,0.1-0.3,0.1-0.5,0.1c-0.1,0-0.1,0-0.2,0l0,0c0.1,0.1,0.2,0.2,0.5,0.2h0.2v0.2c0,0.2-0.2,0.3-0.4,0.3    s-0.4-0.1-0.5-0.2c0-0.1-0.1-0.2,0.1-0.4v-0.1c-0.2,0-0.3-0.1-0.5-0.1l0.1,0.1h0.1h-0.1l0,0c0,0.1-0.1,0.2-0.4,0.1v0.1    c0,0,0,0,0.1,0h0.3l-0.2,0.2c-0.1,0.1-0.2,0.2-0.4,0.2c-0.1,0-0.2,0-0.4-0.1c-0.1,0-0.3-0.1-0.5-0.1h-0.4l0.3-0.2    c0.2-0.1,0.3-0.2,0.5-0.2l0,0h0.1c0.1,0,0.2-0.1,0.3-0.1l0,0V102H50h0.1l0,0l-0.3-0.1l0.2-0.2c0.1-0.2,0.3-0.3,0.6-0.3    s0.5,0.1,0.8,0.2c0.1,0,0.2,0.1,0.4,0.1l0.4,0.1L51.8,102.1z"/>
      <path d="M52.1,101.4h-0.5l0.3-0.3c0.2-0.2,0.6-0.2,0.8-0.2c0.4,0,0.8,0.1,1.1,0.3h0.1v0.1c0,0.1,0,0.2-0.1,0.2    c0.2,0,0.3,0,0.5-0.1l0,0h0.1c0.2-0.1,0.3-0.2,0.3-0.4v-0.1h0.1c0.3,0,0.5,0.1,0.6,0.2c0,0,0,0,0.1,0l0.3-0.2l-0.2,0.3    c0.1,0,0.2,0.1,0.3-0.1L56,101h0.1c0.1,0.1,0.2,0.1,0.2,0.2c0,0.2-0.1,0.3-0.1,0.4h0.1l-0.1,0.2c0,0.1-0.2,0.2-0.4,0.2    c-0.1,0-0.1,0-0.2,0l0.1,0.1v0.1v0.1c0,0.1-0.1,0.3-0.4,0.3c-0.1,0-0.3,0-0.5-0.1c-0.1,0-0.2-0.1-0.3-0.1h-0.4l0.3-0.2    c0.1,0,0.1-0.1,0.1-0.2h-0.1c0,0.1-0.1,0.2-0.1,0.3c-0.1,0.1-0.3,0.2-0.5,0.2c-0.5,0-1.2-0.3-1.5-0.5l-0.1-0.1v-0.1    c0-0.1,0.1-0.1,0.2-0.2C52.5,101.3,52.3,101.3,52.1,101.4z"/>
    </g>
    <path d="M78.1,70.6c-0.4-0.1-0.8-0.2-1.2-0.4c0.1,0.3,0.3,0.5,0.4,0.8l0.5-0.3C77.9,70.6,78,70.6,78.1,70.6z"/>
    <g>
      <path d="M97.8,77.9c-0.5-0.2-1-0.4-1.7-0.7H96v-0.1c0-0.1,0.1-0.3,0.4-0.3h0.1c0,0,0-0.1-0.1-0.1c0-0.1,0-0.2,0.1-0.3l0.1-0.1    l0.1,0.1c0.2,0.1,0.2,0.1,0.3,0.1h0.1h0.1v-0.1l0,0L97,76.3l0.1-0.2c0.1-0.1,0.2-0.2,0.3-0.2c0.1,0,0.2,0.1,0.3,0.1    c0-0.2,0-0.3,0-0.5c-0.1,0-0.3-0.1-0.4-0.1L97,75.6c-0.1,0.1-0.3,0.1-0.5,0.1c-0.4,0-0.8-0.1-1.2-0.3c-0.3-0.1-0.7-0.2-1-0.2    l-0.6-0.1l0.5-0.2c0.2-0.1,0.4-0.1,0.7-0.1c0.1,0,0.2,0,0.3,0c-1.9-0.5-3.8-1.1-5.8-1.5l-0.3,0.2c-0.3,0.2-0.8,0.1-1.3-0.1    c-0.3-0.1-0.7-0.2-1.1-0.3h-0.1V73c-0.1-0.1-0.1-0.2-0.1-0.3c0-0.1,0-0.1-0.2-0.2c-0.8-0.1-1.6-0.3-2.3-0.6    c-0.9-0.3-1.7-0.5-2.6-0.6c-0.2,0.2-0.5,0.3-0.8,0.3c-0.2,0-0.4,0-0.6-0.1l0,0c0.2,0.5,0.8,0.5,1.5,0.5c0.4,0,0.7,0,1.1,0.1    l0.6,0.2l-0.6,0.1v0.1c0,0.1,0,0.1-0.1,0.2c0.1,0,0.2,0,0.3,0c0.3,0,0.7,0,0.8,0.5v0.1v0.1c-0.2,0.2-0.3,0.3-0.5,0.3    c-0.3,0-0.5-0.2-0.8-0.4c-0.1-0.1-0.3-0.2-0.4-0.3c-0.6-0.2-1.1-0.3-1.8-0.4c-0.7-0.1-1.5-0.3-2.3-0.5c0.1,0.2,0.2,0.4,0.2,0.5    c0.3,0.9,0.6,1.9,0.8,2.9l0.3,0.1c0.2,0,0.4,0.1,0.7,0.1c0.2,0,0.4,0,0.6,0.1l0,0l0.1-0.1c0.1-0.1,0.2-0.1,0.3-0.1    c0.1,0,0.2,0.1,0.3,0.2c0.1,0.1,0.2,0.2,0.3,0.1l0.5-0.1l-0.4,0.3l-0.1,0.1c0.1,0,0.1,0,0.2,0c0.3,0,0.6,0.1,0.6,0.4v0.1h-0.1    c0,0.3-0.3,0.3-0.6,0.3c-0.9,0-2.2-0.6-2.5-1.1l-0.1-0.2C79,76,79,76.3,79,76.5c0,0,0,0,0.1,0l0.1,0.1v0.1l0,0    c0.2,1.4,0.2,2.8,0.1,4.2c0.7,0.1,1.4,0.3,2,0.5c2.1,0.7,4.6,1.3,7.2,1.9c1.1,0.3,2.2,0.5,3.3,0.8H92v0.1c0,0.2-0.2,0.2-0.3,0.3    c0.7,0.1,1.3,0.2,1.8,0.4c1.4,0.3,2.7,0.5,4,0.8C97.8,83.2,97.9,80.6,97.8,77.9z"/>
      <path d="M82.8,77.6c0,0.1-0.1,0.1-0.3,0.1c-0.2,0-0.5-0.1-0.7-0.2l-0.1-0.1v-0.1c0-0.1,0.1-0.2,0.3-0.2c0.1,0,0.2,0,0.3,0.1    c0.1,0,0.1,0.1,0.2,0.1l0.1-0.4l0.2,0.4C82.9,77.4,82.9,77.5,82.8,77.6z"/>
      <path d="M87.7,74.1c0-0.1-0.1-0.2,0-0.4l0.1-0.1l0.7,0.2v0.1c0,0.3-0.2,0.4-0.4,0.4C87.9,74.3,87.8,74.3,87.7,74.1z"/>
      <path d="M88.4,74.8h-0.2v-0.2c0.1-0.4,0.5-0.4,0.7-0.5c0.2,0,0.3,0,0.4-0.1l0.1-0.1l0.1,0.2c0.1,0.2,0.3,0.2,0.5,0.3    c0.2,0,0.4,0.1,0.7,0.2l0.2,0.1l-0.2,0.1l0,0h0.1H91l0.1,0.2c0,0,0,0.1-0.1,0.1c0.6,0.3,1.4,0.6,2,1l0.2,0.1L93,76.3    c-0.2,0.2-0.5,0.2-0.8,0.2c-0.6,0-1.2-0.4-1.9-0.9C89.7,75.4,89.1,74.9,88.4,74.8z"/>
      <path d="M92,83.3c-0.2-0.1-0.4-0.2-0.7-0.2h-0.1l0-0.1L91,82.7h0.3h0.1c0.2,0,0.4-0.1,0.7-0.1c0.3,0,0.5,0.1,0.6,0.2    s0.1,0.2,0.1,0.4v0.1h-0.1h-0.1C92.4,83.4,92.2,83.3,92,83.3z"/>
      <path d="M94.3,84.1c-0.2,0.1-0.4,0.2-0.7,0.2c-0.2,0-0.4,0-0.7-0.1h-0.1v-0.1c0-0.1,0.1-0.2,0.1-0.3l0.1-0.1v-0.3l0.2,0.2    c0.1,0.1,0.2,0.1,0.4,0.1c0.2,0,0.4,0.1,0.6,0.2l0.2,0.1L94.3,84.1z"/>
      <path d="M94.9,79.9c-0.2,0-0.4,0-0.6-0.1c-0.2,0-0.4-0.1-0.6-0.1h-0.4l0.2-0.3c0.2-0.2,0.3-0.2,0.6-0.2c0.2,0,0.5,0.1,0.7,0.2    c0.1,0,0.2,0.1,0.3,0.1l0.5,0.1l-0.5,0.2C95.1,79.9,95,79.9,94.9,79.9z"/>
      <path d="M96.8,81.3c-0.2,0-0.4-0.1-0.6-0.1c-0.2-0.1-0.5-0.1-0.7-0.1h-0.3l0.2-0.3c0.1-0.2,0.3-0.3,0.6-0.3c0.2,0,0.5,0.1,0.8,0.1    c0.1,0,0.3,0.1,0.4,0.1h0.2L97.3,81C97.2,81.2,97,81.3,96.8,81.3z"/>
    </g>
    <g>
      <path d="M146.1,53.5c-0.3-0.1-0.6-0.2-0.9-0.3c-0.1,0-0.3-0.1-0.3-0.2c0-0.1,0.1-0.2,0.1-0.2c-0.6-0.1-1-0.2-1.4-0.2    s-0.8,0-1.3-0.2h-0.2v-0.1c-2.8-0.7-6.3-1.6-9.2-1.8h-0.2l0.1-0.2c0,0,0-0.1,0.1-0.1c-0.5-0.1-0.9-0.2-1.4-0.2    c-0.7-0.1-1.4-0.2-2-0.5l-0.1-0.1v-0.1c0.1-0.3,0.3-0.5,0.6-0.5c0.2,0,0.5,0.1,0.6,0.1s0.2,0,0.2,0.1c1.5,0.3,3.6,0.8,5.9,1.3    c1,0.2,2,0.5,3,0.7c0.8,0.2,1.5,0.3,2.3,0.5c1.5,0.3,2.9,0.6,4.1,1l0,0c0.2-2.3,0.1-4.7-0.1-7c-0.5-0.2-1.1-0.3-1.7-0.5l-0.6-0.1    l0.6-0.2c0.1,0,0.3-0.1,0.5-0.1c0.4,0,0.7,0.1,1.1,0.2c-0.1-1-0.3-2-0.5-3c-0.1,0-0.3-0.1-0.3-0.2c-0.1-0.1-0.1-0.2-0.1-0.4v-0.1    h0.1h0.1c-0.3-1.1-0.6-2.2-0.9-3.3c-0.3-0.1-0.5-0.1-0.8-0.2c-0.8-0.2-1.6-0.4-2.3-0.7l-0.6-0.3h0.8c0.8,0,1.7,0.1,2.6,0.3    c-0.2-0.6-0.4-1.2-0.7-1.7c-0.8-0.2-1.5-0.5-2-0.8l0.1-0.2c-1.9-0.4-3.7-0.8-5.5-1h-0.3l0.2-0.2c0.1-0.1,0.1-0.1,0.2-0.2    c-0.2,0-0.4-0.1-0.5-0.2l-0.1-0.2l0.2-0.1c0.2-0.1,0.5-0.2,0.8-0.2c0.5,0,1.1,0.2,1.6,0.4s1,0.3,1.5,0.3c0.1,0,0.3,0,0.4,0    c0.1-0.1,0.3-0.1,0.3,0.1l0,0c0.9,0.3,1.8,0.5,2.6,0.7c-0.6-1.4-1.4-2.7-2.2-4.1c-1.6-2.6-3.4-4.9-5.5-6.9c-1.5-0.1-2.9-0.4-4.5-1    l-1-0.4l1,0.1c1.1,0.1,2.4,0.3,3.7,0.6c-0.1-0.1-0.1-0.1-0.2-0.2c-0.9-0.2-1.8-0.4-2.6-0.6L131,21l0,0c-0.1,0-0.2,0-0.3,0.1    c-0.1,0-0.1,0.1-0.2,0.1h-0.1c-0.2-0.1-0.3-0.2-0.4-0.3c-0.1-0.1-0.1-0.2-0.2-0.2c-0.4-0.1-0.9-0.2-1.4-0.2c-0.8,0-1.5,0.1-2,0.2    l0,0l0,0c-0.3-0.1-0.6-0.2-0.9-0.2c-0.6-0.1-1.1-0.2-1.5-0.5l-0.1-0.1l0.1-0.1c0.1-0.1,0.1-0.1,0.2-0.1c-2.9-0.7-5.5-1.2-8-1.6    c-2.8-0.5-5.4-1-8.3-1.7l-0.2-0.1l0.1-0.2c0.1-0.1,0.2-0.2,0.4-0.2c0.1,0,0.3,0,0.4,0.1c0.1,0,0.2,0.1,0.3,0.1    c-0.5-0.3-0.9-0.2-1.4-0.1c-0.2,0.1-0.5,0.1-0.8,0.1s-0.5,0-0.8-0.1h-0.1v-0.1c0-0.1,0.1-0.2,0.3-0.2h0.1c0,0,0,0,0.1,0    c0,0,0,0,0.1,0c-0.7-0.2-1.4-0.4-2.1-0.6c-0.2,0-0.4-0.1-0.5-0.2c0.1,0.1,0.1,0.3,0.1,0.4c0,0.1,0,0.1,0,0.2    c0.1,0,0.2,0.1,0.3,0.1l0.9,0.3h-0.8l0.1,0.1l-0.2-0.1c-0.2,0-0.3,0-0.4-0.1c-0.9-0.3-1.8-0.4-2.7-0.6c-1.6-0.3-3.3-0.6-5-1.4l0,0    c0,0,0,0-0.1,0l0,0c0,0.1-0.1,0.2-0.2,0.2l-0.1,0.1L95.6,14c0,0-0.1,0-0.1-0.1c-0.1,0-0.2,0.1-0.4,0.1c0.2,0.1,0.3,0.1,0.5,0.2    v-0.1c0.5,0.1,1.5,0.5,2.6,1c1.3,0.6,2.8,1.3,4.2,1.7l-0.1,0.3c-1.7-0.2-3.2-0.9-4.7-1.5c-0.8-0.4-1.6-0.7-2.4-1    c-0.3-0.1-0.6-0.2-0.9-0.3c-0.2,0.1-0.4,0.1-0.5,0.2c0,0,0.1,0,0.2,0c0.3,0,1,0.1,1.2,0.4c0.1,0.1,0.1,0.2,0.1,0.3v0.2L95,15.1    c-0.2-0.2-0.4-0.2-0.7-0.2c-0.2,0-0.5-0.1-0.7-0.2l-0.2-0.1c-0.6,0.3-1.3,0.6-1.9,0.9l-0.1,0.2h-0.1c-0.1,0-0.1,0-0.2,0H91    c0,0.1,0,0.2,0,0.3l-0.1,0.1L90.8,16c-0.1,0-0.2-0.1-0.3-0.1c-0.1,0-0.1,0.1-0.2,0.1c1.7,0.5,3.3,1.1,4.5,1.9l0.4,0.2l0.5-0.1    c0.5-0.1,1.1,0,1.6,0.2c0.4,0.1,0.8,0.3,1.2,0.3c0.1,0,0.2,0,0.3,0l0,0l0,0c0.1,0.1,0.2,0.2,0.2,0.2l0,0l0,0c0.1,0,0.1,0,0.2,0    s0.2,0.1,0.2,0.1c0.1,0.1,0,0.2,0,0.3v0.1h-0.1c-0.6,0-1.2-0.2-1.9-0.5c-0.5-0.2-1.1-0.4-1.7-0.5l-0.4-0.1l0.1,0.1l-0.7-0.1    c-1.2-0.1-3.1-0.8-5.1-1.4c-0.2,0-0.3-0.1-0.5-0.1c-0.3,0.2-0.6,0.3-0.9,0.5c-0.4,0.2-0.8,0.5-1.1,0.8V18H87    c-2,1.3-3.8,2.8-5.4,4.3c0.7,0.3,1.5,0.6,2.3,1l0.2,0.1l-0.2,0.2c-0.1,0.1-0.3,0.2-0.5,0.2s-0.4-0.1-0.7-0.2    c-0.3-0.1-0.7-0.2-1-0.1l-0.1-0.2h-0.1c-0.2,0-0.4-0.1-0.4-0.3v-0.1c-0.1,0-0.1,0-0.2,0c-0.2,0.2-0.4,0.5-0.7,0.7l0.8,0.5l-1-0.3    c-0.8,0.8-1.5,1.6-2.1,2.5l0.6,0.2c0.2,0.1,0.4,0.2,0.4,0.4l0,0c0.4-0.1,1.1,0,1.8,0.2c0.3,0.1,0.7,0.2,1.1,0.2c0,0,0-0.1,0-0.2    h-0.1h0.1c0.1-0.3,0.2-0.7,0.3-0.9c0.2-0.2,0.3-0.2,0.4-0.2s0.3,0.1,0.4,0.2c0.1,0,0.3,0.1,0.3,0.2s-0.1,0.2-0.1,0.2    c0.1,0,0.2,0,0.3,0.1c0.4,0.1,0.8,0.2,1.1,0.4l0.2,0.1l0.3,0c-0.4,0.3-0.9,0.2-1.4,0c-0.1,0-0.2-0.1-0.4-0.1    c0.6,0.2,1.4,0.4,2,0.5h0.3l-0.2,0.2c-0.3,0.3-0.7,0.4-1.2,0.4c-0.2,0-0.4,0-0.6-0.1c0.5,0.3,1.2,0.4,1.9,0.5    c0.8,0.1,1.6,0.2,2.2,0.6l0.7,0.4l-0.8-0.1c-0.4,0-0.8,0-1.1,0c-0.2,0-0.4,0-0.6,0s-0.5,0-0.8-0.1c-0.5,0.2-1.5-0.2-2.6-0.7    c-1-0.4-2.2-1-3.1-1c-0.3,0-0.5,0.1-0.7,0.2h-0.1h-0.1c-0.4-0.2-0.9-0.3-1.3-0.5c-0.2,0.4-0.5,0.7-0.7,1.1l1,0.2L77.2,29    c-0.1,0.1-0.2,0.1-0.3,0.1l0.6,0.1c2.3,0.2,4.5,0.8,6.6,1.3c2.5,0.6,4.9,1.2,7.1,1.2l0,0l0,0c0.1,0,0.2,0.1,0.3,0.2    c0,0.1,0,0.2,0,0.2c0.4,0.1,0.8,0.2,1.3,0.2c1,0.2,2.2,0.4,3.1,0.9l0.2,0.1L96,33.5c-0.1,0.1-0.1,0.1-0.2,0.1    c0.4,0.1,0.7,0.2,1.1,0.3c0.4-0.3,0.8-0.6,1.2-0.8c1-0.6,2-1.1,3-1.5c-1.5-0.4-3-0.8-4.7-1.2c-0.1,0-0.1-0.1-0.2-0.1h-0.1    c-0.6,0.1-1.6-0.1-3.2-0.7h-0.1v0.1l-0.1-0.1c0,0-0.1,0-0.1-0.1L92,29.3h0.1c-0.6-0.2-1.4-0.4-2.2-0.5c-0.8-0.1-1.5-0.3-2-0.4    l-0.2-0.1l0.1-0.2c0.1-0.3,0.5-0.4,0.8-0.4c0.2,0,0.4,0,0.5-0.1l0.1-0.1l0.1,0.1c0.5,0.5,1.7,0.9,2.5,0.9c0.3,0,0.6-0.1,0.7-0.2    l0.1-0.1l0.1,0.1c0.3,0.2,0.3,0.8,0.2,1.1H93c0.1,0,0.3,0,0.5,0c0.1,0,0.3,0,0.4,0c0.3,0,0.4,0.1,0.5,0.2c0,0,0,0,0.1-0.1    s0.2-0.3,0.4-0.3l0,0v-0.1v0.1l0,0c1.9,0.3,3.5,0.8,5.1,1.3c0.7,0.2,1.5,0.5,2.2,0.7c6.9-2.3,14.6-0.4,19.8,4.8c0,0,0-0.1,0.1-0.1    l0.1-0.2l0.1,0.2c0,0,0.1,0.1,0.2,0.1c0.2,0.1,0.3,0.1,0.4,0.3c0,0.1,0,0.2,0,0.4v0.1h-0.1l0,0c0.7,0.8,1.4,1.7,2,2.7    c0.1,0.2,0.3,0.5,0.4,0.7l0,0h0.2c0.2,0,0.5,0,0.9,0.1l0.4,0.1l-0.4,0.1c-0.1,0.1-0.5,0.1-0.8,0.1h-0.1c0.6,1.1,1,2.1,1.3,3.2    c1.6,0.3,3.2,0.6,4.8,0.7h0.3l-0.2,0.2c-0.1,0.2-0.4,0.3-0.8,0.3c-0.4,0-0.8-0.1-1.3-0.1c-0.4-0.1-0.9-0.1-1.2-0.1    s-0.5,0.1-0.6,0.2l-0.1,0.1h-0.1c-0.2-0.1-0.4-0.1-0.6-0.2c0,0.1,0,0.2,0.1,0.3c0.9,0.2,1.8,0.5,2.4,0.7c0.1,0,0.2,0.1,0.3,0.1    c0.1-0.1,0.3-0.2,0.5-0.2c1,0,3.9,0.6,4.7,1.1c0,0,0,0,0-0.1v-0.2l0.2,0.1c0.5,0.2,1.1,0.3,1.6,0.3c0.6,0.1,1.2,0.2,1.7,0.4    l0.2,0.1l-0.2,0.1c-0.1,0.1-0.3,0.1-0.5,0.1c-0.3,0-0.8-0.1-1.2-0.3c-0.6-0.2-1.2-0.3-1.4-0.1c-0.1,0.1-0.1,0.2-0.1,0.4    c0.1,0,0.1,0,0.2,0c0.6,0.1,1.3,0.2,1.4,0.8v0.1h-0.1c-0.2,0.1-0.4,0-0.6-0.1c-0.2-0.1-0.3-0.2-0.6-0.2l0,0c-0.1,0-0.1,0-0.1,0    v0.1c0,0.1,0,0.4-0.2,0.5h-0.1H135c-0.8,0-1.3-0.1-1.5-0.4c-0.1-0.1-0.2-0.3-0.2-0.5v-0.2l0.2,0.1h0.1c0.1,0,0.2-0.1,0.3-0.1l0,0    c-0.2-0.3,0-0.6,0.1-0.8l-0.1-0.1l-0.4,0.2c-0.2,0.2-0.5,0.2-0.8,0.2c-0.6,0-1.2-0.3-1.6-0.4c-0.1,0-0.2-0.1-0.3-0.1l-0.4-0.1    l0.4-0.1c0.1-0.1,0.3-0.1,0.4-0.1h-0.1c-0.2,0-0.4,0.1-0.7,0.1c-1,0-2-0.3-3.1-0.7c-0.1,0-0.3-0.1-0.4-0.1c0.4,2.4,0.4,4.7,0,7.1    l18.4,3.2C145.9,55.3,146,54.4,146.1,53.5z"/>
      <path d="M94.9,16.3L94.8,16l0,0l-0.6,0.2c-0.1,0-0.2,0.1-0.3,0.1c-0.5,0-1.2-0.3-1.5-0.6l-0.1-0.1l0.1-0.1    c0.1-0.1,0.2-0.2,0.4-0.2c0.2,0,0.5,0.2,0.8,0.3c0.2,0.1,0.4,0.3,0.6,0.3l0.6,0.1c-0.1-0.2-0.1-0.4-0.4-0.4h-0.2v-0.2    c0-0.2,0.1-0.4,0.3-0.4c0.1,0,0.3,0,0.4,0.1c0.1,0,0.2,0.1,0.3,0.1h0.3l-0.1,0.2c-0.1,0.1-0.1,0.2-0.1,0.3s0,0.2-0.2,0.3    L94.9,16.3z"/>
      <path d="M96.9,17.8c0,0-0.1,0-0.2,0c-0.2,0-0.4-0.1-0.6-0.2s-0.4-0.2-0.6-0.2l-0.4-0.1l0.4-0.2c0.1-0.1,0.2-0.1,0.3-0.1    c0.4,0,1,0.3,1.1,0.5l0.1,0.1L96.9,17.8z"/>
      <path d="M98.2,16.5L98,16.6c-0.2,0.2-0.4,0.3-0.7,0.3c-0.2,0-0.4,0-0.6-0.1L96.5,17l0.1-0.3c-0.2-0.1-0.3-0.2-0.4-0.3    C96,16.2,95.9,16,96,15.8v-0.5l0.3,0.5c0,0.1,0.2,0.1,0.3,0.1c0.2,0.1,0.4,0.1,0.5,0.3c0.2-0.1,0.4,0,0.5,0.1    c0.1,0,0.3,0.1,0.4,0.1l0.5-0.1L98.2,16.5c0.2-0.1,0.5-0.1,0.9,0C98.6,16.6,98.3,16.6,98.2,16.5z"/>
      <path d="M80.8,26.4c-0.1,0.3-0.3,0.3-0.5,0.3s-0.5-0.2-0.7-0.3l-0.2-0.1l0.1-0.1c0-0.1,0.1-0.2,0.3-0.2c0.1,0,0.3,0.1,0.4,0.1    s0.3,0.1,0.3,0.1h0.3L80.8,26.4z"/>
      <path d="M81.9,25.6c-0.1,0.1-0.1,0.2-0.2,0.2c-0.1,0.1-0.2,0.2-0.2,0.4v0.2l-0.2-0.1c-0.2-0.1-0.2-0.3-0.2-0.5c0-0.1,0-0.2,0-0.2    H81v-0.1c0-0.1,0.1-0.2,0.3-0.2c0.1,0,0.2,0,0.3,0.1c0.1,0,0.1,0.1,0.2,0.1h0.3L81.9,25.6z"/>
      <path d="M80,29c0,0.1-0.1,0.3-0.4,0.3c-0.1,0-0.3,0-0.4-0.1h-0.1h-0.2V29c0-0.1,0.1-0.3,0.4-0.3c0.1,0,0.3,0,0.4,0.1h0.1H80V29z"/>
      <path d="M89.3,29.2c0.6-0.1,1.7,0.2,2.5,0.4c0.2,0.1,0.5,0.1,0.6,0.2L93,30l-0.6,0.2c-0.1,0-0.2,0-0.4,0c-0.7,0-2.1-0.2-2.8-0.7    l-0.3-0.2L89.3,29.2z"/>
      <path d="M85.5,27.4c-0.1-0.2,0.1-0.4,0.2-0.5l0,0l0,0l0,0c0,0-0.2-0.1-0.1-0.3c0,0,0.1-0.1,0.2-0.1s0.3,0,0.5,0.1    c0.1,0,0.2,0,0.2,0.1h0.1c0-0.1,0-0.1,0.1-0.2v-0.2l0.7,0.2l-0.1,0.2c-0.1,0.2-0.2,0.5-0.5,0.5h-0.1l0,0c-0.1,0.1-0.2,0.2-0.2,0.2    c-0.1,0.1-0.1,0.1-0.1,0.2v0.2h-0.2C85.8,27.6,85.6,27.5,85.5,27.4z"/>
      <path d="M87.1,29c-0.1,0-0.3-0.1-0.4-0.1s-0.3-0.1-0.3-0.1h-0.2v-0.2c0-0.1,0-0.1,0.1-0.1c-1.2,0.1-1.5-0.5,0,0    c0.1-0.1,0.1-0.2,0.3-0.2c0.1,0,0.3,0.1,0.4,0.1s0.3,0.1,0.3,0.1h0.2v0.2C87.4,28.9,87.3,29,87.1,29z"/>
      <path d="M88.2,27.6l-0.1,0.2l-0.2-0.1c-0.2-0.1-0.3-0.1-0.4-0.1h-0.1c-0.1,0-0.3,0-0.4-0.2v-0.1l0.2-0.1c0.5-0.2,0.8-0.1,1,0    C88.2,27.3,88.2,27.4,88.2,27.6z"/>
      <path d="M88.7,25c-0.2-0.1-0.4-0.1-0.6,0c-0.1,0-0.3,0.1-0.4,0.1s-0.1,0-0.2,0h-0.1V25v-0.1c-0.1,0-0.3,0-0.5-0.1    c-0.1,0-0.2-0.1-0.2-0.1h-0.2v-0.2l0.1-0.4l0.8,0.2v-0.1v-0.1h0.1c0.1,0,0.2,0,0.4,0c0.4,0,0.9,0.1,1,0.6V25L88.7,25z"/>
      <path d="M94.2,26c0.1,0,0.2-0.1,0.3-0.1c0.3,0,0.7,0.2,0.8,0.4c0.1,0.2,0.1,0.4,0,0.6V27h-0.1h-0.1c-0.2,0-0.4-0.2-0.5-0.3l0,0    v0.1h-0.1c-0.1-0.1-0.2-0.2-0.2-0.2c0-0.1,0-0.1,0.1-0.1h-0.1l-0.4-0.1L94.2,26z"/>
      <path d="M91,21.7c0.2-0.2,0.7,0,1.3,0.2c0.3,0.1,0.6,0.2,0.8,0.2h0.8l-0.8,0.2c-0.1,0-0.2,0-0.3,0c-0.4,0-0.9-0.2-1.3-0.3    c-0.2-0.1-0.3-0.1-0.5-0.2l-0.3-0.1L91,21.7z"/>
      <path d="M91.6,25.4c-0.1,0-0.2-0.1-0.2-0.2l0,0c0-0.1,0-0.1,0-0.2c0.1-0.1,0.3-0.1,0.9,0.1c0.2,0.1,0.4,0.1,0.6,0.2l0.2,0.1    L93,25.5c-0.1,0.2-0.3,0.3-0.5,0.3c-0.1,0-0.2,0-0.3-0.1c-0.1,0-0.3-0.1-0.4,0l-0.3,0.1l0.2-0.3C91.7,25.5,91.7,25.5,91.6,25.4    C91.7,25.5,91.7,25.4,91.6,25.4z"/>
      <path d="M89.5,24.3c0.2,0.1,0.4,0.1,0.6,0c0.1,0,0.3-0.1,0.5,0h0.1v0.1c0.2,0.4-0.1,0.6-0.3,0.8c-0.1,0.1-0.2,0.1-0.2,0.2    l-0.1,0.1H90c-0.5-0.1-0.6-0.5-0.7-0.8l-0.1-0.4L89.5,24.3z"/>
      <path d="M92.3,28.2c-0.4,0-0.7,0.1-1.1,0.1c-0.7,0-1.3-0.2-1.6-0.6l-0.2-0.2h0.3c0.3,0,0.8,0.1,1.3,0.2c0.4,0.1,0.8,0.2,1.2,0.2    l1,0.2L92.3,28.2z"/>
      <path d="M96.2,28c-0.1,0-0.2,0-0.3,0c-1.8,0-3.7-0.5-5.5-1.1l-1.1-0.3l0.7-0.1c0.3,0,0.6-0.1,0.9-0.1c1.2,0,2.3,0.3,3.7,0.8    c0.5,0.2,1,0.3,1.6,0.5l0.9,0.3L96.2,28z"/>
      <path d="M98.9,29c-0.1,0.1-0.2,0.3-0.5,0.3c-0.1,0-0.1,0-0.2,0h-0.1v-0.1c0-0.1-0.1-0.3,0-0.5v-0.1h0.1c0.2-0.2,0.6-0.1,0.8,0.2    l0.1,0.1L98.9,29z"/>
      <path d="M103.6,20.3c-0.2,0.1-0.4,0.2-0.6,0.2c-0.4,0-0.8-0.1-1.3-0.3c-0.4-0.1-0.8-0.3-1.2-0.3l-0.9-0.1l0.9-0.2    c0.6-0.1,1.3,0,2.1,0.2c0.3,0.1,0.6,0.2,1,0.2l0.3,0.1L103.6,20.3z"/>
      <path d="M105.7,17.7c-0.1,0.1-0.2,0.1-0.4,0.1c-0.5,0-1.1-0.2-1.5-0.4l-0.4-0.2l0.5-0.1c0.7-0.1,1,0,1.5,0.2    c0.1,0,0.2,0.1,0.3,0.1l0.3,0.1L105.7,17.7z"/>
      <path d="M111.9,29.6c-0.2,0.1-0.4,0.2-0.7,0.2c-0.1,0-0.3,0-0.5-0.1l-0.4-0.2l0.4-0.1c0.1,0,0.1-0.1,0.2-0.1    c0.2-0.1,0.5-0.2,0.9,0l0.3,0.1L111.9,29.6z"/>
      <path d="M130,36.9c0.4-0.2,0.8-0.1,1.1,0.1l0.1,0.1l-0.1,0.1c-0.1,0.1-0.2,0.2-0.4,0.2s-0.3-0.1-0.5-0.1c-0.1,0-0.2-0.1-0.3-0.1    l-0.4-0.1L130,36.9z"/>
      <path d="M127.3,27.5C126.4,27.7,126.4,26.9,127.3,27.5L127.3,27.5z"/>
      <path d="M128,31.5c-0.1,0.2-0.2,0.3-0.6,0.3c-0.5,0-1.2-0.3-1.5-0.5s-0.4-0.3-0.4-0.4c0,0,0.1-0.1,0.2-0.1c0.2,0,0.6,0.1,1.1,0.2    c0.4,0.1,0.9,0.2,1.1,0.3h0.2L128,31.5z"/>
      <path d="M133.1,40.4c-0.1,0-0.3,0-0.5,0c-0.9,0-2.2-0.4-3.2-0.7c-0.5-0.2-0.9-0.3-1.1-0.3v-0.3c0.9,0,1.9,0.3,3,0.6    c0.6,0.2,1.2,0.3,1.8,0.4l0.8,0.1L133.1,40.4z"/>
      <path d="M134.8,25.6c-0.1,0.1-0.3,0.2-0.5,0.2s-0.5-0.1-0.7-0.2s-0.4-0.2-0.6-0.2h-0.2v-0.2c0.1-0.2,0.3-0.2,0.4-0.2    c0.4,0,1.1,0.1,1.4,0.3l0.2,0.1L134.8,25.6z"/>
      <path d="M144.3,51.4l0.8,0.4l-0.9-0.1c-1-0.1-1.9-0.3-2.8-0.5c-0.6-0.2-1.3-0.3-2-0.4c-0.2,0-0.4-0.1-0.4-0.2c0-0.1,0-0.1,0-0.2    c0-0.1,0.1-0.1,0.4-0.1c0.5,0.1,1.1,0.2,1.6,0.3C142.2,50.7,143.3,50.9,144.3,51.4z"/>
      <path d="M142.1,46.5c0.1,0,0.2,0,0.3,0c0.3,0,1,0.1,1.3,0.4c0.1,0.1,0.1,0.2,0.1,0.3v0.2l-0.2-0.1c-0.3-0.1-0.5-0.2-0.7-0.2    c-0.3,0-0.6-0.1-0.8-0.3l-0.2-0.2L142.1,46.5z"/>
      <path d="M141.8,48.4c0,0,0.9,0,0.9,0.3c0,0.1,0,0.1-0.1,0.2h-0.1c-0.1,0-0.3,0-0.6-0.1c-0.1,0-0.1,0-0.2,0c-0.1,0-0.2,0-0.5,0    l-0.4-0.1l0.1-0.1h-0.1c-0.2,0-0.3,0-0.5,0c-0.7,0-1-0.2-1.1-0.6v-0.2l2.3,0.5C141.6,48.5,141.7,48.4,141.8,48.4z"/>
      <path d="M137.8,35.8c0.1-0.1,0.2-0.1,0.3-0.1c0.5,0,1.4,0.2,1.8,0.3l0.5,0.1l-0.5,0.2c-0.1,0-0.3,0.1-0.5,0.1    c-0.4,0-0.9-0.1-1.4-0.2l-0.6-0.1L137.8,35.8z"/>
      <path d="M137.8,41.8c0.4-0.3,0.9-0.2,1.3,0c0.3,0.1,0.5,0.1,0.7,0.1l0.2-0.1V42c0,0.1-0.1,0.3-0.6,0.3c-0.4,0-1.1-0.1-1.6-0.3    l-0.3-0.1L137.8,41.8z"/>
      <path d="M139.9,42.6l-0.3,0.2c-0.1,0.1-0.3,0.1-0.5,0.1c-0.3,0-0.6-0.1-0.8-0.1l-0.7-0.2l0.6-0.2c0.4-0.1,0.9,0,1.4,0.1    L139.9,42.6z"/>
      <path d="M136.5,46.5c-0.4-0.1-0.8-0.2-1.2-0.3h-0.1v-0.1c0-0.1,0.1-0.2,0.1-0.3s0.1-0.1,0.1-0.1v-0.2l0.2,0.1    c1.4,0.5,3.2,0.9,4.9,1.2l0.9,0.1l-0.9,0.2c-0.2,0-0.5,0.1-0.8,0.1C138.8,47,137.6,46.7,136.5,46.5z"/>
      <path d="M128.6,48.4c-0.2-0.1-0.4-0.1-0.5-0.1h-0.3L128,48c0.1-0.1,0.2-0.2,0.5-0.2c0.4,0,0.8,0.2,1,0.4l0.2,0.1l-0.2,0.1    c-0.1,0.1-0.2,0.1-0.3,0.1C129,48.5,128.8,48.5,128.6,48.4z"/>
      <path d="M139.1,54l-0.8-0.2v-0.2c0.1-0.4,0.4-0.5,0.6-0.5c0.1,0,0.1,0,0.2,0h0.2L139.1,54z"/>
    </g>
    <path d="M75,114.1c0.1,0,0.2,0.1,0.3,0.1l0,0C75.2,114.1,75.1,114.1,75,114.1z"/>
  </g>
</svg>
