<?xml version="1.0" encoding="utf-8"?>
<!-- Generator: Adobe Illustrator 22.0.1, SVG Export Plug-In . SVG Version: 6.00 Build 0)  -->
<svg version="1.1" id="Layer_1" xmlns="http://www.w3.org/2000/svg" xmlns:xlink="http://www.w3.org/1999/xlink" x="0px" y="0px"
	 viewBox="0 0 134 26" style="enable-background:new 0 0 134 26;" xml:space="preserve">
<style type="text/css">
	.st0{fill:#F26822;}
	.st1{fill:#FFFFFF;}
</style>
<title>bugcrowd logo@3x</title>
<path class="st0" d="M32.2,16.6c-0.1-0.1-0.2-0.3-0.2-0.4V5.8h-3.5v6.4c0,0.6-0.1,1.2-0.3,1.8c-0.2,0.5-0.4,1-0.8,1.5
	c-0.3,0.4-0.8,0.8-1.2,1c-0.5,0.2-1.1,0.4-1.7,0.4c-0.6,0-1-0.1-1.3-0.4c-0.3-0.2-0.5-0.6-0.7-1c-0.1-0.4-0.2-0.9-0.2-1.5V7.6
	c0-0.6-0.1-1.1-0.4-1.4c-0.3-0.3-0.8-0.4-1.4-0.4h-3.4v2.9h1.1c0.2,0,0.3,0,0.5,0.1c0.1,0.1,0.2,0.2,0.2,0.5v5.4
	c0,1.3,0.2,2.3,0.6,3c0.4,0.8,0.9,1.3,1.7,1.7c0.7,0.4,1.6,0.5,2.6,0.5c0.6,0,1.1-0.1,1.7-0.2c0.5-0.1,1-0.4,1.4-0.7
	c0.4-0.3,0.8-0.6,1.1-0.9c0.3-0.3,0.5-0.7,0.7-1.1h0.1l0,0.2c0,0.1,0,0.3,0,0.4v0.4c0,0.5,0.2,0.9,0.5,1.1c0.3,0.3,0.8,0.4,1.4,0.4
	h3.2v-2.9h-1.1C32.4,16.7,32.3,16.7,32.2,16.6 M11.9,14.6c-0.2,0.5-0.4,1-0.8,1.3c-0.3,0.4-0.7,0.6-1.1,0.8C9.6,17,9.1,17,8.6,17
	c-0.6,0-1.1-0.1-1.5-0.4c-0.4-0.2-0.8-0.6-1.1-1c-0.3-0.4-0.5-0.9-0.7-1.4c-0.1-0.5-0.2-1-0.2-1.6c0-0.8,0.1-1.4,0.3-2
	c0.2-0.6,0.5-1,0.8-1.4c0.3-0.3,0.7-0.6,1.1-0.8c0.4-0.2,0.9-0.2,1.3-0.2c0.7,0,1.3,0.2,1.8,0.5c0.5,0.4,0.9,0.9,1.2,1.5
	c0.3,0.7,0.4,1.4,0.4,2.3C12.2,13.4,12.1,14.1,11.9,14.6 M14,7.5c-0.5-0.6-1.2-1.1-2-1.5c-0.8-0.3-1.6-0.5-2.6-0.5
	c-0.5,0-1.1,0.1-1.6,0.2C7.4,5.8,7,5.9,6.7,6.1C6.3,6.3,6.1,6.5,5.9,6.7C5.7,6.9,5.5,7,5.4,7.2C5.3,7.2,5.3,7.3,5.2,7.4H5.2l0-0.3
	c0-0.2,0-0.5,0-0.8v-4c0-0.6-0.1-1.1-0.5-1.4C4.5,0.5,4,0.3,3.3,0.4H0v2.9h1.1c0.2,0,0.3,0,0.5,0.1c0.1,0.1,0.2,0.2,0.2,0.5v15.7H5
	v-0.7c0-0.2,0-0.4,0-0.7L5,18H5c0.2,0.3,0.4,0.5,0.6,0.7c0.2,0.2,0.5,0.4,0.8,0.6c0.4,0.2,0.8,0.4,1.2,0.5c0.5,0.1,1,0.2,1.6,0.2
	c0.9,0,1.8-0.2,2.6-0.5c0.8-0.3,1.5-0.8,2.1-1.5c0.6-0.6,1-1.4,1.4-2.3c0.3-0.9,0.5-1.9,0.5-3c0-1.1-0.1-2.1-0.4-2.9
	C15,8.9,14.6,8.1,14,7.5 M45.3,14.3c-0.2,0.5-0.4,0.9-0.7,1.3c-0.3,0.3-0.7,0.5-1.1,0.7c-0.4,0.1-0.8,0.2-1.2,0.2
	c-0.8,0-1.4-0.2-1.9-0.6c-0.5-0.4-0.9-0.9-1.2-1.5c-0.3-0.6-0.4-1.3-0.4-2.2c0-0.8,0.1-1.5,0.4-2c0.2-0.5,0.6-1,1.1-1.3
	c0.5-0.3,1.1-0.5,1.8-0.5c0.5,0,0.9,0.1,1.4,0.2c0.4,0.1,0.8,0.3,1.1,0.6c0.3,0.3,0.6,0.7,0.8,1.2c0.2,0.5,0.3,1.2,0.3,2
	C45.6,13.2,45.5,13.8,45.3,14.3 M46.5,6c-0.2,0.1-0.4,0.3-0.5,0.5c-0.1,0.2-0.2,0.4-0.2,0.6v0.4h-0.1c0,0,0-0.1-0.1-0.2
	c-0.1-0.2-0.3-0.3-0.5-0.5c-0.2-0.2-0.5-0.4-0.8-0.6c-0.4-0.2-0.8-0.4-1.2-0.5c-0.5-0.1-1.1-0.2-1.7-0.2c-1,0-1.9,0.2-2.7,0.5
	c-0.8,0.3-1.4,0.8-2,1.5c-0.5,0.6-0.9,1.4-1.2,2.2c-0.3,0.9-0.4,1.8-0.4,2.7c0,1,0.1,1.9,0.4,2.7c0.3,0.8,0.7,1.6,1.2,2.2
	c0.5,0.6,1.2,1.2,2,1.5c0.8,0.4,1.7,0.6,2.7,0.6c0.9,0,1.7-0.2,2.4-0.5c0.6-0.3,1.2-0.8,1.6-1.3h0.1c0,0,0,0,0,0.1
	c0,0.1,0,0.2,0,0.3c0,0.1,0,0.2,0,0.3v1.3c0,0.6-0.1,1.1-0.3,1.6c-0.2,0.4-0.5,0.8-0.9,1c-0.4,0.3-0.8,0.5-1.3,0.6
	c-0.5,0.1-1,0.2-1.5,0.2v3c0.7,0,1.4-0.1,2.2-0.2c0.7-0.1,1.4-0.4,2-0.7c0.6-0.3,1.2-0.7,1.7-1.2c0.5-0.5,0.9-1.2,1.1-1.9
	c0.3-0.7,0.4-1.6,0.4-2.5V9.3C49,9.1,49,9,49.1,8.9c0.1-0.1,0.3-0.1,0.4-0.1h1.1V5.8h-3.3C47,5.8,46.7,5.8,46.5,6 M76.3,5.6
	c-0.7,0-1.4,0.2-2,0.5c-0.6,0.3-1.1,0.7-1.5,1.3c-0.4,0.5-0.8,1.2-1,1.8h-0.1l0-0.2c0-0.2,0-0.4,0-0.6V7.5c0-0.6-0.2-1-0.5-1.3
	c-0.3-0.3-0.8-0.4-1.4-0.4h-3.2v2.9h1.1c0.2,0,0.3,0,0.5,0.1c0.1,0.1,0.2,0.2,0.2,0.5v10.3h3.5v-5.5c0-0.4,0-0.8,0.1-1.2
	c0.1-0.4,0.1-0.7,0.2-1.1c0.1-0.5,0.4-0.9,0.7-1.3c0.5-0.7,1.2-1.2,2-1.4C75.3,9,75.7,9,76.1,9c0.3,0,0.5,0,0.6,0c0.2,0,0.2,0,0.2,0
	V5.6c-0.1,0-0.1,0-0.2,0C76.6,5.6,76.4,5.6,76.3,5.6 M113.1,6.1c-0.3,0.2-0.5,0.6-0.7,1.1l-2,7.7c-0.1,0.2-0.1,0.5-0.2,0.7
	c0,0.3-0.1,0.5-0.1,0.8h-0.1c0-0.1,0-0.1,0-0.2c0-0.1-0.1-0.3-0.1-0.5c-0.1-0.2-0.1-0.5-0.2-0.7l-2.6-9H104l-2.6,9
	c-0.1,0.2-0.1,0.5-0.2,0.7c0,0.2-0.1,0.4-0.1,0.5l0,0.2H101l0-0.2c0-0.1-0.1-0.3-0.1-0.5c0-0.2-0.1-0.5-0.2-0.7l-2.1-7.7
	c-0.1-0.5-0.4-0.9-0.7-1.1c-0.3-0.2-0.8-0.3-1.3-0.3h-2.4v2.9h0.4c0.2,0,0.4,0,0.5,0.1c0.1,0.1,0.2,0.2,0.3,0.4l3.4,10.4h4l2.4-7.9
	c0.1-0.2,0.1-0.5,0.2-0.7l0.1-0.6l0-0.2h0.1c0,0,0,0.1,0,0.2s0.1,0.3,0.1,0.6c0.1,0.2,0.1,0.5,0.2,0.7l2.4,7.9h4l3.4-10.4
	c0.1-0.2,0.2-0.3,0.3-0.4c0.1-0.1,0.3-0.1,0.5-0.1h0.4V5.8h-2.4C113.9,5.8,113.4,5.9,113.1,6.1 M128,14.7c-0.2,0.6-0.5,1-0.8,1.4
	c-0.3,0.3-0.7,0.6-1.1,0.8c-0.4,0.2-0.9,0.3-1.3,0.3c-0.7,0-1.3-0.2-1.8-0.5c-0.5-0.4-0.9-0.9-1.2-1.5c-0.3-0.7-0.4-1.4-0.4-2.3
	c0-0.7,0.1-1.3,0.3-1.8c0.2-0.5,0.4-1,0.8-1.3c0.6-0.7,1.5-1.1,2.5-1.1c0.6,0,1.1,0.1,1.5,0.4c0.4,0.2,0.8,0.6,1.1,1
	c0.3,0.4,0.5,0.9,0.7,1.4c0.1,0.5,0.2,1,0.2,1.6C128.3,13.4,128.2,14.1,128,14.7z M132.4,16.7c-0.2,0-0.3-0.1-0.4-0.2
	c-0.1-0.1-0.2-0.3-0.2-0.4V2.2c0-0.6-0.1-1.1-0.5-1.4c-0.3-0.3-0.8-0.4-1.4-0.4h-3.3v2.9h1.1c0.2,0,0.3,0,0.4,0.1
	c0.1,0.1,0.2,0.2,0.2,0.5v2.4c0,0.2,0,0.4,0,0.6c0,0.2,0,0.2,0,0.2h-0.1c0,0,0-0.1-0.1-0.2c-0.1-0.2-0.3-0.3-0.4-0.4
	c-0.2-0.2-0.5-0.4-0.8-0.5c-0.4-0.2-0.8-0.3-1.2-0.4c-0.5-0.1-1.1-0.2-1.6-0.2c-0.9,0-1.8,0.2-2.6,0.5c-0.8,0.3-1.5,0.8-2,1.5
	c-0.6,0.7-1,1.4-1.3,2.3c-0.3,0.9-0.5,1.9-0.5,3c0,1.1,0.2,2.1,0.4,2.9c0.3,0.9,0.7,1.7,1.3,2.3c0.5,0.6,1.2,1.1,2,1.5
	c0.8,0.3,1.6,0.5,2.6,0.5c0.6,0,1.1-0.1,1.7-0.2c0.5-0.1,0.9-0.3,1.2-0.6c0.3-0.2,0.6-0.4,0.8-0.7c0.2-0.2,0.4-0.5,0.6-0.8h0.1v0.5
	c0,0.3,0.1,0.5,0.2,0.7c0.1,0.2,0.3,0.4,0.6,0.5c0.3,0.1,0.6,0.2,1,0.2h3.2v-2.9L132.4,16.7L132.4,16.7z M64.1,15.3
	c-0.1,0.1-0.3,0.3-0.6,0.5c-0.3,0.2-0.6,0.4-0.9,0.6c-0.4,0.2-0.8,0.3-1.2,0.5c-0.4,0.1-0.9,0.2-1.4,0.2c-0.6,0-1.1-0.1-1.6-0.3
	c-0.5-0.2-1-0.4-1.4-0.8c-0.4-0.4-0.8-0.8-1-1.3c-0.2-0.5-0.4-1.1-0.4-1.9c0-0.8,0.2-1.6,0.5-2.2c0.3-0.6,0.8-1.2,1.5-1.5
	c0.6-0.4,1.4-0.6,2.2-0.6c0.2,0,0.4,0,0.7,0.1c0.2,0,0.5,0.1,0.7,0.2c0.2,0.1,0.4,0.2,0.5,0.3c0.1,0.1,0.2,0.3,0.2,0.5v0.8H65V8.6
	c0-0.4-0.1-0.9-0.4-1.2c-0.2-0.4-0.6-0.7-0.9-0.9c-0.4-0.2-0.8-0.4-1.2-0.6c-0.4-0.1-0.9-0.2-1.4-0.3c-0.4-0.1-0.8-0.1-1.2-0.1
	c-1.2,0-2.3,0.2-3.2,0.6c-1,0.4-1.8,0.9-2.4,1.6c-0.7,0.7-1.2,1.4-1.5,2.3c-0.3,0.9-0.5,1.8-0.5,2.8c0,1,0.2,1.9,0.5,2.8
	c0.3,0.9,0.9,1.6,1.5,2.3c0.7,0.7,1.5,1.2,2.4,1.6c0.9,0.4,2,0.6,3.2,0.6c0.7,0,1.4-0.1,2.1-0.3c0.6-0.1,1.1-0.4,1.7-0.6
	c0.5-0.2,0.9-0.5,1.2-0.7c0.4-0.3,0.7-0.6,1-0.9l-1.5-2.4C64.3,15.1,64.2,15.1,64.1,15.3 M89.5,14.5c-0.2,0.5-0.5,1-0.9,1.4
	c-0.4,0.4-0.8,0.7-1.3,0.9c-0.5,0.2-1.1,0.3-1.6,0.3c-0.6,0-1.1-0.1-1.6-0.3c-0.5-0.2-1-0.5-1.3-0.9c-0.4-0.4-0.7-0.9-0.9-1.4
	c-0.2-0.6-0.3-1.2-0.3-1.8c0-0.6,0.1-1.2,0.3-1.8c0.2-0.5,0.5-1,0.9-1.4c0.4-0.4,0.8-0.7,1.3-0.9c0.5-0.2,1.1-0.3,1.6-0.3
	c1.1,0,2.2,0.4,3,1.2c0.4,0.4,0.7,0.8,0.9,1.4c0.2,0.5,0.3,1.1,0.3,1.8C89.8,13.3,89.7,13.9,89.5,14.5 M91.1,7.5
	c-0.7-0.7-1.6-1.2-2.5-1.5c-1-0.4-2-0.5-3-0.5c-1,0-2.1,0.2-3,0.5c-0.9,0.3-1.7,0.8-2.5,1.5c-0.7,0.6-1.3,1.4-1.6,2.3
	c-0.4,0.9-0.6,1.9-0.6,2.9c0,1.1,0.2,2,0.6,2.9c0.4,0.9,0.9,1.6,1.6,2.3c0.7,0.7,1.5,1.2,2.5,1.5c1,0.4,2,0.5,3,0.5
	c1.1,0,2.1-0.2,3-0.5c0.9-0.3,1.7-0.8,2.5-1.5c0.7-0.6,1.3-1.4,1.7-2.3c0.4-0.9,0.6-1.9,0.6-2.9c0-1.1-0.2-2-0.6-2.9
	C92.4,8.9,91.8,8.1,91.1,7.5"/>
<path class="st1" d="M24.4-52.4c-0.1-0.1-0.2-0.3-0.2-0.4v-10.3h-3.5v6.4c0,0.6-0.1,1.2-0.3,1.8c-0.2,0.5-0.4,1-0.8,1.5
	c-0.3,0.4-0.8,0.8-1.2,1c-0.5,0.2-1.1,0.4-1.7,0.4c-0.6,0-1-0.1-1.3-0.4c-0.3-0.2-0.5-0.6-0.7-1c-0.1-0.4-0.2-0.9-0.2-1.5v-6.4
	c0-0.6-0.1-1.1-0.4-1.4c-0.3-0.3-0.8-0.4-1.4-0.4H9.4v2.9h1.1c0.2,0,0.3,0,0.5,0.1c0.1,0.1,0.2,0.2,0.2,0.5v5.4c0,1.3,0.2,2.3,0.6,3
	c0.4,0.8,0.9,1.3,1.7,1.7C14.1-49.2,15-49,16-49c0.6,0,1.1-0.1,1.7-0.2c0.5-0.1,1-0.4,1.4-0.7c0.4-0.3,0.8-0.6,1.1-0.9
	c0.3-0.3,0.5-0.7,0.7-1.1h0.1l0,0.2c0,0.1,0,0.3,0,0.4v0.4c0,0.5,0.2,0.9,0.5,1.1c0.3,0.3,0.8,0.4,1.4,0.4H26v-2.9h-1.1
	C24.7-52.3,24.5-52.3,24.4-52.4 M4.1-54.4c-0.2,0.5-0.4,1-0.8,1.3c-0.3,0.4-0.7,0.6-1.1,0.8c-0.4,0.2-0.9,0.3-1.4,0.3
	c-0.6,0-1.1-0.1-1.5-0.4c-0.4-0.2-0.8-0.6-1.1-1c-0.3-0.4-0.5-0.9-0.7-1.4c-0.1-0.5-0.2-1-0.2-1.6c0-0.8,0.1-1.4,0.3-2
	c0.2-0.6,0.5-1,0.8-1.4c0.3-0.3,0.7-0.6,1.1-0.8c0.4-0.2,0.9-0.2,1.3-0.2c0.7,0,1.3,0.2,1.8,0.5c0.5,0.4,0.9,0.9,1.2,1.5
	c0.3,0.7,0.4,1.4,0.4,2.3C4.4-55.5,4.3-54.9,4.1-54.4 M6.2-61.5c-0.5-0.6-1.2-1.1-2-1.5c-0.8-0.3-1.6-0.5-2.6-0.5
	c-0.5,0-1.1,0.1-1.6,0.2c-0.5,0.1-0.9,0.3-1.2,0.5c-0.3,0.2-0.6,0.4-0.8,0.6c-0.2,0.1-0.3,0.3-0.5,0.5c-0.1,0.1-0.1,0.1-0.2,0.2
	h-0.1l0-0.3c0-0.2,0-0.5,0-0.8v-4c0-0.6-0.1-1.1-0.5-1.4c-0.3-0.3-0.8-0.4-1.4-0.4h-3.3v2.9h1.1c0.2,0,0.3,0,0.5,0.1
	c0.1,0.1,0.2,0.2,0.2,0.5v15.7h3.3v-0.7c0-0.2,0-0.4,0-0.7l0-0.3h0.1c0.2,0.3,0.4,0.5,0.6,0.7c0.2,0.2,0.5,0.4,0.8,0.6
	c0.4,0.2,0.8,0.4,1.2,0.5c0.5,0.1,1,0.2,1.6,0.2c0.9,0,1.8-0.2,2.6-0.5c0.8-0.3,1.5-0.8,2.1-1.5c0.6-0.6,1-1.4,1.4-2.3
	c0.3-0.9,0.5-1.9,0.5-3c0-1.1-0.1-2.1-0.4-2.9C7.2-60.1,6.8-60.9,6.2-61.5 M37.5-54.6c-0.2,0.5-0.4,0.9-0.7,1.3
	c-0.3,0.3-0.7,0.5-1.1,0.7c-0.4,0.1-0.8,0.2-1.2,0.2c-0.8,0-1.4-0.2-1.9-0.6c-0.5-0.4-0.9-0.9-1.2-1.5c-0.3-0.6-0.4-1.3-0.4-2.2
	c0-0.8,0.1-1.5,0.4-2c0.2-0.5,0.6-1,1.1-1.3c0.5-0.3,1.1-0.5,1.8-0.5c0.5,0,0.9,0.1,1.4,0.2c0.4,0.1,0.8,0.3,1.1,0.6
	s0.6,0.7,0.8,1.2c0.2,0.5,0.3,1.2,0.3,2C37.8-55.8,37.7-55.2,37.5-54.6 M38.7-63c-0.2,0.1-0.4,0.3-0.5,0.5c-0.1,0.2-0.2,0.4-0.2,0.6
	v0.4H38c0,0,0-0.1-0.1-0.2c-0.1-0.2-0.3-0.3-0.5-0.5c-0.2-0.2-0.5-0.4-0.8-0.6c-0.4-0.2-0.8-0.4-1.2-0.5c-0.5-0.1-1.1-0.2-1.7-0.2
	c-1,0-1.9,0.2-2.7,0.5c-0.8,0.3-1.4,0.8-2,1.5c-0.5,0.6-0.9,1.4-1.2,2.2c-0.3,0.9-0.4,1.8-0.4,2.7c0,1,0.1,1.9,0.4,2.7
	c0.3,0.8,0.7,1.6,1.2,2.2c0.5,0.6,1.2,1.2,2,1.5c0.8,0.4,1.7,0.6,2.7,0.6c0.9,0,1.7-0.2,2.4-0.5c0.6-0.3,1.2-0.8,1.6-1.3h0.1
	c0,0,0,0,0,0.1c0,0.1,0,0.2,0,0.3c0,0.1,0,0.2,0,0.3v1.3c0,0.6-0.1,1.1-0.3,1.6c-0.2,0.4-0.5,0.8-0.9,1c-0.4,0.3-0.8,0.5-1.3,0.6
	c-0.5,0.1-1,0.2-1.5,0.2v3c0.7,0,1.4-0.1,2.2-0.2c0.7-0.1,1.4-0.4,2-0.7c0.6-0.3,1.2-0.7,1.7-1.2c0.5-0.5,0.9-1.2,1.1-1.9
	c0.3-0.7,0.4-1.6,0.4-2.5v-10.1c0-0.2,0.1-0.3,0.2-0.4c0.1-0.1,0.3-0.1,0.4-0.1h1.1v-2.9h-3.3C39.2-63.2,38.9-63.1,38.7-63
	 M68.5-63.4c-0.7,0-1.4,0.2-2,0.5c-0.6,0.3-1.1,0.7-1.5,1.3c-0.4,0.5-0.8,1.2-1,1.8H64l0-0.2c0-0.2,0-0.4,0-0.6v-0.8
	c0-0.6-0.2-1-0.5-1.3c-0.3-0.3-0.8-0.4-1.4-0.4h-3.2v2.9H60c0.2,0,0.3,0,0.5,0.1c0.1,0.1,0.2,0.2,0.2,0.5v10.3h3.5v-5.5
	c0-0.4,0-0.8,0.1-1.2c0.1-0.4,0.1-0.7,0.2-1.1c0.1-0.5,0.4-0.9,0.7-1.3c0.5-0.7,1.2-1.2,2-1.4c0.4-0.1,0.8-0.2,1.1-0.2
	c0.3,0,0.5,0,0.6,0c0.2,0,0.2,0,0.2,0v-3.4c-0.1,0-0.1,0-0.2,0C68.8-63.4,68.7-63.4,68.5-63.4 M105.3-62.9c-0.3,0.2-0.5,0.6-0.7,1.1
	l-2,7.7c-0.1,0.2-0.1,0.5-0.2,0.7c0,0.3-0.1,0.5-0.1,0.8h-0.1c0-0.1,0-0.1,0-0.2c0-0.1-0.1-0.3-0.1-0.5c-0.1-0.2-0.1-0.5-0.2-0.7
	l-2.6-9h-3.1l-2.6,9c-0.1,0.2-0.1,0.5-0.2,0.7c0,0.2-0.1,0.4-0.1,0.5l0,0.2h-0.1l0-0.2c0-0.1-0.1-0.3-0.1-0.5c0-0.2-0.1-0.5-0.2-0.7
	l-2.1-7.7c-0.1-0.5-0.4-0.9-0.7-1.1c-0.3-0.2-0.8-0.3-1.3-0.3h-2.4v2.9h0.4c0.2,0,0.4,0,0.5,0.1c0.1,0.1,0.2,0.2,0.3,0.4L91-49.3h4
	l2.4-7.9c0.1-0.2,0.1-0.5,0.2-0.7l0.1-0.6l0-0.2h0.1c0,0,0,0.1,0,0.2s0.1,0.3,0.1,0.6c0.1,0.2,0.1,0.5,0.2,0.7l2.4,7.9h4l3.4-10.4
	c0.1-0.2,0.2-0.3,0.3-0.4c0.1-0.1,0.3-0.1,0.5-0.1h0.4v-2.9h-2.4C106.1-63.2,105.6-63.1,105.3-62.9 M120.2-54.3
	c-0.2,0.6-0.5,1-0.8,1.4c-0.3,0.3-0.7,0.6-1.1,0.8c-0.4,0.2-0.9,0.3-1.3,0.3c-0.7,0-1.3-0.2-1.8-0.5c-0.5-0.4-0.9-0.9-1.2-1.5
	c-0.3-0.7-0.4-1.4-0.4-2.3c0-0.7,0.1-1.3,0.3-1.8c0.2-0.5,0.4-1,0.8-1.3c0.6-0.7,1.5-1.1,2.5-1.1c0.6,0,1.1,0.1,1.5,0.4
	c0.4,0.2,0.8,0.6,1.1,1c0.3,0.4,0.5,0.9,0.7,1.4c0.1,0.5,0.2,1,0.2,1.6C120.5-55.5,120.4-54.9,120.2-54.3z M124.6-52.3
	c-0.2,0-0.3-0.1-0.4-0.2c-0.1-0.1-0.2-0.3-0.2-0.4v-13.9c0-0.6-0.1-1.1-0.5-1.4c-0.3-0.3-0.8-0.4-1.4-0.4h-3.3v2.9h1.1
	c0.2,0,0.3,0,0.4,0.1c0.1,0.1,0.2,0.2,0.2,0.5v2.4c0,0.2,0,0.4,0,0.6c0,0.2,0,0.2,0,0.2h-0.1c0,0,0-0.1-0.1-0.2
	c-0.1-0.2-0.3-0.3-0.4-0.4c-0.2-0.2-0.5-0.4-0.8-0.5c-0.4-0.2-0.8-0.3-1.2-0.4c-0.5-0.1-1.1-0.2-1.6-0.2c-0.9,0-1.8,0.2-2.6,0.5
	c-0.8,0.3-1.5,0.8-2,1.5c-0.6,0.7-1,1.4-1.3,2.3c-0.3,0.9-0.5,1.9-0.5,3c0,1.1,0.2,2.1,0.4,2.9c0.3,0.9,0.7,1.7,1.3,2.3
	c0.5,0.6,1.2,1.1,2,1.5c0.8,0.3,1.6,0.5,2.6,0.5c0.6,0,1.1-0.1,1.7-0.2c0.5-0.1,0.9-0.3,1.2-0.6c0.3-0.2,0.6-0.4,0.8-0.7
	c0.2-0.2,0.4-0.5,0.6-0.8h0.1v0.5c0,0.3,0.1,0.5,0.2,0.7c0.1,0.2,0.3,0.4,0.6,0.5c0.3,0.1,0.6,0.2,1,0.2h3.2v-2.9H124.6L124.6-52.3z
	 M56.3-53.7c-0.1,0.1-0.3,0.3-0.6,0.5c-0.3,0.2-0.6,0.4-0.9,0.6c-0.4,0.2-0.8,0.3-1.2,0.5c-0.4,0.1-0.9,0.2-1.4,0.2
	c-0.6,0-1.1-0.1-1.6-0.3c-0.5-0.2-1-0.4-1.4-0.8c-0.4-0.4-0.8-0.8-1-1.3c-0.2-0.5-0.4-1.1-0.4-1.9c0-0.8,0.2-1.6,0.5-2.2
	c0.3-0.6,0.8-1.2,1.5-1.5c0.6-0.4,1.4-0.6,2.2-0.6c0.2,0,0.4,0,0.7,0.1c0.2,0,0.5,0.1,0.7,0.2c0.2,0.1,0.4,0.2,0.5,0.3
	c0.1,0.1,0.2,0.3,0.2,0.5v0.8h3.1v-1.6c0-0.4-0.1-0.9-0.4-1.2c-0.2-0.4-0.6-0.7-0.9-0.9c-0.4-0.2-0.8-0.4-1.2-0.6
	c-0.4-0.1-0.9-0.2-1.4-0.3c-0.4-0.1-0.8-0.1-1.2-0.1c-1.2,0-2.3,0.2-3.2,0.6c-1,0.4-1.8,0.9-2.4,1.6c-0.7,0.7-1.2,1.4-1.5,2.3
	c-0.3,0.9-0.5,1.8-0.5,2.8c0,1,0.2,1.9,0.5,2.8c0.3,0.9,0.9,1.6,1.5,2.3c0.7,0.7,1.5,1.2,2.4,1.6c0.9,0.4,2,0.6,3.2,0.6
	c0.7,0,1.4-0.1,2.1-0.3c0.6-0.1,1.1-0.4,1.7-0.6c0.5-0.2,0.9-0.5,1.2-0.7c0.4-0.3,0.7-0.6,1-0.9l-1.5-2.4
	C56.5-53.9,56.4-53.8,56.3-53.7 M81.7-54.5c-0.2,0.5-0.5,1-0.9,1.4c-0.4,0.4-0.8,0.7-1.3,0.9C79-52.1,78.4-52,77.8-52
	c-0.6,0-1.1-0.1-1.6-0.3c-0.5-0.2-1-0.5-1.3-0.9c-0.4-0.4-0.7-0.9-0.9-1.4c-0.2-0.6-0.3-1.2-0.3-1.8c0-0.6,0.1-1.2,0.3-1.8
	c0.2-0.5,0.5-1,0.9-1.4c0.4-0.4,0.8-0.7,1.3-0.9c0.5-0.2,1.1-0.3,1.6-0.3c1.1,0,2.2,0.4,3,1.2c0.4,0.4,0.7,0.8,0.9,1.4
	c0.2,0.5,0.3,1.1,0.3,1.8C82.1-55.7,81.9-55.1,81.7-54.5 M83.3-61.5c-0.7-0.7-1.6-1.2-2.5-1.5c-1-0.4-2-0.5-3-0.5
	c-1,0-2.1,0.2-3,0.5c-0.9,0.3-1.7,0.8-2.5,1.5c-0.7,0.6-1.3,1.4-1.6,2.3c-0.4,0.9-0.6,1.9-0.6,2.9c0,1.1,0.2,2,0.6,2.9
	c0.4,0.9,0.9,1.6,1.6,2.3c0.7,0.7,1.5,1.2,2.5,1.5c1,0.4,2,0.5,3,0.5c1.1,0,2.1-0.2,3-0.5c0.9-0.3,1.7-0.8,2.5-1.5
	c0.7-0.6,1.3-1.4,1.7-2.3c0.4-0.9,0.6-1.9,0.6-2.9c0-1.1-0.2-2-0.6-2.9C84.6-60.1,84-60.8,83.3-61.5"/>
</svg>
